<svg xmlns="http://www.w3.org/2000/svg" width="448" height="301" fill="none"><path fill="#fff" d="M369.004 236.469H47.516c-6.362 0-11.528-5.166-11.528-11.528V12.223C35.988 5.86 41.154.695 47.516.695h321.488c6.362 0 11.528 5.165 11.528 11.528v212.701c0 6.379-5.166 11.545-11.528 11.545Z"/><path fill="#1D1D1D" d="M369.005 236.83H47.518c-6.56 0-11.89-5.33-11.89-11.889V12.223c0-6.56 5.33-11.889 11.89-11.889h321.487c6.559 0 11.889 5.33 11.889 11.889v212.702c0 6.559-5.33 11.905-11.889 11.905ZM47.518 1.056c-6.166 0-11.168 5.018-11.168 11.167v212.702c0 6.165 5.018 11.167 11.168 11.167h321.487c6.166 0 11.167-5.018 11.167-11.167V12.223c0-6.166-5.017-11.167-11.167-11.167H47.518Z"/><path fill="#1D1D1D" d="M380.534 21.898H35.974a.364.364 0 0 1-.36-.36v-9.315c0-6.56 5.345-11.889 11.904-11.889h321.488c6.559 0 11.905 5.33 11.905 11.889v9.314a.39.39 0 0 1-.377.36Zm-344.2-.722h343.839v-8.953c0-6.166-5.018-11.167-11.183-11.167H47.518c-6.165 0-11.183 5.018-11.183 11.167v8.953Z"/><path fill="#1D1D1D" d="M50.962 15.896a4.325 4.325 0 0 1-4.33-4.329 4.336 4.336 0 0 1 4.33-4.329 4.325 4.325 0 0 1 4.33 4.33 4.336 4.336 0 0 1-4.33 4.328Zm0-7.936a3.618 3.618 0 0 0-3.608 3.607 3.618 3.618 0 0 0 3.608 3.608 3.618 3.618 0 0 0 3.608-3.608 3.618 3.618 0 0 0-3.608-3.607ZM62.556 15.896a4.325 4.325 0 0 1-4.33-4.329 4.336 4.336 0 0 1 4.33-4.329 4.325 4.325 0 0 1 4.329 4.33 4.336 4.336 0 0 1-4.33 4.328Zm0-7.936a3.618 3.618 0 0 0-3.608 3.607 3.618 3.618 0 0 0 3.608 3.608 3.618 3.618 0 0 0 3.607-3.608 3.618 3.618 0 0 0-3.607-3.607ZM74.134 15.896a4.325 4.325 0 0 1-4.33-4.329 4.336 4.336 0 0 1 4.33-4.329 4.325 4.325 0 0 1 4.329 4.33c.016 2.393-1.935 4.328-4.33 4.328Zm0-7.936a3.618 3.618 0 0 0-3.608 3.607 3.618 3.618 0 0 0 3.608 3.608 3.618 3.618 0 0 0 3.607-3.608c.017-1.984-1.607-3.607-3.607-3.607Z"/><path fill="#fff" d="M284.685 269.118H131.82c-4.476 0-8.117 3.624-8.117 8.1 0 4.477 3.624 8.101 8.117 8.101h152.865c4.476 0 8.117-3.624 8.117-8.101 0-4.476-3.641-8.1-8.117-8.1Z"/><path fill="#1D1D1D" d="M284.686 285.68H131.822c-4.674 0-8.478-3.805-8.478-8.462 0-4.673 3.804-8.461 8.478-8.461h8.215c.197 0 .361.164.361.361 0 .196-.164.36-.361.36h-8.215c-4.28 0-7.757 3.477-7.757 7.74 0 4.264 3.477 7.74 7.757 7.74h152.864c4.28 0 7.756-3.476 7.756-7.74 0-4.263-3.476-7.74-7.756-7.74h-8.937a.364.364 0 0 1-.361-.36c0-.197.164-.361.361-.361h8.937c4.674 0 8.478 3.804 8.478 8.461s-3.804 8.462-8.478 8.462Z"/><path fill="#fff" d="M264.91 236.715H151.598v32.419H264.91v-32.419Z"/><path fill="#1D1D1D" d="M264.911 269.495H151.599a.364.364 0 0 1-.361-.361v-32.419c0-.197.164-.361.361-.361.197 0 .361.164.361.361v32.058h112.59v-32.058c0-.197.164-.361.361-.361.197 0 .361.164.361.361v32.419c.016.197-.148.361-.361.361Z"/><path fill="#E2EAFF" d="M195.349 91.675c-.22.042-.426.097-.632.151a22.033 22.033 0 0 0-3.473-5.49c.151-.165.288-.33.412-.508 1.702-2.403 1.126-5.739-1.291-7.441a5.357 5.357 0 0 0-7.454 1.277c-.123.178-.233.37-.343.549a21.514 21.514 0 0 0-6.356-1.428c-.014-.22-.027-.425-.068-.645a5.34 5.34 0 0 0-6.178-4.352c-2.91.494-4.86 3.267-4.365 6.164.041.22.096.426.151.632a21.712 21.712 0 0 0-5.505 3.473c-.165-.138-.33-.289-.508-.412a5.357 5.357 0 0 0-7.454 1.276c-1.703 2.403-1.126 5.739 1.29 7.44.179.124.371.234.549.344a21.44 21.44 0 0 0-1.427 6.342 5.15 5.15 0 0 0-.646.069c-2.91.494-4.859 3.267-4.365 6.164.494 2.896 3.267 4.859 6.177 4.351.22-.041.426-.096.632-.151a22.016 22.016 0 0 0 3.473 5.491c-.151.165-.288.33-.412.508-1.702 2.403-1.126 5.739 1.291 7.441a5.358 5.358 0 0 0 7.454-1.277c.123-.178.233-.371.343-.549a21.53 21.53 0 0 0 6.356 1.428c.014.219.027.425.069.645a5.34 5.34 0 0 0 6.177 4.352 5.345 5.345 0 0 0 4.365-6.164c-.041-.22-.096-.426-.151-.632a21.703 21.703 0 0 0 5.505-3.473c.165.138.33.289.508.412a5.357 5.357 0 0 0 7.454-1.277c1.703-2.402 1.126-5.738-1.29-7.44-.179-.124-.371-.233-.549-.343a21.438 21.438 0 0 0 1.427-6.342c.22-.014.426-.028.646-.069 2.91-.494 4.859-3.267 4.365-6.164-.494-2.896-3.267-4.846-6.177-4.352Zm-19.054 18.766c-5.409.934-10.543-2.69-11.477-8.085-.933-5.395 2.691-10.53 8.1-11.463 5.408-.933 10.542 2.69 11.476 8.086.933 5.395-2.691 10.529-8.099 11.462Z"/><path fill="#fff" d="M201.734 26.098a5.825 5.825 0 0 0-.741.248 26.175 26.175 0 0 0-4.777-6.192c.151-.206.302-.425.439-.645a6.415 6.415 0 0 0-2.375-8.772 6.44 6.44 0 0 0-8.786 2.375 5.514 5.514 0 0 0-.343.7 26.259 26.259 0 0 0-7.77-1.002 7.45 7.45 0 0 0-.151-.769 6.442 6.442 0 0 0-7.893-4.53 6.411 6.411 0 0 0-4.53 7.88c.068.26.151.494.247.741a26.224 26.224 0 0 0-6.205 4.777 10.893 10.893 0 0 0-.645-.439 6.44 6.44 0 0 0-8.786 2.375 6.414 6.414 0 0 0 3.075 9.115 26.1 26.1 0 0 0-1.002 7.756 7.591 7.591 0 0 0-.769.151 6.411 6.411 0 0 0-4.53 7.88 6.442 6.442 0 0 0 8.635 4.283 26.149 26.149 0 0 0 4.777 6.191 11.02 11.02 0 0 0-.44.646 6.416 6.416 0 0 0 2.375 8.771 6.44 6.44 0 0 0 8.786-2.374c.137-.234.247-.467.343-.7a26.263 26.263 0 0 0 7.77 1.002c.041.26.083.507.151.768a6.444 6.444 0 0 0 7.894 4.53 6.412 6.412 0 0 0 4.53-7.88 6.794 6.794 0 0 0-.247-.74 26.264 26.264 0 0 0 6.205-4.778c.206.151.425.302.645.44a6.44 6.44 0 0 0 8.786-2.375 6.416 6.416 0 0 0-3.075-9.116 26.132 26.132 0 0 0 1.002-7.756c.261-.04.508-.082.768-.15a6.413 6.413 0 0 0 4.531-7.88 6.444 6.444 0 0 0-7.894-4.53Zm-20.729 24.6c-6.369 1.716-12.945-2.045-14.661-8.4-1.716-6.357 2.045-12.919 8.429-14.635 6.37-1.716 12.945 2.046 14.661 8.402 1.716 6.37-2.059 12.918-8.429 14.634Z"/><path fill="#1D1D1D" d="M184.78 71.386c-2.965 0-5.697-1.977-6.507-4.97a19.222 19.222 0 0 1-.124-.535 26.507 26.507 0 0 1-7.344-.947 8.269 8.269 0 0 1-.247.494c-1.853 3.213-5.985 4.325-9.198 2.485a6.656 6.656 0 0 1-3.143-4.077 6.708 6.708 0 0 1 .659-5.107c.082-.15.178-.302.302-.467a26.332 26.332 0 0 1-4.517-5.848 4.525 4.525 0 0 1-.521.165c-3.583.975-7.29-1.153-8.264-4.736a6.704 6.704 0 0 1 .658-5.107 6.65 6.65 0 0 1 4.091-3.143c.165-.042.344-.083.536-.124a26.385 26.385 0 0 1 .947-7.33 8.17 8.17 0 0 1-.494-.248 6.658 6.658 0 0 1-3.144-4.077 6.713 6.713 0 0 1 .659-5.106c1.853-3.213 5.985-4.325 9.198-2.485.151.082.302.178.466.302a26.834 26.834 0 0 1 5.862-4.516 6.717 6.717 0 0 1 .494-5.628 6.65 6.65 0 0 1 4.091-3.145c3.583-.974 7.29 1.154 8.264 4.737.041.164.083.343.124.535a26.511 26.511 0 0 1 7.344.947 8.3 8.3 0 0 1 .247-.494c1.853-3.212 5.985-4.324 9.198-2.485a6.653 6.653 0 0 1 3.143 4.077 6.712 6.712 0 0 1-.658 5.107 3.83 3.83 0 0 1-.303.467 26.334 26.334 0 0 1 4.517 5.848c.178-.069.357-.124.522-.165 3.583-.975 7.289 1.153 8.264 4.736a6.717 6.717 0 0 1-4.75 8.25 16.01 16.01 0 0 1-.536.124 26.385 26.385 0 0 1-.947 7.33c.179.083.343.165.494.248a6.658 6.658 0 0 1 3.144 4.077 6.708 6.708 0 0 1-.659 5.107c-1.853 3.212-5.985 4.324-9.197 2.484a3.804 3.804 0 0 1-.467-.302 26.831 26.831 0 0 1-5.862 4.517c.069.178.124.357.165.521a6.705 6.705 0 0 1-.659 5.107 6.644 6.644 0 0 1-4.091 3.144 7.11 7.11 0 0 1-1.757.233Zm-6.37-6.122c.151 0 .275.11.302.26.041.275.083.508.151.728.879 3.253 4.256 5.189 7.523 4.31a6.12 6.12 0 0 0 4.324-7.51 4.3 4.3 0 0 0-.247-.699.316.316 0 0 1 .137-.384 26.053 26.053 0 0 0 6.137-4.722.296.296 0 0 1 .398-.028c.22.165.425.302.618.412a6.134 6.134 0 0 0 8.978-6.905 6.101 6.101 0 0 0-3.542-4.05.308.308 0 0 1-.179-.357 26.187 26.187 0 0 0 1.002-7.66c0-.15.11-.288.261-.302.275-.041.508-.082.728-.15a6.127 6.127 0 0 0 3.72-2.856 6.095 6.095 0 0 0 .604-4.64c-.878-3.254-4.255-5.19-7.523-4.31a4.326 4.326 0 0 0-.7.247.315.315 0 0 1-.384-.138 26.255 26.255 0 0 0-4.723-6.122.297.297 0 0 1-.027-.399c.165-.22.302-.425.412-.617a6.091 6.091 0 0 0 .604-4.64 6.103 6.103 0 0 0-2.869-3.72 6.133 6.133 0 0 0-8.374 2.265c-.11.192-.22.412-.33.672a.307.307 0 0 1-.357.179 25.932 25.932 0 0 0-7.687-.989c-.151 0-.288-.11-.302-.26a4.766 4.766 0 0 0-.151-.728c-.879-3.253-4.256-5.19-7.523-4.31a6.127 6.127 0 0 0-3.72 2.855 6.094 6.094 0 0 0-.604 4.64c.055.22.137.453.247.7a.316.316 0 0 1-.137.384 26.056 26.056 0 0 0-6.137 4.723.296.296 0 0 1-.398.027 5.968 5.968 0 0 0-.617-.412 6.133 6.133 0 0 0-8.374 2.265 6.086 6.086 0 0 0-.604 4.64 6.096 6.096 0 0 0 3.541 4.05c.138.055.22.22.179.357a26.282 26.282 0 0 0-1.002 7.66c0 .151-.11.288-.261.302a4.845 4.845 0 0 0-.728.151 6.13 6.13 0 0 0-3.72 2.855 6.1 6.1 0 0 0-.604 4.64c.879 3.254 4.256 5.19 7.523 4.31a4.81 4.81 0 0 0 .7-.246.315.315 0 0 1 .384.137 26.253 26.253 0 0 0 4.723 6.123c.11.11.123.274.027.398-.165.22-.302.425-.412.617a6.09 6.09 0 0 0-.604 4.64 6.103 6.103 0 0 0 2.869 3.72 6.133 6.133 0 0 0 8.374-2.264c.11-.193.22-.412.33-.673a.307.307 0 0 1 .357-.179 25.5 25.5 0 0 0 7.687 1.003Zm-.521-13.838c-5.409 0-10.365-3.597-11.834-9.047a12.162 12.162 0 0 1 1.208-9.293 12.193 12.193 0 0 1 7.427-5.711c6.521-1.757 13.275 2.1 15.032 8.621a12.162 12.162 0 0 1-1.208 9.294 12.19 12.19 0 0 1-7.427 5.71 12.275 12.275 0 0 1-3.198.426Zm-.014-23.873c-1.002 0-2.018.138-3.034.399a11.598 11.598 0 0 0-7.07 5.436 11.478 11.478 0 0 0-1.139 8.827c1.4 5.175 6.122 8.593 11.257 8.593 1.002 0 2.018-.137 3.033-.398a11.593 11.593 0 0 0 7.07-5.436 11.482 11.482 0 0 0 1.14-8.827c-1.401-5.175-6.109-8.593-11.257-8.593Z"/><path fill="#fff" d="M141.662 60.486a6.729 6.729 0 0 0-.906.22 31.317 31.317 0 0 0-4.983-7.866c.206-.234.398-.467.591-.728a7.628 7.628 0 0 0-1.84-10.653c-3.459-2.43-8.237-1.606-10.666 1.84-.179.26-.344.522-.481.796a31.59 31.59 0 0 0-9.088-2.045 6.83 6.83 0 0 0-.096-.92c-.714-4.16-4.681-6.946-8.854-6.232a7.64 7.64 0 0 0-6.246 8.827c.055.315.137.604.22.906a31.371 31.371 0 0 0-7.88 4.97 10.492 10.492 0 0 0-.728-.591c-3.46-2.43-8.236-1.606-10.666 1.84a7.627 7.627 0 0 0 1.84 10.652c.26.178.52.343.795.48a30.62 30.62 0 0 0-2.045 9.075 6.965 6.965 0 0 0-.92.096 7.64 7.64 0 0 0-6.246 8.826c.714 4.16 4.681 6.947 8.855 6.233.315-.055.603-.124.906-.22a31.337 31.337 0 0 0 4.983 7.866c-.206.234-.398.467-.59.728a7.627 7.627 0 0 0 1.839 10.653c3.46 2.429 8.236 1.606 10.666-1.84.179-.261.344-.522.481-.796a31.577 31.577 0 0 0 9.088 2.045c.013.302.041.618.096.92.713 4.16 4.681 6.946 8.854 6.232a7.639 7.639 0 0 0 6.246-8.827c-.055-.315-.137-.604-.219-.906a31.342 31.342 0 0 0 7.879-4.969c.234.206.467.398.728.59 3.459 2.43 8.236 1.606 10.666-1.84a7.626 7.626 0 0 0-1.839-10.652 6.87 6.87 0 0 0-.796-.48 30.655 30.655 0 0 0 2.045-9.074c.302-.014.618-.042.92-.096a7.64 7.64 0 0 0 6.246-8.828c-.728-4.159-4.695-6.946-8.855-6.232Zm-27.277 26.838c-7.742 1.331-15.1-3.844-16.432-11.573-1.331-7.728 3.858-15.059 11.6-16.39 7.743-1.332 15.101 3.843 16.432 11.572 1.332 7.729-3.857 15.06-11.6 16.39Z"/><path fill="#1D1D1D" d="M117.308 112.212c-3.803 0-7.18-2.732-7.839-6.589a5.24 5.24 0 0 1-.082-.7 31.785 31.785 0 0 1-8.676-1.95c-.123.22-.247.412-.37.591-2.526 3.583-7.51 4.434-11.092 1.908a7.84 7.84 0 0 1-3.254-5.148 7.86 7.86 0 0 1 1.345-5.93c.124-.179.275-.357.426-.55a31.199 31.199 0 0 1-4.75-7.495c-.247.069-.467.11-.686.151-4.325.742-8.456-2.169-9.198-6.48a7.86 7.86 0 0 1 1.346-5.93 7.976 7.976 0 0 1 5.147-3.253c.22-.041.44-.069.7-.083a31.629 31.629 0 0 1 1.95-8.648 7.839 7.839 0 0 1-3.844-5.519 7.86 7.86 0 0 1 1.345-5.93c2.526-3.583 7.51-4.434 11.092-1.908.179.123.357.274.55.425a31.661 31.661 0 0 1 7.509-4.736c-.07-.247-.11-.466-.151-.686a7.86 7.86 0 0 1 1.345-5.93 7.976 7.976 0 0 1 5.148-3.254c4.324-.741 8.456 2.17 9.197 6.48.042.22.069.439.083.7 2.979.247 5.889.892 8.676 1.95a7.37 7.37 0 0 1 .37-.591c2.526-3.583 7.509-4.434 11.092-1.908a7.838 7.838 0 0 1 3.254 5.148 7.857 7.857 0 0 1-1.346 5.93c-.123.178-.274.357-.425.55a31.2 31.2 0 0 1 4.75 7.494c.247-.068.466-.11.686-.15 4.324-.742 8.456 2.168 9.198 6.479a7.857 7.857 0 0 1-1.346 5.93 7.974 7.974 0 0 1-5.148 3.254 5.153 5.153 0 0 1-.7.082 31.628 31.628 0 0 1-1.949 8.649 7.838 7.838 0 0 1 3.844 5.519 7.857 7.857 0 0 1-1.346 5.93c-2.525 3.583-7.509 4.434-11.092 1.908-.178-.124-.356-.275-.549-.426a31.67 31.67 0 0 1-7.509 4.736c.069.247.11.467.151.687a7.86 7.86 0 0 1-1.345 5.93 7.972 7.972 0 0 1-5.148 3.253c-.453.069-.906.11-1.359.11Zm-16.72-9.925c.041 0 .068 0 .109.014a31.208 31.208 0 0 0 9.006 2.032.296.296 0 0 1 .274.288c.014.329.042.618.097.892.686 3.995 4.502 6.672 8.497 5.985a7.307 7.307 0 0 0 4.763-3.006 7.203 7.203 0 0 0 1.236-5.477 6.453 6.453 0 0 0-.206-.865.317.317 0 0 1 .165-.371 30.922 30.922 0 0 0 7.797-4.914.31.31 0 0 1 .398 0c.247.22.481.412.7.563 3.309 2.333 7.908 1.537 10.255-1.758 1.126-1.606 1.579-3.541 1.235-5.477a7.248 7.248 0 0 0-3.006-4.75 8.741 8.741 0 0 0-.769-.467.293.293 0 0 1-.137-.37 30.662 30.662 0 0 0 2.032-8.992.297.297 0 0 1 .288-.274c.343-.014.618-.042.892-.097a7.313 7.313 0 0 0 4.764-3.006 7.202 7.202 0 0 0 1.235-5.477c-.686-3.995-4.502-6.672-8.497-5.986-.261.042-.549.11-.865.206a.316.316 0 0 1-.371-.164 31.12 31.12 0 0 0-4.928-7.784.311.311 0 0 1 0-.398c.22-.247.412-.467.563-.687 1.126-1.606 1.579-3.541 1.236-5.477a7.253 7.253 0 0 0-3.007-4.75c-3.308-2.333-7.907-1.537-10.254 1.758-.151.22-.302.466-.467.768a.294.294 0 0 1-.371.137 31.201 31.201 0 0 0-9.005-2.031.297.297 0 0 1-.275-.288 5.754 5.754 0 0 0-.096-.893c-.686-3.995-4.503-6.671-8.497-5.985a7.313 7.313 0 0 0-4.764 3.006 7.205 7.205 0 0 0-1.235 5.478c.04.26.11.549.206.864a.316.316 0 0 1-.165.371 30.912 30.912 0 0 0-7.798 4.915.31.31 0 0 1-.398 0 7.395 7.395 0 0 0-.7-.563c-3.308-2.334-7.907-1.538-10.254 1.757-1.126 1.606-1.58 3.542-1.236 5.477a7.25 7.25 0 0 0 3.007 4.75c.22.151.466.302.768.467.138.069.192.233.138.37a30.661 30.661 0 0 0-2.032 8.992.297.297 0 0 1-.288.275 5.55 5.55 0 0 0-.893.096 7.312 7.312 0 0 0-4.763 3.006 7.204 7.204 0 0 0-1.236 5.478c.687 3.994 4.503 6.671 8.498 5.985.274-.041.549-.11.865-.206.15-.041.301.028.356.165a31.13 31.13 0 0 0 4.929 7.783.31.31 0 0 1 0 .398c-.22.248-.412.467-.563.687-1.126 1.606-1.579 3.542-1.236 5.477a7.25 7.25 0 0 0 3.007 4.75c3.308 2.334 7.907 1.538 10.254-1.757.151-.22.316-.467.467-.769a.352.352 0 0 1 .275-.151Zm11.38-14.442c-6.933 0-13.083-4.983-14.304-12.039a14.358 14.358 0 0 1 2.443-10.817 14.463 14.463 0 0 1 9.404-5.93c7.893-1.36 15.416 3.94 16.775 11.82a14.356 14.356 0 0 1-2.444 10.816 14.458 14.458 0 0 1-9.403 5.93c-.824.152-1.661.22-2.471.22Zm.014-28.388c-.783 0-1.579.068-2.375.206a13.821 13.821 0 0 0-9.006 5.683c-2.141 3.034-2.979 6.713-2.347 10.364 1.304 7.55 8.525 12.63 16.075 11.326a13.82 13.82 0 0 0 9.005-5.684 13.783 13.783 0 0 0 2.348-10.364c-1.153-6.754-7.056-11.531-13.7-11.531Z"/><path fill="#1D1D1D" d="M111.873 118.706c-1.95 0-3.913-.124-5.89-.371-12.121-1.551-22.911-7.715-30.379-17.379-7.468-9.665-10.735-21.649-9.184-33.757 3.199-24.998 26.151-42.734 51.177-39.536a45.577 45.577 0 0 1 10.996 2.815.299.299 0 0 1 .165.398c-.069.164-.234.233-.398.164a45.892 45.892 0 0 0-10.859-2.773C92.819 25.11 70.154 42.613 66.997 67.282c-1.524 11.943 1.688 23.776 9.06 33.303 7.372 9.527 18.025 15.622 29.981 17.146 13.81 1.771 27.428-2.814 37.381-12.575a.304.304 0 0 1 .426 0 .304.304 0 0 1 0 .426c-8.649 8.497-20.057 13.124-31.972 13.124Z"/><path fill="#1D1D1D" d="M92.902 119.255a.255.255 0 0 1-.11-.028c-11.435-4.612-20.701-13.302-26.096-24.435a49.472 49.472 0 0 1-2.842-35.898A49.746 49.746 0 0 1 96.142 25.92a.308.308 0 0 1 .384.192.308.308 0 0 1-.192.385c-15.348 4.983-27.277 17.16-31.917 32.575-7.344 24.436 4.942 50.065 28.595 59.606.15.069.233.234.165.398a.287.287 0 0 1-.275.179ZM174.374 132.804a32.073 32.073 0 0 1-29.748-20.056c-.069-.151.014-.33.165-.398.151-.069.329.013.398.164a31.485 31.485 0 0 0 25.177 19.425c1.345.179 2.69.261 4.008.261 15.567 0 29.13-11.586 31.148-27.428a31.37 31.37 0 0 0-7.907-25.094c-.11-.124-.11-.316.014-.426.123-.11.316-.11.425.014a31.969 31.969 0 0 1 8.059 25.588c-2.046 16.13-15.87 27.95-31.739 27.95Z"/><path fill="#fff" d="m336.443 213.609-72.185.132c-1.558 0-2.542-1.689-1.771-3.05l35.978-62.527a2.032 2.032 0 0 1 3.525 0l36.208 62.395c.787 1.345-.181 3.034-1.755 3.05Z"/><path fill="#fff" d="m327.669 208.018-54.656.098c-1.393 0-2.279-1.508-1.574-2.722l27.238-47.342a1.816 1.816 0 0 1 3.148 0l27.418 47.244a1.809 1.809 0 0 1-1.574 2.722Z"/><path fill="#1D1D1D" d="M264.255 214.102a2.338 2.338 0 0 1-2.066-1.197c-.426-.755-.443-1.64 0-2.395l25.024-43.504a.355.355 0 0 1 .492-.131c.18.098.229.328.131.492l-25.024 43.504a1.692 1.692 0 0 0 0 1.673c.296.525.837.836 1.443.836l72.185-.131c.607 0 1.148-.312 1.444-.836a1.692 1.692 0 0 0 0-1.673l-36.208-62.395a1.633 1.633 0 0 0-1.443-.837c-.607 0-1.148.312-1.443.837l-2.312 4.017a.354.354 0 0 1-.492.131.354.354 0 0 1-.131-.491l2.312-4.018a2.356 2.356 0 0 1 2.066-1.197c.869 0 1.64.443 2.066 1.197l36.208 62.395c.426.755.442 1.64 0 2.394a2.356 2.356 0 0 1-2.067 1.197l-72.185.132Z"/><path fill="#1D1D1D" d="M273.029 208.493a2.17 2.17 0 0 1-1.886-1.082 2.16 2.16 0 0 1 0-2.181l17.759-30.878a.356.356 0 0 1 .492-.131c.18.098.23.328.131.492l-17.759 30.878c-.262.459-.262 1 0 1.459.262.459.738.722 1.263.722l54.655-.099c.525 0 1-.278 1.263-.738.262-.459.262-1 0-1.459l-27.418-47.243c-.099-.181-.049-.394.131-.492.18-.099.394-.049.492.131l27.418 47.243a2.165 2.165 0 0 1 0 2.181 2.151 2.151 0 0 1-1.886 1.099l-54.655.098Z"/><path fill="#0098C7" d="M298.591 191.57h-6.297l-3.083-37.191h12.053l-2.673 37.191ZM298.577 196.162h-6.28v6.116h6.28v-6.116ZM189.152 201.213c-8.954-2.64-18.399-3.198-27.648-1.853-57.066 8.314-66.986 17.661-66.986 17.661-10.954 7.215-24.893 27.631-24.893 27.631l22.384 17.316-16.973 38.389 94.012-.033 19.317-62.773s7.592 2.345 17.923 2.87l9.38-33.288c-9.38-.246-23.991-5.166-26.516-5.92Z"/><path fill="#1D1D1D" d="M199.81 237.026c-.033 0-.082 0-.115-.016a.354.354 0 0 1-.229-.459l9.461-28.304a.355.355 0 0 1 .459-.229.354.354 0 0 1 .23.459l-9.462 28.303a.362.362 0 0 1-.344.246ZM189.07 236.633a.37.37 0 0 1-.361-.328c-.23-2.673 1.82-5.297 4.477-5.707a.355.355 0 0 1 .41.295.355.355 0 0 1-.296.41c-2.262.345-4.066 2.657-3.87 4.92a.364.364 0 0 1-.327.393c-.017.017-.017.017-.033.017ZM100.645 267.101a.35.35 0 0 1-.262-.115.36.36 0 0 1 0-.508l4.575-4.477c.951-.935 1.361-2.312 1.033-3.591-3.64-14.759-25.597-21.318-25.81-21.384-.197-.049-.296-.262-.247-.442.05-.197.263-.295.443-.246.23.065 22.564 6.739 26.319 21.908.378 1.525-.098 3.181-1.23 4.296l-4.575 4.477a.442.442 0 0 1-.246.082Z"/><path fill="#fff" d="M206.566 239.683c21.171 2.706 32.633-2.05 38.372-11.413 15.398-25.188 4.149-78.187 4.149-78.187 3.854-8.363-1.312-8.691-1.312-8.691-1.279-4.641-4.772-3.132-4.772-3.132-3.739-4.346-6.953.131-6.953.131.607-7.248-2.476-16.775-6.788-.229-4.313 16.545-4.838 51.392-7.626 65.248-.82 4.1-2.213 5.1-6.395 5.034l-8.675 31.239Z"/><path fill="#1D1D1D" d="M217.486 240.798c-3.378 0-7.035-.246-10.971-.754-.196-.033-.344-.213-.311-.41.033-.197.213-.345.41-.312 19.432 2.493 31.862-1.197 38.011-11.249 7.904-12.922 8.593-33.42 7.789-48.326-.869-16.185-3.673-29.467-3.69-29.598a.38.38 0 0 1 .033-.23c1.443-3.148 1.771-5.559.951-6.953-.688-1.148-1.935-1.246-1.951-1.246a.389.389 0 0 1-.328-.262c-.394-1.444-1.05-2.411-1.951-2.837-1.148-.558-2.313-.066-2.329-.066a.352.352 0 0 1-.41-.098c-1.049-1.23-2.148-1.821-3.247-1.771-1.82.082-3.115 1.853-3.132 1.885a.38.38 0 0 1-.426.132.365.365 0 0 1-.23-.378c.361-4.23-.574-8.773-1.853-8.986-.426-.065-2 .345-4.231 8.872-2.459 9.412-3.706 25.073-4.804 38.864-.837 10.478-1.624 20.399-2.821 26.351-.852 4.198-2.361 5.379-6.756 5.33a.364.364 0 0 1-.361-.361c0-.197.164-.361.361-.361 4.067.05 5.264-.869 6.035-4.755 1.197-5.92 1.984-15.808 2.82-26.27 1.099-13.84 2.345-29.517 4.821-38.995 1.722-6.609 3.378-9.691 5.051-9.413 1.902.328 2.64 5.051 2.509 8.724.64-.607 1.689-1.328 2.968-1.394 1.279-.065 2.509.558 3.673 1.837.476-.148 1.574-.361 2.673.164 1.05.508 1.804 1.541 2.28 3.066.491.099 1.59.427 2.262 1.558.968 1.607.673 4.149-.852 7.511.279 1.361 2.853 14.168 3.689 29.582.82 15.021.099 35.666-7.887 48.752-5.1 8.33-14.234 12.397-27.795 12.397Z"/><path fill="#1D1D1D" d="M236.95 161.152a.37.37 0 0 1-.344-.246.36.36 0 0 1 .229-.459c1.23-.427 1.788-1.804 1.886-2.854.099-1.016-.082-2.017-.279-3.082-.049-.263-.098-.542-.147-.804-.197-1.23-.345-2.804.311-4.165.312-.64.771-1.181 1.23-1.689.197-.23.394-.459.591-.705.475-.607.984-1.525.77-2.394-.295-1.116-1.754-1.624-2.869-1.329-1.214.312-2.198 1.263-3.067 2.247-2.427 2.738-4.132 5.542-5.083 8.347a.355.355 0 0 1-.459.229.354.354 0 0 1-.23-.459c.984-2.902 2.738-5.789 5.231-8.593.951-1.066 2.017-2.115 3.427-2.476 1.443-.361 3.346.295 3.739 1.853.295 1.148-.311 2.28-.885 3.017-.197.246-.41.492-.607.722-.443.508-.853.984-1.115 1.541-.574 1.181-.443 2.608-.263 3.723.05.262.082.525.132.787.196 1.066.393 2.165.278 3.296-.131 1.263-.82 2.919-2.377 3.46-.017.033-.066.033-.099.033Z"/><path fill="#1D1D1D" d="M240.376 151.051c-.673 0-1.361-.312-1.657-.952a.36.36 0 0 1 .656-.295c.246.525 1.017.656 1.542.427.524-.214.967-.689 1.41-1.493 1.558-2.787 1.673-6.313.262-9.199a.355.355 0 0 1 .164-.476c.181-.082.394-.016.476.164 1.492 3.083 1.394 6.871-.295 9.856-.328.59-.886 1.426-1.771 1.804-.213.114-.492.164-.787.164Z"/><path fill="#1D1D1D" d="M243.856 149.853c-.542 0-1.066-.213-1.378-.606a.35.35 0 0 1 .049-.509.35.35 0 0 1 .509.05c.311.377.902.409 1.328.245.426-.163.836-.491 1.263-1.065a7.776 7.776 0 0 0 1.525-5.625c-.033-.197.114-.377.311-.41.197-.033.377.115.41.312a8.527 8.527 0 0 1-1.673 6.149c-.524.672-1.033 1.099-1.59 1.295a1.842 1.842 0 0 1-.754.164Z"/><path fill="#1D1D1D" d="M247.285 150.083c-.098 0-.18 0-.279-.017a2.051 2.051 0 0 1-1.607-1.344.354.354 0 0 1 .23-.459.354.354 0 0 1 .459.229c.147.443.574.787 1.033.869.476.066.967-.147 1.23-.524a.365.365 0 0 1 .59.426c-.361.508-1 .82-1.656.82Z"/><path fill="#fff" d="M97.748 266.002s-7.035 9.708-17.776 18.267c-10.248 8.167-25.466 4.28-30.631-7.756-5.297-12.348-11.233-28.516-14.415-44.849 0 0-10.265-1.656-9.15-8.691 0 0-9.576-2.771-5.821-12.43 0 0 1.328-11.774 5.067-11.938 3.739-.164 4.591 1.574 2.607 7.101 0 0 5.215 3.164 10.905 1.475 1.755-.524 3.017-2.066 3.23-3.886.247-2.083.492-4.87.247-6.1-.427-2.083-8.003-2.771-7.2-7.937.804-5.149 14.874-2.853 16.448.246 1.59 3.099 20.924 44.226 26.63 58.788 0-.017 15.136 3.263 19.86 17.71Z"/><path fill="#1D1D1D" d="M67.675 288.943c-1.656 0-3.328-.213-4.985-.623-6.182-1.558-11.167-5.805-13.692-11.676-4.756-11.085-11.118-27.844-14.43-44.8-1.165-.147-5.724-.869-7.921-3.706-.967-1.229-1.345-2.689-1.148-4.345-1.476-.689-8.51-4.542-5.1-13.43.05-1.361.558-10.84 4.46-11.004 1.92-.082 3.15.033 3.756.87.64.869.492 2.361-.541 5.28 1.098.59 5.591 2.722 10.347 1.295 1.607-.475 2.771-1.886 2.968-3.591.344-2.952.443-5.067.246-5.985-.115-.591-1.23-1.165-2.394-1.771-2.263-1.165-5.362-2.772-4.805-6.297.263-1.673 1.755-2.772 4.297-3.181 4.706-.755 11.675 1.033 12.84 3.312 1 1.968 20.038 41.488 27.073 60.263a.366.366 0 0 1-.213.46.366.366 0 0 1-.46-.214c-7.018-18.759-26.04-58.23-27.04-60.181-.935-1.82-7.445-3.673-12.086-2.919-1.541.246-3.427.902-3.69 2.575-.475 3.017 2.133 4.361 4.428 5.542 1.378.722 2.575 1.328 2.771 2.263.263 1.263.017 4.083-.245 6.215-.23 1.984-1.607 3.64-3.477 4.198-5.772 1.722-10.97-1.377-11.183-1.509a.34.34 0 0 1-.148-.426c.984-2.739 1.213-4.247.738-4.903-.427-.574-1.509-.64-3.149-.574-2.804.115-3.673 7.527-3.771 10.364 0 .032-.017.082-.017.114-3.574 9.216 4.592 12.529 4.936 12.66a.374.374 0 0 1 .23.393c-.246 1.558.082 2.936.967 4.067 2.296 2.952 7.642 3.46 7.691 3.46a.366.366 0 0 1 .328.295c3.296 16.989 9.675 33.797 14.43 44.915 2.428 5.658 7.232 9.757 13.201 11.249 5.936 1.493 12.086.164 16.874-3.64 1.017-.803 2-1.607 2.984-2.394.148-.131.378-.099.509.049.13.148.098.377-.05.508-.967.788-1.967 1.591-2.984 2.411-3.657 2.902-8.035 4.411-12.545 4.411Z"/><path fill="#1D1D1D" d="M40.486 223.334c-.033 0-.066 0-.098-.016l-8.101-2.395a.385.385 0 0 1-.23-.196.373.373 0 0 1-.016-.296c.656-1.623 1.41-3.476 1.18-5.313-.212-1.656-1.623-3.41-3.312-3.263-1.279.115-2.312 1.23-2.968 2.05a21.32 21.32 0 0 0-3.935 7.756.362.362 0 0 1-.443.263.362.362 0 0 1-.263-.443 22.297 22.297 0 0 1 4.067-8.035c.738-.935 1.919-2.181 3.477-2.312 2.131-.181 3.837 1.869 4.1 3.902.229 1.87-.46 3.756-1.083 5.313l7.707 2.28c.197.049.295.262.246.443a.331.331 0 0 1-.328.262Z"/><path fill="#1D1D1D" d="M28.185 212.347c-.033 0-.082 0-.115-.016a.355.355 0 0 1-.23-.459c.378-1.132.509-2.05.41-2.87-.114-1-.606-1.869-1.311-2.312-1.132-.722-2.591-.345-3.493.197-1.115.672-1.952 1.754-2.755 2.787-.115.164-.344.181-.508.066-.164-.115-.18-.345-.066-.508.803-1.034 1.722-2.214 2.952-2.969 1.426-.852 3.082-.934 4.247-.196.885.574 1.508 1.623 1.64 2.853.098.935-.033 1.935-.443 3.181-.033.164-.18.246-.328.246ZM46.046 219.103a.393.393 0 0 1-.328-.197c-2.001-4.066-1.624-9.117.95-12.856a.369.369 0 0 1 .51-.098.368.368 0 0 1 .097.508c-2.394 3.476-2.755 8.347-.885 12.118a.377.377 0 0 1-.164.492.81.81 0 0 1-.18.033Z"/><path fill="#fff" d="m55.226 234.419-2.165.312-17.153-82.32 4.133-.852 6.067-18.317-12.84-14.414-4.591.951 3.148 15.185-17.53 3.624-3.131-15.185-4.608.935-6.068 18.333 12.856 14.398 4.133-.853 17.136 82.319-1.18.246L21.74 256.54l4.313 20.793 17.76 11.676.098-.033-5.28-25.548 20.694-4.264 5.28 25.548.033-.016 11.676-17.743-4.297-20.809-16.791-11.725Z"/><path fill="#1D1D1D" d="M43.812 289.37a.317.317 0 0 1-.197-.066l-17.76-11.659a.318.318 0 0 1-.147-.23l-4.312-20.809a.41.41 0 0 1 .049-.279l11.675-17.759a.321.321 0 0 1 .23-.148l.836-.164-17.005-81.614-3.771.787a.34.34 0 0 1-.345-.114L.225 142.901a.358.358 0 0 1-.065-.361l6.067-18.317a.394.394 0 0 1 .263-.246l4.591-.951a.348.348 0 0 1 .426.279l3.067 14.84 16.808-3.476-3.066-14.841a.41.41 0 0 1 .049-.279.317.317 0 0 1 .23-.147l4.59-.951a.339.339 0 0 1 .345.115l12.84 14.414a.356.356 0 0 1 .066.36l-6.068 18.317a.394.394 0 0 1-.262.246l-3.772.787 17.005 81.631 1.837-.246c.098-.017.18.016.262.065l16.792 11.725a.318.318 0 0 1 .148.23l4.312 20.809a.41.41 0 0 1-.049.279l-11.675 17.759a.321.321 0 0 1-.23.148c-.098.016-.213 0-.279-.049a.343.343 0 0 1-.164-.23l-5.247-25.221-19.99 4.133 5.215 25.188c.033.196-.082.393-.279.426l-.098.016c-.033.017-.05.017-.082.017Zm-17.431-12.25 17.021 11.184-5.133-24.794a.409.409 0 0 1 .05-.279.32.32 0 0 1 .23-.148l20.694-4.28c.197-.032.393.082.426.279l5.116 24.729 11.135-16.94-4.247-20.514-16.546-11.561-2.034.279c-.196.033-.36-.098-.41-.279l-17.136-82.319a.41.41 0 0 1 .05-.279.317.317 0 0 1 .229-.147l3.92-.804 5.935-17.923-12.56-14.102-4.035.836 3.067 14.84a.409.409 0 0 1-.05.279.321.321 0 0 1-.229.148l-17.53 3.624c-.196.032-.393-.082-.426-.279l-3.066-14.841-4.034.837L.88 142.589l12.561 14.102 3.92-.803c.196-.033.393.082.426.279l17.136 82.319a.41.41 0 0 1-.05.279.317.317 0 0 1-.229.147l-1.033.213-11.511 17.497 4.28 20.498Z"/><path fill="#fff" d="M47.37 200.163c-.13-4.657-14.397-4.542-13.38-10.708.786-4.788 12.79-3.853 15.906-1.279l-2.526 11.987Z"/><path fill="#1D1D1D" d="M47.37 200.524a.35.35 0 0 1-.36-.344c-.05-1.886-2.936-2.968-5.986-4.116-3.755-1.41-8.002-3.017-7.395-6.658.213-1.328 1.23-2.361 2.919-2.984 4.099-1.542 11.249-.443 13.577 1.492.148.131.18.361.05.508-.132.148-.361.181-.509.049-2.148-1.771-9.035-2.804-12.873-1.361-1.459.542-2.279 1.361-2.46 2.427-.508 3.05 3.28 4.477 6.937 5.855 3.28 1.229 6.38 2.41 6.445 4.771a.331.331 0 0 1-.345.361Z"/><path fill="#fff" d="M31.351 230.746c-3.738-1.181-8.166-3.542-7.756-7.626 0 0-6.805-2.23-3.608-12.085 0 0 .738-11.085 4.313-12.266 3.559-1.181 5.1 1.886 3.427 7.51l3.624 24.467Z"/><path fill="#1D1D1D" d="M31.35 231.106c-.033 0-.066 0-.115-.016-3.132-.984-8.265-3.296-8.019-7.724-1.263-.557-6.46-3.476-3.575-12.397.066-.885.87-11.314 4.559-12.544 1.837-.607 2.902-.082 3.476.475 1.296 1.263 1.444 3.985.41 7.478-.049.197-.262.295-.442.246-.197-.049-.295-.263-.246-.443.95-3.181.869-5.707-.213-6.756-.788-.754-1.935-.59-2.755-.312-2.739.919-3.87 8.937-4.067 11.955 0 .033 0 .065-.017.082-3.05 9.396 3.313 11.61 3.378 11.626a.356.356 0 0 1 .246.377c-.41 4.1 4.526 6.297 7.494 7.232a.354.354 0 0 1 .23.459.35.35 0 0 1-.344.262Z"/><path fill="#fff" d="M23.613 223.121c.361-2.952 1.902-6.396 3.624-8.823.771-1.082 1.771-2.181 3.1-2.361 1.885-.262 3.69 1.476 3.902 3.362.263 2.295-.852 6.133-2.64 8.904l-7.986-1.082Z"/><path fill="#1D1D1D" d="M31.581 224.58a.316.316 0 0 1-.197-.065c-.164-.115-.213-.328-.098-.492 1.738-2.673 2.837-6.396 2.59-8.675-.098-.918-.622-1.82-1.41-2.427-.639-.508-1.393-.721-2.082-.623-1.28.18-2.23 1.345-2.853 2.214-1.837 2.574-3.23 5.969-3.559 8.642a.357.357 0 0 1-.41.311.35.35 0 0 1-.311-.41c.328-2.787 1.787-6.313 3.69-8.986.688-.967 1.787-2.296 3.345-2.509.901-.131 1.836.148 2.623.771.935.721 1.558 1.82 1.69 2.919.262 2.427-.886 6.346-2.706 9.134-.082.147-.197.196-.312.196Z"/><path fill="#fff" d="M19.957 211.216c.951-1.459 2.361-3.017 3.493-3.788 1.115-.771 3.263-1.525 4.444-.869.902.508 1.344 1.476 1.508 2.476.18 1.017.05 2.607-.77 3.64l-8.675-1.459Z"/><path fill="#1D1D1D" d="M28.63 213.036a.393.393 0 0 1-.23-.082c-.163-.131-.18-.344-.065-.508.722-.902.87-2.378.705-3.346-.13-.754-.459-1.738-1.328-2.23-1.017-.574-3.017.131-4.067.853-1.05.721-2.443 2.23-3.394 3.689a.368.368 0 0 1-.492.115.369.369 0 0 1-.115-.492c1-1.541 2.444-3.099 3.591-3.886 1.198-.82 3.493-1.623 4.822-.886.885.492 1.475 1.444 1.689 2.739.196 1.164.016 2.837-.853 3.919-.05.082-.164.115-.262.115Z"/><path fill="#fff" d="m140.225 180.878-7.461 22.942c-.672 2.049.361 4.296 2.296 4.985 7.067 2.558 22.055 7.1 17.333-2.28l4.329-16.956-16.497-8.691Z"/><path fill="#1D1D1D" d="M132.767 204.197c-.033 0-.082 0-.115-.016a.355.355 0 0 1-.229-.46l7.461-22.941a.418.418 0 0 1 .213-.229.413.413 0 0 1 .312.016l16.496 8.691c.148.082.23.246.181.41l-2.329 9.085a.361.361 0 0 1-.443.262.361.361 0 0 1-.262-.443l2.246-8.822-15.857-8.347-7.33 22.548a.368.368 0 0 1-.344.246Z"/><path fill="#1D1D1D" d="M148.166 166.022c6.543-1.476 8.61-3.329 8.61-3.329s2.131-1.459 1.344-5.821c-.771-4.346-8.691-10.561-17.841-1.952-9.15 8.593-20.088 16.71-11.643 17.973 0 0-4.624 8.33 7.314 6.789l4.28 5.001s6.051 12.25 16.496 8.855c10.446-3.378 7.183-7.641 5.904-11.774a1079.09 1079.09 0 0 1-1.771-5.772c-2.214.869-5.002 2.247-8.56 4.198-7.74 4.247-10.675-12.692-4.133-14.168Z"/><path fill="#fff" d="M148.164 166.022c-6.543 1.476-10.954 2.739-8.609 8.544 2.345 5.805 5.001 9.871 12.741 5.657 3.575-1.951 6.347-3.329 8.56-4.198-1.787-5.838-4.083-13.315-4.083-13.315s-2.066 1.836-8.609 3.312Z"/><path fill="#1D1D1D" d="m156.363 163.858 3.608 11.741c-2.05.852-4.624 2.132-8.019 3.985-2.001 1.098-3.755 1.656-5.165 1.656-3.116 0-4.821-2.657-6.56-6.937-.672-1.672-.754-2.951-.262-3.919.967-1.853 4.214-2.706 8.363-3.64 4.411-1.001 6.871-2.181 8.035-2.886Zm.41-1.148s-2.066 1.853-8.609 3.329c-6.543 1.475-10.954 2.738-8.609 8.543 1.673 4.132 3.509 7.396 7.232 7.396 1.492 0 3.296-.525 5.509-1.739 3.575-1.951 6.347-3.328 8.56-4.198-1.787-5.854-4.083-13.331-4.083-13.331Z"/><path fill="#fff" d="M140.227 180.14s-5.28-5.362-7.248-1.656c-1.951 3.706 4.198 8.626 7.806 4.264l-.558-2.608Z"/><path fill="#1D1D1D" d="M137.44 184.814c-1.066 0-2.083-.377-2.87-.902-1.787-1.197-3.017-3.509-1.902-5.608.443-.853 1.099-1.345 1.935-1.459 2.492-.378 5.756 2.902 5.887 3.033.049.05.082.115.098.181l.558 2.607a.37.37 0 0 1-.082.312c-1.115 1.344-2.411 1.836-3.624 1.836Zm-2.427-7.281c-.115 0-.213 0-.312.017-.59.082-1.049.443-1.394 1.082-.918 1.722.148 3.64 1.673 4.657 1.427.951 3.673 1.328 5.428-.656l-.492-2.328c-.476-.427-2.985-2.772-4.903-2.772Z"/><path fill="#1D1D1D" d="M138.473 181.961a.274.274 0 0 1-.213-.082 4.462 4.462 0 0 0-2.738-.902.365.365 0 0 1-.377-.344c0-.197.147-.361.344-.378a5.05 5.05 0 0 1 3.214 1.05c.164.115.18.344.066.508a.396.396 0 0 1-.296.148Z"/><path fill="#fff" d="M394.968 178.337s8.462 32.666 13.89 45.145c4.148 9.543 19.759 33.141 26.893 43.734 2.099 3.115 1.787 7.281-.771 10.035L420.812 292.6a23.116 23.116 0 0 1-16.972 7.445h-3.969c-1.918 0-3.099-2.099-2.131-3.755l4.066-6.887s-28.205-49.441-32.042-60.723c-3.837-11.282-1.262-53.737-1.262-53.737l26.466 3.394Z"/><path fill="#1D1D1D" d="M403.858 300.422h-3.969a2.81 2.81 0 0 1-2.459-1.426 2.85 2.85 0 0 1 .016-2.87l3.952-6.707c-1.886-3.312-28.271-49.769-31.977-60.591-3.82-11.217-1.393-52.13-1.279-53.869 0-.098.05-.196.132-.262a.352.352 0 0 1 .278-.082l26.467 3.378c.148.016.262.131.312.262.082.328 8.51 32.781 13.873 45.096 4.181 9.593 20.186 33.747 26.86 43.685 2.197 3.279 1.869 7.592-.804 10.478l-14.168 15.349a23.527 23.527 0 0 1-17.234 7.559Zm-35.011-125.053c-.246 4.28-2.312 42.701 1.263 53.213 3.788 11.118 31.731 60.165 32.026 60.657a.357.357 0 0 1 0 .36l-4.067 6.888a2.142 2.142 0 0 0-.016 2.148 2.076 2.076 0 0 0 1.836 1.066h3.969c6.313 0 12.413-2.673 16.71-7.33l14.168-15.349a7.737 7.737 0 0 0 .738-9.593c-6.691-9.954-22.728-34.141-26.926-43.8-5.149-11.806-13.07-41.979-13.857-44.964l-25.844-3.296Z"/><path fill="#1D1D1D" d="M404.268 288.386a.352.352 0 0 1-.312-.181c-.098-.18-.049-.393.131-.492a114.163 114.163 0 0 0 28.222-23.17.361.361 0 0 1 .508-.033.362.362 0 0 1 .033.508 114.967 114.967 0 0 1-28.402 23.319.337.337 0 0 1-.18.049ZM391.331 268.987a.37.37 0 0 1-.344-.23.352.352 0 0 1 .213-.459c11.84-4.542 22.695-11.839 31.403-21.088.131-.148.361-.148.508-.016.148.131.148.36.017.508-8.79 9.331-19.744 16.677-31.665 21.268-.033 0-.082.017-.132.017Z"/><path fill="#fff" d="m379.293 179.993-8.527 114.837a5.625 5.625 0 0 1-5.609 5.231h-42.602c-1.558 0-2.247-1.967-1.033-2.935l9.265-7.478 13.102-118.313 35.404 8.658Z"/><path fill="#1D1D1D" d="M365.158 300.422h-42.603a1.974 1.974 0 0 1-1.885-1.344 1.972 1.972 0 0 1 .639-2.247l9.15-7.396 13.086-118.165a.43.43 0 0 1 .148-.263.319.319 0 0 1 .295-.049l35.404 8.675c.164.049.295.196.279.377l-8.527 114.837c-.263 3.132-2.87 5.575-5.986 5.575Zm-20.957-128.66-13.053 117.903a.449.449 0 0 1-.131.246l-9.265 7.477c-.525.427-.558 1.017-.41 1.444.148.41.541.852 1.213.852h42.603c2.739 0 5.034-2.148 5.248-4.903l8.51-114.542-34.715-8.477Z"/><path fill="#1D1D1D" d="M369.077 291.895a681.34 681.34 0 0 1-37.978-1.952.364.364 0 0 1-.328-.393.365.365 0 0 1 .393-.328c12.561 1 25.319 1.656 37.929 1.951.197 0 .361.164.361.377a.388.388 0 0 1-.377.345ZM362.616 274.169c-9.757 0-19.531-.87-29.14-2.591a.37.37 0 0 1-.295-.427.37.37 0 0 1 .426-.295 165.13 165.13 0 0 0 37.503 2.361.354.354 0 0 1 .377.345.353.353 0 0 1-.344.377c-2.837.164-5.674.23-8.527.23Z"/><path fill="#fff" d="M377.949 112.515s13.512 1.066 19.645 9.609c6.133 8.527 13.693 16.251 8.216 24.991-4.264 6.805-17.628 14.562-17.628 14.562l-5.674-14.562 7.035-7.133-11.594-27.467Z"/><path fill="#1D1D1D" d="M388.179 162.037c-.033 0-.082 0-.115-.016a.346.346 0 0 1-.213-.213l-5.674-14.562a.358.358 0 0 1 .082-.377l6.855-6.969-11.496-27.221a.37.37 0 0 1 .033-.345.352.352 0 0 1 .328-.147c.131.016 13.742 1.181 19.908 9.757a172.05 172.05 0 0 0 2.41 3.263c5.51 7.363 10.725 14.316 5.822 22.138-4.264 6.789-17.202 14.365-17.76 14.692-.065-.016-.114 0-.18 0Zm-5.247-14.84 5.427 13.955c2.165-1.295 13.365-8.216 17.136-14.234 4.641-7.412-.426-14.168-5.788-21.317a164.93 164.93 0 0 1-2.411-3.264c-5.231-7.28-16.103-9.051-18.776-9.379l11.348 26.876c.049.131.033.295-.082.394l-6.854 6.969Z"/><path fill="#0098C7" d="M377.951 112.515s-15.595-2.181-28.14 1.689l-10.741 88.993s10.807 3.23 11.381-10.069c0 0 3.509 13.693 26.483 12.086 22.974-1.623 25.499-6.035 25.499-6.035l-24.482-86.664Z"/><path fill="#fff" d="M349.796 114.204c8.724 16.759 7.51 29.385 4.099 30.386-3.427 1-6.69-4.608-6.69-4.608-1.082.836-2.706 1.836-4.657 2.755-5.461-6.199-7.133-15.759-7.642-20.203 6.625-5.083 14.89-8.33 14.89-8.33Z"/><path fill="#1D1D1D" d="M342.544 143.098a.468.468 0 0 1-.278-.115c-5.412-6.15-7.166-15.431-7.724-20.4a.335.335 0 0 1 .148-.328c6.592-5.05 14.906-8.33 14.988-8.363a.384.384 0 0 1 .475.197.383.383 0 0 1-.197.476c-.082.032-8.166 3.23-14.643 8.15.475 4.017 2.099 13.463 7.346 19.595 1.296-.623 2.509-1.311 3.493-1.984a.368.368 0 0 1 .508.099.368.368 0 0 1-.098.508c-1.082.738-2.411 1.476-3.837 2.148-.082 0-.131.017-.181.017Z"/><path fill="#fff" d="M322.359 113.827s-2.951-6.986-3.689-9.954c-.738-2.968 4.886-6.658 7.592-6.805 2.706-.148 2.788 3.115 2.788 3.115 2.804-.246 1.771 3.214 1.771 3.214 1.525-.393 1.312 2.132 1.312 2.132 1.377.033.754 2.394.754 2.394 2.837 6.248-.475 16.694-.475 16.694a38.676 38.676 0 0 1 2.492-2.083c.508 4.444 2.181 14.004 7.642 20.203-6.445 3.033-16.497 5.313-22.548-.902-7.904-8.134 2.361-28.008 2.361-28.008Z"/><path fill="#1D1D1D" d="M330.181 146.148c-3.673 0-7.461-1.001-10.462-4.067-7.707-7.921 1.213-26.254 2.23-28.254-.443-1.066-2.968-7.101-3.657-9.856-.229-.918.066-1.967.853-3.033 1.689-2.28 5.133-4.1 7.068-4.215.82-.049 1.508.18 2.033.689.787.722 1.033 1.837 1.099 2.41.656.017 1.164.23 1.508.657.591.737.509 1.885.394 2.541.262.033.459.148.59.263.558.475.64 1.443.64 1.951a.98.98 0 0 1 .557.394c.509.672.296 1.869.197 2.279 2.247 5.1.607 12.709-.164 15.644a43.26 43.26 0 0 1 1.591-1.279.357.357 0 0 1 .361-.049.372.372 0 0 1 .213.295c.442 3.935 2.066 13.774 7.543 20.006.082.082.098.196.082.311a.309.309 0 0 1-.197.246c-2.05.968-7.15 3.067-12.479 3.067Zm-3.755-48.72h-.148c-1.754.099-4.985 1.82-6.526 3.92-.459.623-.951 1.541-.738 2.443.721 2.902 3.657 9.839 3.673 9.904a.35.35 0 0 1-.016.312c-.099.197-10.052 19.727-2.427 27.566 6.707 6.887 17.808 2.804 21.711 1.033-4.952-5.887-6.707-14.398-7.33-19.4a35.458 35.458 0 0 0-1.968 1.673.346.346 0 0 1-.443.033.366.366 0 0 1-.147-.41c.033-.098 3.247-10.397.492-16.431-.033-.082-.049-.164-.017-.246.132-.492.23-1.41-.049-1.787-.049-.082-.147-.164-.361-.164a.39.39 0 0 1-.262-.115.444.444 0 0 1-.098-.279c.032-.492-.017-1.394-.361-1.673-.082-.065-.213-.147-.492-.065a.33.33 0 0 1-.344-.099.326.326 0 0 1-.082-.36c.131-.443.36-1.755-.148-2.378-.246-.295-.656-.426-1.246-.377a.316.316 0 0 1-.279-.099.325.325 0 0 1-.115-.262c0-.016-.049-1.476-.902-2.263-.377-.312-.82-.476-1.377-.476Z"/><path fill="#1D1D1D" d="M330.049 109.842c-.033 0-.065 0-.115-.016-1.475-.46-2.623-1.771-3.492-4.018l-.345-.886c-.475-1.295-.984-2.623-1.918-3.574-.459-.46-1.148-.82-1.64-.542-.426.246-.59.853-.525 1.919l.361 5.395a.344.344 0 0 1-.345.377.344.344 0 0 1-.377-.344l-.36-5.395c-.05-.869-.033-2.083.901-2.591.886-.492 1.903.049 2.509.656 1.05 1.066 1.575 2.476 2.083 3.837.115.295.213.59.328.886.803 2.017 1.787 3.197 3.05 3.591a.354.354 0 0 1 .23.459.397.397 0 0 1-.345.246Z"/><path fill="#1D1D1D" d="M330.412 109.908c-.427 0-.837-.132-1.247-.378a.366.366 0 0 1-.115-.492.365.365 0 0 1 .492-.114c.509.311 1.017.36 1.525.114.935-.442 1.558-1.623 1.608-2 .032-.197.213-.345.409-.312.197.033.345.213.312.41-.082.607-.836 2.017-2.001 2.575-.328.115-.655.197-.983.197Z"/><path fill="#1D1D1D" d="M329.265 108.366c-.754 0-1.508-.295-2-.836a.363.363 0 0 1 .033-.509.362.362 0 0 1 .508.033c.574.64 1.672.787 2.509.345.787-.427 1.344-1.312 1.476-2.345a.357.357 0 0 1 .41-.312c.196.033.344.213.311.41-.147 1.246-.869 2.345-1.853 2.886-.443.23-.918.328-1.394.328ZM327.984 106.316c-.475 0-.934-.131-1.344-.442-.164-.115-.181-.345-.066-.509.131-.164.344-.18.508-.065.656.508 1.657.295 2.263-.213.574-.492.984-1.296 1.197-2.395a.348.348 0 0 1 .427-.278.346.346 0 0 1 .278.426c-.262 1.263-.721 2.181-1.443 2.788a2.833 2.833 0 0 1-1.82.688ZM326.625 103.775c-.279 0-.541-.05-.803-.181-.181-.082-.263-.295-.181-.475.082-.181.295-.263.476-.181.689.328 1.508-.098 1.951-.639.427-.541.492-1.132.574-1.853l.033-.312a.357.357 0 0 1 .41-.311.349.349 0 0 1 .311.41l-.032.295c-.082.771-.164 1.508-.722 2.214-.443.574-1.213 1.033-2.017 1.033ZM324.838 101.741c-.05 0-.082 0-.132-.033a.355.355 0 0 1-.196-.475l1.131-2.903a.357.357 0 0 1 .476-.197c.18.066.278.28.197.476l-1.132 2.903c-.049.147-.197.229-.344.229ZM327.675 129.372a.325.325 0 0 1-.262-.115c-.131-.147-.131-.377.016-.508l4.756-4.411c.147-.131.377-.131.508.016.131.148.131.377-.016.509l-4.756 4.411a.397.397 0 0 1-.246.098ZM307.993 91.738c-2.739 0-5.493-.459-8.166-1.377-6.33-2.198-11.414-6.74-14.349-12.79-6.018-12.464-.82-27.534 11.577-33.568a24.732 24.732 0 0 1 19.055-1.148c6.33 2.197 11.413 6.74 14.332 12.79 6.018 12.463.82 27.533-11.577 33.568a24.522 24.522 0 0 1-10.872 2.525ZM307.96 42.2c-3.624 0-7.215.82-10.577 2.46-12.036 5.87-17.087 20.498-11.249 32.616 2.837 5.87 7.789 10.282 13.922 12.413 6.117 2.116 12.692 1.722 18.497-1.115 12.037-5.87 17.087-20.497 11.25-32.616-2.837-5.87-7.79-10.282-13.922-12.413a24.069 24.069 0 0 0-7.921-1.345Z"/><path fill="#1D1D1D" d="M322.359 100.478c1-.295 1.41-.147 2.509.886l.951-2.28-5.329-11.036-3.51 1.706 5.379 10.724Z"/><path fill="#fff" d="m351.641 104.693 3.476 7.822-2.083.836s4.116 7.724 13.759 6.756c9.625-.967-3.952-17.349-3.952-17.349s-8.806-1.951-11.2 1.935Z"/><path fill="#1D1D1D" d="M366.78 120.468a.358.358 0 0 1-.361-.328.365.365 0 0 1 .328-.393c1.542-.148 2.493-.706 2.903-1.706 1.672-4.083-6.133-13.873-7.019-14.955-1.033-.213-8.363-1.541-10.577 1.64l3.395 7.641c.033.082.049.197 0 .279a.333.333 0 0 1-.197.197l-1.755.689a.384.384 0 0 1-.475-.197.383.383 0 0 1 .197-.476l1.393-.557-3.328-7.478c-.05-.115-.033-.229.016-.344 2.509-4.067 11.2-2.181 11.577-2.099a.385.385 0 0 1 .197.115c.377.442 9.134 11.085 7.199 15.791-.509 1.246-1.689 1.968-3.493 2.148.033.033.016.033 0 .033Z"/><path fill="#1D1D1D" d="M349.515 88.639c-.771-1.148-1.706-2.378-1.558-3.755.246-2.23 3.034-3.1 5.264-3.083 8.002.082 15.25 4.722 21.17 10.117 5.92 5.395 11.052 11.725 17.562 16.382 4.674 3.362 10.003 5.805 14.3 9.659 4.28 3.853 7.461 9.757 5.936 15.332-1.312 4.821-5.92 8.232-10.807 9.2-4.87.967-9.937-.132-14.594-1.87-16.267-6.067-29.238-20.465-33.764-37.289-.623-2.329-.033-4.346-.394-6.69a19.957 19.957 0 0 0-3.115-8.003ZM370.272 86.31c-.623-.836-.722-1.984-.476-3 .263-1.017.837-1.919 1.46-2.755a22.23 22.23 0 0 1 4.985-4.854c1.394-.984 2.935-1.82 4.624-2.165 1.673-.344 3.509-.147 4.952.787 1.837 1.197 2.805 3.542 2.526 5.723-.279 2.181-1.706 4.133-3.608 5.231-1.902 1.083-4.149 1.329-6.313 1.558-2.099.197-6.592 1.542-8.15-.525Z"/><path fill="#fff" d="M350.61 90.508s4.837 1.771 4.395 4.198c-.443 2.427-.46 3.657.672 4.69 0 0 4.214-1.328 4.673 1.624.46 2.935-2.672 4.066-5.001 3.197 0 0-2.493 2.64-6.379.705-3.886-1.951-1.722-8.33 1.64-14.414Z"/><path fill="#1D1D1D" d="M351.759 105.972c-.869 0-1.869-.197-2.952-.738-1.016-.508-1.689-1.312-2.033-2.394-.82-2.607.377-6.822 3.526-12.512a.35.35 0 0 1 .442-.164c.214.082 5.117 1.902 4.625 4.608-.41 2.197-.443 3.329.41 4.214.639-.164 2.558-.574 3.837.213.606.378.984.968 1.098 1.755.197 1.23-.18 2.296-1.065 3.017-1.066.869-2.723 1.115-4.198.656-.46.377-1.771 1.345-3.69 1.345Zm-.984-15.02c-2.902 5.296-4.034 9.33-3.312 11.675.278.902.82 1.541 1.656 1.951 3.607 1.788 5.936-.607 5.952-.623.099-.098.246-.148.394-.098 1.279.475 2.804.278 3.706-.46.689-.557.968-1.377.804-2.345-.099-.573-.345-.983-.771-1.246-1.23-.754-3.427-.082-3.444-.082-.115.033-.262.017-.344-.082-1.246-1.148-1.246-2.476-.771-5.018.295-1.607-2.46-3.099-3.87-3.673Z"/><path fill="#1D1D1D" d="M355.697 102.512a.375.375 0 0 1-.279-.131c-.131-.148-.098-.377.049-.509a2.992 2.992 0 0 1 3.034-.442c.18.082.279.295.197.475-.082.181-.295.279-.476.197-.754-.312-1.672-.18-2.296.344a.526.526 0 0 1-.229.066ZM436.074 69.125h-13.168a.364.364 0 0 1-.361-.361V22.259h-23.958a.364.364 0 0 1-.36-.361c0-.197.164-.36.36-.36h24.319c.197 0 .361.163.361.36v46.505h12.807c.196 0 .36.164.36.361 0 .197-.164.36-.36.36Z"/><path fill="#0098C7" d="M391.339 26.358a4.46 4.46 0 1 0 .001-8.92 4.46 4.46 0 0 0-.001 8.92ZM442.941 73.126a4.46 4.46 0 1 0 0-8.92 4.46 4.46 0 0 0 0 8.92Z"/></svg>