<svg xmlns="http://www.w3.org/2000/svg" width="388" height="258" fill="none"><path fill="#E2EAFF" d="M352.968 205.426c0 .197.014.381.042.564a19.14 19.14 0 0 0-5.194 2.154 9.886 9.886 0 0 0-.367-.423 4.626 4.626 0 0 0-6.535 0 4.617 4.617 0 0 0 0 6.534c.142.14.283.253.424.366a18.99 18.99 0 0 0-2.16 5.195 3.686 3.686 0 0 0-.564-.042 4.627 4.627 0 0 0-4.63 4.618 4.626 4.626 0 0 0 4.63 4.618c.183 0 .381-.014.564-.042a18.56 18.56 0 0 0 2.16 5.196c-.141.112-.282.239-.424.366a4.616 4.616 0 0 0 0 6.533 4.626 4.626 0 0 0 6.535 0c.141-.141.254-.282.367-.423a19.174 19.174 0 0 0 5.194 2.155 3.673 3.673 0 0 0-.042.563 4.627 4.627 0 0 0 4.629 4.618c2.555 0 4.63-2.07 4.63-4.618 0-.197-.014-.38-.042-.563a19.174 19.174 0 0 0 5.194-2.155c.112.141.24.282.367.423a4.624 4.624 0 0 0 6.534 0 4.614 4.614 0 0 0 0-6.533 4.757 4.757 0 0 0-.423-.366 18.95 18.95 0 0 0 2.159-5.196c.184.028.367.042.565.042a4.625 4.625 0 0 0 4.629-4.618 4.626 4.626 0 0 0-4.629-4.618c-.183 0-.381.014-.565.042a18.534 18.534 0 0 0-2.159-5.195c.141-.113.282-.24.423-.366a4.615 4.615 0 0 0 0-6.534 4.624 4.624 0 0 0-6.534 0 4.614 4.614 0 0 0-.367.423 19.14 19.14 0 0 0-5.194-2.154c.028-.183.042-.367.042-.564a4.627 4.627 0 0 0-4.63-4.618 4.627 4.627 0 0 0-4.629 4.618Zm13.211 18.966c0 4.731-3.839 8.575-8.582 8.575-4.742 0-8.581-3.844-8.581-8.575s3.839-8.575 8.581-8.575c4.743 0 8.582 3.844 8.582 8.575ZM375.96 190.91a1 1 0 0 0 .015.211 6.724 6.724 0 0 0-1.962.817c-.043-.057-.085-.113-.141-.155a1.758 1.758 0 0 0-2.47 0 1.764 1.764 0 0 0 0 2.478c.056.056.098.099.155.141a7.375 7.375 0 0 0-.819 1.971c-.07-.014-.141-.014-.211-.014-.96 0-1.751.788-1.751 1.746 0 .971.791 1.746 1.751 1.746.07 0 .141 0 .211-.014.17.704.452 1.365.819 1.971a.695.695 0 0 0-.155.141 1.764 1.764 0 0 0 0 2.478 1.758 1.758 0 0 0 2.47 0c.056-.057.098-.099.141-.155a7.54 7.54 0 0 0 1.962.817c-.015.07-.015.14-.015.211 0 .971.791 1.746 1.751 1.746.959 0 1.75-.789 1.75-1.746 0-.071 0-.141-.014-.211a6.736 6.736 0 0 0 1.962-.817c.042.056.084.113.141.155a1.758 1.758 0 0 0 2.47 0 1.766 1.766 0 0 0-.156-2.619 7.356 7.356 0 0 0 .819-1.971 1.757 1.757 0 0 0 1.962-1.732c0-.958-.79-1.746-1.75-1.746-.071 0-.141 0-.212.014a6.918 6.918 0 0 0-.819-1.971.75.75 0 0 0 .156-.141 1.766 1.766 0 0 0 0-2.478 1.758 1.758 0 0 0-2.611.155 7.52 7.52 0 0 0-1.962-.817c.014-.07.014-.141.014-.211 0-.972-.791-1.746-1.75-1.746a1.74 1.74 0 0 0-1.751 1.746Zm4.997 7.181a3.255 3.255 0 0 1-3.246 3.252 3.246 3.246 0 0 1-3.247-3.252 3.256 3.256 0 0 1 3.247-3.253 3.247 3.247 0 0 1 3.246 3.253Z"/><path fill="#fff" d="M221.084 219.802h-22.512v37.72h22.512v-37.72Z"/><path fill="#1D1D1D" d="M221.071 257.832h-22.512a.313.313 0 0 1-.311-.31v-37.72c0-.169.141-.31.311-.31h22.512c.169 0 .31.141.31.31v37.72c0 .169-.141.31-.31.31Zm-22.188-.619h21.891v-37.101h-21.891v37.101Z"/><path fill="#fff" d="M198.573 219.802h-70.825v37.72h70.825v-37.72Z"/><path fill="#1D1D1D" d="M198.573 257.832h-70.825a.313.313 0 0 1-.31-.31v-37.72c0-.169.141-.31.31-.31h70.825c.169 0 .311.141.311.31v37.72c0 .169-.142.31-.311.31Zm-70.514-.619h70.204v-37.101h-70.204v37.101Z"/><path fill="#fff" d="M101.538 239.993H79.025v17.529h22.513v-17.529Z"/><path fill="#1D1D1D" d="M101.523 257.832H79.025a.313.313 0 0 1-.31-.31v-17.529c0-.169.141-.31.31-.31h22.513c.169 0 .31.141.31.31v17.529a.336.336 0 0 1-.325.31Zm-22.187-.619h21.891v-16.91H79.336v16.91Z"/><path fill="#fff" d="M79.025 239.993H8.2v17.529h70.825v-17.529Z"/><path fill="#1D1D1D" d="M79.025 257.832H8.2a.313.313 0 0 1-.31-.31v-17.529c0-.169.14-.31.31-.31h70.825c.17 0 .31.141.31.31v17.529c0 .169-.14.31-.31.31Zm-70.514-.619h70.204v-16.91H8.51v16.91Z"/><path fill="#fff" d="M350.808 201.399H327.04v56.123h23.768v-56.123Z"/><path fill="#1D1D1D" d="M350.808 257.832H327.04a.314.314 0 0 1-.311-.31V201.4c0-.169.142-.31.311-.31h23.768c.17 0 .311.141.311.31v56.122c0 .169-.141.31-.311.31Zm-23.457-.619h23.147v-55.504h-23.147v55.504Z"/><path fill="#fff" d="M327.266 201.399h-74.085v56.123h74.085v-56.123Z"/><path fill="#1D1D1D" d="M327.266 257.832h-74.085a.313.313 0 0 1-.311-.31V201.4c0-.169.141-.31.311-.31h74.085c.169 0 .311.141.311.31v56.122c0 .169-.142.31-.311.31Zm-73.775-.619h73.465v-55.504h-73.465v55.504Z"/><path fill="#fff" d="m270.259 178.632-4.008 12.137a5.5 5.5 0 0 1-2.103 2.647l-8.187 5.407c-1.115.732-.592 2.464.748 2.464h30.233a3.97 3.97 0 0 0 3.783-2.774l6.238-19.881h-26.704Z"/><path fill="#1D1D1D" d="M286.928 201.597h-30.233a1.619 1.619 0 0 1-1.581-1.183 1.625 1.625 0 0 1 .678-1.859l8.186-5.406a5.073 5.073 0 0 0 1.99-2.507l4.008-12.122a.307.307 0 0 1 .297-.212h26.69c.099 0 .197.043.254.127.056.085.07.183.042.282l-6.238 19.881a4.28 4.28 0 0 1-4.093 2.999Zm-16.443-22.655-3.938 11.926a5.733 5.733 0 0 1-2.23 2.816l-8.187 5.406c-.479.31-.522.803-.423 1.155.113.352.423.732.988.732h30.233a3.637 3.637 0 0 0 3.486-2.548l6.111-19.473h-26.04v-.014Z"/><path fill="#fff" d="M343.229 194.05a5.455 5.455 0 0 1-1.341-3.224l-.268-12.194h-27.34l-.564 18.586a3.95 3.95 0 0 0 3.952 4.069h28.934c1.157 0 1.778-1.352 1.016-2.225l-4.389-5.012Z"/><path fill="#1D1D1D" d="M346.616 201.597h-28.934a4.227 4.227 0 0 1-3.062-1.296 4.2 4.2 0 0 1-1.2-3.097l.564-18.586c0-.169.142-.295.311-.295h27.339c.169 0 .311.14.311.309l.268 12.194a5.174 5.174 0 0 0 1.256 3.027l4.389 5.012c.438.493.537 1.169.254 1.774a1.625 1.625 0 0 1-1.496.958Zm-32.025-22.655-.564 18.276a3.642 3.642 0 0 0 1.03 2.647 3.61 3.61 0 0 0 2.625 1.112h28.934c.424 0 .777-.225.946-.605.169-.38.113-.789-.169-1.113l-4.39-5.012a5.744 5.744 0 0 1-1.411-3.407l-.268-11.898h-26.733Z"/><path fill="#fff" d="m294.945 191.065 20.705-69.64-2.964 69.795 30.501-.465L339.63 87.83l-39.407.014-36.202 103.179 30.924.042Z"/><path fill="#1D1D1D" d="M312.686 191.529a.284.284 0 0 1-.226-.098.32.32 0 0 1-.084-.225l2.865-67.289-20 67.246a.317.317 0 0 1-.296.226l-30.925-.043a.304.304 0 0 1-.254-.126.334.334 0 0 1-.042-.282l36.203-103.192a.304.304 0 0 1 .296-.211l39.407-.014c.17 0 .311.126.311.295l3.557 102.911a.321.321 0 0 1-.085.225.332.332 0 0 1-.226.099l-30.501.478Zm2.964-70.414h.057a.308.308 0 0 1 .254.324l-2.95 69.471 29.851-.451-3.542-102.305-38.885.014-35.991 102.559 30.247.042 20.635-69.428c.07-.141.197-.226.324-.226ZM315.368 194.853a.313.313 0 0 1-.31-.31c0-.169.141-.31.31-.31l27.96-.07c.17 0 .311.14.311.309 0 .169-.141.31-.311.31l-27.96.071ZM287.761 194.712l-24.362-.282a.313.313 0 0 1-.31-.31c0-.169.141-.309.31-.309l24.362.281c.169 0 .31.141.31.31s-.141.31-.31.31Z"/><path fill="#1D1D1D" d="M315.734 123.312c-.014 0-.014 0 0 0-.183 0-.31-.141-.31-.324l.282-10.405a3.804 3.804 0 0 0-1.722-3.295l-1.835-1.197c-.141-.098-.183-.281-.084-.422a.301.301 0 0 1 .423-.085l1.835 1.197a4.42 4.42 0 0 1 2.004 3.844l-.282 10.405a.331.331 0 0 1-.311.282Z"/><path fill="#fff" d="M284.302 22.71h11.165l-3.233-9.32a4.213 4.213 0 0 1-.084-2.437c.522-1.999 1.326-5.927-.17-7.166-1.651-1.366-3.599.098-3.599.098S286.645.506 285.742.492c-1.143-.028-1.75.422-1.764 1.718 0 0-1.68-.986-1.948 1.013 0 0-1.976-.07-1.637 2.267 0 0-2.414 1.605.705 5.477-.014-.014 1.426 5.295 3.204 11.743Z"/><path fill="#1D1D1D" d="M295.452 23.02h-11.164a.304.304 0 0 1-.296-.225c-1.652-6.055-3.035-11.081-3.19-11.7-1.242-1.55-1.779-2.958-1.595-4.168a2.734 2.734 0 0 1 .833-1.592c-.085-.774.07-1.393.465-1.816.396-.436.918-.563 1.243-.605.127-.563.381-.958.776-1.14.409-.198.847-.127 1.157-.029.071-.479.24-.845.508-1.112.339-.324.847-.479 1.553-.465.903.028 2.188 2.21 2.738 3.267.861-.507 2.399-.958 3.684.112 1.609 1.338.861 5.266.268 7.49a3.827 3.827 0 0 0 .085 2.254l3.232 9.32a.333.333 0 0 1-.042.282.304.304 0 0 1-.255.127Zm-10.924-.62h10.487l-3.091-8.912a4.47 4.47 0 0 1-.099-2.62c.932-3.533.903-6.04-.07-6.856-1.44-1.197-3.19.099-3.204.113-.071.056-.17.07-.254.056a.338.338 0 0 1-.212-.155c-.791-1.549-1.934-3.224-2.371-3.224-.523-.014-.875.084-1.101.295-.226.212-.339.578-.353 1.127a.303.303 0 0 1-.155.267.307.307 0 0 1-.311 0c-.169-.098-.663-.31-1.016-.126-.254.126-.409.436-.48.915-.028.155-.155.281-.325.267 0 0-.649-.014-1.03.423-.282.324-.381.83-.282 1.492a.315.315 0 0 1-.141.31c-.029.014-.593.422-.72 1.31-.155 1.027.367 2.309 1.51 3.717.028.028.042.07.056.112.015-.042 1.426 5.14 3.162 11.49Z"/><path fill="#1D1D1D" d="M286.448 9.053c-.452 0-.819-.141-1.059-.409-.325-.352-.409-.873-.254-1.492.367-1.408 1.524-2.394 2.78-3.337a.329.329 0 0 1 .438.056.326.326 0 0 1-.056.437c-1.172.887-2.245 1.788-2.555 2.999-.043.183-.141.661.099.915.254.267.762.211 1.03.155a4.47 4.47 0 0 0 1.92-.944.312.312 0 0 1 .437.029.31.31 0 0 1-.028.436 4.978 4.978 0 0 1-2.202 1.084c-.184.057-.381.07-.55.07Z"/><path fill="#1D1D1D" d="M286.885 11.39a.313.313 0 0 1-.31-.31 4.294 4.294 0 0 1 .974-2.802c.113-.127.31-.155.437-.042.127.112.155.31.043.436a3.69 3.69 0 0 0-.833 2.394c.014.183-.127.324-.311.324.014 0 .014 0 0 0ZM285.615 6.8a.34.34 0 0 1-.198-.07c-1.341-1.113-2.018-2.943-1.708-4.647a.305.305 0 0 1 .353-.253.312.312 0 0 1 .254.352c-.268 1.492.325 3.097 1.496 4.069.127.112.156.31.043.436-.057.085-.156.113-.24.113Z"/><path fill="#1D1D1D" d="M284.232 8.42c-.48 0-.974-.198-1.369-.564-.353-.324-.621-.76-.847-1.338a6.263 6.263 0 0 1-.311-3.379.32.32 0 0 1 .367-.253.319.319 0 0 1 .254.366 5.728 5.728 0 0 0 .282 3.041c.184.493.41.845.692 1.098.325.296.72.437 1.073.394.367-.042.677-.337.734-.647a.317.317 0 0 1 .353-.268.326.326 0 0 1 .268.352c-.085.606-.621 1.099-1.256 1.183-.099 0-.17.014-.24.014Z"/><path fill="#1D1D1D" d="M282.622 9.334c-.296 0-.592-.084-.875-.24-.324-.182-.607-.464-.889-.858a4.651 4.651 0 0 1-.818-3.013.301.301 0 0 1 .324-.282.3.3 0 0 1 .282.324 4.05 4.05 0 0 0 .72 2.619c.226.324.438.535.678.676.268.155.579.197.818.127.24-.085.424-.31.438-.521 0-.17.141-.296.325-.296.169 0 .31.14.296.324-.014.478-.367.929-.861 1.098a2.096 2.096 0 0 1-.438.042Z"/><path fill="#1D1D1D" d="M281.663 10.686c-.353 0-.72-.14-.959-.422a.31.31 0 0 1 .028-.437.312.312 0 0 1 .437.028.648.648 0 0 0 .805.127c.24-.155.367-.507.254-.774-.071-.155.014-.338.169-.409.155-.07.339.014.41.17.225.548.014 1.224-.494 1.548a1.317 1.317 0 0 1-.65.169ZM287.083 4.927a.344.344 0 0 1-.297-.197l-.663-1.788a.314.314 0 0 1 .184-.394.315.315 0 0 1 .395.183l.663 1.788a.313.313 0 0 1-.183.394c-.029.014-.057.014-.099.014Z"/><path fill="#fff" d="M341.451 4.702c.071 1.675-2.314 3.379-2.399 4.745-.057.844 0 2.041-.184 2.872l-2.498 11.165h11.15l2.301-14.896c1.044-1.648 1.298-2.858 1.214-3.717l-9.584-.17Z"/><path fill="#1D1D1D" d="M347.52 23.794h-11.15a.301.301 0 0 1-.296-.38l2.498-11.165c.113-.536.127-1.282.141-1.93 0-.323.014-.619.028-.886.042-.719.593-1.45 1.172-2.211.621-.83 1.27-1.69 1.242-2.492a.32.32 0 0 1 .084-.225.336.336 0 0 1 .226-.099l9.584.169c.155 0 .282.127.31.282.113 1.098-.296 2.393-1.228 3.857-.113.719-1.143 7.42-2.3 14.84a.308.308 0 0 1-.311.24Zm-10.769-.62h10.501c1.2-7.757 2.258-14.643 2.258-14.643 0-.042.029-.084.043-.112.79-1.24 1.185-2.323 1.171-3.253l-8.991-.155c-.098.902-.734 1.746-1.34 2.563-.523.69-1.017 1.352-1.045 1.887-.014.267-.028.563-.028.859-.014.675-.028 1.45-.155 2.055l-2.414 10.8Z"/><path fill="#1D1D1D" d="M343.978 9.686a.319.319 0 0 1-.311-.282 3.802 3.802 0 0 0-1.115-2.323c-.127-.112-.127-.31-.014-.436.113-.127.311-.127.438-.014a4.339 4.339 0 0 1 1.298 2.717.314.314 0 0 1-.282.338h-.014Z"/><path fill="#fff" d="M342.156.914c.72.55 1.157 1.437 1.51 2.295.861 2.098 1.468 4.309 1.539 6.491l-5.448 2.225c-.678-.606-.861-1.633-.692-2.478.155-.845.593-1.549.96-2.281.367-.732.663-1.563.536-2.45-.099-.648-.409-1.253-.635-1.873-.212-.62-.325-1.351 0-1.858.409-.704 1.496-.634 2.23-.07Z"/><path fill="#1D1D1D" d="M339.743 12.235a.313.313 0 0 1-.212-.085c-.832-.746-.945-1.957-.79-2.76.141-.718.451-1.337.762-1.929.071-.14.155-.295.226-.436.296-.62.635-1.422.508-2.267-.056-.408-.226-.802-.381-1.225a7.72 7.72 0 0 1-.226-.605c-.212-.606-.381-1.479.028-2.112.212-.338.537-.55.96-.62.565-.098 1.228.085 1.75.479.776.591 1.228 1.52 1.595 2.422.974 2.365 1.496 4.576 1.567 6.603 0 .17-.127.31-.297.324-.169.014-.31-.127-.324-.296-.057-1.943-.579-4.097-1.525-6.378-.338-.83-.748-1.661-1.411-2.168-.367-.282-.861-.423-1.256-.352-.24.042-.424.155-.537.338-.211.338-.197.9.043 1.59.07.198.141.38.226.578.169.437.353.887.423 1.366.155 1.014-.226 1.943-.564 2.633-.071.155-.156.295-.226.45-.297.578-.593 1.14-.706 1.76-.127.704 0 1.648.607 2.183a.31.31 0 0 1 .028.436c-.099.028-.183.07-.268.07Z"/><path fill="#0098C7" d="M317.047 47.843c-1.087.24-2.696.549-4.672.732-3.034.296-4.686.437-6.196-.408-1.595-.887-2.286-2.464-2.681-3.408-2.908-6.927-5.039-16.487-6.507-21.457a61.356 61.356 0 0 0-3.853-9.744l-11.687 2.492c.988 5.956 2.781 15.108 6.097 26.119 1.976 6.519 3.19 9.405 5.053 15.333 2.16 6.829 4.136 20.993 4.602 35.467a.743.743 0 0 0 .734.718c12.505.014 28.835.409 41.524.437.931 0 1.693-.732 1.736-1.662.437-12.756.028-28.272 1.284-35.017 1.397-7.56 2.936-13.446 4.559-24.4a270.415 270.415 0 0 0 1.976-16.784c-3.98-.52-7.961-1.055-11.955-1.576-2.145 5.843-3.274 10.686-3.895 14.08-.904 4.871-2.357 9.616-3.473 14.431-.508 2.211-.875 3.844-2.3 4.999-3.162 2.534-8.723.352-10.346-.352Z"/><path fill="#1D1D1D" d="M316.469 86.887a.296.296 0 0 1-.283-.183l-7.508-17.417a.305.305 0 0 1 .07-.352l3.246-3.098-4.798-.732a.333.333 0 0 1-.212-.127.354.354 0 0 1-.056-.24l2.978-15.191a.3.3 0 0 1 .367-.24.298.298 0 0 1 .239.366l-2.907 14.869 5.109.788a.323.323 0 0 1 .254.212c.043.112 0 .239-.084.323l-3.543 3.394 7.424 17.22a.304.304 0 0 1-.169.408h-.127ZM319.687 86.859a.406.406 0 0 1-.127-.028.33.33 0 0 1-.17-.409l7.41-17.191-3.542-3.394c-.085-.084-.113-.21-.085-.324.042-.112.127-.197.254-.21l5.109-.79-2.907-14.868a.316.316 0 0 1 .24-.366.317.317 0 0 1 .367.24l2.978 15.192a.292.292 0 0 1-.057.24c-.042.07-.127.112-.211.126l-4.799.732 3.246 3.098a.298.298 0 0 1 .071.352l-7.495 17.417a.294.294 0 0 1-.282.183ZM338.952 94.279l-40.381-.352a.313.313 0 0 1-.31-.31c0-.17.141-.31.31-.31l40.381.352c.169 0 .311.14.311.31-.015.169-.142.31-.311.31Z"/><path fill="#fff" d="m318.19 93.012-6.139-44.48 6.012-5.983 5.999 5.984-5.872 44.479Z"/><path fill="#1D1D1D" d="m318.077 56.84-2.498-3.041 2.498-3.041 2.499 3.04-2.499 3.042Z"/><path fill="#1D1D1D" d="m317.146 54.137-1.468 20.711 2.512 18.29 2.385-18.163-1.538-20.838h-1.891Z"/><path fill="#E2EAFF" d="m358.105 35.509-2.286-.704c-6.239-1.915-9.739-8.504-7.82-14.728l5.307-17.205 24.87 7.63-5.307 17.207c-1.92 6.223-8.525 9.715-14.764 7.8Z"/><path fill="#E2EAFF" d="M349.99 25.61a.942.942 0 0 1-.734-.351c-4.587-5.703-7.325-11.518-8.144-17.29a24.933 24.933 0 0 1-.169-5.604.914.914 0 0 1 .409-.69.959.959 0 0 1 .805-.113l10.416 3.295a.93.93 0 1 1-.565 1.774l-9.273-2.929a24.095 24.095 0 0 0 .226 4.013c.776 5.449 3.388 10.954 7.749 16.39a.936.936 0 0 1-.141 1.309.96.96 0 0 1-.579.197ZM367.421 31.046a.936.936 0 0 1-.889-.662.924.924 0 0 1 .621-1.155c6.69-2 11.983-5.069 15.709-9.11.917-1 1.75-2.07 2.47-3.182l-9.316-2.844c-.494-.155-.776-.676-.621-1.154a.941.941 0 0 1 1.158-.62l10.458 3.182a.918.918 0 0 1 .593.55.939.939 0 0 1-.056.802c-.918 1.605-2.047 3.112-3.331 4.52-3.966 4.294-9.527 7.532-16.542 9.63a.685.685 0 0 1-.254.043ZM360.053 45.477c-4.149-4.237-3.232-9.785-2.766-11.644a.708.708 0 0 0-.48-.83l-2.216-.676a.69.69 0 0 0-.861.422c-.663 1.788-3.02 6.9-8.85 8.082-.719.14-.776 1.14-.07 1.352l14.538 4.463c.705.197 1.213-.648.705-1.169Z"/><path fill="#fff" d="M350.257 7.363c.48.113.96-.14 1.143-.591l1.045-2.661a1.06 1.06 0 0 0-.734-1.423 1.072 1.072 0 0 0-1.27.719l-.861 2.731c-.198.521.127 1.084.677 1.225Z"/><path fill="#1D1D1D" d="M350.483 7.7a1.338 1.338 0 0 1-1.129-.662 1.273 1.273 0 0 1-.099-1.013l.861-2.731a1.358 1.358 0 0 1 1.638-.915c.381.098.705.352.889.704.183.352.212.76.056 1.126l-1.044 2.661a1.23 1.23 0 0 1-1.172.83Zm.96-4.744a.753.753 0 0 0-.72.535l-.861 2.732a.612.612 0 0 0 .057.52c.084.155.24.268.423.324a.656.656 0 0 0 .776-.408l1.045-2.661a.735.735 0 0 0-.028-.62.714.714 0 0 0-.494-.38.624.624 0 0 0-.198-.042Z"/><path fill="#fff" d="M347.746 8.278c.579.141 1.186-.197 1.355-.76l1.313-4.111a1.28 1.28 0 0 0-.918-1.634 1.282 1.282 0 0 0-1.552.944l-1.031 4.181a1.133 1.133 0 0 0 .833 1.38Z"/><path fill="#1D1D1D" d="M348.014 8.616a1.481 1.481 0 0 1-1.242-.704 1.492 1.492 0 0 1-.169-1.098l1.03-4.182a1.595 1.595 0 0 1 1.934-1.169c.423.099.804.38 1.016.775.211.38.268.845.127 1.267l-1.313 4.111c-.183.606-.762 1-1.383 1Zm-.198-.648a.835.835 0 0 0 .988-.549l1.313-4.111a.937.937 0 0 0-.085-.774.911.911 0 0 0-.621-.465.986.986 0 0 0-1.185.718l-1.031 4.182a.798.798 0 0 0 .099.62.828.828 0 0 0 .522.38Z"/><path fill="#fff" d="M345.558 7.743a1.147 1.147 0 0 0 1.383-.83l1.03-4.182c.17-.69-.254-1.38-.945-1.55a1.291 1.291 0 0 0-1.581 1.029l-.748 4.238a1.14 1.14 0 0 0 .861 1.295Z"/><path fill="#1D1D1D" d="M345.826 8.081c-.113 0-.226-.014-.339-.042a1.47 1.47 0 0 1-1.087-1.662l.748-4.238c.071-.436.325-.816.706-1.056.367-.24.833-.324 1.256-.21a1.582 1.582 0 0 1 1.172 1.929l-1.031 4.18a1.486 1.486 0 0 1-1.425 1.099Zm-.198-.648a.822.822 0 0 0 1.002-.605l1.031-4.182a.957.957 0 0 0-.113-.732.955.955 0 0 0-.607-.436.964.964 0 0 0-1.186.774l-.748 4.238a.831.831 0 0 0 .621.943Z"/><path fill="#fff" d="M343.567 6.532a1.026 1.026 0 0 0 1.257-.817l.621-3.463a1.136 1.136 0 0 0-.861-1.31 1.137 1.137 0 0 0-1.412.986l-.367 3.506a.995.995 0 0 0 .762 1.098Z"/><path fill="#1D1D1D" d="M343.808 6.87c-.099 0-.212-.014-.311-.042a1.32 1.32 0 0 1-1.002-1.422l.367-3.506c.042-.423.268-.789.607-1.042a1.47 1.47 0 0 1 1.185-.225 1.446 1.446 0 0 1 1.087 1.661l-.621 3.464a1.35 1.35 0 0 1-.578.873c-.226.169-.48.24-.734.24Zm.494-5.646a.845.845 0 0 0-.833.746l-.367 3.506a.707.707 0 0 0 .536.76.726.726 0 0 0 .565-.098.664.664 0 0 0 .31-.465l.621-3.463a.833.833 0 0 0-.621-.958 1.085 1.085 0 0 0-.211-.028Z"/><path fill="#fff" d="m314.309 45.182-.55 3.365c.24.282 1.792 1.957 4.333 1.985 2.794.042 4.474-1.971 4.672-2.21l-.424-3.76-8.031.62Z"/><path fill="#1D1D1D" d="M318.162 50.842h-.085c-2.526-.028-4.121-1.62-4.558-2.098a.334.334 0 0 1-.071-.253l.55-3.365c.029-.141.142-.254.283-.254l8.031-.62a.323.323 0 0 1 .338.268l.424 3.76a.258.258 0 0 1-.071.225c-.31.394-2.018 2.337-4.841 2.337Zm-4.065-2.408c.494.521 1.891 1.76 3.994 1.774h.071c2.357 0 3.839-1.506 4.277-1.999l-.367-3.323-7.495.577-.48 2.971ZM307.407 32.721c-.155-.887-.184-1.83.141-2.675.325-.845 1.073-1.577 1.976-1.662.776-.07 1.553.31 2.315.197 1.341-.21 1.99-1.774 3.147-2.464a2.746 2.746 0 0 1 2.752-.014c.607.352 1.13.958 1.835.958.664-.014 1.186-.578 1.821-.746.621-.17 1.299.084 1.793.506.479.423.804 1 1.072 1.591a13.048 13.048 0 0 1 1.2 5.154c.042 1.619-.254 3.323-1.284 4.576-.932 1.126-2.329 1.746-3.741 2.154a18.009 18.009 0 0 1-6.986.62c-1.99-.212-2.865-1.211-3.868-2.802-1.044-1.676-1.849-3.478-2.173-5.393Z"/><path fill="#fff" d="M325.938 36.382c-1.101-1.437-2.145-.423-2.781.549-.127-1.31-.31-2.492-.564-3.337-1.059-3.45-2.541-.62-4.164.76-1.637 1.38-4.375-1.422-5.688-1.267-.889.098-1.298 1.028-1.482 1.619-.085.282-.113.577-.085.873.057.577.17 1.774.325 3.224-.79-.873-2.061-1.802-2.922-.126-1.072 2.098 1.384 4.125 3.317 3.576.099.774.198 1.549.297 2.267a3.873 3.873 0 0 0 3.909 3.323 19.362 19.362 0 0 0 4.46-.62c1.694-.45 2.866-2 2.851-3.745 0-.887-.014-1.915-.056-2.971 1.99.127 4.008-2.267 2.583-4.125Z"/><path fill="#1D1D1D" d="M316.03 48.153a4.187 4.187 0 0 1-4.135-3.59 92.807 92.807 0 0 1-.254-1.944c-1.059.155-2.245-.324-2.978-1.225-.706-.859-.833-1.915-.339-2.872.339-.648.762-1.014 1.284-1.084.466-.057.974.126 1.51.549-.112-1.07-.197-1.93-.24-2.394-.028-.338 0-.676.099-.985.325-1.085.946-1.746 1.736-1.83.593-.071 1.313.309 2.16.745 1.171.62 2.512 1.31 3.359.592.339-.282.677-.648 1.016-1 .791-.845 1.539-1.633 2.329-1.45.55.127.974.718 1.327 1.844.197.648.367 1.521.494 2.62.437-.494.903-.747 1.369-.761.522-.014 1.002.267 1.439.83.65.845.72 1.887.198 2.859-.55 1.014-1.623 1.703-2.696 1.76.029.845.043 1.746.043 2.661a4.137 4.137 0 0 1-3.091 4.04 18.905 18.905 0 0 1-4.531.635h-.099Zm-4.135-6.224c.056 0 .127.014.169.056a.346.346 0 0 1 .141.226c.099.816.198 1.577.297 2.267a3.566 3.566 0 0 0 3.528 3.055h.071a19.162 19.162 0 0 0 4.389-.605c1.553-.409 2.625-1.83 2.625-3.45 0-1.028-.028-2.028-.056-2.97 0-.085.028-.17.099-.24a.298.298 0 0 1 .24-.085c.931.07 1.962-.535 2.442-1.436.239-.436.536-1.295-.142-2.182-.31-.409-.621-.606-.917-.592-.409.014-.889.409-1.355 1.127a.296.296 0 0 1-.339.127.315.315 0 0 1-.24-.268c-.141-1.422-.324-2.52-.55-3.28-.339-1.085-.663-1.366-.875-1.423-.438-.098-1.101.606-1.736 1.282-.339.366-.692.732-1.059 1.056-1.171.985-2.766.154-4.051-.522-.691-.352-1.397-.732-1.792-.675-.72.084-1.073.915-1.214 1.394-.07.239-.099.492-.07.746.056.577.169 1.774.324 3.224.014.127-.056.268-.183.31a.3.3 0 0 1-.353-.07c-.607-.662-1.172-1-1.595-.944-.311.042-.579.296-.805.746-.508 1-.056 1.803.269 2.197.649.803 1.778 1.197 2.681.943 0 0 .028-.014.057-.014Z"/><path fill="#1D1D1D" d="M323.37 40.634h-.028a.314.314 0 0 1-.282-.338 7.611 7.611 0 0 0-.085-1.788.326.326 0 0 1 .254-.366.327.327 0 0 1 .367.253c.113.634.141 1.296.099 1.943-.028.17-.17.296-.325.296ZM311.952 42.647a.307.307 0 0 1-.311-.281l-.226-2.014a.305.305 0 0 1 .283-.338.304.304 0 0 1 .338.282l.226 2.013a.305.305 0 0 1-.282.338h-.028Z"/><path fill="#1D1D1D" d="M311.091 37.762c.226.267.438.535.663.816.763 3.548 1.765 4.534 2.612 4.689 1.115.197 1.679-1.084 3.669-1.281 1.934-.197 2.738.9 3.684.464.706-.324 1.426-1.492 1.087-5.547l.607-.042c.677 2.464.649 4.491.522 5.772-.155 1.62-.282 2.746-1.129 3.76-1.214 1.45-3.077 1.661-4.46 1.816-1.398.155-3.769.422-5.335-1.042-.876-.817-1.101-1.802-1.511-3.675a20.155 20.155 0 0 1-.409-5.73ZM53.873 74.018s6.747.225 4.065-6.111c-2.413-5.702-2.907-.732-3.81-.788-.974-.057-.861-2.028-2.033-1.887-1.157.14-1.454 2-2.667 2-1.214 0-4.023-1.155-5.745.633-1.44 1.506-.79 3.675-.79 3.675s-2.16.76-1.51 4.322c.649 3.562 7.452 8.758 7.452 8.758l5.038-10.602Z"/><path fill="#fff" d="m47.409 80.903-.678 10.292-.875.043s2.513 6.153 7.777 6.997c5.265.845 4.884-7.04 4.884-7.04l-3.783-.478.283-7.195-7.608-2.62Z"/><path fill="#1D1D1D" d="M54.692 92.124c-.014 0-.014 0 0 0a.307.307 0 0 1-.31-.323l.324-8.068-7.015-2.422-.65 9.884a.323.323 0 0 1-.324.296.323.323 0 0 1-.296-.324l.677-10.292a.29.29 0 0 1 .142-.24c.084-.056.183-.07.268-.028l7.607 2.619a.322.322 0 0 1 .212.31l-.325 8.293a.32.32 0 0 1-.31.296Z"/><path fill="#1D1D1D" d="M56.47 91.153h-.028l-1.736-.127a.306.306 0 0 1-.282-.338.315.315 0 0 1 .339-.281l1.736.127c.17.014.296.154.282.337a.319.319 0 0 1-.31.282Z"/><path fill="#fff" d="M49.159 83.212s2.851 3.295 6.76 1.549c3.91-1.746 2.203-7.11-.098-12.686-.508.45-1.172.844-2.23 1.084-1.82.408-5.815.633-6.126.267 1.214 1.436 2.033 3.013 1.553 4.252-.184.536-.692 1.014-1.779 1.31 0 0-1.129-1.647-2.342-.211-1.243 1.436.818 5.646 4.262 4.435Z"/><path fill="#1D1D1D" d="M53.633 85.578c-2.357 0-4.065-1.521-4.559-2.014-1.608.479-3.133-.07-4.12-1.506-.848-1.226-.975-2.69-.311-3.478.409-.479.86-.718 1.355-.69.62.028 1.1.493 1.34.746.763-.24 1.228-.591 1.384-1.056.38-.986-.142-2.38-1.482-3.956a.31.31 0 0 1 .028-.437c.127-.099.296-.099.41.014.465.226 4.008.07 5.843-.338.875-.197 1.552-.52 2.088-1.013a.294.294 0 0 1 .283-.07c.098.027.183.084.211.182 2.202 5.337 4.192 11.194-.056 13.08-.861.395-1.68.535-2.414.535Zm-4.474-2.676c.085 0 .17.043.24.113.113.127 2.752 3.097 6.394 1.464 3.656-1.633 1.92-6.941-.099-11.897-.565.408-1.214.704-2.047.887-.973.21-3.853.549-5.42.436 1.116 1.507 1.483 2.844 1.06 3.9-.227.69-.904 1.197-1.99 1.507-.128.028-.269-.014-.34-.127 0 0-.451-.633-1.002-.662-.282-.014-.564.141-.847.48-.48.562-.324 1.76.353 2.73.325.465 1.539 1.93 3.6 1.212a.128.128 0 0 1 .098-.043Z"/><path fill="#1D1D1D" d="M47.353 81.522a.32.32 0 0 1-.254-.126c-.17-.24-.353-.479-.579-.648-.212-.169-.452-.24-.635-.211a.327.327 0 0 1-.367-.254.326.326 0 0 1 .254-.366c.367-.07.776.057 1.13.338.282.226.507.521.69.775.1.14.071.338-.07.436-.042.042-.113.056-.17.056Z"/><path fill="#fff" d="M73.026 230.883s-.126-2.971-.324-7.941H15.878l-2.64 11.658c-.592 2.619 1.61 5.28 4.39 5.28h59.619c1.482 0 2.16-1.689 1.157-2.844l-5.377-6.153Z"/><path fill="#1D1D1D" d="M77.247 240.19H17.629c-1.454 0-2.81-.676-3.755-1.831-.889-1.112-1.228-2.506-.931-3.815l2.64-11.659a.302.302 0 0 1 .296-.239h56.823c.17 0 .31.127.31.296l.325 7.828 5.307 6.069c.565.647.706 1.506.381 2.238-.324.69-.988 1.113-1.778 1.113Zm-61.114-16.939L13.55 234.67c-.254 1.127.042 2.324.818 3.295.819 1.014 2.004 1.605 3.26 1.605h59.619c.536 0 .988-.281 1.2-.746.24-.507.127-1.112-.282-1.577l-5.378-6.153a.336.336 0 0 1-.07-.197l-.311-7.646H16.132Z"/><path fill="#0098C7" d="M75.2 223.223c-1.03-25.006-6.704-102.685-6.704-103.234l-29.287-.014-26.125 103.248h62.117Z"/><path fill="#1D1D1D" d="M53.846 240.19H40.932a.313.313 0 0 1-.31-.31c0-.169.14-.31.31-.31H53.86c.565 0 1.016-.338 1.186-.887a1.574 1.574 0 0 0-.593-1.788l-8.031-5.744a.31.31 0 0 1-.127-.296l14.185-90.732c.254-1.633 1.482-2.858 3.133-3.111l.254-.043a.305.305 0 0 1 .353.254.304.304 0 0 1-.254.352l-.254.042c-1.383.211-2.414 1.239-2.625 2.591l-14.157 90.52 7.876 5.646a2.206 2.206 0 0 1 .819 2.478c-.255.831-.932 1.338-1.779 1.338Z"/><path fill="#1D1D1D" d="M46.605 231.193H15.99a.313.313 0 0 1-.31-.31c0-.169.14-.31.31-.31h30.614c.17 0 .31.141.31.31s-.14.31-.31.31ZM73.027 231.193H48.27a.313.313 0 0 1-.31-.31c0-.169.141-.31.31-.31h24.757c.17 0 .31.141.31.31s-.14.31-.31.31Z"/><path fill="#fff" d="m75.13 91.632 2.385-.338s-1.157-5.195-2.611-8.18c-1.454-2.986-3.176-6.168-2.583-9.11.607-2.943 1.567-3.534 2.4-3.633.832-.099.973 1.577.748 2.816-.226 1.253.38 2.042.38 2.042l6.648.887s3.769 6.899 4.926 12.15c1.158 5.253 3.176 12.419-12.505 14.348 0 .028.72-7.8.212-10.982Z"/><path fill="#1D1D1D" d="M74.918 102.952a.318.318 0 0 1-.31-.267.325.325 0 0 1 .267-.352c6.154-.761 10.022-2.352 11.814-4.886 1.863-2.633 1.143-5.843.522-8.673l-.085-.409c-1.044-4.745-4.29-10.94-4.812-11.94l-6.493-.873a.309.309 0 0 1-.197-.112c-.029-.042-.706-.93-.452-2.295.183-.986.085-2.056-.212-2.38-.056-.056-.113-.084-.197-.07-.636.07-1.539.507-2.132 3.379-.536 2.619.875 5.477 2.23 8.237l.325.676c1.454 2.985 2.597 8.04 2.64 8.25a.35.35 0 0 1-.043.24.334.334 0 0 1-.212.127l-2.385.338c-.17.028-.325-.099-.353-.268-.028-.169.099-.324.268-.352l2.047-.296c-.282-1.182-1.299-5.294-2.513-7.786l-.324-.662c-1.412-2.858-2.851-5.8-2.273-8.63.509-2.493 1.355-3.732 2.668-3.873a.836.836 0 0 1 .72.268c.522.563.55 1.9.367 2.914-.155.86.127 1.479.268 1.704l6.507.873c.099.014.183.07.225.155.043.07 3.797 7.012 4.955 12.235l.084.409c.621 2.816 1.398 6.308-.62 9.166-1.906 2.675-5.9 4.365-12.252 5.139-.014.014-.028.014-.042.014Z"/><path fill="#fff" d="M63.372 90.76a126.97 126.97 0 0 0-5.673-.03 6.888 6.888 0 0 1-.127 1.085c-.17.957-.551 1.915-1.299 2.535-.861.704-2.047.802-3.176.661-2.738-.366-5.151-1.915-7.24-3.76-8.553.775-15.512 2.465-15.596 2.634-.1.211 4.093 9.94 5.871 14.235 1.03-.31 2.075-.634 3.105-.944-.31 4.168-.593 8.871-.903 13.038 10.303.169 20.564-.169 30.882 0 .226-5.618.197-9.856-.325-15.516 2.287-.07 3.853-.309 5.773-.225.663-3.886.748-8.814.48-12.827-.043-.366-10.77-.859-11.772-.887Z"/><path fill="#1D1D1D" d="M44.855 120.58c-2.174 0-4.362-.014-6.535-.056a.334.334 0 0 1-.226-.098.321.321 0 0 1-.085-.226c.155-2.084.31-4.35.452-6.533.141-2.013.268-4.097.423-6.054l-2.667.816a.317.317 0 0 1-.381-.183 574.804 574.804 0 0 0-2.033-4.829c-3.966-9.392-3.938-9.448-3.839-9.673.042-.099.184-.38 4.841-1.267a115.216 115.216 0 0 1 11.01-1.55.37.37 0 0 1 .24.071c2.47 2.183 4.784 3.38 7.07 3.69.861.112 2.09.112 2.936-.592.607-.493 1.002-1.281 1.2-2.337.056-.31.099-.662.113-1.042a.31.31 0 0 1 .31-.296c2.202-.042 4.009-.028 5.703.028.508.014 3.443.141 6.252.31 5.773.352 5.787.493 5.801.845.296 4.562.127 9.377-.48 12.897a.297.297 0 0 1-.325.253c-1.157-.056-2.159.015-3.316.099-.664.042-1.341.099-2.103.127.508 5.801.494 10.151.296 15.234a.301.301 0 0 1-.31.296c-5.152-.084-10.374-.042-15.427 0-2.936.042-5.914.07-8.92.07Zm-6.197-.675c5.04.084 10.149.042 15.103 0 4.954-.043 10.077-.085 15.144 0 .184-5.027.198-9.364-.325-15.179a.303.303 0 0 1 .071-.239.283.283 0 0 1 .226-.099c.89-.028 1.651-.084 2.4-.126 1.044-.071 2.032-.141 3.105-.113.55-3.407.72-7.97.437-12.306-1.284-.296-9.88-.718-11.46-.774-1.61-.057-3.318-.057-5.378-.028-.029.295-.057.577-.099.83-.212 1.211-.692 2.126-1.411 2.718-.82.662-1.99.915-3.416.718-2.385-.324-4.77-1.549-7.311-3.746-7.608.69-13.903 2.112-15.13 2.507.366 1.07 2.314 5.674 3.768 9.11.72 1.703 1.411 3.336 1.92 4.561l2.836-.858c.1-.029.212-.015.283.056.084.07.127.169.112.267-.155 2.084-.31 4.323-.451 6.505-.127 2.07-.268 4.196-.424 6.196Z"/><path fill="#fff" d="M41.736 125.325c.522-.014.86-.535.875-1.041.014-.507-.24-1.014-.494-1.479-1.722-3.041-8.737-9.279-13.55-12.066 0 0 3.57-2.563 6.69-3.858L30.29 94.969c-4.107 1.464-6.874 2.999-9.965 5.956-1.411 1.337-2.71 2.858-3.359 4.717-.96 2.703-.437 5.913 1.045 8.603 1.482 2.675 3.839 4.871 6.45 6.533 2.61 1.661 5.476 2.844 8.355 3.886 0 0 2.626 4.308 3.26 4.463.932.225 1.483-.465-.028-4.646 0 0 1.793 3.069 2.485 3.506 1.213.774 1.947-.578 1.44-1.732 0 0 .55.845 1.284.704.734-.169.48-1.634.48-1.634Z"/><path fill="#1D1D1D" d="M36.654 129.521c-.113 0-.226-.014-.353-.042-.649-.155-2.37-2.844-3.387-4.506-2.597-.957-5.618-2.154-8.313-3.886-2.908-1.858-5.18-4.153-6.55-6.645-1.608-2.915-2.004-6.224-1.072-8.857.734-2.07 2.23-3.675 3.444-4.829 2.823-2.704 5.603-4.816 10.007-6.392a.315.315 0 0 1 .395.182.314.314 0 0 1-.183.395c-4.305 1.534-6.945 3.534-9.782 6.251-1.722 1.648-2.738 3.07-3.288 4.59-.875 2.464-.494 5.59 1.03 8.35 1.327 2.407 3.514 4.618 6.337 6.42 2.682 1.718 5.703 2.915 8.3 3.858.07.028.127.071.155.127 1.185 1.957 2.696 4.168 3.077 4.322.296.071.367-.014.395-.042.155-.169.395-.929-.805-4.196-.056-.155.014-.323.156-.38a.3.3 0 0 1 .395.127c.677 1.154 1.92 3.112 2.371 3.393.24.155.579.282.847.057.282-.24.41-.831.155-1.408-.07-.141 0-.324.141-.395.141-.07.325-.028.41.099 0 0 .451.676.973.563.31-.056.31-.845.24-1.253a.337.337 0 0 1 .07-.254.296.296 0 0 1 .227-.112c.353-.014.564-.394.578-.732.015-.437-.211-.887-.451-1.31-1.68-2.957-8.709-9.208-13.437-11.954a.296.296 0 0 1-.155-.253c0-.113.056-.211.141-.268.042-.028 3.768-2.464 6.874-3.773.155-.07.338.014.409.169.07.155-.014.338-.17.408-2.441 1.028-5.292 2.774-6.35 3.45 4.854 2.943 11.53 8.927 13.224 11.926.282.506.55 1.056.536 1.633-.014.535-.324 1.098-.846 1.281.042.521.014 1.521-.763 1.676a1.21 1.21 0 0 1-.875-.155c-.014.464-.197.887-.508 1.154-.423.366-1.002.366-1.58-.014-.325-.211-.82-.859-1.299-1.563.41 1.662.212 2.225-.056 2.507a.896.896 0 0 1-.664.281Z"/><path fill="#1D1D1D" d="M40.112 126.311a.32.32 0 0 1-.296-.211 16.833 16.833 0 0 0-1.68-3.436.29.29 0 0 1 .099-.422.29.29 0 0 1 .423.098 17.405 17.405 0 0 1 1.75 3.563.314.314 0 0 1-.183.394c-.042.014-.07.014-.113.014ZM41.933 125.508a.318.318 0 0 1-.296-.211 14.263 14.263 0 0 0-2.188-4.111.327.327 0 0 1 .056-.437.329.329 0 0 1 .438.057 14.991 14.991 0 0 1 2.287 4.294.304.304 0 0 1-.198.394c-.042 0-.07.014-.099.014ZM28.468 110.752a.24.24 0 0 1-.14-.042c-.834-.45-1.709-.83-2.598-1.14a.316.316 0 0 1-.197-.394.317.317 0 0 1 .395-.198c.917.31 1.82.704 2.696 1.183a.307.307 0 0 1 .127.423.31.31 0 0 1-.283.168ZM60.437 74.651c-.635.099-1.044.704-.903 1.352a1.381 1.381 0 0 0 1.411 1.07l29.71-2.365-1.002-4.816-29.216 4.76Z"/><path fill="#1D1D1D" d="m60.438 74.651.508 2.422 42.949-1.858-1.863-8.955-41.594 8.391Z"/><path fill="#1D1D1D" d="m103.048 65.584-1.087.338 2.004 9.63 1.172.07c.465.03.818-.323.734-.731l-1.821-8.786c-.085-.409-.579-.662-1.002-.521Z"/><path fill="#fff" d="M82.709 69.062c.493-.028 1.044.028 1.383.408.353.394.409.944.423 1.436.014.507 0 1.014-.155 1.479-.141.464-.438.9-.875 1.126-.24.127-.522.183-.79.113-.466-.141-.749-.662-.749-1.127 0-.464.198-.887.396-1.28-.466-.03-.974-.015-1.426-.114.056-.21.72-1.985 1.793-2.041Z"/><path fill="#1D1D1D" d="M82.977 73.976c-.113 0-.226-.014-.339-.043-.635-.183-.96-.858-.974-1.408 0-.366.1-.704.226-1-.338-.013-.677-.027-1.016-.098a.296.296 0 0 1-.24-.324c.028-.31.748-2.266 2.06-2.337.749-.042 1.285.127 1.638.521.424.465.494 1.084.508 1.633.014.479 0 1.042-.17 1.591-.183.592-.55 1.056-1.03 1.31a1.578 1.578 0 0 1-.663.155Zm-1.623-3.112c.198.028.41.028.607.042.155 0 .296.014.437.028.1.014.198.07.24.155a.313.313 0 0 1 .014.296c-.183.366-.367.746-.367 1.14 0 .324.198.733.523.831.226.07.437-.028.55-.084.325-.17.579-.507.72-.944.141-.45.155-.957.141-1.38-.014-.45-.056-.929-.353-1.239-.211-.239-.578-.338-1.143-.31-.635 0-1.157.944-1.369 1.465Z"/><path fill="#1D1D1D" d="M82.385 71.498a.502.502 0 0 1-.142-.029c-.155-.07-.211-.267-.14-.422l.395-.788c.07-.155.268-.212.423-.141.155.07.212.267.141.422l-.395.789c-.07.098-.17.169-.282.169Z"/><path fill="#fff" d="M80.888 68.597c.55-.028 1.143.028 1.524.45.382.437.452 1.028.466 1.577.014.55 0 1.113-.17 1.634-.168.52-.479.985-.959 1.239-.254.14-.564.21-.86.112-.509-.154-.82-.718-.82-1.225 0-.506.226-.971.438-1.422-.508-.042-1.059-.014-1.567-.126.029-.226.763-2.183 1.948-2.24Z"/><path fill="#1D1D1D" d="M81.17 73.976c-.127 0-.24-.014-.367-.057-.677-.197-1.044-.915-1.044-1.52 0-.409.127-.789.268-1.127-.381-.014-.776-.028-1.143-.112a.296.296 0 0 1-.24-.324c.028-.338.804-2.464 2.23-2.535.819-.042 1.397.141 1.778.564.452.506.537 1.182.55 1.788.015.52 0 1.14-.183 1.731-.197.648-.593 1.155-1.115 1.423-.24.112-.494.169-.734.169Zm-1.82-3.365c.226.028.465.042.705.042.17 0 .325.014.48.028.099.014.198.07.254.155a.313.313 0 0 1 .014.295c-.197.395-.409.831-.409 1.282 0 .38.226.83.593.943.254.07.508-.028.635-.099.367-.197.65-.577.805-1.056.155-.506.169-1.055.155-1.534-.014-.479-.07-1.028-.395-1.38-.24-.268-.65-.38-1.285-.352-.762.014-1.34 1.112-1.552 1.675Z"/><path fill="#1D1D1D" d="M80.521 71.244a.501.501 0 0 1-.14-.028c-.156-.07-.213-.268-.142-.422l.438-.873c.07-.155.268-.212.423-.141.155.07.212.267.141.422l-.437.873c-.071.113-.17.169-.283.169Z"/><path fill="#fff" d="M79.053 68.597c.55-.028 1.144.028 1.525.45.38.437.451 1.028.465 1.577.014.55 0 1.113-.169 1.634-.17.52-.48.985-.96 1.239-.254.14-.564.21-.86.112-.509-.154-.82-.718-.82-1.225 0-.506.226-.971.438-1.422-.508-.042-1.058-.014-1.566-.126.028-.226.762-2.183 1.947-2.24Z"/><path fill="#1D1D1D" d="M79.335 73.976a1.11 1.11 0 0 1-.367-.057c-.677-.197-1.044-.915-1.044-1.52 0-.409.127-.789.268-1.127-.38-.014-.776-.028-1.143-.112a.296.296 0 0 1-.24-.324c.028-.338.805-2.464 2.23-2.535.819-.042 1.397.141 1.778.564.452.506.537 1.182.55 1.788.015.52 0 1.14-.183 1.731-.197.648-.592 1.155-1.115 1.423-.24.112-.494.169-.734.169Zm-1.82-3.365c.225.028.465.042.705.042.17 0 .325.014.48.028.1.014.198.07.254.155a.312.312 0 0 1 .014.295c-.197.395-.409.831-.409 1.282 0 .38.226.83.593.943.254.07.508-.028.635-.099.367-.197.65-.577.805-1.056.155-.506.169-1.055.155-1.534-.014-.507-.07-1.028-.395-1.38-.24-.268-.65-.38-1.285-.352-.748.014-1.326 1.112-1.552 1.675Z"/><path fill="#fff" d="M77.247 69.076c.381-.056 1.002-.014 1.383.408.353.394.41.93.424 1.436.014.507 0 1.014-.156 1.479-.14.464-.437.9-.875 1.126a1.093 1.093 0 0 1-.79.113c-.579-.17-.72-.986-.748-1.113v-.014c-.042-.324.014-.732.339-1.21-.198.056-.41.112-.621.154-.212.043-.41.085-.607.127.07-1.366.748-2.38 1.651-2.506Z"/><path fill="#1D1D1D" d="M77.5 73.976c-.112 0-.225-.014-.338-.043-.72-.21-.918-1.098-.96-1.351a1.734 1.734 0 0 1 .07-.803c-.211.042-.409.085-.606.127a.322.322 0 0 1-.254-.07.33.33 0 0 1-.113-.254c.07-1.492.847-2.647 1.905-2.816.48-.07 1.214.014 1.666.507.423.465.494 1.084.508 1.633.014.479 0 1.042-.17 1.577-.183.591-.55 1.056-1.016 1.31-.24.126-.465.183-.691.183Zm-.663-2.971c.1 0 .198.042.254.127.07.098.085.239 0 .352-.24.352-.324.675-.282.985.042.282.212.775.522.859.226.07.438-.028.55-.085.325-.168.58-.506.72-.943.142-.45.156-.957.142-1.38-.014-.436-.057-.915-.339-1.239-.296-.338-.833-.352-1.115-.31-.678.099-1.2.831-1.34 1.83.07-.013.126-.027.197-.041.211-.043.409-.099.607-.155h.084Z"/><path fill="#1D1D1D" d="M76.908 71.498a.502.502 0 0 1-.141-.029c-.155-.07-.212-.267-.141-.422l.395-.789c.07-.154.268-.21.423-.14.156.07.212.267.141.422l-.395.788a.31.31 0 0 1-.282.17Z"/><path fill="#fff" d="M227.972 17.585c0-7.885-6.408-14.277-14.297-14.277-7.89 0-14.298 6.392-14.298 14.277 0 6.083 3.811 11.278 9.174 13.334v6.336h10.233v-6.336c5.377-2.056 9.188-7.251 9.188-13.334Z"/><path fill="#1D1D1D" d="M218.798 37.565h-10.233a.313.313 0 0 1-.311-.31V31.13c-5.504-2.196-9.174-7.617-9.174-13.545 0-8.04 6.549-14.587 14.608-14.587 8.059 0 14.608 6.547 14.608 14.587 0 5.928-3.683 11.349-9.174 13.545v6.125a.335.335 0 0 1-.324.31Zm-9.923-.62h9.612V30.92c0-.127.085-.24.198-.296 5.377-2.055 8.976-7.307 8.976-13.052 0-7.702-6.28-13.967-13.987-13.967-7.706 0-13.987 6.265-13.987 13.967 0 5.745 3.613 10.982 8.977 13.052.127.043.197.155.197.296v6.026h.014ZM213.575 46.505a3.97 3.97 0 0 1-1.581-.323c-1.623-.733-2.131-2.45-2.145-2.52-.028-.1-.014-.198.057-.268a.301.301 0 0 1 .254-.127h8.271v-2.69h-9.782a.313.313 0 0 1-.31-.309c0-.169.141-.31.31-.31h10.092c.169 0 .311.141.311.31v3.309c0 .169-.142.31-.311.31h-8.13c.226.492.734 1.309 1.666 1.731 1.016.451 2.286.338 3.768-.366a.31.31 0 1 1 .254.563c-.988.451-1.905.69-2.724.69Z"/><path fill="#1D1D1D" d="M212.87 33.51a.327.327 0 0 1-.31-.254l-4.023-19.67c-.028-.168.071-.338.24-.366.169-.028.339.07.367.24l4.022 19.67c.029.168-.07.337-.239.365-.015.015-.043.015-.057.015ZM214.493 33.51h-.057a.3.3 0 0 1-.24-.366l4.023-19.67c.028-.17.198-.268.367-.24a.3.3 0 0 1 .24.367l-4.037 19.655a.3.3 0 0 1-.296.254ZM213.208 15.544h-.042a.302.302 0 0 1-.269-.254l-.479-2.886-.763 1.535a.32.32 0 0 1-.282.168h-1.157a.313.313 0 0 1-.311-.31c0-.168.141-.309.311-.309h.96l1.1-2.225c.057-.126.184-.183.325-.169.127.014.24.127.254.254l.452 2.788 1.03-2.436c.057-.113.155-.197.297-.183.127 0 .239.084.282.211l.621 1.774h1.397c.17 0 .311.14.311.31 0 .169-.141.31-.311.31h-1.609a.318.318 0 0 1-.296-.212l-.438-1.225-1.143 2.69c0 .098-.113.169-.24.169Z"/><path fill="#fff" d="M185.955 98.292s26.704 41.916 27.508 57.15c.805 15.235-8.511 29.723-42.074 50.308l-6.352 12.729c-.889 1.774-3.429 1.76-4.304-.029-2.753-5.716-7.566-15.91-10.6-23.527a3.935 3.935 0 0 1 1.538-4.773c6.253-3.985 30.924-22.373 36.401-28.709l-16.514-45.845 5.378-16.121 9.019-1.183Z"/><path fill="#1D1D1D" d="M162.906 220.112h-.014a2.656 2.656 0 0 1-2.414-1.535c-2.653-5.491-7.551-15.854-10.599-23.556-.749-1.9-.057-4.069 1.651-5.153 5.9-3.759 30.416-21.951 36.203-28.512l-16.443-45.675a.243.243 0 0 1 0-.198l5.377-16.121a.324.324 0 0 1 .254-.211l8.991-1.155a.296.296 0 0 1 .296.14c1.087 1.719 26.761 42.156 27.566 57.306.903 16.981-11.306 31.624-42.146 50.534l-6.309 12.643a2.68 2.68 0 0 1-2.413 1.493Zm9.005-104.53 16.471 45.746a.315.315 0 0 1-.056.31c-5.604 6.491-30.501 24.963-36.472 28.765a3.624 3.624 0 0 0-1.411 4.407c3.049 7.688 7.946 18.037 10.586 23.514.353.732 1.044 1.168 1.863 1.182h.014c.804 0 1.496-.436 1.863-1.154l6.351-12.728a.337.337 0 0 1 .113-.127c30.67-18.811 42.809-33.299 41.919-50.026-.776-14.503-25.518-53.927-27.367-56.841l-8.596 1.112-5.278 15.84Z"/><path fill="#fff" d="M156.032 188.08a95.86 95.86 0 0 0 8.751 17.882l-8.751-17.882Z"/><path fill="#1D1D1D" d="M164.783 206.271a.342.342 0 0 1-.268-.141 97.429 97.429 0 0 1-8.779-17.937.316.316 0 0 1 .184-.395.315.315 0 0 1 .395.183 96.498 96.498 0 0 0 8.723 17.826.314.314 0 0 1-.099.422.29.29 0 0 1-.156.042ZM183.47 166.678a.313.313 0 0 1-.212-.084c-.127-.113-.127-.31-.014-.437l6.831-7.321c.113-.127.311-.127.438-.014.127.112.127.309.014.436l-6.831 7.322a.283.283 0 0 1-.226.098Z"/><path fill="#fff" d="m164.176 98.799.593 117.131a3.91 3.91 0 0 0 3.909 3.886h26.253c1.34 0 1.919-1.675.875-2.506l-8.328-6.561-4.135-88.831 2.611-5.463-4.037-17.656h-17.741Z"/><path fill="#1D1D1D" d="M194.931 220.112h-26.253a4.223 4.223 0 0 1-4.22-4.196l-.593-117.131c0-.085.028-.155.085-.226a.32.32 0 0 1 .226-.084h17.727c.17 0 .311.14.311.31 0 .169-.141.31-.311.31h-17.417l.579 116.821a3.607 3.607 0 0 0 3.599 3.576h26.252c.579 0 .918-.38 1.031-.732a1.076 1.076 0 0 0-.353-1.225l-8.327-6.561a.292.292 0 0 1-.113-.225l-4.051-86.874a8.128 8.128 0 0 1 .79-3.872l1.765-3.689a.294.294 0 0 1 .409-.141.293.293 0 0 1 .141.409l-1.764 3.689a7.45 7.45 0 0 0-.72 3.576l4.037 86.733 8.214 6.477c.579.464.805 1.21.565 1.914a1.687 1.687 0 0 1-1.609 1.141Z"/><path fill="#1D1D1D" d="M177.556 211.354a99.3 99.3 0 0 1-11.588-.676.294.294 0 0 1-.268-.338.295.295 0 0 1 .339-.267 99.328 99.328 0 0 0 20.353.267.314.314 0 0 1 .338.282.314.314 0 0 1-.282.338c-2.95.253-5.914.394-8.892.394ZM167.733 46.42c-.311-.942-.96-1.801-1.849-2.238-.903-.422-2.061-.352-2.795.296-.508.45-.79 1.126-.903 1.802-.184 1.056 0 2.197.621 3.07.607.887 1.665 1.464 2.738 1.408 2.428-.127 2.809-2.464 2.188-4.337Z"/><path fill="#1D1D1D" d="M183.555 57.347c-.155-1.042-.31-2.112-.042-3.126.24-.873.79-1.675.818-2.59.029-.986-.592-1.901-1.397-2.478-.805-.564-1.778-.831-2.738-1.028a29.513 29.513 0 0 0-6.86-.648c-1.806.042-3.726.296-5.151 1.408-1.426 1.112-2.146 2.886-2.71 4.604-1.652 5.055-2.442 10.363-3.218 15.629-.127.873-.254 1.788.084 2.59.466 1.141 1.708 1.747 2.866 2.155 4.897 1.76 10.19 2.084 15.37 1.76 1.256-.085 2.569-.211 3.641-.887 2.499-1.577 1.2-5.168.833-7.505-.494-3.28-1.002-6.575-1.496-9.884Z"/><path fill="#fff" d="m209.723 62.557 2.456-6.153s-4.22-.789-3.373-2.845c.861-2.055 5.815-.098 7.014-1.14 0 0 3.12-2.858 4.065-4.182.946-1.31 2.188-3.266 3.515-2.365 0 0 1.806-1.45 2.286.985 0 0 1.482 1.437-3.782 7.097-.212.225-.537 5.674-1.751 12.01a33.602 33.602 0 0 1-10.43-3.407Z"/><path fill="#1D1D1D" d="M220.125 65.528h-.056a.303.303 0 0 1-.254-.353c.508-2.984.889-5.646 1.171-7.575.48-3.266.55-3.66.706-3.83 4.827-5.209 3.796-6.645 3.782-6.66a.322.322 0 0 1-.084-.168c-.085-.437-.269-.986-.664-1.127-.409-.154-.959.184-1.129.324a.32.32 0 0 1-.367.014c-.917-.62-1.863.55-2.907 2.028l-.184.268c-.945 1.323-3.98 4.11-4.107 4.224-.621.535-1.807.436-3.19.323-1.567-.126-3.345-.267-3.754.704-.127.31-.113.578.028.845.494.901 2.414 1.436 3.119 1.563.085.014.17.07.212.155a.324.324 0 0 1 .028.253l-2.046 5.83c-.057.154-.24.253-.396.183-.155-.057-.254-.24-.183-.395l1.934-5.491c-.777-.183-2.612-.732-3.19-1.802-.24-.437-.254-.901-.057-1.38.579-1.394 2.597-1.225 4.376-1.084 1.143.098 2.314.183 2.724-.17.028-.027 3.105-2.843 4.008-4.125l.184-.267c.917-1.295 2.145-3.041 3.571-2.295.31-.197.945-.507 1.552-.296.508.183.861.69 1.045 1.52.296.423.973 2.24-3.811 7.42-.099.282-.325 1.79-.579 3.535a383.89 383.89 0 0 1-1.171 7.59c-.029.14-.17.239-.311.239Z"/><path fill="#1D1D1D" d="M217.839 52.687c-.155 0-.296-.113-.31-.268-.015-.169.098-.324.268-.338.465-.056.903-.324 1.312-.605a15.21 15.21 0 0 0 3.247-3.056l.169-.21c.282-.367.579-.747.946-1.057.55-.465 1.171-.662 1.736-.591a.326.326 0 0 1 .268.352.326.326 0 0 1-.353.267c-.395-.056-.847.113-1.256.45-.325.268-.579.606-.861.958l-.17.226a15.442 15.442 0 0 1-3.387 3.182c-.48.324-1.002.647-1.595.718.014-.029 0-.029-.014-.029Z"/><path fill="#1D1D1D" d="M219.574 50.898a.285.285 0 0 1-.254-.14.317.317 0 0 1 .085-.437c.918-.605 1.567-1.549 2.202-2.45l1.171-1.675a.316.316 0 0 1 .438-.07.314.314 0 0 1 .071.436l-1.172 1.675c-.635.901-1.355 1.93-2.357 2.605a.284.284 0 0 1-.184.056Z"/><path fill="#0098C7" d="M131.22 86.788s6.676 12.616 16.838 12.32c10.162-.295 14.538-9.335 14.538-9.335s-3.007 9.195.31 11.659c3.317 2.464 27.255 4.829 28.92-2.704 1.186-5.392.212-8.955.819-13.249 0 0 14.269 2.915 22.568-3.407 5.265-4 5.59-16.418 5.59-16.418s-8.074-2.07-11.772-3.125c-.691 6.35-2.653 8.828-4.629 9.757-2.428 1.14-4.63-.169-10.134-1.323-4.051-.845-7.015-.972-12.943-1.225-4.319-.183-10.444-.085-17.967 1.28-3.359 1.704-8.088 2.24-10.388 5.633-2.569 3.787-6.705 8.054-12.082 7.448l-9.668 2.69Z"/><path fill="#1D1D1D" d="M192.503 85.099a.313.313 0 0 1-.31-.31 14.223 14.223 0 0 1 1.228-5.871.309.309 0 1 1 .564.253 13.74 13.74 0 0 0-1.171 5.618c0 .169-.141.31-.311.31ZM172.984 90.069a6.227 6.227 0 0 1-1.835-.268 6.444 6.444 0 0 1-3.74-2.97.314.314 0 0 1 .113-.423.315.315 0 0 1 .423.113 5.853 5.853 0 0 0 3.374 2.675 5.927 5.927 0 0 0 4.304-.38c.156-.085.339-.014.424.14a.325.325 0 0 1-.141.423 6.56 6.56 0 0 1-2.922.69ZM185.701 88.731a.317.317 0 0 1-.311-.267.305.305 0 0 1 .254-.352c2.075-.324 3.867-2.14 4.164-4.21.183-1.31-.212-2.69-1.087-3.802-.113-.14-.085-.324.056-.436.142-.113.325-.085.438.056.974 1.24 1.411 2.788 1.214 4.266-.325 2.338-2.343 4.38-4.686 4.731-.014 0-.028.014-.042.014ZM162.723 89.013h-.043a.3.3 0 0 1-.268-.352c.113-.957.24-1.957.028-2.9-.169-.775-.691-1.732-1.595-2.042-.155-.056-.254-.24-.197-.394a.316.316 0 0 1 .395-.197c.974.338 1.736 1.295 2.004 2.492.226 1.042.099 2.14-.014 3.111-.028.17-.155.282-.31.282ZM146.279 89.76h-15.554a.883.883 0 0 1-.79-.48l-10.656-21.387c-.297-.577.127-1.267.79-1.267h15.554c.339 0 .635.183.79.478l10.671 21.388a.893.893 0 0 1-.805 1.267ZM131.22 59.769a.345.345 0 0 1-.226-.085c-.127-.126-.127-.323 0-.436l9.767-9.687c.127-.127.324-.127.437 0 .127.127.127.324 0 .436l-9.767 9.687a.286.286 0 0 1-.211.085ZM140.987 59.769a.287.287 0 0 1-.212-.085c-.127-.112-.127-.31-.014-.436l11.983-12.419c.113-.126.31-.126.437-.014.127.113.127.31.014.437L141.212 59.67a.28.28 0 0 1-.225.099ZM143.471 70.033a.289.289 0 0 1-.212-.084.298.298 0 0 1 0-.437l6.126-6.251a.299.299 0 0 1 .437 0 .298.298 0 0 1 0 .436l-6.125 6.252a.377.377 0 0 1-.226.084Z"/><path fill="#fff" d="M129.045 77.03c-.353-.154-.72.198-.946.522a8.424 8.424 0 0 0-1.242 2.9c.184-1.929.353-3.858.537-5.787.056-.62-.029-1.45-.65-1.577-.479-.098-.875.352-1.115.76a7.723 7.723 0 0 0-1.002 2.774c.226-1.337.452-2.66.692-3.998.056-.31.099-.648-.042-.915-.297-.606-1.271-.493-1.68.042a2.31 2.31 0 0 0-.155.253c.028-.084.042-.183.056-.267.127-.648-.07-1.493-.72-1.648-.395-.098-.832.141-1.072.479-.24.338-.325.746-.396 1.154-.282 1.76-.127 3.59.41 5.295 1.002 3.998 3.768 7.617 7.113 10.039-.832-2.971.494-6.04.579-9.124 0-.352-.056-.775-.367-.901Z"/><path fill="#1D1D1D" d="M128.834 87.352a.285.285 0 0 1-.184-.057c-3.627-2.633-6.266-6.364-7.226-10.208a11.946 11.946 0 0 1-.424-5.42c.071-.437.17-.902.452-1.296.282-.394.819-.732 1.383-.591.621.14.946.746.988 1.38.254-.127.551-.198.847-.17.395.043.72.254.875.578.184.38.113.802.071 1.112l-.141.83c.395-.562.861-.816 1.326-.731.664.126.988.845.889 1.9l-.324 3.45a8.47 8.47 0 0 1 .466-.774c.395-.578.889-.817 1.312-.634.268.113.579.408.551 1.183-.029 1.154-.24 2.309-.438 3.435-.339 1.943-.663 3.788-.155 5.604a.294.294 0 0 1-.127.338c-.014.056-.085.07-.141.07Zm-6.253-16.981c-.254 0-.494.183-.635.366-.198.282-.282.662-.339 1.028a11.206 11.206 0 0 0 .41 5.153c.875 3.492 3.161 6.871 6.337 9.377-.268-1.675.028-3.379.324-5.04.198-1.098.396-2.225.424-3.337.014-.324-.057-.55-.169-.592-.156-.07-.396.17-.565.409a8.107 8.107 0 0 0-1.2 2.802.305.305 0 0 1-.353.24.323.323 0 0 1-.268-.339l.537-5.787c.042-.52-.029-1.168-.396-1.239-.352-.07-.691.45-.79.62a7.802 7.802 0 0 0-.932 2.464l-.028.197a.305.305 0 0 1-.353.253.305.305 0 0 1-.254-.352c.014-.07.029-.14.029-.21l.649-3.802c.056-.296.084-.55-.014-.733-.085-.169-.254-.21-.381-.225a.926.926 0 0 0-.777.324 1.486 1.486 0 0 0-.127.211.309.309 0 0 1-.381.155.33.33 0 0 1-.197-.366c.014-.084.042-.169.056-.253.099-.535-.056-1.183-.494-1.282-.028-.042-.071-.042-.113-.042Z"/><path fill="#1D1D1D" d="M122.624 77.326c-.155 0-.297-.112-.311-.267a9.435 9.435 0 0 1 .692-4.83.33.33 0 0 1 .409-.168c.156.07.226.253.17.408a8.86 8.86 0 0 0-.65 4.52c.014.168-.098.323-.268.337h-.042ZM124.684 80.1a.315.315 0 0 1-.31-.253 8.9 8.9 0 0 1-.085-2.872.3.3 0 0 1 .353-.268c.169.028.296.169.268.352a8.482 8.482 0 0 0 .085 2.675.326.326 0 0 1-.254.366h-.057Z"/><path fill="#fff" d="m173.096 61.149-1.171 8.476c-.057.45-.41.802-.861.873l-2.626.422s7.072 6.21 14.143-.281l-2.724-.31a1.077 1.077 0 0 1-.96-1.098l.113-6.984c.014.014-.607-4.604-5.914-1.098Z"/><path fill="#fff" d="M171.261 58.938c-.494.38-.705 1.056-.606 1.662.112.605.522 1.14 1.044 1.464.536.324 1.171.422 1.793.366.338-.028.691-.113 1.016.014.254.084.437.282.635.465.946.816 2.272 1.182 3.5.929a3.859 3.859 0 0 0 2.767-2.31c.381-.957.324-2.027.155-3.054-.311-1.944-1.016-3.816-1.835-5.604a10.383 10.383 0 0 1-4.319.07 4.92 4.92 0 0 1-.113 3.45 4.985 4.985 0 0 1-1.637 2.098c-.141.112-.381.323-.551.352-.225.042-.367-.099-.592-.155a1.426 1.426 0 0 0-1.257.253Z"/><path fill="#1D1D1D" d="M177.867 64.204a4.494 4.494 0 0 1-2.922-1.084l-.098-.085c-.156-.126-.283-.253-.438-.31-.184-.07-.423-.042-.678-.013-.07.014-.141.014-.197.028-.72.07-1.426-.085-1.976-.409-.635-.38-1.073-1-1.2-1.675-.127-.746.155-1.52.72-1.957.423-.324 1.002-.45 1.524-.324.113.028.212.07.283.099.113.056.141.056.183.056.071-.014.24-.155.325-.211.042-.029.084-.057.113-.085a4.643 4.643 0 0 0 1.538-1.957 4.646 4.646 0 0 0 .099-3.238.314.314 0 0 1 .056-.31.294.294 0 0 1 .297-.099 9.793 9.793 0 0 0 4.192-.07c.141-.028.296.042.353.169.677 1.506 1.51 3.506 1.863 5.688.141.83.268 2.084-.17 3.21-.48 1.24-1.651 2.211-2.992 2.493-.31.07-.593.084-.875.084Zm-3.754-2.14c.169 0 .338.014.508.084.268.099.465.268.635.437l.099.084c.889.76 2.117 1.099 3.232.86 1.129-.24 2.131-1.07 2.54-2.113.381-.985.268-2.126.141-2.886-.254-1.577-.79-3.224-1.707-5.294a10.606 10.606 0 0 1-3.712.098 5.337 5.337 0 0 1-.254 3.182 5.27 5.27 0 0 1-1.736 2.225c-.029.028-.057.042-.099.07-.17.127-.367.296-.579.338-.24.057-.423-.028-.565-.098a.83.83 0 0 0-.169-.07c-.339-.085-.72 0-.988.21-.381.296-.579.845-.494 1.366.085.493.424.958.903 1.253.452.268 1.017.38 1.609.324.057 0 .127-.014.184-.014a1.59 1.59 0 0 1 .452-.056Z"/><path fill="#1D1D1D" d="M173.464 61.726a.319.319 0 0 1-.268-.155 1.215 1.215 0 0 0-.96-.563.304.304 0 0 1-.297-.324c0-.169.156-.31.325-.296a1.805 1.805 0 0 1 1.468.86.313.313 0 0 1-.099.422.27.27 0 0 1-.169.056Z"/><path fill="#E2EAFF" d="m168.269 10.024-39.435 27.4 5.321 6.941 39.308-27.371 3.021 3.717 4.22-15.53-15.258 1.027 2.823 3.816ZM22.23 28.469l2.4 3.252L.31 48.379v16.248l32.096-22.035 2.555 3.182 2.357-14.967L22.23 28.47Z"/><path fill="#1D1D1D" d="M233.336 52.926a.362.362 0 0 1-.268-.14.29.29 0 0 1 .099-.423L268 29.863a.292.292 0 0 1 .424.098.29.29 0 0 1-.099.423l-34.834 22.5a.284.284 0 0 1-.155.042Z"/><path fill="#1D1D1D" d="M266.49 37.002c-.028 0-.056 0-.07-.015a.31.31 0 0 1-.226-.38l1.595-6.237-6.493-.69a.314.314 0 0 1-.282-.338.314.314 0 0 1 .338-.282l6.846.719a.368.368 0 0 1 .226.126c.056.07.07.17.042.254l-1.68 6.59a.288.288 0 0 1-.296.252ZM6.45 24.175a.364.364 0 0 1-.268-.141.29.29 0 0 1 .099-.422l34.834-22.5a.291.291 0 0 1 .423.098.29.29 0 0 1-.099.423L6.62 24.118a.271.271 0 0 1-.169.057Z"/><path fill="#1D1D1D" d="M39.604 8.25c-.028 0-.056 0-.07-.014a.31.31 0 0 1-.226-.38l1.595-6.238-6.493-.69a.314.314 0 0 1-.282-.337.315.315 0 0 1 .339-.282l6.845.718c.085.014.17.056.226.127.056.07.07.169.042.253l-1.68 6.59c-.042.169-.169.253-.296.253Z"/><path fill="#E2EAFF" d="M237.429 99.883c3.889 0 7.043-3.146 7.043-7.026s-3.154-7.026-7.043-7.026c-3.89 0-7.043 3.145-7.043 7.026 0 3.88 3.153 7.026 7.043 7.026Z"/><path fill="#fff" d="M236.554 97.01a.461.461 0 0 1-.381-.21l-2.781-4.183a.47.47 0 0 1 .127-.647.473.473 0 0 1 .649.127l2.4 3.604 4.389-6.449a.474.474 0 0 1 .65-.126c.211.14.268.436.127.647l-4.771 7.012c-.113.14-.254.225-.409.225Z"/><path fill="#E2EAFF" d="M237.429 137.73c3.889 0 7.043-3.146 7.043-7.026 0-3.881-3.154-7.026-7.043-7.026-3.89 0-7.043 3.145-7.043 7.026 0 3.88 3.153 7.026 7.043 7.026Z"/><path fill="#fff" d="M236.554 134.857a.46.46 0 0 1-.381-.211l-2.781-4.182a.47.47 0 0 1 .127-.647.473.473 0 0 1 .649.126l2.4 3.605 4.389-6.449a.475.475 0 0 1 .65-.127.472.472 0 0 1 .127.648l-4.771 7.012a.493.493 0 0 1-.409.225Z"/><path fill="#E2EAFF" d="M237.429 118.806c3.889 0 7.043-3.145 7.043-7.026 0-3.88-3.154-7.026-7.043-7.026-3.89 0-7.043 3.146-7.043 7.026 0 3.881 3.153 7.026 7.043 7.026Z"/><path fill="#fff" d="M236.554 115.934a.463.463 0 0 1-.381-.211l-2.781-4.182a.471.471 0 0 1 .127-.648.474.474 0 0 1 .649.127l2.4 3.605 4.389-6.449a.475.475 0 0 1 .65-.127.472.472 0 0 1 .127.648l-4.771 7.012a.493.493 0 0 1-.409.225Z"/><path fill="#1D1D1D" d="M275.975 90.942h-25.222a.314.314 0 0 1-.311-.31c0-.169.142-.31.311-.31h25.222c.169 0 .311.141.311.31s-.142.31-.311.31ZM275.975 95.152h-25.222a.314.314 0 0 1-.311-.31c0-.169.142-.31.311-.31h25.222c.169 0 .311.141.311.31s-.142.31-.311.31ZM275.975 128.803h-25.222a.314.314 0 0 1-.311-.31c0-.169.142-.31.311-.31h25.222c.169 0 .311.141.311.31s-.142.31-.311.31ZM275.975 132.999h-25.222a.314.314 0 0 1-.311-.31c0-.169.142-.31.311-.31h25.222c.169 0 .311.141.311.31s-.142.31-.311.31ZM275.975 109.879h-25.222a.314.314 0 0 1-.311-.309c0-.169.142-.31.311-.31h25.222c.169 0 .311.141.311.31a.314.314 0 0 1-.311.309ZM275.975 114.075h-25.222a.314.314 0 0 1-.311-.31c0-.169.142-.309.311-.309h25.222c.169 0 .311.14.311.309 0 .169-.142.31-.311.31ZM237.429 82.804a.313.313 0 0 1-.311-.31v-11.7c0-.17.141-.31.311-.31h52.561c.169 0 .31.14.31.31 0 .168-.141.31-.31.31h-52.251v11.39c0 .169-.141.31-.31.31Z"/><path fill="#E2EAFF" d="M92.136 23.393a3.748 3.748 0 0 0 3.366-4.096 3.752 3.752 0 0 0-4.106-3.358 3.748 3.748 0 0 0-3.366 4.096 3.752 3.752 0 0 0 4.106 3.358ZM106.447 20.122a3.746 3.746 0 0 0-3.267-4.175 3.753 3.753 0 0 0-4.185 3.26 3.747 3.747 0 0 0 3.267 4.174 3.752 3.752 0 0 0 4.185-3.26Z"/><path fill="#0098C7" d="M114.12 23.384a3.748 3.748 0 0 0 3.268-4.175 3.753 3.753 0 0 0-4.185-3.26 3.748 3.748 0 0 0-3.268 4.175 3.753 3.753 0 0 0 4.185 3.26Z"/><path fill="#1D1D1D" d="M67.155 61.303c-.17 0-.31-.14-.31-.31V19.205c0-.169.14-.31.31-.31h15.342c.17 0 .31.141.31.31 0 .17-.14.31-.31.31H67.466v41.48c0 .169-.141.31-.31.31ZM117.416 27.385h-28.78c-.169 0-.31-.141-.31-.31 0-.17.141-.31.31-.31h28.78c.169 0 .31.14.31.31 0 .169-.141.31-.31.31ZM108.453 32.06H88.637c-.17 0-.31-.142-.31-.31 0-.17.14-.31.31-.31h19.816c.169 0 .311.14.311.31 0 .183-.142.31-.311.31Z"/></svg>