<svg xmlns="http://www.w3.org/2000/svg" width="388" height="258" fill="none"><path fill="#fff" d="M384.102 185.066H184.993l-8.948 1.296v3.337c0 4.013 3.26 7.265 7.283 7.265h196.625c4.022 0 7.283-3.252 7.283-7.265v-2.661l-3.134-1.972Z"/><path fill="#fff" d="M387.25 187.038H176.045V57.685c0-3.802 3.091-6.885 6.902-6.885h197.401c3.811 0 6.902 3.083 6.902 6.885v129.353Z"/><path fill="#1D1D1D" d="M387.25 187.348H176.045a.314.314 0 0 1-.311-.31V57.685c0-3.97 3.233-7.195 7.213-7.195h197.401c3.98 0 7.212 3.224 7.212 7.195v129.353c0 .169-.141.31-.31.31Zm-210.895-.62h210.584V57.685c0-3.619-2.95-6.576-6.591-6.576H182.947c-3.628 0-6.592 2.943-6.592 6.576v129.043Z"/><path fill="#1D1D1D" d="M379.43 179.547H183.863a.313.313 0 0 1-.31-.31V59.29c0-.55.451-1 1.002-1h194.183c.55 0 1.002.45 1.002 1v119.947c0 .169-.141.31-.31.31Zm-195.256-.619h194.945V59.29a.379.379 0 0 0-.381-.38H184.555a.379.379 0 0 0-.381.38v119.638ZM379.967 197.288H183.328c-4.192 0-7.594-3.393-7.594-7.575 0-.169.142-.31.311-.31s.31.141.31.31c0 3.844 3.134 6.956 6.973 6.956h196.625c3.853 0 6.972-3.126 6.972-6.956 0-.169.141-.31.311-.31.169 0 .31.141.31.31.014 4.168-3.387 7.575-7.579 7.575Z"/><path fill="#fff" d="M308.719 219.041h-54.128a5.83 5.83 0 0 1-5.843-5.829v-16.234h65.829v16.234a5.86 5.86 0 0 1-5.858 5.829Z"/><path fill="#1D1D1D" d="M308.719 219.351h-54.128c-3.401 0-6.153-2.759-6.153-6.139v-16.234c0-.169.141-.31.31-.31h65.829c.169 0 .31.141.31.31v16.234c-.014 3.38-2.78 6.139-6.168 6.139Zm-59.675-22.063v15.924c0 3.042 2.485 5.52 5.533 5.52h54.128c3.049 0 5.533-2.478 5.533-5.52v-15.924h-65.194Z"/><path fill="#E2EAFF" d="M370.342 80.804H193.52v91.07h176.822v-91.07Z"/><path fill="#0098C7" d="m290.766 171.874-15.018-47.422-23.246-21.458s11.602-18.233 20.649-21.035c9.047-2.802 52.829-5.111 64.206-4.013 18.037 1.746 25.673 25.611 27.762 27.357l5.533 9.068-19.887 17.656 14.157 39.847h-74.156Z"/><path fill="#1D1D1D" d="M253.278 115.54a.304.304 0 0 1-.296-.226l-2.541-9.602a.31.31 0 0 1 .226-.38.31.31 0 0 1 .381.225l2.541 9.602a.312.312 0 0 1-.226.381h-.085Z"/><path fill="#fff" d="M243.371 59.938c1.863 4.956 7.354 45.14 7.354 45.14l1.778-2.084s16.457 9.8 23.26 21.458c0 0-9.343 14.981-30.204 15.009-33.027.029-24.404-68.64-24.404-68.64s-3.655.113-5.038-3.83c-1.398-3.942-1.2-6.884 2.752-6.504 0 0-1.92-6.196 3.43-6.449 0 0 .353-7.688 7.847-1.704 0 0-9.696-14.22-3.924-15.783 1.595-.437 2.4-1.211 4.672 2.773 2.273 3.957 10.614 15.672 12.477 20.614Z"/><path fill="#1D1D1D" d="M245.516 139.771c-5.998 0-11.037-2.267-15.003-6.73-7.932-8.955-10.148-25.429-10.6-37.65-.452-11.954.649-22.317.875-24.274-.988-.099-3.797-.648-4.996-4.027-1.017-2.858-1.073-4.801-.198-5.928.565-.732 1.524-1.07 2.837-1.027-.226-.944-.593-3.267.536-4.858.636-.915 1.652-1.422 3.021-1.549.085-.788.48-2.999 2.145-3.76 1.228-.548 2.837-.182 4.799 1.1-1.877-3-5.871-9.955-4.672-13.208.311-.83.932-1.38 1.835-1.633.155-.042.311-.085.452-.127 1.538-.479 2.498-.563 4.573 3.041.734 1.282 2.117 3.394 3.712 5.815 3.359 5.111 7.537 11.49 8.793 14.855 1.736 4.632 6.521 39.015 7.283 44.521l1.327-1.563a.326.326 0 0 1 .437-.042.325.325 0 0 1 .042.436l-1.778 2.084c-.085.099-.212.127-.325.099-.112-.029-.197-.141-.225-.254-.057-.408-5.519-40.212-7.34-45.084-1.242-3.309-5.391-9.645-8.736-14.742-1.595-2.436-2.979-4.548-3.727-5.857-1.933-3.351-2.653-3.126-3.853-2.76-.155.042-.31.099-.466.141-.719.197-1.185.605-1.425 1.253-1.412 3.83 5.448 13.968 5.519 14.066a.322.322 0 0 1-.043.408.32.32 0 0 1-.409.014c-2.4-1.914-4.248-2.59-5.533-2.027-1.665.746-1.806 3.464-1.806 3.492a.332.332 0 0 1-.297.295c-1.298.057-2.244.493-2.809 1.31-1.242 1.76-.338 4.717-.338 4.745.028.098.014.211-.057.282a.295.295 0 0 1-.268.112c-1.313-.127-2.23.127-2.724.76-.734.93-.635 2.732.282 5.337 1.299 3.689 4.7 3.632 4.743 3.618.084 0 .183.029.24.099.056.07.084.155.084.253-.014.113-1.397 11.335-.903 24.514.452 12.122 2.625 28.441 10.444 37.255 3.825 4.323 8.723 6.519 14.538 6.519h.028c20.438-.028 29.852-14.713 29.951-14.854.084-.141.282-.183.423-.099a.314.314 0 0 1 .099.423c-.099.155-2.428 3.844-7.354 7.575-4.544 3.449-12.251 7.561-23.119 7.575 0 .056 0 .056-.014.056Z"/><path fill="#1D1D1D" d="M239.433 71.708c-2.117 0-4.22-1.112-5.35-2.914-.381-.606-.663-1.281-.917-1.943-.423-1.042-.833-2.042-1.623-2.732-.452-.394-1.002-.661-1.595-.943-.254-.127-.508-.24-.748-.38-1.115-.606-1.764-1.338-1.948-2.21-.198-.972.297-2.085 1.228-2.775.861-.633 1.891-.858 2.795-1a18.686 18.686 0 0 1 10.289 1.352c.155.07.226.254.155.409-.07.155-.254.225-.409.155a18.068 18.068 0 0 0-9.937-1.296c-.832.127-1.778.338-2.526.887-.621.45-1.157 1.296-.988 2.155.169.83.988 1.436 1.637 1.788.24.126.48.253.734.366.593.281 1.214.577 1.736 1.042.904.788 1.355 1.886 1.793 2.957.254.633.522 1.28.875 1.844 1.171 1.859 3.5 2.915 5.66 2.563a.304.304 0 0 1 .352.253.303.303 0 0 1-.254.352c-.338.042-.649.07-.959.07Z"/><path fill="#1D1D1D" d="M229.539 67.062a3.573 3.573 0 0 1-1.538-.366c-.904-.45-1.595-1.225-2.075-1.844a16.674 16.674 0 0 1-3.614-10.209c0-.169.142-.31.311-.31s.311.142.311.31a16.155 16.155 0 0 0 3.472 9.828c.451.563 1.072 1.282 1.877 1.676.776.394 1.651.408 2.272.056.593-.338 1.016-1.21.678-1.858-.085-.155-.014-.338.141-.423.155-.084.339-.014.423.141.466.901.043 2.14-.917 2.69-.395.21-.861.31-1.341.31Z"/><path fill="#1D1D1D" d="M225.122 69.005c-.296 0-.579-.028-.875-.098-1.524-.352-2.907-1.507-3.811-3.197-.79-1.478-1.115-3.125-1.425-4.716a.315.315 0 0 1 .24-.366c.169-.043.324.07.367.239.31 1.549.635 3.14 1.369 4.548.804 1.52 2.046 2.576 3.387 2.886 1.538.352 3.176-.422 3.656-1.732a.315.315 0 0 1 .395-.183c.155.057.24.24.183.395-.465 1.351-1.933 2.224-3.486 2.224Z"/><path fill="#1D1D1D" d="M221.436 70.709a.31.31 0 0 1-.31-.296c-.014-.169.127-.31.296-.324.819-.042 1.567-.732 1.694-1.534a.326.326 0 0 1 .353-.268.326.326 0 0 1 .268.352c-.169 1.098-1.157 2-2.272 2.07h-.029Z"/><path fill="#fff" d="M298.429 138.969h31.475a2.604 2.604 0 0 0 2.456-3.464l-12.929-36.791a2.6 2.6 0 0 0-2.455-1.732h-31.475a2.604 2.604 0 0 0-2.456 3.464l12.929 36.791a2.6 2.6 0 0 0 2.455 1.732Z"/><path fill="#fff" d="M318.007 119.13s-2.159-.465-1.298-2.591c.776-1.915 11.94-6.519 31.136 3.393a622.21 622.21 0 0 1 5.321 2.788c-1.426 4.886-4.743 14.235-10.53 20.402-4.502-5.111-9.414-9.814-15.215-10.658-10.275-1.493-1.552-3.647-1.552-3.647s-7.664-.085-7.664-1.845c0-2.337 6.196-2.534 8.821-2.506.72.028 1.157.028 1.157.028s-.451-.028-1.157-.028c-2.922-.098-10.388-.521-11.094-2.323-.903-2.225 2.075-3.013 2.075-3.013Z"/><path fill="#1D1D1D" d="M332.516 134.547a.323.323 0 0 1-.155-.042c-1.694-.929-3.345-1.492-5.011-1.732-4.615-.661-5.236-1.45-5.264-2.055-.028-.69.945-1.267 1.948-1.648-2.527-.14-6.168-.605-6.168-2.098 0-.436.169-.844.522-1.182.706-.704 2.103-1.113 3.655-1.338-3.203-.352-5.956-1-6.422-2.182-.254-.648-.239-1.267.029-1.803.338-.661.988-1.084 1.51-1.337a2.085 2.085 0 0 1-.776-.789c-.283-.535-.283-1.182.014-1.9.451-1.113 3.486-2.76 8.835-2.929.17-.014.311.127.325.296a.322.322 0 0 1-.296.323c-5.124.169-7.961 1.76-8.286 2.535-.225.549-.239 1.014-.042 1.38.325.605 1.115.788 1.129.788.141.028.24.155.24.296a.336.336 0 0 1-.226.31c-.014 0-1.411.38-1.877 1.295-.197.394-.197.817-.014 1.295.438 1.099 4.573 1.915 10.812 2.126.691 0 1.143.029 1.171.029a.322.322 0 0 1 .296.323c0 .169-.155.296-.31.296 0 0-.452 0-1.172-.028-1.99-.014-6.788.084-8.172 1.45-.226.225-.338.465-.338.746 0 .902 3.825 1.493 7.367 1.535.155 0 .282.113.311.268a.32.32 0 0 1-.24.338c-1.539.38-3.232 1.126-3.218 1.562 0 .127.268.831 4.742 1.479 1.722.253 3.486.859 5.222 1.802a.306.306 0 0 1 .127.423c-.042.112-.155.168-.268.168Z"/><path fill="#1D1D1D" d="M329.284 119.792h-.057c-3.74-.69-7.805-.549-10.557-.324a.315.315 0 0 1-.339-.282.314.314 0 0 1 .282-.338c2.795-.239 6.916-.38 10.727.324.17.028.283.197.254.366-.042.141-.169.254-.31.254Z"/><path fill="#fff" d="M367.829 116.877s16.274 22.106 2.809 32.088c-13.635 10.124-28.017-5.829-28.017-5.829l7.946-21.782 8.045 2.676 9.217-7.153Z"/><path fill="#1D1D1D" d="M360.87 152.626c-1.002 0-2.032-.098-3.063-.281a.313.313 0 0 1-.254-.352.312.312 0 0 1 .367-.254c4.531.803 8.751-.211 12.548-3.041 5.462-4.055 6.647-10.588 3.528-19.445-2.343-6.659-6.365-12.165-6.408-12.221a.315.315 0 0 1 .071-.437.315.315 0 0 1 .437.071c.043.056 4.122 5.646 6.493 12.376 3.176 8.997 1.877 15.967-3.754 20.135-3.077 2.309-6.408 3.449-9.965 3.449Z"/><path fill="#1D1D1D" d="M368.803 128.775a.39.39 0 0 1-.127-.029l-10.191-4.435a.31.31 0 0 1 .254-.563l10.191 4.435c.155.071.226.254.155.409a.295.295 0 0 1-.282.183Z"/><path fill="#fff" d="m292.955 65.556 5.039 12.108-4.446 2.028s-.212 7.505 11.743 7.167c11.955-.338 18.122-9.138 18.122-9.138l-8.793-2.126-6.662-17.262-15.003 7.223Z"/><path fill="#1D1D1D" d="M293.547 80.002a.324.324 0 0 1-.282-.183.309.309 0 0 1 .155-.409l4.178-1.9-4.926-11.828c-.057-.155 0-.324.155-.394l15.003-7.223a.32.32 0 0 1 .254-.014.274.274 0 0 1 .17.183l6.605 17.107 8.638 2.098a.31.31 0 0 1 .226.38.311.311 0 0 1-.381.225l-8.793-2.126c-.099-.028-.184-.098-.212-.183l-6.535-16.952-14.439 6.956 4.926 11.84a.293.293 0 0 1-.155.395l-4.446 2.028h-.141Z"/><path fill="#1D1D1D" d="M299.969 82.156a.323.323 0 0 1-.282-.183l-1.665-3.66a.309.309 0 1 1 .564-.254l1.666 3.66a.31.31 0 0 1-.156.409c-.042.014-.084.028-.127.028ZM320.858 49.885c-1.228-1.845-3.782-2.549-4.798-4.506-.777-1.52-.41-3.337-.255-5.04.41-4.506-.875-9.153-3.57-12.8-1.849-2.492-4.404-4.561-7.41-5.35-2.696-.704-5.547-.338-8.257.268-3.162.704-6.366 1.802-8.751 3.998-3.091 2.845-4.432 7.294-4.023 11.462.791 8.279 7.17 15.36 14.693 18.402 3.769 1.52 7.834 2.225 11.899 2.464 1.905.113 3.839.113 5.688-.38 1.849-.493 3.599-1.52 4.643-3.126 1.031-1.59 1.2-3.802.141-5.392Z"/><path fill="#fff" d="M285.474 56.249c-.396 2.478-.551 5.125.479 7.42 1.567 3.506 5.731 5.392 9.556 5.04 3.825-.352 7.283-2.604 9.866-5.449.607-.661 1.213-1.393 2.046-1.717 1.073-.409 2.258-.057 3.402 0 2.512.126 5.024-1.338 6.154-3.577.663-1.323.832-2.999 0-4.21-.805-1.168-2.343-1.661-3.769-1.548-1.425.098-2.752.69-4.051 1.267.593-.704.734-1.718.508-2.605-.211-.887-.748-1.69-1.369-2.351-2.103-2.253-5.166-3.365-8.13-4.224-6.619-1.93-7.466-4.407-8.186-4.295-.72.113-1.552 2.197-1.877 2.788a41.198 41.198 0 0 0-4.629 13.46Z"/><path fill="#1D1D1D" d="M294.578 69.061c-3.853 0-7.495-2.112-8.906-5.266-1.115-2.506-.861-5.364-.494-7.589a42.285 42.285 0 0 1 4.657-13.6c.057-.114.142-.297.24-.494.593-1.239 1.172-2.351 1.849-2.45.367-.056.65.197 1.115.606.932.83 2.682 2.38 7.213 3.703 3.034.887 6.139 2.013 8.271 4.308.762.817 1.242 1.648 1.453 2.492.17.704.127 1.408-.098 2.028 1.03-.437 2.145-.83 3.302-.915 1.341-.099 3.091.295 4.051 1.69.974 1.436.649 3.28.014 4.533-1.185 2.337-3.839 3.872-6.45 3.745a11.758 11.758 0 0 1-.988-.098c-.819-.099-1.595-.183-2.286.07-.706.268-1.243.873-1.779 1.465l-.155.169c-2.95 3.252-6.521 5.223-10.064 5.561-.31.028-.635.042-.945.042Zm-2.555-28.807c-.423.07-1.129 1.549-1.397 2.112-.099.225-.198.408-.254.52a41.623 41.623 0 0 0-4.601 13.405c-.339 2.14-.607 4.886.451 7.237 1.426 3.182 5.307 5.224 9.245 4.857 3.387-.31 6.817-2.21 9.654-5.35l.155-.169c.579-.648 1.172-1.31 2.019-1.633.847-.324 1.722-.211 2.583-.113.31.043.635.07.945.085 2.386.112 4.799-1.282 5.872-3.408.55-1.098.847-2.689.014-3.9-.805-1.168-2.329-1.492-3.486-1.422-1.384.099-2.682.676-3.952 1.24a.309.309 0 0 1-.367-.1.297.297 0 0 1 .014-.38c.48-.577.663-1.478.451-2.337-.183-.732-.621-1.478-1.298-2.225-2.047-2.182-5.053-3.28-7.989-4.139-4.671-1.366-6.549-3.027-7.452-3.83-.226-.183-.522-.45-.607-.45Z"/><path fill="#1D1D1D" d="M308.818 59.22a.31.31 0 0 1-.183-.057.314.314 0 0 1-.071-.436c1.045-1.436 2.866-2.225 4.63-2.014a.294.294 0 0 1 .268.338.302.302 0 0 1-.339.268c-1.524-.183-3.147.52-4.051 1.76a.314.314 0 0 1-.254.14Z"/><path fill="#fff" d="m242.594 18.331-52.731 17.84-52.73-17.84L189.863.478l52.731 17.853Z"/><path fill="#1D1D1D" d="M189.863 36.48c-.028 0-.07 0-.098-.014l-52.731-17.853a.305.305 0 0 1-.212-.296c0-.127.085-.253.212-.296L189.765.168a.24.24 0 0 1 .197 0l52.731 17.854a.305.305 0 0 1 .212.295.318.318 0 0 1-.212.296l-52.731 17.853c-.028.014-.056.014-.099.014Zm-51.756-18.149 51.756 17.516L241.62 18.33 189.863.816 138.107 18.33Z"/><path fill="#fff" d="M217.627 39.818h-55.525V23.654c0-3 2.103-5.59 5.038-6.238 15.159-3.323 30.304-3.323 45.462 0 2.936.648 5.039 3.239 5.039 6.238v16.164h-.014Z"/><path fill="#1D1D1D" d="M217.627 40.127h-55.525a.313.313 0 0 1-.311-.31V23.655c0-3.126 2.216-5.872 5.279-6.548 15.13-3.323 30.472-3.323 45.589 0 3.062.676 5.278 3.422 5.278 6.548v16.164c0 .168-.127.31-.31.31Zm-55.215-.62h54.904V23.655c0-2.83-2.018-5.323-4.799-5.942-15.031-3.309-30.289-3.309-45.32 0-2.781.605-4.799 3.111-4.799 5.942v15.854h.014Z"/><path fill="#fff" d="M189.864 44.872c15.333 0 27.763-2.263 27.763-5.055 0-2.791-12.43-5.054-27.763-5.054-15.333 0-27.762 2.263-27.762 5.054 0 2.792 12.429 5.055 27.762 5.055Z"/><path fill="#1D1D1D" d="M189.864 45.168c-13.606 0-28.073-1.873-28.073-5.365 0-3.491 14.467-5.364 28.073-5.364s28.073 1.873 28.073 5.364c0 3.492-14.467 5.365-28.073 5.365Zm0-10.095c-16.175 0-27.452 2.492-27.452 4.745 0 2.238 11.277 4.745 27.452 4.745 16.175 0 27.452-2.493 27.452-4.745 0-2.24-11.277-4.745-27.452-4.745ZM147.789 44.013a.313.313 0 0 1-.31-.31V25.061c0-.169.141-.31.31-.31s.311.141.311.31v18.642c0 .183-.142.31-.311.31Z"/><path fill="#fff" d="M151.598 61.613h-7.621l3.81-15.558 3.811 15.558Z"/><path fill="#1D1D1D" d="M151.599 61.923h-7.622a.304.304 0 0 1-.24-.113c-.056-.07-.084-.169-.056-.267l3.811-15.573a.303.303 0 0 1 .593 0l3.81 15.573c.029.098 0 .183-.056.267a.322.322 0 0 1-.24.113Zm-7.226-.62h6.831l-3.416-13.953-3.415 13.953Z"/><path fill="#fff" d="M218.968 257.522H9.288c-4.715 0-8.54-3.815-8.54-8.518v-21.486c0-4.703 3.825-8.518 8.54-8.518h209.694v38.522h-.014Z"/><path fill="#1D1D1D" d="M218.968 257.832H9.288c-4.884 0-8.85-3.956-8.85-8.828v-21.486c0-4.872 3.966-8.828 8.85-8.828h209.694c.169 0 .31.141.31.31v38.523a.324.324 0 0 1-.324.309ZM9.288 219.309c-4.532 0-8.23 3.675-8.23 8.209v21.486c0 4.52 3.684 8.209 8.23 8.209H218.67v-37.904H9.287Z"/><path fill="#1D1D1D" d="M218.967 254.453H92.504c-4.023 0-7.283-3.266-7.283-7.265v-17.853c0-4.013 3.274-7.266 7.283-7.266H218.98c.169 0 .311.141.311.31s-.142.31-.311.31H92.504c-3.67 0-6.662 2.985-6.662 6.646v17.853c0 3.661 2.992 6.646 6.662 6.646H218.98c.169 0 .311.141.311.31a.316.316 0 0 1-.325.309Z"/><path fill="#1D1D1D" d="M126.35 230.601H93.492c-.17 0-.31-.14-.31-.309 0-.169.14-.31.31-.31h32.858c.169 0 .311.141.311.31a.313.313 0 0 1-.311.309ZM149.978 246.582h-46.365a.312.312 0 0 1-.31-.309c0-.169.141-.31.31-.31h46.365c.17 0 .311.141.311.31a.303.303 0 0 1-.311.309Z"/><path fill="#fff" d="M218.968 219H9.288c-4.715 0-8.54-3.816-8.54-8.519V192.36c0-4.703 3.825-8.518 8.54-8.518h209.694V219h-.014Z"/><path fill="#1D1D1D" d="M218.968 219.31H9.288c-4.884 0-8.85-3.957-8.85-8.829V192.36c0-4.871 3.966-8.828 8.85-8.828h209.694c.169 0 .31.141.31.31v35.144c-.014.183-.141.324-.324.324ZM9.288 184.166c-4.532 0-8.23 3.675-8.23 8.208v18.121c0 4.52 3.684 8.209 8.23 8.209H218.67V184.18H9.287v-.014Z"/><path fill="#1D1D1D" d="M218.967 215.944H92.504c-4.023 0-7.283-3.266-7.283-7.265v-14.488c0-4.013 3.274-7.266 7.283-7.266H218.98c.169 0 .311.141.311.31s-.142.31-.311.31H92.504c-3.67 0-6.662 2.985-6.662 6.646v14.474c0 3.661 2.992 6.646 6.662 6.646H218.98c.169 0 .311.14.311.309-.015.183-.142.324-.325.324Z"/><path fill="#E2EAFF" d="M68.44 191.037H8.019v19.993H68.44v-19.993Z"/><path fill="#fff" d="M122.836 257.523h-51.29c-6.86 0-11.588-6.872-9.118-13.264l28.82-74.3h53.183l-28.751 74.089 8.892 9.434c1.44 1.534.353 4.041-1.736 4.041Z"/><path fill="#1D1D1D" d="M122.836 257.832h-51.29c-3.332 0-6.437-1.633-8.314-4.379a10.026 10.026 0 0 1-1.087-9.307l28.821-74.3a.313.313 0 0 1 .297-.197h53.182c.099 0 .198.056.254.141a.287.287 0 0 1 .028.282l-28.68 73.906 8.765 9.292c.748.803.946 1.915.508 2.915a2.663 2.663 0 0 1-2.484 1.647ZM91.46 170.269l-28.75 74.103c-1.144 2.942-.776 6.125 1.016 8.729 1.793 2.605 4.63 4.098 7.805 4.098h51.291c.847 0 1.581-.479 1.92-1.253a2.05 2.05 0 0 0-.396-2.253l-8.891-9.434a.278.278 0 0 1-.057-.324l28.581-73.666H91.46Z"/><path fill="#1D1D1D" d="M115.581 244.288H70.684a.313.313 0 0 1-.311-.31c0-.169.141-.31.31-.31h44.898c.169 0 .31.141.31.31s-.141.31-.31.31Z"/><path fill="#fff" d="m20.043 145.502-5.208 15.051c-3.896 11.264 4.502 22.993 16.443 22.993h74.297l33.056 67.5a11.568 11.568 0 0 0 10.388 6.476h53.874c1.524 0 2.159-1.943.931-2.844l-14.396-10.461-31.489-73.625c-6.507-15.22-21.51-25.104-38.108-25.104H20.043v.014Z"/><path fill="#1D1D1D" d="M202.892 257.832h-53.874c-4.503 0-8.695-2.605-10.671-6.646l-32.97-67.33h-74.1c-5.8 0-11.051-2.704-14.41-7.406-3.36-4.703-4.207-10.532-2.315-15.995l5.208-15.052a.306.306 0 0 1 .296-.211h99.788c16.753 0 31.813 9.927 38.39 25.288l31.461 73.54 14.326 10.405c.677.493.945 1.309.677 2.098a1.875 1.875 0 0 1-1.806 1.309ZM20.268 145.812l-5.123 14.854c-1.821 5.266-1.002 10.898 2.244 15.432 3.246 4.548 8.313 7.152 13.902 7.152h74.297c.113 0 .226.071.283.169l33.055 67.5c1.877 3.83 5.843 6.294 10.106 6.294h53.874c.677 0 1.058-.451 1.199-.873a1.229 1.229 0 0 0-.451-1.408l-14.397-10.462a.28.28 0 0 1-.098-.127l-31.489-73.624c-6.479-15.136-21.313-24.907-37.812-24.907h-99.59Z"/><path fill="#1D1D1D" d="M189.412 244.54h-44.996a.313.313 0 0 1-.311-.309c0-.169.142-.31.311-.31h44.996c.169 0 .311.141.311.31a.303.303 0 0 1-.311.309Z"/><path fill="#fff" d="m97.951 96.686-.62-7.927-18.829-4.04-27.113 54.447 33.154-1.112L97.95 96.686Z"/><path fill="#fff" d="m97.951 96.686-.62-7.927-21.002-4.04-24.94 54.447 33.154-1.112L97.95 96.686Z"/><path fill="#1D1D1D" d="M51.389 139.476a.317.317 0 0 1-.282-.437l24.94-54.447a.304.304 0 0 1 .338-.17l21.002 4.028c.141.028.24.14.254.281l.621 7.942c0 .042 0 .084-.014.112L84.84 138.138a.3.3 0 0 1-.283.211l-33.168 1.127c.014 0 .014 0 0 0Zm25.123-54.405-24.63 53.771 32.435-1.098 13.324-41.086-.607-7.645-20.522-3.942Z"/><path fill="#0098C7" d="m76.328 141.813 21.087-53.279s31.107 16.657 19.985 53.279H76.328Z"/><path fill="#1D1D1D" d="M96.37 134.266c-.042 0-.07 0-.113-.028a.305.305 0 0 1-.17-.408l9.655-24.387a.307.307 0 0 1 .409-.169c.155.056.24.239.169.408l-9.654 24.387a.318.318 0 0 1-.296.197Z"/><path fill="#0098C7" d="m78.503 84.719-34.524 87.253-23.316-1.633c-5.547-.394-9.415-5.674-8.074-11.053 1.2-4.857 3.007-10.813 5.604-16.403 3.867-8.363 13.521-27.287 21.34-41.339 7.495-13.474 23.02-20.599 38.066-17.05.297.07.607.154.904.225Z"/><path fill="#E2EAFF" d="M156.116 146.093h-43.852l14.58-39.959h43.838l-14.566 39.959Z"/><path fill="#E2EAFF" d="M99.01 141.32h59.012l-1.906 5.125H96.809l2.201-5.125Z"/><path fill="#0098C7" d="m57.105 125.536 9.316-22.753-25.49 8.026L33.394 130c-3.007 7.631 2.61 15.896 10.825 15.952 11.983.085 26.902.169 38.221.155 1.2-7.983 4.884-15.966 7.03-20.134-16.528-.225-32.365-.437-32.365-.437Z"/><path fill="#fff" d="M113.858 126.424c-4.884-.141-14.41-.296-24.39-.437-2.16 4.168-5.829 12.151-7.029 20.134 9.302-.014 16.175-.084 17.05-.295 2.795-.662 2.739-3.802 2.739-3.802 4.093-.774 1.82-4.055 1.82-4.055 6.225-3.393.734-5.716.734-5.716l9.316-1.225a2.319 2.319 0 0 0 1.99-1.971 2.305 2.305 0 0 0-2.23-2.633Z"/><path fill="#1D1D1D" d="M62.99 125.846h-5.886a.315.315 0 0 1-.282-.436l9.315-22.754c.07-.154.24-.239.41-.169.154.071.24.24.169.409l-9.146 22.317h5.42c.169 0 .31.14.31.309 0 .198-.141.324-.31.324Z"/><path fill="#1D1D1D" d="M98.868 146.431c-12.928 0-43.231-.084-54.65-.155-4.022-.028-7.621-1.943-9.88-5.266-2.258-3.322-2.71-7.363-1.242-11.095l7.537-19.191a.307.307 0 0 1 .41-.169c.155.057.24.24.169.409l-7.537 19.163c-1.397 3.534-.96 7.377 1.172 10.531 2.13 3.154 5.546 4.971 9.371 4.999 12.18.084 45.815.169 56.979.155.17 0 .311.14.311.309 0 .169-.141.31-.311.31h-2.329Z"/><path fill="#1D1D1D" d="M51.389 126.226c-.17 0-.31-.126-.31-.295 0-.169.126-.31.295-.324l4.065-.155c.184-.014.31.127.325.296a.322.322 0 0 1-.296.323l-4.08.155c.015 0 .015 0 0 0Z"/><path fill="#fff" d="M106.844 63.246c-1.51-2.787-5.137-4.59-8.652-4.308-3.514.282-6.704 2.633-7.607 5.618-1.722-.732-3.797-.803-5.561-.183-1.779.62-3.218 1.929-3.882 3.492-1.03 2.478-.113 5.21-.211 7.828-.057 1.62-1.299 5.83-.283 7.181 1.059 1.408 3.6 1.704 5.533 1.845 4.714.338 10.092-2.324 14.284-4.238 2.696-1.225 5.024-3.21 6.309-5.632 1.199-2.24.96-4.38 1.044-6.773.057-1.647-.141-3.323-.974-4.83Z"/><path fill="#1D1D1D" d="M87 85.056c-.283 0-.565-.014-.833-.028-2.23-.155-4.672-.52-5.759-1.97-.79-1.057-.38-3.493-.042-5.45.141-.788.254-1.478.268-1.929.028-.887-.056-1.802-.141-2.69-.17-1.745-.339-3.561.367-5.265.692-1.647 2.202-3.013 4.065-3.66a8.214 8.214 0 0 1 5.476.07c1.059-2.929 4.277-5.224 7.777-5.506 3.627-.295 7.382 1.591 8.948 4.464.749 1.365 1.073 3.013 1.003 4.998-.015.437-.029.859-.029 1.281-.028 1.915-.042 3.732-1.058 5.632-1.285 2.408-3.571 4.464-6.45 5.773-.311.141-.635.296-.96.437-3.783 1.732-8.412 3.844-12.632 3.844Zm.564-20.796c-.832 0-1.665.141-2.427.409-1.694.591-3.077 1.83-3.698 3.323-.65 1.548-.494 3.21-.325 4.956.085.9.17 1.844.141 2.76-.014.492-.141 1.196-.282 2.013-.296 1.746-.706 4.125-.07 4.97.93 1.253 3.203 1.577 5.292 1.718 4.277.295 9.203-1.957 13.169-3.76.324-.154.649-.295.959-.436 2.753-1.253 4.94-3.196 6.154-5.491.946-1.774.96-3.506.988-5.35 0-.423.014-.86.028-1.296.071-1.873-.225-3.407-.917-4.689-1.454-2.675-4.968-4.42-8.356-4.14-3.387.268-6.464 2.535-7.339 5.394a.333.333 0 0 1-.17.197.27.27 0 0 1-.253 0 7.42 7.42 0 0 0-2.894-.578Z"/><path fill="#fff" d="m90.74 76.186-9.838 8.28c-2.173 1.83-2.117 5.195.113 6.955 3.825 3.013 7.523 5.125 10.332 4.252 4.587-1.436 4.587-6.533 1.75-10.138-4.249-5.407-2.357-9.349-2.357-9.349Z"/><path fill="#1D1D1D" d="M89.978 96.18c-2.329 0-5.293-1.465-9.16-4.52a4.728 4.728 0 0 1-1.821-3.69 4.775 4.775 0 0 1 1.708-3.744l9.837-8.28c.113-.098.269-.098.396-.013a.304.304 0 0 1 .084.38c-.028.042-1.736 3.858 2.315 9.025 1.764 2.239 2.428 4.984 1.75 7.153-.522 1.69-1.792 2.886-3.655 3.463a4.49 4.49 0 0 1-1.454.226Zm.17-19.093L81.1 84.704c-.96.817-1.51 2-1.482 3.267a4.128 4.128 0 0 0 1.595 3.21c4.545 3.59 7.735 4.914 10.05 4.196 1.665-.52 2.78-1.577 3.245-3.055.621-1.986-.014-4.506-1.65-6.59-3.078-3.914-3.021-7.082-2.71-8.645Z"/><path fill="#fff" d="M101.212 65.626a4.651 4.651 0 0 1 4.757 3.562c1.764 7.237 4.926 22.697.395 25.429-2.95 1.774-9.95 1.366-12.576.07-4.474-2.224-5.984-8.645-7.085-13.615 0 0-4.996-.155-5.999-3.28-1.496-4.647 3.063-9.674 8.285-2.718 0 0 2.259-2.169 2.95-5.421.452-2.112 2.216-3.675 4.376-3.788l4.897-.239Z"/><path fill="#1D1D1D" d="M100.394 96.11c-2.668 0-5.336-.465-6.733-1.17-4.644-2.308-6.196-9.025-7.198-13.6-1.045-.07-5.095-.55-6.041-3.478-.805-2.492.056-5.21 1.962-6.181.945-.493 3.472-1.17 6.662 2.9.592-.648 2.089-2.52 2.625-5.012.48-2.267 2.4-3.915 4.658-4.027l4.897-.226a4.986 4.986 0 0 1 5.081 3.788c2.061 8.434 4.842 23.007.254 25.766-1.496.887-3.839 1.24-6.167 1.24ZM83.936 71.92c-.451 0-.875.099-1.284.31-1.637.844-2.357 3.238-1.651 5.435.931 2.886 5.66 3.069 5.716 3.069.141 0 .268.099.296.24.988 4.463 2.47 11.193 6.93 13.403 2.513 1.254 9.386 1.69 12.266-.056 4.403-2.647 1.086-18.43-.537-25.09a4.373 4.373 0 0 0-4.446-3.323l-4.897.225c-1.976.099-3.656 1.549-4.08 3.534-.705 3.309-2.935 5.491-3.034 5.59a.384.384 0 0 1-.24.084.367.367 0 0 1-.226-.126c-1.623-2.14-3.316-3.295-4.813-3.295Z"/><path fill="#1D1D1D" d="M87.184 78.706a.325.325 0 0 1-.282-.183c-.593-1.225-1.892-2.07-3.26-2.112-.17 0-.311-.14-.297-.324 0-.169.14-.31.324-.295 1.595.042 3.12 1.042 3.797 2.464.07.155.014.338-.141.408-.042.042-.099.042-.141.042Z"/><path fill="#fff" d="M99.603 79.762a4.2 4.2 0 0 1-4.05-3.07l-.608-2.181h7.537l.297 1.084c.592 2.098-.988 4.167-3.176 4.167Z"/><path fill="#1D1D1D" d="M99.604 80.072a4.516 4.516 0 0 1-4.347-3.295l-.607-2.182a.297.297 0 0 1 .056-.268.34.34 0 0 1 .24-.126h7.537c.141 0 .268.098.297.225l.296 1.084a3.573 3.573 0 0 1-.607 3.14 3.552 3.552 0 0 1-2.865 1.422ZM95.37 74.82l.494 1.788a3.894 3.894 0 0 0 3.74 2.844c.945 0 1.806-.422 2.385-1.182a2.973 2.973 0 0 0 .508-2.605l-.24-.845H95.37Z"/><path fill="#fff" d="M109.019 79.762a4.2 4.2 0 0 1-4.051-3.07l-.607-2.181h7.537l.297 1.084c.593 2.098-.988 4.167-3.176 4.167Z"/><path fill="#1D1D1D" d="M109.02 80.072c-2.018 0-3.811-1.352-4.347-3.295l-.607-2.182a.3.3 0 0 1 .056-.268.34.34 0 0 1 .24-.126h7.537c.141 0 .268.098.297.225l.296 1.084a3.573 3.573 0 0 1-.607 3.14 3.552 3.552 0 0 1-2.865 1.422Zm-4.234-5.252.494 1.788a3.893 3.893 0 0 0 3.74 2.844c.945 0 1.806-.422 2.385-1.182a2.973 2.973 0 0 0 .508-2.605l-.24-.845h-6.887Z"/><path fill="#1D1D1D" d="M104.672 75.904h-1.877a.314.314 0 0 1-.311-.31c0-.168.142-.31.311-.31h1.877c.169 0 .311.142.311.31 0 .17-.142.31-.311.31ZM89.005 75.37a.319.319 0 0 1-.31-.282.314.314 0 0 1 .282-.338l5.956-.55a.314.314 0 0 1 .339.282.314.314 0 0 1-.283.338l-5.956.55h-.028ZM98.602 87.366h-.762a5.972 5.972 0 0 1-5.688-4.126c-.875-2.69-2.06-5.012-2.752-6.251a7.312 7.312 0 0 1-1.186 3.35c-.099.142-.282.184-.423.085-.141-.098-.184-.281-.085-.422a6.755 6.755 0 0 0 1.101-4.112.305.305 0 0 1 .212-.31.308.308 0 0 1 .353.127c.014.029 2.046 3.281 3.373 7.35a5.35 5.35 0 0 0 5.095 3.703h.579c.452-.788 2.484-4.027 5.956-4.125 1.553-.043 2.879.549 3.839 1.718.113.126.085.323-.042.436-.127.113-.325.085-.438-.042-.832-1.028-1.962-1.535-3.331-1.479-3.5.113-5.49 3.929-5.504 3.957a.375.375 0 0 1-.297.14ZM20.027 112.259a.313.313 0 0 1-.31-.31V18.486c0-.169.14-.31.31-.31h107.395c.17 0 .311.141.311.31 0 .17-.141.31-.311.31H20.338v93.153c0 .169-.141.31-.31.31Z"/><path fill="#fff" d="m355.963 257.508-70.529-.239s-16.994-.563-17.473-9.589c-.96-17.825 34.424-36.185 34.424-36.185s34.905-4.464 54.495-4.069c16.133.309 22.131 14.375 22.131 27.075 0 12.701-10.317 23.007-23.048 23.007Z"/><path fill="#1D1D1D" d="m355.962 257.818-70.529-.239c-.72-.029-17.29-.69-17.784-9.885-.409-7.504 5.307-15.924 16.966-25.034 8.652-6.758 17.53-11.391 17.614-11.433a.264.264 0 0 1 .099-.028c.353-.042 35.144-4.449 54.537-4.083 16.556.324 22.442 14.953 22.442 27.385.014 12.855-10.459 23.317-23.345 23.317Zm-53.479-46.028c-1.496.789-35.13 18.741-34.213 35.862.466 8.631 17.008 9.293 17.177 9.293l70.515.239c12.533 0 22.738-10.18 22.738-22.697 0-12.151-5.716-26.456-21.835-26.766-18.969-.366-52.787 3.872-54.382 4.069Z"/><path fill="#fff" d="m307.718 208.045-10.84 6.744a21.07 21.07 0 0 0-6.648-1.056c-4.417 0-8.496 1.338-11.714 3.577l-11.673-3.464c-1.764-.521-3.303 1.323-2.47 2.957l6.888 13.545v.112c0 9.223 8.497 16.713 18.969 16.713 10.473 0 18.97-7.476 18.97-16.713 0-2.084-.438-4.083-1.242-5.927l2.922-14.263c.381-1.831-1.595-3.197-3.162-2.225Z"/><path fill="#1D1D1D" d="M290.231 247.455c-10.628 0-19.28-7.632-19.28-17.023v-.028l-6.859-13.475a2.397 2.397 0 0 1 .296-2.633 2.379 2.379 0 0 1 2.541-.76l11.531 3.422c3.401-2.324 7.466-3.549 11.771-3.549 2.273 0 4.488.352 6.62 1.028l10.712-6.674a2.37 2.37 0 0 1 2.654.071c.804.563 1.185 1.492.988 2.45l-2.894 14.164a15.064 15.064 0 0 1 1.228 5.97c-.028 9.405-8.666 17.037-19.308 17.037Zm-18.715-17.304a.282.282 0 0 1 .056.183v.098c0 9.039 8.37 16.403 18.659 16.403s18.659-7.349 18.659-16.403c0-1.999-.409-3.956-1.214-5.815a.276.276 0 0 1-.014-.183l2.922-14.263a1.796 1.796 0 0 0-.734-1.83 1.75 1.75 0 0 0-1.962-.043l-10.84 6.745a.353.353 0 0 1-.268.028 20.988 20.988 0 0 0-6.563-1.042c-4.234 0-8.214 1.211-11.545 3.52a.306.306 0 0 1-.269.042l-11.672-3.464a1.764 1.764 0 0 0-1.877.564 1.775 1.775 0 0 0-.226 1.957l6.888 13.503Z"/><path fill="#1D1D1D" d="M305.671 221.562h-.056a.299.299 0 0 1-.24-.366l1.99-9.73-7.156 4.45c-.141.084-.339.042-.423-.099a.312.312 0 0 1 .098-.422l7.763-4.83c.099-.07.24-.056.339.014.099.071.155.198.127.31l-2.131 10.448a.338.338 0 0 1-.311.225ZM272.306 226.025a.309.309 0 0 1-.282-.169l-4.474-8.786a.298.298 0 0 1 .042-.338.321.321 0 0 1 .324-.098l8.314 2.464c.169.042.254.225.211.38-.042.169-.225.253-.381.211l-7.621-2.267 4.149 8.139a.323.323 0 0 1-.141.422c-.042.042-.099.042-.141.042ZM332.037 257.832h-.014c-3.825-.169-6.507-1.999-7.17-4.872-.593-2.604.691-5.42 3.062-6.702 2.894-1.563 8.017-1.408 13.437-1.239 5.731.183 12.223.38 16.951-1.464 5.886-2.295 5.942-8.842 5.942-8.913 0-.169.142-.309.311-.309s.31.14.31.309c0 .071-.07 7.04-6.337 9.49-4.841 1.887-11.404 1.69-17.191 1.507-5.335-.169-10.374-.324-13.112 1.168-2.131 1.155-3.289 3.689-2.752 6.013.592 2.59 3.062 4.238 6.591 4.393.169.014.311.154.296.323a.323.323 0 0 1-.324.296Z"/><path fill="#1D1D1D" d="M332.108 245.751a.316.316 0 0 1-.31-.267c-1.101-8.378.466-14.784 4.7-19.022 6.944-6.97 18.772-5.562 18.885-5.548.169.028.296.183.268.352a.318.318 0 0 1-.353.268c-.113-.014-11.644-1.38-18.377 5.378-4.079 4.098-5.603 10.321-4.516 18.501.028.169-.099.324-.268.352 0-.014-.015-.014-.029-.014ZM309.258 257.762a.313.313 0 0 1-.311-.31c0-.169.141-.31.311-.31.324 0 7.876-.07 10.077-6.505 1.807-5.294-1.326-20.965-1.355-21.12a.316.316 0 0 1 .24-.366c.17-.028.339.071.367.24.127.647 3.204 15.98 1.327 21.443-2.329 6.857-10.317 6.928-10.656 6.928ZM291.84 257.705h-.056c-2.555-.422-4.418-2.027-5.124-4.407-.691-2.323-.084-4.801 1.553-6.307.127-.113.325-.113.438.014.112.126.112.323-.015.436-1.467 1.352-2.004 3.576-1.383 5.674.635 2.14 2.329 3.591 4.63 3.971a.305.305 0 0 1 .254.352.292.292 0 0 1-.297.267ZM299.644 245.287a.313.313 0 0 1-.31-.31c0-.169.127-.31.31-.31l.65-.014c2.865-.056 5.575-.098 6.309-.788 1.609-1.493.113-5.139.099-5.182-.071-.154.014-.338.169-.408.155-.07.339.014.409.169.071.169 1.68 4.083-.254 5.871-.917.845-3.486.887-6.732.944l-.65.028c.015 0 .015 0 0 0Z"/><path fill="#1D1D1D" d="M343.554 257.832h-136.4a.313.313 0 0 1-.31-.31c0-.169.141-.31.31-.31h136.4c.169 0 .31.141.31.31s-.141.31-.31.31Z"/></svg>