<svg xmlns="http://www.w3.org/2000/svg" width="388" height="258" fill="none"><path fill="#1D1D1D" d="M368.832 257.832H18.038c-7.114 0-12.9-5.773-12.9-12.869V13.037c0-7.096 5.787-12.869 12.9-12.869h350.794c7.114 0 12.901 5.773 12.901 12.87v231.911c0 7.11-5.787 12.883-12.901 12.883ZM18.038.787c-6.775 0-12.28 5.492-12.28 12.25V244.95c0 6.758 5.505 12.249 12.28 12.249h350.794c6.775 0 12.28-5.491 12.28-12.249V13.037c0-6.758-5.505-12.25-12.28-12.25H18.038Z"/><path fill="#1D1D1D" d="M381.423 20.26H5.435c-.17 0-.311-.14-.311-.31 0-.169.141-.31.31-.31h375.989c.169 0 .31.141.31.31 0 .17-.141.31-.31.31ZM16.966 14.811a3.778 3.778 0 0 1-3.782-3.773 3.778 3.778 0 0 1 3.782-3.774 3.778 3.778 0 0 1 3.783 3.774c0 2.083-1.708 3.773-3.783 3.773Zm0-6.927a3.162 3.162 0 0 0-3.161 3.154 3.162 3.162 0 0 0 6.323 0 3.162 3.162 0 0 0-3.162-3.154ZM27.1 14.811a3.778 3.778 0 0 1-3.783-3.773A3.778 3.778 0 0 1 27.1 7.264a3.778 3.778 0 0 1 3.783 3.774A3.778 3.778 0 0 1 27.1 14.81Zm0-6.927a3.162 3.162 0 0 0-3.162 3.154 3.162 3.162 0 0 0 6.324 0A3.162 3.162 0 0 0 27.1 7.884ZM37.234 14.811a3.778 3.778 0 0 1-3.783-3.773 3.778 3.778 0 0 1 3.783-3.774 3.778 3.778 0 0 1 3.782 3.774 3.778 3.778 0 0 1-3.782 3.773Zm0-6.927a3.162 3.162 0 0 0-3.162 3.154 3.162 3.162 0 0 0 6.323 0 3.153 3.153 0 0 0-3.161-3.154Z"/><path fill="#E2EAFF" d="M130.218 106.599H49.343c-2.865 0-5.194-2.324-5.194-5.182V64.612c0-2.858 2.33-5.181 5.194-5.181h80.875c2.865 0 5.194 2.323 5.194 5.181v36.791a5.196 5.196 0 0 1-5.194 5.196Z"/><path fill="#1D1D1D" d="M62.286 155.527H4.276A4.03 4.03 0 0 1 .24 151.5v-26.4c0-2.225 1.835-4.027 3.345-4.027h75.991c.127 0 .24.071.282.197a.33.33 0 0 1-.07.338l-13.465 12.883V151.5c0 2.225-1.82 4.027-4.037 4.027Zm-58.7-33.82c-1.229 0-2.725 1.577-2.725 3.407v26.4a3.415 3.415 0 0 0 3.416 3.408h58.01a3.424 3.424 0 0 0 3.415-3.408v-17.135c0-.085.028-.169.099-.225L78.8 121.707H3.585Z"/><path fill="#0098C7" d="M5.647 149.375H27.48v-17.459H5.647v17.459Z"/><path fill="#1D1D1D" d="M41.002 132.366h-9.117a.313.313 0 0 1-.31-.31c0-.169.14-.31.31-.31h9.117c.17 0 .311.141.311.31s-.141.31-.31.31ZM51.546 132.366h-8.78a.313.313 0 0 1-.31-.31c0-.169.141-.31.31-.31h8.78c.169 0 .31.141.31.31s-.141.31-.31.31ZM59.435 132.366h-6.14a.313.313 0 0 1-.31-.31c0-.169.142-.31.31-.31h6.14c.17 0 .311.141.311.31s-.141.31-.31.31ZM37.107 140.786h-3.472a.313.313 0 0 1-.31-.31c0-.169.14-.31.31-.31h3.472c.17 0 .31.141.31.31s-.127.31-.31.31ZM53.903 140.786H38.87a.313.313 0 0 1-.31-.31c0-.169.14-.31.31-.31h15.032c.17 0 .31.141.31.31s-.14.31-.31.31ZM61.2 140.786h-5.533a.313.313 0 0 1-.31-.31c0-.169.14-.31.31-.31H61.2c.17 0 .31.141.31.31s-.14.31-.31.31ZM46.507 149.205H31.885c-.17 0-.31-.14-.31-.309 0-.169.14-.31.31-.31h14.622c.17 0 .31.141.31.31a.312.312 0 0 1-.31.309ZM61.2 149.205H48.257c-.17 0-.31-.14-.31-.309 0-.169.14-.31.31-.31H61.2c.169 0 .31.141.31.31a.312.312 0 0 1-.31.309ZM383.201 114.99h-85.038a.325.325 0 0 1-.296-.197.303.303 0 0 1 .084-.338l9.753-8.25V77.89c0-2.507 2.047-4.548 4.559-4.548h70.938c2.513 0 4.559 2.041 4.559 4.548v32.567c0 2.506-2.046 4.533-4.559 4.533Zm-84.177-.619h84.177a3.934 3.934 0 0 0 3.938-3.928V77.89a3.935 3.935 0 0 0-3.938-3.929h-70.924a3.935 3.935 0 0 0-3.938 3.929v28.455a.325.325 0 0 1-.112.24l-9.203 7.786Z"/><path fill="#E2EAFF" d="M362.805 99.883a5.16 5.16 0 0 0 5.166-5.154 5.16 5.16 0 0 0-5.166-5.153 5.159 5.159 0 0 0-5.165 5.153 5.159 5.159 0 0 0 5.165 5.154ZM347.718 99.883a5.159 5.159 0 0 0 5.165-5.154 5.159 5.159 0 0 0-5.165-5.153 5.16 5.16 0 0 0-5.166 5.153 5.16 5.16 0 0 0 5.166 5.154ZM332.63 99.883a5.159 5.159 0 0 0 5.165-5.154 5.159 5.159 0 0 0-5.165-5.153 5.16 5.16 0 0 0-5.166 5.153 5.16 5.16 0 0 0 5.166 5.154Z"/><path fill="#1D1D1D" d="M169.483 77.44H92.519c-2.71 0-4.926-2.197-4.926-4.915v-35.34a4.924 4.924 0 0 1 4.926-4.915h92.278c.127 0 .254.085.297.198a.303.303 0 0 1-.085.337l-10.6 8.955v30.737c-.014 2.732-2.216 4.942-4.926 4.942ZM92.519 32.903a4.296 4.296 0 0 0-4.291 4.294V72.54a4.305 4.305 0 0 0 4.29 4.295h76.965a4.295 4.295 0 0 0 4.291-4.295V41.634a.32.32 0 0 1 .113-.24l10.063-8.504H92.519v.014ZM290.075 75.904h-74.594a.326.326 0 0 1-.296-.197.303.303 0 0 1 .085-.338l8.553-7.223V43.31a4.031 4.031 0 0 1 4.037-4.027h62.215a4.031 4.031 0 0 1 4.037 4.027v28.568a4.031 4.031 0 0 1-4.037 4.027Zm-73.747-.62h73.747c1.877 0 3.416-1.534 3.416-3.407V43.31c0-1.872-1.539-3.407-3.416-3.407H227.86a3.423 3.423 0 0 0-3.416 3.407v24.964a.32.32 0 0 1-.113.24l-8.003 6.772Z"/><path fill="#E2EAFF" d="M118.052 51.335a5.159 5.159 0 0 0 5.165-5.153 5.159 5.159 0 0 0-5.165-5.154 5.16 5.16 0 0 0-5.166 5.154 5.16 5.16 0 0 0 5.166 5.153ZM102.977 51.335a5.16 5.16 0 0 0 5.166-5.153 5.16 5.16 0 0 0-5.166-5.154 5.16 5.16 0 0 0-5.166 5.154 5.16 5.16 0 0 0 5.166 5.153ZM87.89 51.335a5.16 5.16 0 0 0 5.165-5.153 5.16 5.16 0 0 0-5.166-5.154 5.16 5.16 0 0 0-5.165 5.154 5.16 5.16 0 0 0 5.165 5.153Z"/><path fill="#1D1D1D" d="M27.31 114c-.17 0-.31-.118-.31-.26V46.261c0-.142.14-.26.31-.26h50.38c.17 0 .31.118.31.26 0 .143-.14.261-.31.261H27.62v67.218c0 .142-.141.26-.31.26Z"/><path fill="#fff" d="M201.198 257.395h61.707c-7.48-6.406-14.001-12.911-16.965-18.219-9.315-16.601-11.715-73.582-11.715-73.582l-32.364-5.604s-6.012 41.057-3.387 83.874a49.929 49.929 0 0 0 2.71 13.433l.014.098Z"/><path fill="#1D1D1D" d="M201.156 257.607a.32.32 0 0 1-.297-.212 50.371 50.371 0 0 1-2.724-13.516c-2.597-42.353 3.331-83.523 3.388-83.931.028-.169.183-.296.353-.268a.326.326 0 0 1 .268.352c-.057.409-5.985 41.522-3.388 83.804a50.201 50.201 0 0 0 2.682 13.348.31.31 0 0 1-.198.394c-.014.015-.042.029-.084.029Z"/><path fill="#fff" d="m216.54 256.987 43.98-.324c-3.148-41.283-7.636-85.944-12.746-93.196l-41.735-.14-1.143 12.418 9.795 13.179 1.849 68.063Z"/><path fill="#1D1D1D" d="M216.497 257.494a.301.301 0 0 1-.31-.296c-.494-13.038-.819-27.061-1.115-40.635-.212-9.152-.424-18.613-.692-27.441-.974-1.268-1.905-2.591-2.794-3.872-1.2-1.718-2.329-3.337-3.529-4.745a.311.311 0 0 1 .028-.437.313.313 0 0 1 .438.028c1.228 1.436 2.357 3.07 3.571 4.802a91.76 91.76 0 0 0 2.837 3.928.412.412 0 0 1 .07.183c.268 8.87.48 18.36.692 27.554.31 13.574.621 27.597 1.115 40.621 0 .155-.127.296-.311.31ZM260.378 254.861a.319.319 0 0 1-.31-.282c-.353-4.379-.678-8.814-1.003-13.108-1.877-25.034-3.655-48.689-9.456-73.526a14.33 14.33 0 0 1-.48-1.126 14.521 14.521 0 0 0-.48-1.113 6.594 6.594 0 0 0-.423-.676c-.297-.436-.635-.929-.748-1.506a.298.298 0 0 1 .24-.366.3.3 0 0 1 .367.239c.098.451.381.873.663 1.281.169.24.339.493.466.747.169.338.338.76.494 1.168.155.395.324.803.48 1.113.014.028.014.042.028.07 5.815 24.908 7.607 48.59 9.485 73.653.324 4.28.649 8.715 1.002 13.094a.314.314 0 0 1-.283.338h-.042Z"/><path fill="#fff" d="M184.995 102.318s-8.864-.323-10.967 8.251c-3.189 12.898-4.474 72.878-4.573 90.493a4.307 4.307 0 0 1-4.276 4.28c-5.265.042-13.536 1.098-13.282 7.49h33.14c3.233 0 5.858-2.604 5.858-5.829v-62.304l-5.9-42.381Z"/><path fill="#1D1D1D" d="M185.037 213.128h-33.154c-.169 0-.31-.126-.31-.295-.071-1.746.465-3.225 1.609-4.408 2.639-2.759 7.974-3.365 11.983-3.393 2.173-.014 3.952-1.802 3.966-3.97.113-18.924 1.468-77.933 4.587-90.563 2.145-8.715 11.192-8.49 11.291-8.476.155 0 .282.113.297.267l5.899 42.367V207.003c0 3.38-2.766 6.125-6.168 6.125Zm-32.843-.619h32.843c3.063 0 5.547-2.478 5.547-5.52v-62.276l-5.857-42.085c-1.482.014-8.553.507-10.402 8.012-3.105 12.573-4.46 71.526-4.573 90.422-.014 2.506-2.075 4.576-4.587 4.59-3.896.028-9.048.605-11.546 3.21-.931.986-1.411 2.211-1.425 3.647Z"/><path fill="#1D1D1D" d="M165.32 213.016a.325.325 0 0 1-.282-.183c-.466-1 .084-2.14.846-2.76.777-.62 1.751-.845 2.612-1.056l4.516-1.07c1.397-.338 2.752-.789 3.204-1.901.071-.155.24-.239.409-.169.156.071.24.24.17.408-.551 1.366-2.075 1.901-3.642 2.267l-4.516 1.07c-.805.198-1.708.409-2.371.93-.565.45-.988 1.309-.678 2.013a.308.308 0 0 1-.155.408.158.158 0 0 1-.113.043ZM189.314 197.739h-.028a144.636 144.636 0 0 0-19.294-.31.305.305 0 0 1-.325-.296.304.304 0 0 1 .296-.324 146.078 146.078 0 0 1 19.379.31c.17.014.297.169.282.338-.028.155-.155.282-.31.282Z"/><path fill="#0098C7" d="m235.496 163.918-34.721.916s-24.644-20.684-16.302-60.22l-.805-2.943s16.951-3.943 24.573-2.253c0 0 2.865 2.591 3.825 5.871.96 3.295 23.43 58.629 23.43 58.629Z"/><path fill="#fff" d="M241.099 207.989s-28.666-69.556-31.376-77.708c-2.71-8.152-2.527-23.894 1.694-29.202 0 0 15.666-2.59 29.272 22.233 13.606 24.823 26.563 62.092 26.563 62.092s-6.662 15.066-26.153 22.585Z"/><path fill="#fff" d="M220.365 102.642c5.688 2.323 13.268 7.829 20.311 20.67 13.606 24.823 26.562 62.092 26.562 62.092s-6.661 15.066-26.139 22.585c0 0-10.078-24.232-18.532-45.014l-2.202-60.333Z"/><path fill="#1D1D1D" d="M241.099 208.298a.287.287 0 0 1-.282-.197c-.099-.239-10.176-24.471-18.532-45.028-.071-.155.014-.338.169-.408.156-.07.339.014.41.169 7.861 19.346 17.261 41.972 18.405 44.732 18.052-7.082 24.982-20.838 25.631-22.204-.819-2.337-13.437-38.1-26.506-61.924-7.185-13.094-14.919-18.388-20.156-20.528-.155-.071-.239-.24-.169-.409.071-.155.24-.239.409-.169 5.321 2.183 13.197 7.547 20.466 20.81 13.465 24.556 26.464 61.769 26.591 62.135a.258.258 0 0 1-.014.226c-.071.155-6.93 15.277-26.323 22.753-.014.042-.056.042-.099.042Z"/><path fill="#fff" d="M242.412 129.859c-4.362-10.969-28.765-15.84-28.765-15.84l8.44 27.596-12.59.071a59.766 59.766 0 0 1-1.101 19.472c8.3 1.535 17.686 2.577 25.505 1.507 18.489-2.534 12.872-21.852 8.511-32.806Z"/><path fill="#fff" d="m209.512 141.686-11.828.07s1.44-7.49-2.526-7.406c-3.966.085-3.924 9.547-6.451 10.856 0 0-6.774 3.309-9.569 4.013-2.795.704-6.831 1.506-6.21 4.294 0 0-3.571 2.042.155 4.421 0 0 1.426 3.365 14.241-1.647.508-.197 9.781 2.788 21.087 4.886a59.93 59.93 0 0 0 1.101-19.487Z"/><path fill="#1D1D1D" d="M176.329 159.356c-2.527 0-3.289-.872-3.472-1.21-1.2-.775-1.793-1.634-1.779-2.521.029-1.14 1.073-1.971 1.511-2.267-.424-2.731 3.232-3.632 5.928-4.308l.55-.141c2.738-.69 9.442-3.956 9.513-3.985.155-.07.339-.014.409.141a.304.304 0 0 1-.141.409c-.282.14-6.845 3.322-9.64 4.026l-.55.141c-2.654.648-5.942 1.465-5.42 3.788a.311.311 0 0 1-.155.338c-.015.014-1.369.802-1.384 1.858-.014.676.509 1.366 1.567 2.028a.22.22 0 0 1 .113.141c.014.028 1.623 2.97 13.832-1.817.452-.183.635-.253 7.311 1.338a.31.31 0 0 1 .226.38.31.31 0 0 1-.381.225c-6.182-1.478-6.662-1.478-6.93-1.38-5.491 2.183-8.949 2.816-11.108 2.816Z"/><path fill="#1D1D1D" d="M173.407 157.371c-.028 0-.043 0-.071-.014a.31.31 0 0 1-.226-.38c.297-1.267 1.369-2.013 1.99-2.351.734-.409 1.553-.634 2.329-.873.156-.042.311-.085.466-.141a26.958 26.958 0 0 0 7.255-3.421c.762-.507 1.524-1.085 1.933-1.859a.309.309 0 0 1 .424-.127.307.307 0 0 1 .127.423c-.48.901-1.313 1.534-2.131 2.083a27.786 27.786 0 0 1-7.424 3.506c-.156.043-.311.099-.466.141-.748.225-1.525.451-2.202.817-.889.479-1.496 1.197-1.68 1.943-.056.169-.183.253-.324.253Z"/><path fill="#1D1D1D" d="M174.028 153.513a.303.303 0 0 1-.297-.239.31.31 0 0 1 .226-.38l3.543-.859c1.835-.451 3.924-.943 5.575-2.084a.319.319 0 0 1 .438.085.317.317 0 0 1-.085.436c-1.736 1.197-3.881 1.718-5.773 2.183l-3.542.858h-.085ZM226.943 163.411c-5.35 0-11.56-.647-18.575-1.943a.29.29 0 0 1-.197-.141c-.043-.07-.057-.154-.043-.239a59.6 59.6 0 0 0 1.101-19.374.301.301 0 0 1 .071-.239.279.279 0 0 1 .226-.099l12.166-.07-8.327-27.189c-.057-.169.042-.338.211-.394.17-.056.339.042.396.211l8.44 27.597a.295.295 0 0 1-.042.267.303.303 0 0 1-.254.127l-12.237.071a60.08 60.08 0 0 1-1.073 18.923c10.134 1.845 18.574 2.337 25.095 1.436 5.109-.704 8.708-2.774 10.684-6.153 3.162-5.392 2.343-14.22-2.427-26.217a.327.327 0 0 1 .169-.408.33.33 0 0 1 .409.169c4.842 12.179 5.646 21.19 2.4 26.766-2.089 3.562-5.829 5.731-11.136 6.463a54.972 54.972 0 0 1-7.057.436ZM198.587 90.843c.904.479 3.853 1.478 3.853 1.478s10.657-10.94 2.626-22.4c-6.112-8.716-20.762-6.492-25.462 2.45-4.7 8.94 7.226 12.066 7.226 12.066l11.757 6.406Z"/><path fill="#fff" d="m199.208 84.943 6.478 15.024-9.965 11.179-7.72-18.5 11.207-7.703Z"/><path fill="#1D1D1D" d="M195.722 111.456h-.057a.318.318 0 0 1-.24-.183l-7.706-18.515a.309.309 0 0 1 .113-.38l11.192-7.702a.297.297 0 0 1 .269-.042c.084.028.169.084.197.169l6.493 15.023c.042.113.028.239-.057.324l-9.964 11.179a.316.316 0 0 1-.24.127Zm-7.326-18.698 7.424 17.811 9.499-10.659-6.266-14.488-10.657 7.336Z"/><path fill="#1D1D1D" d="M191.657 116.328a.335.335 0 0 1-.211-.085.31.31 0 0 1-.029-.436l14.242-15.98a.312.312 0 0 1 .437-.029.31.31 0 0 1 .028.437l-14.241 15.98a.256.256 0 0 1-.226.113Z"/><path fill="#fff" d="m196.851 85.436 1.863-4.181s1.779-2.802 5.095-1.028c3.317 1.774 2.315 8.575-4.841 7.885 0 0-2.893 8.969-10.458 8.377-7.551-.577-11.475-8.603-8.031-19.036 0 0 3.26.563 6.238-1.112 0 0 1.44 6.688 10.134 9.096Z"/><path fill="#1D1D1D" d="M189.215 96.827c-.24 0-.48-.014-.719-.028-3.162-.24-5.745-1.732-7.467-4.308-2.484-3.704-2.78-9.223-.833-15.136a.316.316 0 0 1 .353-.212c.028 0 3.19.521 6.027-1.07a.328.328 0 0 1 .282-.014.383.383 0 0 1 .184.211c.014.07 1.482 6.407 9.654 8.786l1.75-3.928c0-.014.014-.028.028-.042.014-.028 1.976-3.027 5.505-1.127 1.623.873 2.371 2.929 1.778 4.886-.593 1.957-2.625 3.9-6.563 3.605-.536 1.38-3.486 8.377-9.979 8.377Zm-8.525-19.022c-1.792 5.632-1.496 10.856.847 14.348 1.609 2.407 4.023 3.801 7.001 4.026 7.212.55 10.106-8.081 10.134-8.166a.306.306 0 0 1 .324-.211c3.713.366 5.618-1.38 6.154-3.14.508-1.675-.113-3.421-1.482-4.154-2.921-1.562-4.516.662-4.672.902l-1.848 4.153c-.057.141-.212.211-.367.17-7.552-2.085-9.767-7.45-10.247-8.928-2.484 1.24-5.011 1.085-5.844 1Z"/><path fill="#1D1D1D" d="M198.785 86.549a.375.375 0 0 1-.169-.043.313.313 0 0 1-.099-.422 5.511 5.511 0 0 1 3.331-2.408.311.311 0 0 1 .381.225.31.31 0 0 1-.226.38 4.894 4.894 0 0 0-2.95 2.14.348.348 0 0 1-.268.128ZM206.774 82.282s17.699 1.493 20.324 11.827c3.162 12.419-15.991 20.29-3.557 28.766 12.435 8.476-15.836 17.614-23.189 2.858-8.384-16.84 8.186-24.921 8.186-32.708 0-6.125-3.162-6.603-3.162-6.603l1.398-4.14Z"/><path fill="#fff" d="m179.167 257.212-5.632-12.968c-6.605-15.657-21.792-25.808-38.616-25.808H33.79l-5.278 15.488c-3.938 11.573 4.559 23.33 16.669 23.33h75.299l58.687-.042Z"/><path fill="#1D1D1D" d="M179.166 257.832a.295.295 0 0 1-.282-.183l-5.631-13.278c-6.564-15.572-21.609-25.625-38.335-25.625H34.016l-5.194 15.276c-1.764 5.168-1.073 10.757 1.891 15.319 2.908 4.492 7.58 7.336 12.83 7.829.17.014.296.169.282.338a.314.314 0 0 1-.338.281c-5.434-.507-10.276-3.463-13.296-8.11a18.203 18.203 0 0 1-1.962-15.854l5.279-15.488a.304.304 0 0 1 .296-.211h101.129c16.979 0 32.25 10.208 38.898 26.006l5.632 13.277c.07.155 0 .338-.17.408-.042 0-.084.015-.127.015Z"/><path fill="#fff" d="m112.744 169.592-.621-8.04-19.082-4.083-27.48 55.138 33.605-1.127 13.578-41.888Z"/><path fill="#0098C7" d="m90.84 215.282 21.369-53.955s31.517 16.868 20.254 53.955H90.84Z"/><path fill="#1D1D1D" d="M111.15 207.636c-.042 0-.07 0-.113-.028a.305.305 0 0 1-.169-.408l9.781-24.696a.306.306 0 0 1 .409-.169c.156.056.24.239.17.408l-9.781 24.696a.32.32 0 0 1-.297.197Z"/><path fill="#0098C7" d="m93.041 157.469-34.989 88.366-23.641-1.647c-5.632-.394-9.541-5.745-8.186-11.194 1.228-4.928 3.048-10.94 5.674-16.614 3.923-8.462 13.704-27.639 21.623-41.874 7.593-13.643 23.33-20.852 38.574-17.262.338.07.649.141.945.225Z"/><path fill="#E2EAFF" d="M171.7 214.93h-44.431l14.763-40.466h44.432L171.7 214.93Z"/><path fill="#E2EAFF" d="M113.832 210.101h59.788l-1.92 5.181h-60.112l2.244-5.181Z"/><path fill="#0098C7" d="m71.348 194.739 9.443-23.035-25.83 8.124-7.65 19.431c-3.034 7.73 2.64 16.093 10.968 16.149 12.152.085 27.254.169 38.743.155 1.214-8.082 4.94-16.164 7.128-20.388-16.74-.225-32.802-.436-32.802-.436Z"/><path fill="#1D1D1D" d="M77.318 195.049h-5.97a.317.317 0 0 1-.282-.437l9.442-23.035c.07-.155.24-.239.41-.169.155.071.24.24.169.409l-9.273 22.612h5.504c.17 0 .31.141.31.31 0 .183-.14.31-.31.31Z"/><path fill="#1D1D1D" d="M94.905 215.887c-11.616 0-26.323-.084-36.613-.169-4.078-.028-7.72-1.971-10.006-5.336-2.287-3.365-2.739-7.449-1.257-11.236l7.65-19.43a.306.306 0 0 1 .41-.169c.155.056.24.239.169.408l-7.65 19.43c-1.411 3.591-.974 7.463 1.186 10.659 2.173 3.196 5.631 5.04 9.498 5.069 10.925.07 26.832.169 38.744.155.17 0 .31.14.31.309 0 .169-.14.31-.31.31h-2.131Z"/><path fill="#fff" d="M128.878 195.626c-4.954-.141-14.608-.296-24.714-.437-2.188 4.224-5.914 12.306-7.128 20.388 9.428-.014 16.401-.084 17.276-.295 2.837-.662 2.78-3.858 2.78-3.858 4.15-.789 1.849-4.112 1.849-4.112 6.309-3.435.734-5.787.734-5.787l9.443-1.239a2.347 2.347 0 0 0 2.018-1.999c.198-1.366-.861-2.619-2.258-2.661Z"/><path fill="#1D1D1D" d="M65.561 195.429a.301.301 0 0 1-.31-.296c0-.169.127-.31.296-.324l4.108-.155c.183-.014.31.127.324.296 0 .169-.127.31-.296.324l-4.122.155c.015 0 .015 0 0 0ZM102.201 120.552c-1.905 1.056-3.345 3.139-3.797 5.505-.24 1.211-.211 2.478-.423 3.689-.212 1.211-.72 2.464-1.665 3.069-.48.296-1.03.409-1.525.662-1.002.493-1.792 1.591-1.891 2.83-.099 1.239.607 2.549 1.651 2.887-.226 1.098.141 2.337.918 3.041a2.456 2.456 0 0 0 2.794.408c.367 2.394 2.188 4.252 4.22 4.985 2.033.732 16.966-7.252 18.97-10.955.55-1.014.79-2.281.48-3.421 1.256-1.281 2.47-2.732 3.006-4.548.536-1.816.24-4.097-1.087-5.266-1.087-.943-1.693-.817-3.048-1.014-1.242-.183-1.482.197-2.075-.971-.734-1.465-1.764-2.788-3.077-3.548-1.609-.93-3.571-.831-5.18.07-.875.493-1.383 1.197-2.075 1.929-.663.704-1.736-.042-2.554-.113a6.535 6.535 0 0 0-3.642.761Z"/><path fill="#fff" d="m111.262 161.243-1.736-.774 4.192-10.152s1.581-13.517-11.291-7.195l-7.072 14.826-1.185-.239c-.014-.014 8.356 12.94 17.092 3.534Z"/><path fill="#1D1D1D" d="M104.544 164.96c-4.234 0-7.763-3.506-9.344-5.379a.3.3 0 0 1 .043-.436.301.301 0 0 1 .437.042c2.484 2.943 7.467 7.378 12.929 3.914.141-.098.339-.042.423.099.099.141.043.338-.099.422-1.51.958-2.992 1.338-4.389 1.338ZM111.262 161.553c-.042 0-.084-.014-.127-.028l-1.736-.775a.304.304 0 0 1-.155-.408l4.178-10.11c.056-.521.48-5.702-2.357-7.701-1.821-1.282-4.658-1.014-8.412.802l-7.03 14.728a.304.304 0 0 1-.338.169l-1.524-.31a.299.299 0 0 1-.24-.366.299.299 0 0 1 .367-.239l1.284.253 6.972-14.601a.345.345 0 0 1 .142-.141c4.022-1.971 7.099-2.238 9.131-.802 3.275 2.309 2.64 8.068 2.612 8.321 0 .028-.015.056-.029.084l-4.079 9.871 1.468.647c.155.071.226.254.155.409a.288.288 0 0 1-.282.197Z"/><path fill="#fff" d="M106.803 145.065c1.058 1.732 2.498 3.267 4.276 4.238 1.779.972 3.938 1.338 5.886.803 3.274-.916 5.434-4.21 5.984-7.561.565-3.337-.169-6.759-.931-10.053 0 0-2.23-4.788-6.239-5.858.452 7.406-12.999 4.013-8.045 13.756 0 0-2.738-2.421-4.178-2.027-1.552.422-2.639 2.042-2.484 3.633.17 1.591 1.482 2.956 3.049 3.294.917.183 1.75.282 2.682-.225Z"/><path fill="#1D1D1D" d="M115.073 150.655a8.69 8.69 0 0 1-4.149-1.084c-1.623-.887-3.091-2.295-4.249-4.098-.959.423-1.849.296-2.611.127-1.736-.38-3.119-1.873-3.288-3.576-.184-1.76 1.002-3.506 2.709-3.971 1.003-.267 2.456.578 3.444 1.282-.635-1.577-.762-2.873-.381-3.943.621-1.774 2.498-2.633 4.333-3.478 2.456-1.126 4.785-2.196 4.602-5.266a.33.33 0 0 1 .112-.253c.071-.056.184-.084.283-.056 4.093 1.084 6.337 5.829 6.436 6.026.014.014.014.042.014.056.677 2.957 1.524 6.646.931 10.18-.649 3.872-3.091 6.927-6.21 7.8a7.675 7.675 0 0 1-1.976.254Zm-8.271-5.9a.32.32 0 0 1 .268.155c1.115 1.831 2.555 3.253 4.164 4.126 1.807.985 3.867 1.267 5.66.774 3.289-.915 5.265-4.337 5.759-7.307.564-3.394-.255-6.998-.918-9.899-.183-.38-2.202-4.379-5.617-5.533-.043 3.168-2.654 4.365-4.969 5.435-1.792.816-3.472 1.591-4.008 3.111-.409 1.155-.113 2.676.889 4.647a.304.304 0 0 1-.084.38.322.322 0 0 1-.396-.014c-.734-.648-2.851-2.253-3.895-1.971-1.397.38-2.4 1.858-2.258 3.308.141 1.437 1.326 2.704 2.808 3.028.918.197 1.652.239 2.442-.197a.316.316 0 0 1 .155-.043Z"/><path fill="#1D1D1D" d="M106.138 143.277a.286.286 0 0 1-.155-.042 7.771 7.771 0 0 1-1.877-1.577.311.311 0 0 1 .028-.437.313.313 0 0 1 .438.029 7.07 7.07 0 0 0 1.722 1.45.316.316 0 0 1 .112.422.29.29 0 0 1-.268.155Z"/><path fill="#fff" d="M327.153 212.874H52.562v5.562h274.591v-5.562Z"/><path fill="#1D1D1D" d="M327.153 218.746H52.562a.313.313 0 0 1-.311-.31v-5.562c0-.169.141-.31.31-.31h274.592c.17 0 .311.141.311.31v5.562c0 .169-.141.31-.311.31Zm-274.281-.62h273.971v-4.942H52.872v4.942Z"/><path fill="#fff" d="m352.489 218.436 6.055 15.966c4.22 11.123-3.895 22.768-15.61 22.697-27.763-.169-99.745 0-116.852-.056-6.365-18.375 6.945-38.607 26.084-38.607h100.323Z"/><path fill="#1D1D1D" d="M226.054 257.775a.317.317 0 0 1-.296-.211c-3.176-9.18-1.624-19.501 4.163-27.597 5.378-7.533 13.493-11.855 22.258-11.855h100.324c.127 0 .24.084.297.197l6.055 15.967c1.961 5.167 1.411 10.799-1.525 15.459-2.851 4.548-7.494 7.421-12.731 7.899a.315.315 0 0 1-.339-.281.314.314 0 0 1 .283-.338c5.038-.451 9.513-3.224 12.251-7.603 2.823-4.492 3.359-9.927 1.468-14.911l-5.985-15.77H252.179c-8.553 0-16.485 4.224-21.75 11.588-5.674 7.941-7.198 18.037-4.079 27.034a.309.309 0 0 1-.197.394c-.043.028-.071.028-.099.028Z"/><path fill="#fff" d="M256.174 177.238c-6.69-3.534-14.143-7.167-21.482-5.365-.819.197-1.778.634-1.877 1.493-.141 1.168 1.369 1.732 2.526 1.887 1.906.239 3.811.492 5.717.732l.296.07c-1.397.634-2.823 1.408-3.627 2.732-.791 1.323-.664 3.322.635 4.125-.875.845-1.285 2.154-1.031 3.351s1.144 2.239 2.287 2.647c-.536.732-.381 1.788.07 2.591.72 1.295 2.118 2.168 3.586 2.224 1.411.071 2.822-.619 3.669-1.745-.014-.043-.042-.071-.056-.113l.155-.028c-.028.042-.071.098-.099.141a35.93 35.93 0 0 0 5.688 8.194c.48.521.988 1.028 1.496 1.535l10.812-18.966c-2.837-2.027-5.716-3.9-8.765-5.505Z"/><path fill="#1D1D1D" d="M254.141 202.019a.288.288 0 0 1-.211-.085 29.22 29.22 0 0 1-1.51-1.535 36.527 36.527 0 0 1-5.533-7.856c-.932.999-2.273 1.563-3.613 1.492-1.567-.07-3.077-1.014-3.84-2.393-.381-.69-.649-1.732-.239-2.591a4.018 4.018 0 0 1-2.146-2.732 4.02 4.02 0 0 1 .875-3.365c-1.199-1.014-1.228-3.027-.437-4.336.663-1.113 1.736-1.845 2.865-2.436l-5.039-.648c-1.383-.183-2.95-.873-2.795-2.225.099-.816.847-1.436 2.104-1.76 7.226-1.788 14.382 1.535 21.693 5.393 2.781 1.464 5.575 3.224 8.807 5.533.141.099.17.296.071.437a.315.315 0 0 1-.438.07c-3.204-2.295-5.984-4.041-8.736-5.491-7.199-3.801-14.242-7.068-21.256-5.336-.579.141-1.553.493-1.638 1.225-.113.971 1.369 1.422 2.259 1.549l5.716.732h.042l.297.07a.317.317 0 0 1 .24.268.304.304 0 0 1-.184.309c-1.369.62-2.738 1.366-3.486 2.619-.706 1.169-.621 2.999.536 3.703.085.057.141.141.141.226a.277.277 0 0 1-.098.253 3.385 3.385 0 0 0-.946 3.07 3.334 3.334 0 0 0 2.089 2.421.305.305 0 0 1 .155.465c-.494.662-.254 1.633.085 2.253.663 1.197 1.976 2.013 3.317 2.069 1.242.057 2.484-.506 3.288-1.478a.282.282 0 0 1 .028-.211.31.31 0 0 1 .226-.169l.156-.028a.275.275 0 0 1 .31.141.293.293 0 0 1 0 .337 35.511 35.511 0 0 0 5.561 7.956c.423.464.903.943 1.482 1.52.127.113.127.31 0 .437a.205.205 0 0 1-.198.127Z"/><path fill="#1D1D1D" d="M239.124 182.729a.323.323 0 0 1-.254-.127.312.312 0 0 1 .071-.436 16.9 16.9 0 0 1 3.796-2.098.33.33 0 0 1 .41.169c.07.154-.014.337-.17.408a16.599 16.599 0 0 0-3.655 2.027.452.452 0 0 1-.198.057ZM240.211 189.009a.35.35 0 0 1-.24-.113.31.31 0 0 1 .028-.436 13.56 13.56 0 0 1 2.95-1.915c.155-.071.339-.014.409.14.071.155.015.338-.141.409a12.31 12.31 0 0 0-2.808 1.83c-.057.071-.127.085-.198.085ZM247.056 191.965l-2.935-.07a.297.297 0 0 1-.297-.324c0-.169.141-.296.325-.296l2.936.071c.169 0 .31.141.296.324a.322.322 0 0 1-.325.295Z"/><path fill="#fff" d="M362.623 228.559c-4.601-13.868-22.738-52.067-25.533-57.953-.988-2.07-2.004-4.196-3.613-5.815-3.698-3.745-9.541-4.013-14.778-3.816-6.577.254-16.908.198-22.752 3.267-4.798 2.534-14.227 20.43-17.388 26.597-4.757-3.055-9.415-5.083-13.621-8.096l-10.811 18.966a62.198 62.198 0 0 0 2.668 2.45c2.159 1.887 4.403 4.674 6.915 6.054 6.055 3.337 13.508 3.929 20 1.619 6.493-2.323 11.927-8.504 14.552-14.938l.071-.127c1.185 6.35 3.655 13.869 5.532 20.05.226.732.48 1.506 1.073 1.985.706.577 1.694.591 2.597.577 1.905-.028 3.811-.07 5.716-.098 2.188 4.998 3.458 8.758 5.646 13.756.903 2.07 1.863 4.21 3.486 5.759 1.976 1.886 4.728 2.717 7.424 3.168 7.495 1.267 15.145.183 22.654-.986 2.286-.366 4.629-.746 6.69-1.802 2.075-1.056 3.867-2.915 4.262-5.224.339-1.83-.212-3.661-.79-5.393Z"/><path fill="#1D1D1D" d="M337.02 242.822c-2.428 0-4.841-.169-7.241-.577-2.187-.366-5.349-1.112-7.579-3.252-1.694-1.62-2.682-3.872-3.557-5.858-1.101-2.506-1.976-4.731-2.823-6.885-.832-2.098-1.679-4.266-2.738-6.674l-5.504.099c-1.045.014-2.047-.014-2.809-.648-.635-.521-.918-1.309-1.172-2.14-.282-.943-.592-1.915-.903-2.915-1.609-5.181-3.416-11.024-4.46-16.178-2.964 6.646-8.539 12.236-14.411 14.334-6.563 2.351-14.142 1.732-20.268-1.633-1.721-.944-3.302-2.521-4.827-4.041a55.544 55.544 0 0 0-2.145-2.056 71.177 71.177 0 0 1-2.682-2.464.32.32 0 0 1-.056-.38l10.811-18.966a.368.368 0 0 1 .198-.155.338.338 0 0 1 .254.057c2.329 1.675 4.785 3.027 7.382 4.463 1.933 1.07 3.923 2.168 5.942 3.449 4.629-8.997 12.9-24.062 17.36-26.428 5.237-2.759 14.086-3.027 20.536-3.224.819-.028 1.609-.042 2.343-.07 5.307-.198 11.249.112 15.004 3.9 1.665 1.675 2.724 3.928 3.67 5.899 6.294 13.25 21.383 45.422 25.546 57.996.621 1.858 1.143 3.689.833 5.519-.381 2.183-2.032 4.224-4.432 5.449-2.159 1.098-4.615 1.493-6.789 1.831-5.42.844-10.515 1.548-15.483 1.548Zm-23.74-23.865c.127 0 .24.07.282.183 1.101 2.506 1.976 4.731 2.823 6.885s1.722 4.365 2.823 6.857c.847 1.929 1.806 4.125 3.415 5.66 2.118 2.028 5.152 2.732 7.255 3.084 7.227 1.224 14.495.281 22.555-.986 2.117-.338 4.53-.704 6.605-1.774 2.23-1.141 3.754-3.013 4.107-5.013.297-1.689-.211-3.435-.804-5.209-4.164-12.531-19.238-44.676-25.519-57.925-.96-2.028-1.962-4.126-3.542-5.731-3.585-3.633-9.358-3.914-14.538-3.717-.734.028-1.524.056-2.357.07-6.394.197-15.145.465-20.268 3.154-4.531 2.394-13.578 19.304-17.262 26.457a.272.272 0 0 1-.197.154.275.275 0 0 1-.254-.042c-2.089-1.337-4.178-2.492-6.197-3.604-2.512-1.38-4.883-2.704-7.155-4.295l-10.516 18.459a51.946 51.946 0 0 0 2.485 2.267c.719.62 1.425 1.338 2.173 2.084 1.496 1.492 3.035 3.027 4.686 3.928 5.97 3.281 13.352 3.886 19.746 1.591 5.928-2.126 11.573-7.913 14.368-14.77l.071-.154a.284.284 0 0 1 .324-.169c.127.014.24.112.268.253 1.003 5.364 2.922 11.602 4.63 17.093.31 1 .607 1.971.903 2.915.24.76.466 1.436.974 1.844.607.493 1.482.521 2.4.507l5.716-.056Z"/><path fill="#1D1D1D" d="M298.517 196.907a.318.318 0 0 1-.297-.211 426.68 426.68 0 0 0-2.625-7.814c-.085-.254-.184-.479-.325-.606-.268-.197-.705-.098-1.326.324a.318.318 0 0 1-.438-.084.317.317 0 0 1 .085-.437c.861-.577 1.566-.676 2.06-.295.311.239.438.619.537.887.903 2.59 1.792 5.223 2.639 7.828a.315.315 0 0 1-.198.394c-.056 0-.084.014-.112.014Z"/><path fill="#fff" d="M293.9 130.563s-6.958 14.91-.663 20.613c6.295 5.702 17.728-2.83 17.728-2.83s-9.767-22.064-17.065-17.783Z"/><path fill="#1D1D1D" d="M298.699 153.471c-2.032 0-4.008-.564-5.674-2.07-6.393-5.801.297-20.36.593-20.979a.395.395 0 0 1 .127-.141c1.101-.648 2.329-.774 3.642-.352 6.662 2.14 13.578 17.614 13.874 18.276.056.126.014.281-.099.38-.367.282-6.633 4.886-12.463 4.886Zm-4.559-22.683c-.55 1.239-6.506 14.896-.691 20.162 1.51 1.366 3.331 1.873 5.208 1.873 5.138 0 10.783-3.788 11.912-4.59-.889-1.957-7.41-15.784-13.38-17.699-1.115-.352-2.117-.267-3.049.254Z"/><path fill="#1D1D1D" d="M336.102 158.891c1.694-5.589-2.682-7.518-3.402-9.461-.748-2.014-.578-2.521-.959-4.647-.381-2.098-.748-4.181-1.355-6.223a36.025 36.025 0 0 0-2.386-5.942c-1.905-3.703-4.474-7.35-7.819-9.856-1.694-1.267-3.655-2.168-5.759-2.478-2.159-.31-4.347-.07-6.436.479-.395.098-.776.211-1.171.338a329.887 329.887 0 0 0-5.124-1.267c-1.863-.451-3.74-.902-5.659-.972-1.708-.056-3.501.169-4.969 1.141-1.637 1.084-2.455 2.9-2.794 4.787-.649 3.717.24 7.969 3.345 10.334 1.284.986 2.78 1.634 4.248 2.281 1.44.634 2.95 1.268 4.15 2.324 1.482 1.281 2.089 3.097 1.934 5.04-.156 2.14-.918 4.182-1.341 6.28-.762 3.759-2.569 7.617.353 11.433 3.825 4.984 31.206 9.349 35.144-3.591ZM266.689 257.832h-85.575a.313.313 0 0 1-.31-.31c0-.169.141-.31.31-.31h85.575c.169 0 .31.141.31.31s-.141.31-.31.31Z"/></svg>