<svg xmlns="http://www.w3.org/2000/svg" width="370" height="254" fill="none"><path fill="#E2EAFF" d="M222.182 60.976c-2.165-3.668-6.9-4.882-10.552-2.715-.274.156-.522.34-.77.535a31.583 31.583 0 0 0-7.5-5.64 7.717 7.717 0 0 0-5.269-10.274 7.701 7.701 0 0 0-9.378 5.549 7.53 7.53 0 0 0-.17.927 31.45 31.45 0 0 0-9.287 1.318c-.13-.287-.261-.561-.417-.835-2.165-3.668-6.9-4.883-10.552-2.715-3.665 2.166-4.865 6.892-2.7 10.56.156.275.339.523.535.77a30.95 30.95 0 0 0-5.622 7.507 7.701 7.701 0 0 0-10.265 5.26 7.717 7.717 0 0 0 5.556 9.386c.313.079.613.13.926.17a31.539 31.539 0 0 0 1.331 9.295c-.287.13-.561.26-.835.417-3.665 2.167-4.865 6.893-2.7 10.561s6.9 4.882 10.552 2.715c.274-.156.522-.339.77-.535a31.591 31.591 0 0 0 7.5 5.64 7.716 7.716 0 0 0 5.269 10.273 7.701 7.701 0 0 0 9.378-5.548 7.69 7.69 0 0 0 .17-.927 31.447 31.447 0 0 0 9.287-1.318c.13.287.26.561.417.835 2.165 3.669 6.9 4.883 10.552 2.716 3.665-2.167 4.865-6.893 2.7-10.561a6.262 6.262 0 0 0-.535-.77 30.964 30.964 0 0 0 5.622-7.507 7.702 7.702 0 0 0 10.265-5.26 7.718 7.718 0 0 0-5.557-9.386 7.688 7.688 0 0 0-.926-.17 31.539 31.539 0 0 0-1.33-9.294c.287-.131.561-.262.835-.418 3.665-2.167 4.865-6.893 2.7-10.561ZM200.647 73.73c4.031 6.801 1.787 15.587-5.021 19.607-6.796 4.02-15.574 1.763-19.605-5.039-4.03-6.8-1.786-15.586 5.022-19.607 6.796-4.034 15.574-1.775 19.604 5.039Z"/><path fill="#1D1D1D" d="M7.663 236.215h-.052a.277.277 0 0 1-.222-.34l25.134-125.032a.277.277 0 0 1 .34-.222c.156.026.26.183.221.339L7.95 235.98a.306.306 0 0 1-.287.235Z"/><path fill="#1D1D1D" d="M7.66 238.603a2.675 2.675 0 0 0 2.674-2.676 2.675 2.675 0 1 0-2.674 2.676ZM71.374 236.215a.304.304 0 0 1-.287-.235L45.965 110.96c-.026-.156.066-.313.222-.339.157-.026.313.065.34.222L71.66 235.862c.026.157-.066.314-.222.34-.026 0-.04.013-.065.013Z"/><path fill="#1D1D1D" d="M71.371 238.604a2.675 2.675 0 0 0 2.674-2.676 2.676 2.676 0 0 0-2.674-2.677 2.676 2.676 0 0 0-2.674 2.677 2.675 2.675 0 0 0 2.674 2.676ZM43.449 196.308H16.892a.29.29 0 0 1-.287-.287.29.29 0 0 1 .287-.287H43.45a.29.29 0 0 1 .287.287.29.29 0 0 1-.287.287ZM43.762 202.117H19.137a.29.29 0 0 1-.287-.287.29.29 0 0 1 .287-.287h24.625a.29.29 0 0 1 .287.287.29.29 0 0 1-.287.287Z"/><path fill="#fff" d="m33 127.512 65.243 107.867a6.698 6.698 0 0 0 5.726 3.237h36.547c1.174 0 1.63-1.514.665-2.167l-14.361-9.647s-46.095-76.536-61.89-108.297L33 127.512Z"/><path fill="#1D1D1D" d="M140.516 238.89h-36.547a7.021 7.021 0 0 1-5.974-3.368L32.752 127.656a.28.28 0 0 1-.026-.248.316.316 0 0 1 .196-.17l31.93-9.02a.299.299 0 0 1 .339.143c15.443 31.03 60.39 105.804 61.851 108.219l14.309 9.608c.547.365.782 1.018.587 1.658-.209.639-.757 1.044-1.422 1.044ZM33.444 127.682l65.046 107.54a6.469 6.469 0 0 0 5.492 3.094h36.534a.866.866 0 0 0 .861-.64c.091-.313.052-.731-.352-1.005l-14.361-9.647a.304.304 0 0 1-.091-.091c-.457-.771-46.07-76.576-61.8-108.102l-31.33 8.851Z"/><path fill="#1D1D1D" d="M98.908 232.52a.295.295 0 0 1-.287-.235.281.281 0 0 1 .235-.326l26.347-4.387c.157-.026.3.079.326.235a.282.282 0 0 1-.234.327l-26.348 4.386c0-.013-.013 0-.039 0Z"/><path fill="#fff" d="M98.458 148.125c-13.84-14.425-33.913-34.763-37.46-38.353-4.879 2.702-29.922 14.372-29.922 14.372l42.69 39.972-25.63 33.575a5.766 5.766 0 0 0 .483 7.533l19.683 19.829c1.187 1.188 3.208.3 3.143-1.371l-.574-14.085c5.113-4.635 19.343-23.158 29.113-36.147 5.752-7.663 5.113-18.393-1.526-25.325Z"/><path fill="#1D1D1D" d="M69.593 225.901a2.067 2.067 0 0 1-1.487-.639l-19.682-19.83a6.047 6.047 0 0 1-.509-7.911l25.474-33.366-42.508-39.802a.31.31 0 0 1-.091-.261.34.34 0 0 1 .156-.222c.248-.117 25.082-11.696 29.895-14.373a.277.277 0 0 1 .34.053c3.847 3.89 23.712 24.019 37.46 38.366a19.813 19.813 0 0 1 1.539 25.703c-10.46 13.903-23.948 31.409-29.048 36.095l.574 13.942a2.078 2.078 0 0 1-1.278 2.036c-.26.144-.548.209-.835.209ZM31.585 124.223l42.378 39.684a.282.282 0 0 1 .026.379l-25.63 33.575c-1.644 2.154-1.448 5.235.456 7.154l19.683 19.829c.548.561 1.252.535 1.721.326.47-.209.966-.705.927-1.488l-.574-14.085c0-.092.026-.17.09-.222 4.996-4.517 18.562-22.127 29.074-36.108a19.226 19.226 0 0 0-1.5-24.96c-13.578-14.15-33.117-33.966-37.303-38.196-4.892 2.676-26.204 12.649-29.348 14.112Z"/><path fill="#1D1D1D" d="M68.69 209.505c-.026 0-.065 0-.091-.013-7.24-2.558-13.304-8.002-16.644-14.921-.065-.143-.012-.313.13-.378.144-.065.314-.013.38.13 3.273 6.789 9.22 12.115 16.316 14.634a.291.291 0 0 1 .17.366c-.026.104-.144.182-.261.182Z"/><path fill="#fff" d="M68.479 80.883c.065 5.353-1.2 10.613-2.517 15.783-1.318 5.169-2.713 10.378-2.909 15.717-6.495 2.441-12.991 4.895-19.487 7.336-.078-9.908 1.03-19.881 4.03-29.254 1.827-5.73 4.37-11.214 7.644-16.148 1.487-2.245 3.365-5.483 5.583-6.945 2.647-1.749 4.46 1.136 5.53 3.433 1.448 3.107 2.087 6.619 2.126 10.078Z"/><path fill="#1D1D1D" d="M43.568 120.007c-.053 0-.118-.013-.157-.053a.29.29 0 0 1-.13-.235c-.079-10.808 1.278-20.677 4.043-29.345 1.891-5.953 4.487-11.41 7.683-16.227.221-.326.456-.691.69-1.057 1.357-2.089 3.04-4.686 4.983-5.979.822-.548 1.644-.705 2.44-.483 1.252.353 2.4 1.671 3.508 4.047 1.37 2.937 2.113 6.462 2.165 10.195.065 5.261-1.109 10.287-2.53 15.861l-.196.744c-1.239 4.843-2.53 9.856-2.713 14.921a.283.283 0 0 1-.182.261l-19.487 7.337c-.052.013-.091.013-.117.013Zm18.834-52.883c-.456 0-.926.157-1.422.483-1.839 1.214-3.482 3.76-4.813 5.81-.235.365-.47.73-.691 1.057-3.17 4.778-5.726 10.182-7.617 16.082-2.713 8.499-4.057 18.172-4.018 28.759l18.926-7.128c.209-5.052 1.487-10.038 2.726-14.842l.196-.744c1.409-5.522 2.583-10.522 2.517-15.705-.039-3.655-.77-7.101-2.113-9.96-1.03-2.206-2.06-3.42-3.143-3.733a1.985 1.985 0 0 0-.548-.079Z"/><path fill="#0098C7" d="M55.5 62.216s6.862 2.885 8.414 8.512c1.539 5.626-20.36 88.507-20.36 88.507l-24.73-20.587a13.829 13.829 0 0 1-3.81-16.187l23.687-53.913c.013-.013 10.356-8.642 16.8-6.332Z"/><path fill="#0098C7" d="M103.488 90.7c-9.3.34-19.147.549-20.465-.326-2.504-1.684-10.63-7.428-14.321-15.587-3.692-8.158-13.2-12.57-13.2-12.57l-10.983 21.16s24.444 23.302 38.491 23.015c6.77-.144 14.074-.784 19.996-1.436-.979-4.7-.809-9.634.482-14.255Z"/><path fill="#fff" d="M131.036 97.971c-.261-.979-.887-1.828-1.5-2.637-1.748-2.324-3.665-4.778-6.417-5.652-1.8-.575-3.744-.392-5.622-.21-2.243.223-12.052 1.332-13.995 1.541-1.696.183-2.531 9.086-1.605 12.362.157.549.365 1.123.796 1.502.782.678 1.969.496 2.961.195a24.84 24.84 0 0 0 9.821-5.587c.679-.626 1.422-1.344 2.348-1.383 1.187-.053 2.1 1.005 2.857 1.919.665.809 1.408 1.605 2.36 2.01.966.405 2.218.3 2.883-.509.352-.418.43-1.032.274-1.554.404.366.822.692 1.317.927.887.431 2.048.483 2.818-.143.782-.614.965-1.789.704-2.781Z"/><path fill="#fff" d="M105.655 105.085a24.838 24.838 0 0 0 9.821-5.587c.679-.627 1.422-1.345 2.348-1.384 1.187-.052 2.1 1.006 2.857 1.919.665.81 1.408 1.606 2.36 2.011.966.404 2.218.3 2.883-.509.352-.418.43-1.032.274-1.554.404.366.822.692 1.317.927.887.431 2.048.483 2.818-.144.795-.639.978-1.814.717-2.793-.261-.98-.887-1.828-1.5-2.637-1.748-2.324-3.665-4.778-6.417-5.653-1.8-.574-3.744-.391-5.622-.209-2.243.223-12.052 1.332-13.995 1.54l2.139 14.073Z"/><path fill="#1D1D1D" d="M105.654 105.373a.28.28 0 0 1-.274-.209c-.039-.156.04-.313.196-.352a24.594 24.594 0 0 0 9.704-5.522l.066-.066c.678-.64 1.46-1.357 2.465-1.396 1.356-.066 2.361 1.148 3.091 2.023.6.731 1.317 1.541 2.256 1.932.809.34 1.944.3 2.557-.418.274-.326.352-.822.222-1.292a.275.275 0 0 1 .13-.326.297.297 0 0 1 .352.039c.444.405.835.692 1.239.888.744.352 1.8.456 2.505-.105.73-.587.834-1.684.626-2.506-.248-.94-.861-1.763-1.448-2.546-1.917-2.545-3.704-4.725-6.274-5.548-1.774-.561-3.756-.365-5.517-.196-1.383.13-5.7.614-9.17 1.005-2.178.248-4.082.457-4.826.536a.282.282 0 0 1-.313-.261.283.283 0 0 1 .261-.314c.744-.078 2.635-.287 4.826-.535 3.47-.391 7.8-.874 9.183-1.005 1.813-.183 3.861-.379 5.739.222 2.739.861 4.591 3.12 6.561 5.744.586.796 1.265 1.684 1.539 2.741.26 1.005.117 2.35-.809 3.094-.796.64-2.022.705-3.117.183a5.407 5.407 0 0 1-.835-.509c-.026.391-.17.77-.405 1.057-.782.94-2.204 1.005-3.208.587-1.057-.443-1.839-1.305-2.478-2.088-.822-.992-1.579-1.815-2.544-1.815h-.078c-.796.04-1.461.653-2.1 1.24l-.065.066a25.1 25.1 0 0 1-9.939 5.652c-.065-.013-.092 0-.118 0Z"/><path fill="#1D1D1D" d="M125.766 99.603a.28.28 0 0 1-.248-.144c-1.2-2.102-2.557-4.49-4.761-5.835-.561-.34-1.982-1.057-3.196-.43-.143.078-.313.012-.391-.131-.078-.144-.013-.314.131-.392 1.474-.757 3.117.065 3.756.457 2.322 1.41 3.73 3.864 4.97 6.031a.291.291 0 0 1-.105.392.276.276 0 0 1-.156.052Z"/><path fill="#fff" d="M34.647 66.094c-1.487 1.527-2.817 3.316-3.248 5.404-.443 2.089.183 4.504 1.944 5.718 1.265.888 2.934 1.018 4.447.73 1.513-.3 2.922-.978 4.318-1.657 3.678-1.775 7.395-3.511 11.347-4.53 3.952-1.031 8.165-1.318 12.091-.222.626.183 1.305.392 1.93.183.744-.248 1.188-1.07 1.214-1.854.026-.783-.287-1.54-.652-2.245-4.748-9.177-17.674-10.3-26.204-6.488-2.661 1.188-5.126 2.859-7.187 4.96Z"/><path fill="#1D1D1D" d="M36.354 78.378c-1.213 0-2.308-.314-3.182-.914-1.996-1.384-2.478-4.02-2.061-6.018.391-1.84 1.474-3.668 3.326-5.548 2.06-2.102 4.513-3.786 7.278-5.026 9.078-4.06 21.913-2.363 26.57 6.618.325.64.704 1.489.678 2.39-.04.978-.613 1.853-1.41 2.114-.677.222-1.369.026-1.995-.144l-.104-.026c-3.548-.992-7.565-.913-11.948.222-3.939 1.019-7.59 2.716-11.295 4.517l-.065.04c-1.37.665-2.792 1.357-4.318 1.644-.495.078-.991.13-1.474.13Zm15.404-19.033c-3.378 0-6.795.705-9.795 2.036-2.713 1.214-5.1 2.859-7.109 4.909-1.773 1.814-2.817 3.524-3.182 5.26-.444 2.141.3 4.373 1.826 5.43 1.474 1.019 3.287.862 4.239.68 1.46-.288 2.843-.953 4.174-1.606l.065-.04c3.73-1.814 7.422-3.524 11.4-4.555 4.487-1.162 8.608-1.24 12.248-.222l.104.026c.56.157 1.148.326 1.656.157.666-.222.992-.98 1.018-1.593.026-.757-.3-1.488-.613-2.102-2.974-5.73-9.444-8.38-16.03-8.38Z"/><path fill="#fff" d="m63.288 48.836-7.774 13.393c3.482 1.566 6.3 3.329 7.865 5.43l6.548-12.035c-.17-.862-3.105-10.966-6.64-6.788Z"/><path fill="#1D1D1D" d="M63.365 67.934a.279.279 0 0 1-.234-.117c-1.37-1.854-3.913-3.603-7.748-5.34a.286.286 0 0 1-.157-.17.3.3 0 0 1 .027-.234l7.786-13.394c.013-.013.013-.026.026-.039.783-.914 1.605-1.266 2.466-1.044 2.687.73 4.539 7.245 4.67 7.95.012.065 0 .13-.027.182l-6.548 12.036a.26.26 0 0 1-.234.144c-.014.026-.014.026-.027.026Zm-7.447-5.848c3.535 1.619 5.96 3.276 7.408 5.026l6.287-11.553c-.26-1.227-2.074-6.815-4.239-7.402-.626-.17-1.226.104-1.852.835l-7.604 13.094Z"/><path fill="#1D1D1D" d="M64.162 68.86a.278.278 0 0 1-.222-.104c-4.278-5.483-10.93-7.101-10.996-7.127a.288.288 0 0 1-.208-.353.288.288 0 0 1 .352-.209c.065.013 6.926 1.684 11.321 7.324a.29.29 0 0 1-.052.404.294.294 0 0 1-.195.066ZM79.588 38.223c-1.5-3.682-5.844-5.94-9.718-5.066-5.726 1.306-8.921 8.12-14.647 9.439.3.822 1.07 1.449 1.93 1.592-1.5.783-2.23 2.703-1.813 4.347.404 1.645 1.813 2.95 3.417 3.46 1.618.522 3.405.313 4.97-.314l12.456-3.041c3.391-2.076 4.904-6.736 3.404-10.417Z"/><path fill="#1D1D1D" d="M63.65 49.893h-.026a.284.284 0 0 1-.261-.314c.026-.326-.104-.665-.34-.94a1.33 1.33 0 0 0-.886-.47.279.279 0 0 1-.261-.3.29.29 0 0 1 .313-.26c.47.039.94.274 1.278.665.34.392.509.888.47 1.358a.284.284 0 0 1-.287.26Z"/><path fill="#fff" d="M65.696 47.752c-.091-.64-.156-1.28-.483-1.867-.482-.848-1.382-1.449-2.373-1.462-1.174-.026-2.31.744-2.805 1.801-.508 1.07-.391 2.376.209 3.395.6 1.018 1.656 1.723 2.804 1.997 0 .065.013.143.026.209.535-.418.992-.94 1.357-1.502.522-.796.9-1.684 1.265-2.571Z"/><path fill="#1D1D1D" d="M63.063 52.112c-.039 0-.078-.013-.117-.026a.295.295 0 0 1-.17-.235v-.013c-1.187-.326-2.19-1.07-2.778-2.076-.665-1.122-.756-2.532-.221-3.655.56-1.188 1.76-1.971 3.012-1.971h.053c1.07.026 2.06.64 2.621 1.606.313.561.405 1.148.483 1.723l.04.235a.321.321 0 0 1-.014.156c-.352.875-.743 1.789-1.304 2.624-.418.64-.9 1.162-1.422 1.567a.263.263 0 0 1-.183.065Zm-.274-7.402c-1.017 0-2.047.666-2.504 1.645-.456.953-.378 2.154.196 3.12.535.9 1.513 1.606 2.621 1.854a.1.1 0 0 1 .066.026 6.035 6.035 0 0 0 1.004-1.188c.509-.77.887-1.632 1.213-2.454l-.026-.17c-.078-.548-.143-1.057-.417-1.514-.457-.797-1.266-1.306-2.126-1.319h-.027Z"/><path fill="#fff" d="M76.473 45.78c-.156-.991-6.887-.417-6.547 1.685.417 2.48-1.983 2.336-1.957 2.48.626 2.507-.496 6.018 1.748 7.284 1.278.718 5.426-.143 6.86-.352.092-.614.157-1.227.21-1.84.234-2.755.09-6.528-.314-9.256Z"/><path fill="#1D1D1D" d="M74.764 45.885c.653 0 1.018.079 1.161.13.392 2.69.522 6.358.3 8.969-.039.522-.09.979-.143 1.384-.117.013-.248.039-.378.065-1.187.196-2.961.496-4.318.496-.887 0-1.252-.13-1.382-.209-1.187-.666-1.2-2.22-1.226-4.008-.013-.796-.013-1.605-.144-2.375 1.84-.523 2.035-1.893 1.852-2.99-.013-.091-.013-.196.118-.352.613-.679 2.635-1.11 4.16-1.11Zm0-.574c-2.021 0-5.073.718-4.838 2.154.417 2.48-1.983 2.336-1.957 2.48.626 2.506-.496 6.018 1.748 7.284.365.21.965.287 1.67.287 1.76 0 4.16-.483 5.204-.64a29.45 29.45 0 0 0 .208-1.84c.222-2.754.092-6.527-.326-9.255-.052-.314-.77-.47-1.709-.47Z"/><path fill="#1D1D1D" d="M70.704 55.441c-2.243-1.266-2.113-2.99-2.74-5.496-.038-.143-.064-.3-.09-.457a.992.992 0 0 1-.287.222c-.666.313-1.422-.3-1.67-.992-.117-.313-.17-.64-.222-.979-.365.888-.743 1.775-1.278 2.572-.378.561-.822 1.083-1.357 1.5.21 2.05.731 4.074 1.527 5.967.639 1.527 1.486 3.002 2.726 4.086 1.252 1.083 2.96 1.71 4.578 1.383 1.682-.352 3.456-.457 4.213-2.01.482-.992.496-4.739.652-5.835-1.748-.366-4.76.757-6.052.039ZM63.414 49.58a.292.292 0 0 1-.287-.236 2.452 2.452 0 0 0-1.095-1.605c-.13-.078-.183-.261-.091-.392.078-.13.26-.182.39-.09a2.972 2.972 0 0 1 1.357 1.983.302.302 0 0 1-.235.34h-.039Z"/><path fill="#fff" d="M63.272 52.791a4.985 4.985 0 0 0 4.982-4.987 4.985 4.985 0 0 0-4.982-4.986 4.985 4.985 0 0 0-4.983 4.986 4.985 4.985 0 0 0 4.983 4.987Z"/><path fill="#1D1D1D" d="M63.273 53.078a5.274 5.274 0 0 1 0-10.547 5.274 5.274 0 0 1 5.27 5.273c0 2.898-2.374 5.274-5.27 5.274Zm0-9.973a4.703 4.703 0 0 0-4.695 4.7c0 2.584 2.1 4.699 4.695 4.699a4.703 4.703 0 0 0 4.696-4.7c-.013-2.597-2.113-4.7-4.696-4.7Z"/><path fill="#fff" d="m64.016 42.87 7.056-10.678s3.196.143 4.748 1.67l-7.644 13.016c-.013.013-.195-3.395-4.16-4.008Z"/><path fill="#1D1D1D" d="M68.163 47.178c-.026 0-.039 0-.065-.013a.293.293 0 0 1-.222-.261c-.013-.13-.235-3.186-3.913-3.747a.294.294 0 0 1-.221-.17.292.292 0 0 1 .026-.274l7.056-10.678a.315.315 0 0 1 .248-.13c.13 0 3.326.156 4.93 1.762a.277.277 0 0 1 .04.352l-7.644 13.015a.246.246 0 0 1-.235.144Zm-3.678-4.517c2.609.575 3.509 2.376 3.809 3.433l7.147-12.166c-1.304-1.123-3.6-1.384-4.226-1.436l-6.73 10.17Z"/><path fill="#0098C7" d="M74.672 57.765h-6.874a.285.285 0 0 1-.26-.17l-4.54-9.673a.286.286 0 0 1 .522-.235l4.46 9.517h6.692a.29.29 0 0 1 .287.287c0 .144-.13.274-.287.274Z"/><path fill="#fff" d="M75.334 57.478c0-.366-.3-.666-.665-.666-.365 0-.665.3-.665.666 0 .365.3.665.665.665.365 0 .665-.3.665-.665ZM153.453 105.046H58.172v4.464h95.281v-4.464Z"/><path fill="#1D1D1D" d="M153.468 109.798H58.174a.29.29 0 0 1-.287-.287v-4.465a.29.29 0 0 1 .287-.287h95.281a.29.29 0 0 1 .287.287v4.465a.27.27 0 0 1-.274.287Zm-95.007-.574h94.707v-3.89H58.461v3.89ZM41.772 236.215h-.052a.277.277 0 0 1-.221-.34l5.634-28.014a.277.277 0 0 1 .34-.222c.156.026.26.183.221.34l-5.635 28.014a.297.297 0 0 1-.287.222ZM50.991 190.342h-.052a.277.277 0 0 1-.222-.339l15.913-79.16a.277.277 0 0 1 .34-.222c.156.026.26.183.22.339l-15.912 79.161a.283.283 0 0 1-.287.221Z"/><path fill="#1D1D1D" d="M41.77 238.603a2.675 2.675 0 0 0 2.673-2.676 2.675 2.675 0 1 0-2.673 2.676ZM171.616 236.215a.303.303 0 0 1-.287-.235l-25.121-125.02c-.027-.157.065-.313.221-.339.157-.026.313.065.339.222l25.135 125.019c.026.157-.065.313-.222.339-.026 0-.039.014-.065.014Z"/><path fill="#1D1D1D" d="M171.613 238.604a2.675 2.675 0 0 0 2.674-2.676 2.676 2.676 0 0 0-2.674-2.677 2.676 2.676 0 0 0 0 5.353Z"/><path fill="#1D1D1D" d="M206.11 238.891H.287a.29.29 0 0 1-.287-.287.29.29 0 0 1 .287-.288H206.11a.29.29 0 0 1 .287.288.29.29 0 0 1-.287.287ZM137.712 105.085h-32.726a3.104 3.104 0 0 1 3.105-3.106h32.725a3.112 3.112 0 0 1-3.104 3.106Z"/><path fill="#1D1D1D" d="m137.109 103.259 15.013-32.597a3.114 3.114 0 0 1 1.513 4.125l-13.108 28.472h-3.418Z"/><path fill="#fff" d="M310.244 194.17c33.002-33.029 33.002-86.58 0-119.61s-86.508-33.029-119.51 0c-33.002 33.03-33.002 86.581 0 119.61 33.002 33.03 86.508 33.03 119.51 0Z"/><path fill="#1D1D1D" d="M250.496 83.73a.29.29 0 0 1-.287-.288V66.59a.29.29 0 0 1 .287-.287.29.29 0 0 1 .287.287v16.853a.29.29 0 0 1-.287.287ZM250.496 202.443a.289.289 0 0 1-.287-.287v-16.853a.29.29 0 0 1 .287-.287.29.29 0 0 1 .287.287v16.853a.29.29 0 0 1-.287.287ZM199.602 134.653h-16.838a.289.289 0 0 1-.287-.287c0-.157.13-.287.287-.287h16.838c.157 0 .287.13.287.287 0 .17-.117.287-.287.287ZM318.218 134.653h-16.839a.289.289 0 0 1-.287-.287c0-.157.13-.287.287-.287h16.839a.29.29 0 0 1 .287.287c0 .17-.131.287-.287.287ZM236.712 165.905a.38.38 0 0 1-.117-.026c-.144-.066-.209-.235-.144-.379l13.787-31.238c.013-.026.026-.053.039-.066l38.634-46.681c.105-.118.287-.144.405-.04.117.105.143.288.039.405l-38.608 46.643-13.761 31.199a.308.308 0 0 1-.274.183Z"/><path fill="#0098C7" d="M274.328 143.935h-47.66c-5.282 0-9.561-4.282-9.561-9.569 0-5.287 4.279-9.568 9.561-9.568h47.66c5.283 0 9.561 4.281 9.561 9.568s-4.291 9.569-9.561 9.569Z"/><path fill="#fff" d="M241.551 140.058h-7.683v-.77l4.2-4.765c.692-.81 1.174-1.462 1.448-1.984.274-.523.404-1.032.404-1.528 0-.77-.221-1.383-.678-1.84-.456-.457-1.082-.679-1.878-.679-.822 0-1.487.261-1.996.796-.508.522-.756 1.214-.756 2.063h-1.005c0-.692.157-1.319.47-1.893a3.349 3.349 0 0 1 1.33-1.332c.574-.326 1.226-.483 1.97-.483 1.122 0 1.996.301 2.635.888.626.587.952 1.397.952 2.415 0 .574-.183 1.201-.535 1.88-.352.679-.978 1.527-1.878 2.545l-3.418 3.864h6.444v.823h-.026ZM249.623 136.116h1.917v.848h-1.917v3.107h-1.004v-3.107h-5.765v-.574l5.673-8.59h1.109v8.316h-.013Zm-5.543 0h4.526v-7.011l-.444.771-4.082 6.24ZM253.003 141.115h-.913l5.126-13.328h.913l-5.126 13.328ZM267.388 128.374l-5.243 11.684h-1.057l5.205-11.41h-6.979v-.861h8.061v.587h.013Z"/><path fill="#1D1D1D" d="M250.496 219.231c-22.644 0-43.943-8.824-59.96-24.855-16.018-16.03-24.835-37.335-24.835-60.01 0-22.675 8.817-43.979 24.835-60.01 16.017-16.03 37.303-24.854 59.96-24.854 22.643 0 43.942 8.824 59.96 24.854 16.017 16.031 24.834 37.335 24.834 60.01a.29.29 0 0 1-.287.288.29.29 0 0 1-.287-.288c0-46.472-37.773-84.29-84.22-84.29-46.448 0-84.221 37.805-84.221 84.29 0 46.486 37.773 84.291 84.221 84.291a.29.29 0 0 1 .287.287.29.29 0 0 1-.287.287Z"/><path fill="#E2EAFF" d="M353.394 172.837h-20.113a3.73 3.73 0 0 1-3.73-3.734v-20.09a3.73 3.73 0 0 1 3.73-3.733h20.113a3.73 3.73 0 0 1 3.73 3.733v20.09a3.723 3.723 0 0 1-3.73 3.734Z"/><path fill="#fff" d="M349.299 158.229a.435.435 0 0 1-.431-.431v-5.809h-8.647l-2.427 2.428v3.381a.434.434 0 0 1-.43.431.434.434 0 0 1-.43-.431v-3.551c0-.117.039-.222.13-.3l2.687-2.676a.451.451 0 0 1 .3-.131h9.248c.234 0 .43.196.43.431v6.24a.424.424 0 0 1-.43.418Z"/><path fill="#fff" d="M340.051 154.665h-2.687a.434.434 0 0 1-.43-.431c0-.235.195-.431.43-.431h2.257v-2.244c0-.235.195-.431.43-.431s.43.196.43.431v2.675a.426.426 0 0 1-.43.431ZM350.369 168.059h-13.096c-.782 0-1.421-.64-1.421-1.423v-8.851c0-.235.195-.43.43-.43h8.022v-.144c0-.522.43-.953.952-.953h3.104c.522 0 .952.431.952.953v.144h1.031c.234 0 .43.195.43.43v9.83a.394.394 0 0 1-.404.444Zm-13.644-9.83v8.407c0 .3.248.548.561.548h12.665v-8.968h-1.03a.435.435 0 0 1-.431-.431v-.574a.089.089 0 0 0-.091-.091h-3.104a.089.089 0 0 0-.091.091v.574a.435.435 0 0 1-.431.431h-8.048v.013Z"/><path fill="#E2EAFF" d="M320.827 238.786h-20.112a3.732 3.732 0 0 1-3.731-3.733v-20.091a3.732 3.732 0 0 1 3.731-3.733h20.112a3.732 3.732 0 0 1 3.731 3.733v20.091a3.723 3.723 0 0 1-3.731 3.733Z"/><path fill="#fff" d="M319.517 225.669a2.185 2.185 0 0 0-2.017-2.342 2.185 2.185 0 0 0-2.352 2.005 2.185 2.185 0 0 0 2.017 2.341 2.184 2.184 0 0 0 2.352-2.004ZM306.752 231.193a2.185 2.185 0 0 0-2.015-2.344 2.184 2.184 0 0 0-2.354 2.001 2.185 2.185 0 0 0 2.014 2.344 2.184 2.184 0 0 0 2.355-2.001Z"/><path fill="#fff" d="M306.583 230.576a.41.41 0 0 1-.392-.262.433.433 0 0 1 .222-.561l8.622-3.72a.42.42 0 0 1 .561.222.432.432 0 0 1-.222.561l-8.622 3.72a.36.36 0 0 1-.169.04ZM306.826 220.099a2.185 2.185 0 0 0-2.015-2.344 2.185 2.185 0 0 0-2.354 2.002 2.186 2.186 0 0 0 2.015 2.344 2.185 2.185 0 0 0 2.354-2.002Z"/><path fill="#fff" d="M315.215 225.053a.4.4 0 0 1-.169-.039l-8.596-3.799c-.222-.091-.313-.352-.222-.574.092-.222.353-.313.574-.222l8.596 3.799c.222.091.313.352.222.574a.438.438 0 0 1-.405.261Z"/><path fill="#E2EAFF" d="M354.142 206.151h-20.113a3.73 3.73 0 0 1-3.73-3.733v-20.091a3.73 3.73 0 0 1 3.73-3.733h20.113a3.73 3.73 0 0 1 3.73 3.733v20.091a3.73 3.73 0 0 1-3.73 3.733Z"/><path fill="#fff" d="M341.698 201.425c-.509 0-1.03-.13-1.513-.404-1.369-.797-1.891-2.533-1.174-3.943l.509-1.044a.441.441 0 0 1 .261-.222.39.39 0 0 1 .339.039l4.591 2.676a.443.443 0 0 1 .209.274.452.452 0 0 1-.065.34l-.666.966a3.014 3.014 0 0 1-2.491 1.318Zm-1.604-4.608-.313.64a2.162 2.162 0 0 0 .834 2.82c.979.574 2.231.274 2.87-.653l.404-.588-3.795-2.219ZM350.607 188.619a.463.463 0 0 1-.222-.052l-4.409-2.558c-.182-.105-.26-.34-.182-.549l.091-.196c.013-.026.026-.052.039-.065a3.02 3.02 0 0 1 4.018-.927c1.369.797 1.891 2.533 1.174 3.943a.283.283 0 0 1-.04.065l-.13.17a.433.433 0 0 1-.339.169Zm-3.809-3.146 3.652 2.128a2.153 2.153 0 0 0-.939-2.598 2.154 2.154 0 0 0-2.713.47Z"/><path fill="#fff" d="M348.767 201.804a.463.463 0 0 1-.222-.052l-13.121-7.637a.392.392 0 0 1-.196-.261.47.47 0 0 1 .039-.326c.47-.809 1.265-1.41 2.23-1.671 1.618-.444 2.922-1.318 3.783-2.559l1.683-2.401c.691-1.019 1.865-1.632 3.221-1.698.079 0 .17.014.235.053l4.409 2.558c.065.039.13.105.169.183.613 1.201.652 2.533.105 3.642l-1.266 2.65c-.652 1.358-.769 2.937-.352 4.556.248.966.118 1.945-.352 2.754a.431.431 0 0 1-.365.209Zm-12.509-8.211 12.313 7.167a2.957 2.957 0 0 0 .078-1.723c-.469-1.815-.326-3.59.418-5.143l1.265-2.65c.404-.836.391-1.841-.052-2.755l-4.174-2.428c-1.017.078-1.904.561-2.426 1.319l-1.683 2.401c-.978 1.397-2.452 2.402-4.265 2.898-.6.17-1.108.483-1.474.914Z"/><path fill="#E2EAFF" d="M320.827 206.151h-20.112a3.732 3.732 0 0 1-3.731-3.733v-20.091a3.732 3.732 0 0 1 3.731-3.733h20.112a3.732 3.732 0 0 1 3.731 3.733v20.091a3.732 3.732 0 0 1-3.731 3.733Z"/><path fill="#fff" d="M308.45 199.95c-.248 0-.496-.052-.731-.143a1.928 1.928 0 0 1-1.043-1.032c-.183-.43-.196-.9-.052-1.331a5.73 5.73 0 0 1-.887-.888 1.924 1.924 0 0 1-2.374-1.083 1.923 1.923 0 0 1 0-1.475c.183-.431.496-.771.9-.98a6.724 6.724 0 0 1 0-1.253 1.923 1.923 0 0 1-.913-2.454 1.917 1.917 0 0 1 2.374-1.096c.261-.327.561-.627.887-.888a1.874 1.874 0 0 1 .052-1.332c.196-.47.561-.848 1.043-1.044a1.92 1.92 0 0 1 2.452.901 6.724 6.724 0 0 1 1.253 0 1.933 1.933 0 0 1 2.452-.914c.469.196.848.561 1.043 1.031.183.431.196.901.052 1.332.326.261.626.561.887.887a1.929 1.929 0 0 1 2.374 1.084 1.934 1.934 0 0 1-.9 2.454c.039.418.039.836 0 1.253a1.923 1.923 0 0 1 .913 2.454 1.912 1.912 0 0 1-2.374 1.097c-.26.326-.56.627-.887.888.144.43.131.9-.052 1.331a1.926 1.926 0 0 1-3.495.144 6.713 6.713 0 0 1-1.252 0 1.937 1.937 0 0 1-1.722 1.057Zm-2.583-4.36c.131 0 .261.065.352.17.34.457.744.861 1.2 1.188.17.13.222.365.118.561a.453.453 0 0 0-.052.118 1.078 1.078 0 0 0 0 .809c.104.261.313.47.574.574a1.065 1.065 0 0 0 1.382-.574l.039-.118a.436.436 0 0 1 .483-.313 6.074 6.074 0 0 0 1.682 0c.209-.039.418.105.483.313l.039.118c.222.535.848.796 1.383.574.261-.104.469-.313.574-.574a1.088 1.088 0 0 0 0-.809c-.013-.04-.039-.079-.053-.118a.442.442 0 0 1 .118-.561c.456-.34.861-.744 1.187-1.201a.442.442 0 0 1 .561-.118c.039.026.078.039.117.053a1.067 1.067 0 0 0 1.383-.575 1.088 1.088 0 0 0 0-.809 1.039 1.039 0 0 0-.574-.575l-.118-.039a.436.436 0 0 1-.313-.483 6.012 6.012 0 0 0 0-1.684c-.039-.222.105-.417.313-.483l.118-.039c.261-.104.469-.313.574-.574a1.09 1.09 0 0 0 0-.81 1.066 1.066 0 0 0-1.383-.574c-.039.013-.078.039-.117.052a.441.441 0 0 1-.561-.117 5.75 5.75 0 0 0-1.2-1.188.443.443 0 0 1-.118-.562.433.433 0 0 0 .053-.117 1.088 1.088 0 0 0 0-.809 1.036 1.036 0 0 0-.574-.575 1.066 1.066 0 0 0-1.383.575l-.039.117a.435.435 0 0 1-.483.313 6.074 6.074 0 0 0-1.682 0c-.209.04-.418-.104-.483-.313l-.039-.117a1.066 1.066 0 0 0-1.383-.575c-.26.105-.469.313-.573.575a1.078 1.078 0 0 0 0 .809c.013.039.039.078.052.117a.443.443 0 0 1-.118.562 5.451 5.451 0 0 0-1.187 1.201.44.44 0 0 1-.56.117.484.484 0 0 0-.118-.052 1.065 1.065 0 0 0-1.382.574 1.08 1.08 0 0 0 0 .81c.104.261.313.47.573.574l.118.039a.435.435 0 0 1 .313.483 6.089 6.089 0 0 0 0 1.684c.039.222-.104.418-.313.483l-.118.039c-.26.105-.469.314-.573.575a1.078 1.078 0 0 0 0 .809c.221.535.847.796 1.382.575.039-.014.078-.04.118-.053a.381.381 0 0 1 .208-.052Zm4.918-.013a3.21 3.21 0 0 1-2.961-1.971 3.261 3.261 0 0 1-.013-2.454 3.162 3.162 0 0 1 1.721-1.736 3.202 3.202 0 0 1 4.187 1.723c.326.783.326 1.658.013 2.454a3.165 3.165 0 0 1-1.721 1.736 3.421 3.421 0 0 1-1.226.248Zm-.013-5.548c-.3 0-.6.052-.9.183a2.319 2.319 0 0 0-1.266 1.266 2.365 2.365 0 0 0 0 1.788 2.335 2.335 0 0 0 3.052 1.254 2.317 2.317 0 0 0 1.266-1.267 2.365 2.365 0 0 0 0-1.788 2.323 2.323 0 0 0-2.152-1.436Z"/><path fill="#E2EAFF" d="M287.892 238.786h-20.113a3.73 3.73 0 0 1-3.73-3.733v-20.091a3.73 3.73 0 0 1 3.73-3.733h20.113a3.73 3.73 0 0 1 3.73 3.733v20.091a3.73 3.73 0 0 1-3.73 3.733Z"/><path fill="#fff" d="M279.428 229.674c-3.261 0-5.908-2.65-5.908-5.9 0-3.251 2.647-5.901 5.908-5.901 3.261 0 5.909 2.65 5.909 5.901 0 3.25-2.648 5.9-5.909 5.9Zm0-10.939c-2.778 0-5.048 2.258-5.048 5.039a5.043 5.043 0 0 0 5.048 5.039c2.778 0 5.048-2.259 5.048-5.039 0-2.781-2.27-5.039-5.048-5.039Z"/><path fill="#fff" d="M270.455 233.042a.396.396 0 0 1-.3-.13.433.433 0 0 1 0-.614l5.034-5.039a.433.433 0 1 1 .613.614l-5.034 5.039a.426.426 0 0 1-.313.13Z"/><path fill="#1D1D1D" d="M72.441 24.594a.29.29 0 0 1-.287-.288V4.543a.29.29 0 0 1 .287-.288h74.138a.29.29 0 0 1 .287.288.29.29 0 0 1-.287.287h-73.85v19.476a.29.29 0 0 1-.288.288Z"/><path fill="#E2EAFF" d="M154.523 9.086a4.542 4.542 0 0 0 4.54-4.543A4.542 4.542 0 0 0 154.523 0a4.541 4.541 0 0 0-4.539 4.543 4.541 4.541 0 0 0 4.539 4.543ZM167.777 9.086a4.54 4.54 0 0 0 4.539-4.543A4.54 4.54 0 0 0 167.777 0a4.54 4.54 0 0 0-4.539 4.543 4.54 4.54 0 0 0 4.539 4.543ZM181.039 9.086a4.54 4.54 0 0 0 4.539-4.543A4.54 4.54 0 0 0 181.039 0a4.54 4.54 0 0 0-4.539 4.543 4.54 4.54 0 0 0 4.539 4.543Z"/><path fill="#1D1D1D" d="M303.62 30.481H181.039a.29.29 0 0 1-.287-.287v-15.77a.29.29 0 0 1 .287-.287.29.29 0 0 1 .287.288v15.482H303.62a.29.29 0 0 1 .287.287.29.29 0 0 1-.287.287Z"/><path fill="#fff" d="m327.006 34.973-1.539.64a3.968 3.968 0 0 1-5.205-2.18l-4.213-10.379c-.834-2.05.144-4.399 2.192-5.234l1.539-.64c1.943-.796 2.869-3.029 2.087-4.987l-1.265-3.107c-.77-1.906-2.935-2.858-4.84-2.088-.013 0-.026.013-.039.013-6.873 2.833-9.508 12.349-4.721 24.163 4.8 11.814 13.291 16.722 20.165 13.89.013 0 .026-.014.039-.014 1.891-.796 2.778-3.002 1.995-4.908l-1.265-3.107a3.75 3.75 0 0 0-4.93-2.062Z"/><path fill="#1D1D1D" d="M327.228 46.134c-1.526 0-3.078-.327-4.63-.966-4.839-2.024-9.052-6.958-11.856-13.877-4.605-11.357-2.609-21.448 4.878-24.529l.039-.013a3.906 3.906 0 0 1 3.065.04 4.051 4.051 0 0 1 2.152 2.206l1.265 3.107a4.125 4.125 0 0 1-2.243 5.352l-1.539.64a3.756 3.756 0 0 0-2.035 4.869l4.213 10.378a3.7 3.7 0 0 0 1.996 2.023 3.727 3.727 0 0 0 2.83.013l1.539-.64a4.01 4.01 0 0 1 3.131.014 4.067 4.067 0 0 1 2.204 2.232l1.265 3.107c.835 2.062-.13 4.425-2.152 5.273l-.039.014c-1.331.496-2.7.757-4.083.757Zm-10.082-39.11c-.431 0-.861.078-1.265.248l-.04.013c-7.173 2.963-9.052 12.74-4.565 23.784 2.752 6.775 6.848 11.592 11.544 13.563 2.804 1.175 5.647 1.227 8.243.17l.026-.013c1.735-.73 2.57-2.754 1.852-4.53l-1.265-3.107a3.496 3.496 0 0 0-1.891-1.919 3.487 3.487 0 0 0-2.687-.013l-1.539.64a4.249 4.249 0 0 1-3.274-.013 4.227 4.227 0 0 1-2.309-2.337l-4.213-10.378c-.887-2.193.17-4.712 2.348-5.613l1.539-.64a3.548 3.548 0 0 0 1.93-4.608l-1.265-3.107a3.527 3.527 0 0 0-1.839-1.892 3.816 3.816 0 0 0-1.33-.249Z"/><path fill="#fff" d="M40.276 14.255c2.218 1.084 3.561 3.303 3.666 5.653l-5.061-1.959 1.395-3.694Z"/><path fill="#1D1D1D" d="M43.94 20.195c-.038 0-.064 0-.104-.013l-5.06-1.958a.291.291 0 0 1-.17-.366l1.383-3.694c.026-.078.09-.13.17-.17a.295.295 0 0 1 .234.013c2.243 1.097 3.717 3.355 3.835 5.9 0 .092-.04.197-.118.249-.052.013-.104.039-.17.039Zm-4.682-2.428 4.357 1.697c-.235-2.037-1.422-3.838-3.196-4.817l-1.16 3.12Z"/><path fill="#fff" d="m38.96 17.923 4.983 1.984a6.602 6.602 0 0 1-6.234 1.553l-.574-.17 1.826-3.367Z"/><path fill="#1D1D1D" d="M39.419 21.969a6.83 6.83 0 0 1-1.774-.235l-.587-.17a.294.294 0 0 1-.183-.17.278.278 0 0 1 .013-.247l1.826-3.367c.066-.13.222-.183.366-.13l4.982 1.983c.091.039.157.117.17.209a.286.286 0 0 1-.092.26 6.87 6.87 0 0 1-4.721 1.867Zm-1.852-.861.234.065c1.93.522 4.044.065 5.609-1.188l-4.304-1.71-1.54 2.833Z"/><path fill="#fff" d="M12.466 22.61s6.991-2.664 10.135-9.896c4.174-9.607 13.578-8.237 16.526-3.041 3.026 5.339.639 12.95-9.144 16.657-9.782 3.694-17.4-1.88-17.4-1.88l-6.026 5.222 1.292-4.896-2.53-4.02 7.147 1.854Z"/><path fill="#1D1D1D" d="M6.545 29.972a.347.347 0 0 1-.157-.04.3.3 0 0 1-.13-.313l1.252-4.764-2.465-3.916c-.065-.105-.052-.223.013-.327.065-.091.196-.143.3-.104l7.07 1.827c.795-.326 7.017-3.094 9.886-9.699 1.918-4.4 5.218-7.05 9.078-7.245 3.3-.17 6.43 1.462 7.957 4.177 1.421 2.52 1.656 5.444.652 8.224-1.37 3.8-4.904 6.932-9.952 8.838-8.96 3.381-16.226-.966-17.478-1.788L6.7 29.92c-.013.026-.091.052-.156.052Zm-.613-8.746 2.152 3.42c.039.065.052.143.039.222l-1.056 3.994 5.334-4.62a.276.276 0 0 1 .352-.014c.079.052 7.605 5.43 17.126 1.84 4.878-1.84 8.296-4.869 9.613-8.498.952-2.623.73-5.378-.613-7.74-1.408-2.48-4.382-4.047-7.435-3.89-3.626.195-6.756 2.701-8.582 6.905-3.156 7.258-10.226 10.025-10.291 10.052a.254.254 0 0 1-.17.013l-6.47-1.684Z"/><path fill="#1D1D1D" d="M29.553 32.779a.29.29 0 0 1-.287-.287v-5.94a.29.29 0 0 1 .287-.287.29.29 0 0 1 .287.287v5.94c0 .17-.118.287-.287.287ZM24.967 32.779a.29.29 0 0 1-.287-.287v-4.909a.29.29 0 0 1 .287-.287.29.29 0 0 1 .287.287v4.909c0 .17-.13.287-.287.287Z"/><path fill="#fff" d="M28.563 14.895S22.276 10.52 11.542 2.258c-.183-.13-.222.157-.222.157s-1.24 6.331 4.995 10.156c0 0-3.026-1.37-6.847-3.08 0 0-.561 5.3 5.295 7.4 0 0-1.917.053-4.382-.025 0 0 4.395 6.644 14.543 3.955l3.639-5.926Z"/><path fill="#1D1D1D" d="M20.333 21.735c-6.965 0-10.148-4.66-10.174-4.712a.279.279 0 0 1-.013-.3.28.28 0 0 1 .248-.144h.013c1.174.039 2.243.039 3.026.039-4.67-2.402-4.239-7.102-4.239-7.154a.32.32 0 0 1 .143-.222.266.266 0 0 1 .261-.013c1.761.784 3.352 1.501 4.566 2.05-4.03-3.851-3.118-8.851-3.105-8.916.013-.066.052-.3.274-.392.065-.026.222-.065.405.065 10.617 8.172 16.956 12.585 17.021 12.624.13.091.157.274.078.404a.293.293 0 0 1-.404.079c-.065-.04-6.326-4.413-16.826-12.48-.143 1.057-.574 6.318 4.891 9.673.13.078.17.248.105.379-.066.13-.235.196-.379.13a812.271 812.271 0 0 0-6.456-2.91c0 1.252.43 5.012 5.126 6.696.13.052.209.183.182.313a.319.319 0 0 1-.273.248c-.013 0-1.644.052-3.783 0 1.24 1.436 5.648 5.548 13.865 3.368a.288.288 0 0 1 .352.21.288.288 0 0 1-.208.352c-1.735.43-3.287.613-4.696.613Z"/><path fill="#0098C7" d="M34.826 17.688a3.575 3.575 0 0 0 3.574-3.577c0-1.975-1.6-3.577-3.574-3.577a3.575 3.575 0 0 0-3.574 3.577c0 1.976 1.6 3.577 3.574 3.577Z"/><path fill="#fff" d="M36.297 16.421a1.266 1.266 0 1 0-.001-2.531 1.266 1.266 0 0 0 0 2.531Z"/><path fill="#1D1D1D" d="M34.382 32.779H5.478a.29.29 0 0 1-.287-.288.29.29 0 0 1 .287-.287h28.904a.29.29 0 0 1 .287.288c0 .17-.13.287-.287.287Z"/></svg>