<svg xmlns="http://www.w3.org/2000/svg" width="420" height="279" fill="none"><path fill="#fff" d="M12.402 278.421h129.079c6.628 0 12.066-5.409 12.066-12.037V12.372c0-6.613-5.422-12.037-12.066-12.037H12.402C5.773.335.336 5.745.336 12.372v254.012c0 6.612 5.422 12.037 12.066 12.037Z"/><path fill="#1D1D1D" d="M141.481 278.756H12.402C5.56 278.756 0 273.21 0 266.384V12.372C0 5.546 5.56 0 12.402 0h129.079c6.842 0 12.402 5.546 12.402 12.372v254.012c0 6.826-5.575 12.372-12.402 12.372ZM12.402.67C5.942.67.672 5.912.672 12.372v254.012c0 6.445 5.254 11.701 11.73 11.701h129.079c6.46 0 11.73-5.241 11.73-11.701V12.372c0-6.445-5.254-11.702-11.73-11.702H12.402Z"/><path fill="#1D1D1D" d="M134.927 269.918H18.954c-6.308 0-11.44-5.119-11.44-11.412V19.472c0-6.292 5.132-11.412 11.44-11.412h115.973c6.308 0 11.44 5.12 11.44 11.412v239.034c0 6.293-5.132 11.412-11.44 11.412ZM18.954 8.73c-5.942 0-10.768 4.815-10.768 10.742v239.034c0 5.927 4.826 10.742 10.768 10.742h115.973c5.942 0 10.768-4.815 10.768-10.742V19.472c0-5.927-4.826-10.742-10.768-10.742H18.954Z"/><path fill="#1D1D1D" d="M91.29 16.593H60.85a.339.339 0 0 1-.336-.335c0-.183.152-.336.336-.336h30.455c.184 0 .336.153.336.336a.352.352 0 0 1-.35.335ZM134.073 176.411H19.795a.339.339 0 0 1-.336-.335V51.698c0-.183.153-.335.336-.335h114.278c.183 0 .336.152.336.335v124.378a.329.329 0 0 1-.336.335Zm-113.942-.671h113.606V52.033H20.131V175.74Z"/><path fill="#fff" d="M236.13 97.302s1.695-1.798 1.161-3.46c-.535-1.645-2.154-1.888-4.735-.67 0 0 1.466-2.285-1.176-2.864-2.643-.594-6.171 2.971-11.868 4.144-5.697 1.174-7.683 1.555-7.683 1.555s1.192-2.347 4.491-4.389c3.299-2.041 2.856-4.86 1.298-5.911-1.329-.9-3.727.09-5.789 1.69-2.718 2.088-9.5 3.825-14.983 6.278-4.17 1.874-11.318 8.883-17.825 15.892 2.643 5.12 8.37 12.174 20.666 16.502a128.607 128.607 0 0 0 3.711-7.36s2.612-2.285 9.088-3.169c6.476-.899 15.014-1.554 19.948-5.516 4.948-3.961 5.437-7.039 3.91-8.883.015-.03 1.802-1.965-.214-3.84Z"/><path fill="#1D1D1D" d="M199.689 126.404a.256.256 0 0 1-.153-.046.332.332 0 0 1-.138-.457 144.413 144.413 0 0 0 3.712-7.344c.015-.046.046-.076.076-.107.107-.091 2.75-2.361 9.256-3.26.764-.107 1.558-.214 2.383-.32 6.155-.793 13.12-1.692 17.412-5.135 2.78-2.225 4.353-4.358 4.536-6.156.092-.853-.137-1.615-.672-2.255a.327.327 0 0 1 .016-.442c.061-.076 1.527-1.721-.199-3.337a.355.355 0 0 1-.107-.228c0-.091.031-.183.092-.244.015-.015 1.558-1.676 1.084-3.123-.168-.534-.458-.884-.87-1.067-.734-.32-1.91-.107-3.391.58a.352.352 0 0 1-.397-.077.344.344 0 0 1-.031-.396c0-.015.55-.884.275-1.554-.153-.381-.58-.656-1.237-.808-1.253-.274-2.795.503-4.766 1.478-1.863.93-4.169 2.087-6.964 2.666-5.621 1.158-7.683 1.555-7.698 1.555a.35.35 0 0 1-.336-.122.326.326 0 0 1-.031-.35c.046-.107 1.268-2.454 4.613-4.51 1.481-.915 2.306-2.073 2.321-3.277.016-.838-.366-1.615-1.038-2.072-1.054-.7-3.162-.046-5.407 1.676-1.68 1.295-4.888 2.453-8.279 3.687-2.26.823-4.612 1.677-6.781 2.636-3.421 1.54-9.546 7.009-17.718 15.801-.122.137-.336.137-.473.015-.138-.122-.138-.335-.015-.472 8.339-8.99 14.372-14.368 17.931-15.968 2.184-.975 4.536-1.829 6.827-2.667 3.345-1.203 6.492-2.346 8.095-3.58 1.971-1.509 4.628-2.758 6.186-1.692a3.061 3.061 0 0 1 1.329 2.636c-.015.838-.382 2.438-2.642 3.84-2.154 1.326-3.391 2.803-3.971 3.626 1.038-.198 3.192-.64 6.919-1.402 2.703-.563 4.887-1.645 6.796-2.605 2.078-1.036 3.727-1.874 5.209-1.539.886.198 1.466.61 1.71 1.204.199.472.138.96.031 1.356 1.329-.503 2.383-.594 3.162-.26.595.26 1.023.748 1.252 1.464.474 1.462-.565 2.956-1.023 3.535 1.497 1.615.611 3.245.183 3.824.519.731.748 1.6.657 2.529-.199 2.011-1.818 4.221-4.781 6.613-4.429 3.565-11.501 4.48-17.748 5.272-.809.107-1.604.213-2.367.32-5.82.807-8.462 2.742-8.859 3.047-1.039 2.255-2.322 4.785-3.696 7.314-.031.137-.153.198-.275.198Z"/><path fill="#1D1D1D" d="M218.567 106.855c-.626 0-1.237-.03-1.848-.076a.34.34 0 0 1-.306-.366.34.34 0 0 1 .367-.304c4.2.381 8.507-.595 12.142-2.728.382-.228.764-.472 1.146-.701a22.898 22.898 0 0 1 2.062-1.218c1.344-.686 2.612-.96 3.757-.854a.34.34 0 0 1 .306.366.342.342 0 0 1-.367.305c-1.008-.107-2.153.167-3.391.792-.687.35-1.359.777-2 1.173a28.86 28.86 0 0 1-1.161.716 21.331 21.331 0 0 1-10.707 2.895ZM216.23 102.97a.346.346 0 0 1-.336-.305.34.34 0 0 1 .305-.366 29.97 29.97 0 0 0 10.6-2.925c.443-.214.871-.442 1.298-.655.947-.488 1.94-1.006 2.964-1.387 1.771-.67 3.39-.838 4.796-.503.183.046.29.229.244.396a.328.328 0 0 1-.397.244c-1.283-.305-2.765-.137-4.414.473-.993.365-1.955.868-2.887 1.356-.443.228-.871.457-1.314.67a30.514 30.514 0 0 1-10.829 2.986c0 .016-.015.016-.03.016ZM215.589 100.303a.343.343 0 0 1-.336-.274.329.329 0 0 1 .275-.38 42.75 42.75 0 0 0 16.281-6.263.324.324 0 0 1 .459.091.322.322 0 0 1-.092.457c-4.964 3.216-10.692 5.41-16.541 6.354-.016.015-.031.015-.046.015Z"/><path fill="#0098C7" d="M179.024 109.567c-7.606 8.198-14.327 16.41-14.327 16.41s-18.817-39.829-22.452-43.912c-7.988-8.99-12.265-8.73-49.151-7.634-36.886 1.113-57.49-1.721-67.418 24.76-9.928 26.481-23.995 55.919-5.01 68.002 0 0 7.01 4.022 14.571 3.809h84.372l6.369-27.106s13.945 19.944 32.961 20.737c16.129.67 32.35-23.069 40.735-38.58-12.28-4.312-18.008-11.366-20.65-16.486Z"/><path fill="#1D1D1D" d="M42.813 169.798a.311.311 0 0 1-.305-.213c-.077-.168.015-.366.183-.442 12.112-4.922 22.56-13.652 29.433-24.577a.342.342 0 0 1 .458-.107.34.34 0 0 1 .107.457c-6.95 11.062-17.52 19.884-29.754 24.851-.03.031-.076.031-.122.031ZM30.701 141.031a.335.335 0 0 1-.198-.061.338.338 0 0 1-.076-.472 207.862 207.862 0 0 1 15.716-18.985c.122-.137.336-.137.474-.015.137.122.137.335.015.472a206.082 206.082 0 0 0-15.656 18.924.325.325 0 0 1-.274.137ZM154.602 138.685a.369.369 0 0 1-.214-.076.338.338 0 0 1-.046-.473l9.577-11.9a.336.336 0 0 1 .519.427l-9.577 11.9a.326.326 0 0 1-.259.122ZM126.192 143.576c-.031 0-.061 0-.092-.016-.183-.045-.275-.243-.229-.411l9.791-33.521c.045-.183.244-.274.412-.228.183.045.275.243.229.411l-9.79 33.521a.34.34 0 0 1-.321.244Z"/><path fill="#fff" d="M47.395 120.858s8.247 20.539 25.858 22.337l4.261-5.303a13.112 13.112 0 0 1 9.516-4.86c2.871-.153 6.247-.549 8.584-1.524 4.857-2.026 3.788-4.662-7.026-3.565 0 0 9.928-3.657 11.944-4.526 2.016-.868 4.108-6.429-4.903-4.129 0 0 5.728-2.407 6.659-3.976.932-1.57-.045-3.886-7.774-1.936 0 0 6.598-1.493 6.843-3.565.244-2.057-2.734-3.824-15.793-.107-9.73 2.774-11.074 3.81-10.585.747.534-3.352 10.646-5.485 5.926-8.152-3.04-1.721-24.606 3.825-33.51 18.559Z"/><path fill="#1D1D1D" d="M87.016 122.183a.339.339 0 0 1-.321-.243.317.317 0 0 1 .23-.412l7.957-2.422a.317.317 0 0 1 .412.228.317.317 0 0 1-.229.412l-7.958 2.422c-.03 0-.06.015-.091.015ZM83.958 116.744a.327.327 0 0 1-.32-.259.337.337 0 0 1 .244-.412 115.545 115.545 0 0 0 9.852-2.879.33.33 0 0 1 .427.213.33.33 0 0 1-.214.427 110.53 110.53 0 0 1-9.912 2.895c-.016.015-.046.015-.077.015Z"/><path fill="#fff" d="M91.272 57.945 80.183 74.553l-6.628.457S85.33 85.935 92.983 85.34c7.484-.578 10.447-7.008 10.081-11.442l-5.102.06 3.33-6.78c.015.016-1.466-12.296-10.02-9.233Z"/><path fill="#1D1D1D" d="M73.572 75.346a.345.345 0 0 1-.337-.305.34.34 0 0 1 .306-.366l6.46-.442L91 57.763a.373.373 0 0 1 .168-.138c2.169-.777 4.108-.67 5.743.335 3.879 2.393 4.704 8.899 4.735 9.173 0 .06 0 .122-.031.183l-3.1 6.293 4.551-.046c.183.015.336.152.336.335a.339.339 0 0 1-.336.335l-5.101.061c-.123.015-.23-.06-.29-.152-.062-.092-.077-.229-.016-.32l3.284-6.69c-.122-.807-1.054-6.52-4.414-8.593-1.42-.883-3.131-.99-5.056-.32L80.445 74.736a.356.356 0 0 1-.26.152l-6.629.457h.016Z"/><path fill="#1D1D1D" d="M95.23 79.17a.258.258 0 0 1-.154-.046.331.331 0 0 1-.137-.457l2.23-4.144a.333.333 0 0 1 .458-.138c.168.092.23.29.138.458l-2.23 4.16a.352.352 0 0 1-.306.167ZM89.9 52.064s-4.75-10.33-3.222-12.25c1.527-1.92 3.818-.61 3.818-.61s12.494-15.313 16.053-7.755c0 0 3.788-4.602 7.499-1.204 3.712 3.398 1.955 6.506-1.115 8.243 0 0 1.818 5.485-.977 7.603-2.78 2.118-1.192 8.624.488 9.645 0 0 3.3 12.738-2.535 15.145-5.835 2.423-16.236 1.174-16.71-12.357l-3.299-6.46Z"/><path fill="#fff" d="m93.049 53.405.152 5.12s-5.376.578-6.674-3.78c-1.192-4.007 2.703-6.826 5.697-3.428.52.58.81 1.326.825 2.088Z"/><path fill="#1D1D1D" d="M92.62 58.89c-1.513 0-5.316-.366-6.416-4.038-.61-2.072.046-4.13 1.62-4.997 1.16-.64 2.993-.64 4.658 1.249.55.625.87 1.447.901 2.3l.153 5.12c0 .168-.122.32-.306.35 0-.015-.229.016-.61.016Zm-3.27-8.761c-.411 0-.809.106-1.19.304-1.054.58-1.91 2.149-1.299 4.206 1.039 3.504 4.873 3.61 6.003 3.565l-.138-4.8a2.907 2.907 0 0 0-.733-1.873c-.825-.915-1.756-1.402-2.642-1.402Z"/><path fill="#1D1D1D" d="M92.052 56.91a.345.345 0 0 1-.32-.214 3.672 3.672 0 0 0-2.704-2.24.345.345 0 0 1-.275-.396.345.345 0 0 1 .397-.274c1.42.259 2.688 1.31 3.207 2.65a.327.327 0 0 1-.198.428.139.139 0 0 1-.107.045Z"/><path fill="#fff" d="M112.29 44.293s-7.591-.38-10.798 1.113a4.334 4.334 0 0 0-2.49 4.373c.199 1.843.489 4.113.886 5.805a2.58 2.58 0 0 0 2.505 1.98c2.444 0 6.827-.228 10.035-1.813l-.138-11.458Z"/><path fill="#1D1D1D" d="M102.5 57.9h-.092c-1.359 0-2.52-.93-2.84-2.24-.428-1.783-.718-4.16-.902-5.851a4.672 4.672 0 0 1 2.673-4.708c3.253-1.509 10.646-1.158 10.951-1.143a.335.335 0 0 1 .321.335l.153 11.443a.367.367 0 0 1-.183.305c-3.238 1.6-7.668 1.859-10.081 1.859Zm7.667-13.302c-2.459 0-6.476.168-8.538 1.128a3.998 3.998 0 0 0-2.29 4.022c.167 1.66.473 4.023.885 5.76a2.252 2.252 0 0 0 2.184 1.721h.077c2.306 0 6.491-.228 9.607-1.691l-.153-10.91c-.336-.015-.977-.03-1.772-.03ZM328.294 11.534C328.905 5.41 332.265.884 335.87.29c2.688-.442 4.536.502 4.536.502 1.527.777 1.894 1.768 3.666 2.636.779.381 1.787.64 3.253.656 4.521.045 5.666-2.27 9.882-2.27.932 0 3.223.03 5.269 1.462 1.681 1.173 2.185 2.605 3.147 4.236 0 0 2.367 4.038 6.522 6.765 6.063 3.992 11.455-.61 15.487 3.26 2.398 2.301 2.551 5.912 2.597 7.238.214 5.15-2.719 7.237-2.261 12.525.122 1.401.55 2.91 1.512 4.616 7.362 13.165-11.928 26.588-22.849 17.477-10.05-8.396-18.023-12.92-22.346-8.609-4.322 4.312-19.29 2.026-15.991-10.97 2.428-9.569-1.558-12.555-4.949-15.359-4.017-3.306-2.337-12.418 4.949-12.92Z"/><path fill="#fff" d="M365.26 270.238c.534 4.358-2.459 8.259-6.323 8.259h-35.13c-1.711 0-2.673-2.271-1.588-3.779l6.476-9.066-.016-.168h36.001l.58 4.754Z"/><path fill="#1D1D1D" d="M358.937 278.832h-35.13c-.855 0-1.634-.488-2.062-1.326-.488-.96-.412-2.133.199-2.986l6.476-9.066a.338.338 0 0 1 .55.396l-6.476 9.066a2.197 2.197 0 0 0-.153 2.286c.321.609.84.96 1.451.96h35.13c1.603 0 3.1-.701 4.246-1.981 1.374-1.554 2.016-3.703 1.756-5.897l-.58-4.769a.352.352 0 0 1 .29-.381c.183-.03.351.107.382.29l.58 4.769c.29 2.377-.412 4.723-1.909 6.414-1.268 1.433-2.963 2.225-4.75 2.225Z"/><path fill="#fff" d="m352.002 129.801 12.677 135.683h-36l-7.927-138.029 31.25 2.346Z"/><path fill="#1D1D1D" d="M364.679 265.82h-36a.336.336 0 0 1-.336-.32l-7.927-138.03c0-.091.031-.198.107-.259s.168-.107.26-.091l31.25 2.361c.168.016.29.137.305.305l12.677 135.668a.29.29 0 0 1-.091.259.362.362 0 0 1-.245.107ZM329 265.149h35.313l-12.616-135.028-30.594-2.3L329 265.149Z"/><path fill="#fff" d="M401.807 251.512c4.537-6.49 8.905-14.733 10.356-23.327.718.625 1.451 1.234 2.199 1.859 3.773 3.108 5.346 8.624 3.864 13.622-1.985 6.628-5.162 15.846-9.378 23.434-3.971 7.13-10.905 11.412-18.328 11.412h-5.208c-1.085 0-1.696-1.417-1.039-2.392l4.995-10.635s-.031-.031-.092-.107c4.414-4.175 10.019-10.117 12.631-13.866Z"/><path fill="#fff" d="m349.19 109.064 3.895-6.14s16.755 14.277 20.268 43.928c3.223 27.167 10.096 56.543 38.811 81.318-1.451 8.609-5.819 16.837-10.356 23.327-2.612 3.749-8.217 9.691-12.662 13.866-1.588-1.874-25.492-30.138-37.665-56.391-12.601-27.167-11.531-75.712-23.659-76.534l21.368-23.374Z"/><path fill="#1D1D1D" d="M389.162 265.713h-.015a.32.32 0 0 1-.245-.122c-1.038-1.219-25.446-30.031-37.71-56.467-5.637-12.159-8.554-28.584-11.12-43.09-3.116-17.613-5.804-32.819-12.265-33.246a.353.353 0 0 1-.29-.213.328.328 0 0 1 .061-.351l21.338-23.358 3.879-6.11a.347.347 0 0 1 .229-.152.365.365 0 0 1 .275.076c.046.031 4.277 3.687 8.874 10.925 4.246 6.674 9.684 17.842 11.501 33.231 3.284 27.624 10.234 56.559 38.689 81.105a.303.303 0 0 1 .107.305c-1.573 9.325-6.522 17.903-10.402 23.465-2.749 3.946-8.507 9.98-12.707 13.911-.031.061-.123.091-.199.091ZM328.51 132.209c6.491 1.326 9.027 15.694 12.219 33.719 2.566 14.459 5.453 30.839 11.058 42.922 11.746 25.323 34.672 52.841 37.39 56.056 4.139-3.916 9.684-9.737 12.357-13.576 3.818-5.47 8.675-13.881 10.264-23.008-28.516-24.668-35.496-53.709-38.78-81.41-3.208-27.03-17.641-41.383-19.871-43.455l-3.681 5.805c-.016.016-.016.031-.031.046l-20.925 22.901Z"/><path fill="#fff" d="M369.55 129.695a88.572 88.572 0 0 1 3.803 17.172c3.223 27.167 10.096 56.543 38.811 81.318-1.451 8.609-5.819 16.837-10.356 23.327-2.612 3.749-8.217 9.691-12.662 13.866-1.588-1.874-25.492-30.138-37.665-56.391-12.601-27.167-11.531-75.712-23.659-76.534l2.52-2.758h39.208Z"/><path fill="#1D1D1D" d="M389.162 265.713h-.015a.32.32 0 0 1-.245-.122c-1.038-1.219-25.461-30.047-37.711-56.467-5.636-12.159-8.553-28.584-11.119-43.09-3.116-17.613-5.804-32.819-12.265-33.246a.355.355 0 0 1-.29-.213.328.328 0 0 1 .061-.351l2.52-2.758a.306.306 0 0 1 .245-.106h39.208a.33.33 0 0 1 .32.228c1.848 5.683 3.147 11.473 3.819 17.233 3.284 27.624 10.233 56.559 38.688 81.105a.3.3 0 0 1 .107.305c-1.573 9.325-6.522 17.903-10.401 23.464-2.75 3.947-8.523 9.98-12.708 13.911-.046.077-.138.107-.214.107ZM328.51 132.209c6.491 1.325 9.027 15.694 12.219 33.719 2.566 14.459 5.453 30.839 11.058 42.922 11.73 25.308 34.672 52.841 37.39 56.056 4.139-3.916 9.684-9.737 12.357-13.561 3.818-5.47 8.675-13.881 10.264-23.008-28.516-24.668-35.496-53.709-38.78-81.409-.672-5.638-1.925-11.306-3.727-16.867H330.48l-1.97 2.148Z"/><path fill="#1D1D1D" d="M390.506 278.832h-5.208c-.581 0-1.115-.335-1.421-.884a1.986 1.986 0 0 1 .076-1.996l4.98-10.605a.335.335 0 0 1 .611.275l-4.98 10.635c0 .015-.015.03-.03.046-.26.38-.29.914-.061 1.325.183.335.473.533.825.533h5.208c7.377 0 14.113-4.205 18.038-11.229 4.246-7.618 7.423-16.913 9.348-23.358 1.466-4.891-.046-10.224-3.742-13.271-.138-.122-.168-.335-.046-.472.122-.138.336-.168.473-.046 3.91 3.215 5.499 8.837 3.971 13.972-1.939 6.476-5.132 15.816-9.408 23.495-4.048 7.253-11.013 11.58-18.634 11.58Z"/><path fill="#0098C7" d="M388.503 174.75c-10.554-12.327-9.668-40.926-11.195-47.295-5.881-24.348-18.207-29.346-22.88-29.772l-.062-6.217s-29.906 4.053-31.433 8.396c-5.498 15.739-1.191 30.199-3.375 50.951-.84 7.969-7.347 24.836-7.347 24.836s8.721 3.977 35.359 3.992c21.841 0 40.933-4.891 40.933-4.891Z"/><path fill="#fff" d="m295.407 64.65-20.344-8.685s2.642-6.75.595-7.512c-3.436-1.28-6.246 7.222-8.843 7.633 0 0-6.904.915-9.561.701-2.658-.198-6.431-.7-6.706 1.935 0 0-3.665.183-1.099 3.368 0 0-2.062 4.769 12.876 3.306.504-.046 20.695 16.639 34.075 16.639 9.989 0 20.391-5.653 20.391-5.653l.168-22.932c.015 0-15.61 7.939-21.552 11.2Z"/><path fill="#1D1D1D" d="M296.416 82.37c-11.211 0-27.188-11.61-32.442-15.435-.794-.579-1.481-1.082-1.695-1.204-7.133.686-11.44.092-12.83-1.797-.535-.732-.458-1.433-.367-1.768-.809-1.051-1.053-1.92-.748-2.605.367-.823 1.42-1.067 1.924-1.143.489-2.499 3.941-2.225 6.492-2.011l.519.045c2.581.198 9.424-.7 9.5-.7.947-.153 2.093-1.783 3.208-3.368 1.68-2.392 3.574-5.089 5.804-4.266.336.122.596.38.764.762.763 1.69-.627 5.744-1.054 6.887l19.901 8.486c5.972-3.275 21.277-11.046 21.429-11.122a.374.374 0 0 1 .336.015c.107.06.153.168.153.29l-.168 22.93a.326.326 0 0 1-.168.29c-.107.076-10.6 5.714-20.558 5.714Zm-34.061-17.309c.184 0 .382.137 2.032 1.34 5.208 3.78 21.047 15.299 32.044 15.299 9.088 0 18.649-4.8 20.054-5.531l.168-22.185c-2.703 1.371-15.793 8.045-21.062 10.94-.092.046-.199.06-.29.015l-20.345-8.685a.338.338 0 0 1-.183-.426c.55-1.387 1.817-5.272 1.191-6.674-.091-.213-.214-.335-.397-.396-1.741-.655-3.406 1.721-5.025 4.022-1.237 1.768-2.413 3.444-3.65 3.642-.291.046-6.981.914-9.638.7l-.535-.045c-3.054-.244-5.605-.29-5.804 1.676a.343.343 0 0 1-.321.305c-.366.015-1.359.198-1.619.777-.198.457.062 1.173.779 2.057a.354.354 0 0 1 .046.35c-.015.03-.259.656.245 1.326.702.945 3.238 2.392 12.295 1.508-.015-.015 0-.015.015-.015Z"/><path fill="#fff" d="M362.536 46.229c-12.815-4.297-21.506-1.798-21.506-1.798-8.966-.153-18.955 4.617-24.056 7.511-4.979 2.82-15.625 9.432-21.567 12.708l-20.344-8.685s2.642-6.75.596-7.512c-3.437-1.28-6.247 7.222-8.844 7.634 0 0-6.904.914-9.561.7-2.658-.197-6.431-.7-6.706 1.936 0 0-3.665.183-1.099 3.367 0 0-2.062 4.77 12.876 3.306.504-.045 20.695 16.639 34.075 16.639 2.902 0 5.835-.472 8.538-1.158l12.372 7.009-2.566 9.157c-.672 2.407.932 4.861 3.421 5.211l7.041 1.006c3.376 3.809 14.633 16.364 23.491 15.297 4.017-.487 7.256-5.195 11.028-9.797l8.172 1.798c2.947.427 5.544-1.95 5.376-4.921l-2.474-17.172c1.344-2.62 2.428-4.8 3.406-6.841 5.193-10.91 3.436-29.666-11.669-35.395Z"/><path fill="#1D1D1D" d="M370.005 110.71a.344.344 0 0 1-.321-.228.342.342 0 0 1 .214-.427 4.34 4.34 0 0 0 3.024-4.403l-2.459-17.142a.289.289 0 0 1 .03-.198c1.375-2.681 2.459-4.845 3.406-6.841 3.238-6.796 3.498-15.77.642-22.87-2.322-5.76-6.507-9.935-12.127-12.068-12.555-4.205-21.2-1.813-21.292-1.782-.031.015-.061.015-.092.015h-.397c-9.103 0-19.168 5.226-23.506 7.481-2.642 1.371-6.98 4.007-11.18 6.552-3.727 2.27-7.592 4.617-10.387 6.14a.325.325 0 0 1-.29.015l-20.344-8.684a.338.338 0 0 1-.184-.427c.55-1.387 1.818-5.272 1.192-6.674-.092-.213-.214-.335-.397-.396-1.742-.655-3.407 1.722-5.026 4.022-1.237 1.768-2.413 3.444-3.65 3.642-.29.046-6.98.914-9.638.701l-.534-.046c-3.055-.243-5.606-.29-5.804 1.676a.344.344 0 0 1-.321.305c-.367.015-1.359.198-1.619.777-.199.457.061 1.173.779 2.057a.356.356 0 0 1 .046.35c-.016.031-.26.656.244 1.326.703.945 3.238 2.392 12.295 1.509.199-.016.291.03 2.078 1.325 5.208 3.779 21.047 15.298 32.044 15.298 2.581 0 5.422-.381 8.462-1.143a.344.344 0 0 1 .244.03l12.372 7.01a.32.32 0 0 1 .152.38l-2.566 9.158a3.853 3.853 0 0 0 .474 3.108 3.824 3.824 0 0 0 2.658 1.691l3.849.549c.183.03.305.198.29.381-.031.182-.199.32-.382.289l-3.849-.548a4.497 4.497 0 0 1-3.696-5.653l2.489-8.898-12.02-6.811c-3.04.746-5.896 1.127-8.492 1.127-11.211 0-27.188-11.61-32.442-15.435-.794-.579-1.481-1.081-1.695-1.203-7.133.685-11.44.091-12.83-1.798-.535-.732-.458-1.432-.367-1.768-.809-1.051-1.053-1.92-.748-2.605.367-.823 1.42-1.067 1.924-1.143.489-2.499 3.941-2.224 6.492-2.011l.519.046c2.597.198 9.424-.701 9.5-.701.947-.153 2.093-1.783 3.208-3.368 1.68-2.392 3.574-5.089 5.804-4.266.336.122.596.381.764.762.763 1.691-.627 5.744-1.054 6.887l19.901 8.487c2.765-1.524 6.553-3.825 10.218-6.05 4.201-2.559 8.554-5.195 11.211-6.581 4.43-2.301 14.801-7.695 24.179-7.558.748-.198 9.393-2.3 21.658 1.813 5.804 2.21 10.142 6.506 12.524 12.449 2.918 7.252 2.658 16.44-.672 23.403a329.66 329.66 0 0 1-3.36 6.765l2.459 17.066a5.054 5.054 0 0 1-3.498 5.119c-.03.015-.061.015-.106.015Z"/><path fill="#1D1D1D" d="M249.464 62.44a.407.407 0 0 1-.183-.045.338.338 0 0 1-.107-.458c.596-.96 2.169-1.462 2.917-1.6.764-.137 1.558-.106 2.307-.076.152 0 .305.016.443.016 1.359.045 2.749-.03 4.093-.214.183-.03.351.107.382.29.03.183-.107.35-.29.38-1.39.184-2.811.26-4.216.214-.153 0-.305-.015-.458-.015-.749-.03-1.467-.061-2.154.06-.916.168-2.092.686-2.459 1.296a.341.341 0 0 1-.275.152ZM257.666 59.576c-.946 0-1.878-.076-2.749-.153l-3.345-.289a.34.34 0 0 1-.305-.366.34.34 0 0 1 .366-.304l3.345.29c1.818.151 3.697.319 5.468-.184.184-.045.367.046.413.229.046.183-.046.365-.229.411-.963.274-1.971.366-2.964.366ZM327.438 83.711c-.046 0-.092-.015-.138-.03-3.665-1.585-6.354-5.181-6.827-9.142-.474-3.962 1.283-8.076 4.46-10.483a.352.352 0 0 1 .473.06.35.35 0 0 1-.061.473c-3.009 2.27-4.658 6.14-4.2 9.873.443 3.733 2.963 7.1 6.43 8.594a.334.334 0 0 1 .168.442.311.311 0 0 1-.305.213ZM344.804 92.396a.406.406 0 0 1-.183-.046.338.338 0 0 1-.107-.457c2.887-4.556 6.17-9.721 8.782-14.688l.168-.305c.413-.762.794-1.493.917-2.316.107-.823-.275-1.828-1.085-2.057a.336.336 0 0 1-.244-.411.337.337 0 0 1 .412-.244c1.192.32 1.741 1.676 1.589 2.788-.138.945-.565 1.752-.993 2.545l-.168.305c-2.627 4.997-5.911 10.178-8.813 14.749-.046.076-.153.137-.275.137ZM353.603 99.938a.298.298 0 0 1-.184-.061l-17.916-11.991a.34.34 0 1 1 .382-.564l17.916 11.991a.34.34 0 0 1 .092.472.33.33 0 0 1-.29.153ZM359.729 109.095a.324.324 0 0 1-.199-.076c-.152-.107-.168-.32-.061-.472 3.834-4.937 6.644-10.895 9.348-16.67.565-1.203 1.115-2.391 1.68-3.565a.318.318 0 0 1 .443-.152.317.317 0 0 1 .153.442c-.565 1.173-1.115 2.361-1.68 3.565-2.719 5.805-5.545 11.809-9.424 16.806a.325.325 0 0 1-.26.122ZM300.312 85.676l13.716 1.905c1.36.183 2.475-1.067 2.123-2.392l-6.476-24.044a3.114 3.114 0 0 0-2.55-2.255l-15.32-2.133c-.81-.107-1.466.64-1.252 1.417l6.674 24.76c.367 1.447 1.589 2.529 3.085 2.742Z"/><path fill="#fff" d="m325.207 103.259 9.852-15.694S316.135 73 312.881 72.465l1.405 5.38s-16.159-3.566-16.785-2.042c-.336.807 2.688 2.788 2.688 2.788s-.993 1.524 1.283 3.565c0 0-1.589 1.829 1.481 3.474 0 0-.122 1.722 6.079 4.602 6.201 2.895 8.951 2.24 8.951 2.24l7.224 10.787Z"/><path fill="#1D1D1D" d="M325.208 103.595a.34.34 0 0 1-.275-.153l-7.117-10.62c-.81.092-3.635.183-8.935-2.3-6.232-2.91-6.278-4.74-6.263-4.937a.332.332 0 0 1 .367-.305c.183.015.321.168.305.335 0 .061.229 1.661 5.881 4.297 5.972 2.788 8.706 2.225 8.736 2.21.138-.031.275.03.352.136l6.949 10.377 9.409-15.009c-6.598-5.073-19.321-14.444-21.781-14.855a.329.329 0 0 1-.274-.381.329.329 0 0 1 .381-.275c3.284.549 21.552 14.582 22.331 15.176a.333.333 0 0 1 .076.442l-9.852 15.694a.327.327 0 0 1-.29.168Z"/><path fill="#1D1D1D" d="M311.262 81.959c-3.604 0-7.148-.915-10.309-2.667-.168-.091-.214-.29-.138-.457.092-.168.29-.213.458-.137a20.487 20.487 0 0 0 10.692 2.56c.183-.016.336.137.351.32a.35.35 0 0 1-.321.35c-.244.015-.488.03-.733.03ZM309.461 85.63h-.061a22.22 22.22 0 0 1-6.95-2.635.345.345 0 0 1-.122-.458c.092-.152.306-.213.458-.122a21.761 21.761 0 0 0 6.736 2.56c.183.03.306.214.26.396a.327.327 0 0 1-.321.26ZM309.994 88.8c-.03 0-.061 0-.091-.016a29.303 29.303 0 0 1-6.461-2.712c-.168-.091-.214-.29-.122-.457.091-.167.29-.213.458-.122a28.799 28.799 0 0 0 6.323 2.651c.184.046.275.244.23.412a.374.374 0 0 1-.337.244Z"/><path fill="#fff" d="m347.692 28.142 4.353 16.334 4.751.244-19.78 10.711-.657-10.513 3.422-.488-2.658-12.296 10.569-3.992Z"/><path fill="#1D1D1D" d="M337.016 55.766a.346.346 0 0 1-.168-.045.303.303 0 0 1-.168-.275l-.657-10.513a.322.322 0 0 1 .29-.35l3.055-.442-2.566-11.946a.339.339 0 0 1 .214-.38l10.569-3.978a.347.347 0 0 1 .275.016.293.293 0 0 1 .168.213l4.277 16.09 4.521.229c.152 0 .275.121.305.259.031.152-.03.304-.168.365l-19.795 10.712a.295.295 0 0 1-.152.045Zm-.306-10.559.596 9.676 18.282-9.904-3.574-.183a.312.312 0 0 1-.305-.244l-4.246-15.968-9.943 3.748 2.581 12.022a.38.38 0 0 1-.046.259c-.046.076-.137.122-.229.137l-3.116.457Z"/><path fill="#fff" d="M332.432 22.504c-.382 3.78-2.429 14.475 6.414 13.79 8.233-.64 9.73-7.33 9.73-7.33s3.528 1.982 4.276-1.751c.749-3.733-2.123-5.15-4.49-3.353-1.283-.198-3.482-1.675-3.605-3.793-.122-2.118-3.421-3.49-5.483-1.31-1.985 2.117-4.49 1.111-5.101-1.646-.52-2.27-1.299.944-1.741 5.393Z"/><path fill="#1D1D1D" d="M338.068 36.66c-1.894 0-3.39-.564-4.444-1.661-2.673-2.773-2.032-8.228-1.635-11.474.046-.396.092-.746.123-1.05.641-6.37 1.374-6.416 1.664-6.43.52-.031.673.685.749 1.035.29 1.28 1.023 2.194 1.955 2.438.855.229 1.772-.107 2.581-.96a3.696 3.696 0 0 1 3.987-.99c1.191.426 2.016 1.417 2.077 2.514.107 1.89 2.062 3.2 3.192 3.459 1.207-.869 2.597-.99 3.635-.35 1.161.73 1.635 2.27 1.268 4.128-.229 1.174-.764 1.95-1.558 2.316-1.039.473-2.245.092-2.841-.167-.489 1.478-2.719 6.628-9.913 7.191h-.84Zm-5.3-14.11c-.03.305-.076.67-.122 1.067-.366 3.139-.993 8.38 1.451 10.94 1.069 1.112 2.658 1.584 4.72 1.432 7.866-.61 9.378-6.796 9.439-7.07a.333.333 0 0 1 .199-.228.312.312 0 0 1 .305.015c.015.015 1.497.823 2.612.32.596-.274.977-.884 1.176-1.844.321-1.57-.046-2.85-.962-3.428-.84-.518-1.986-.366-2.994.396-.076.061-.168.076-.26.061-1.328-.198-3.757-1.737-3.894-4.099-.046-.822-.688-1.569-1.635-1.92-1.161-.426-2.382-.106-3.268.823-.963 1.021-2.154 1.448-3.254 1.143-1.176-.32-2.092-1.417-2.428-2.94a2.161 2.161 0 0 0-.092-.32c-.259.609-.672 2.392-.993 5.652Z"/><path fill="#1D1D1D" d="M348.578 27.487c-.031 0-.077 0-.107-.015a.33.33 0 0 1-.214-.427c.351-1.02.84-1.615 1.482-1.798.748-.213 1.359.26 1.374.29.138.122.168.32.046.472a.355.355 0 0 1-.473.061c-.016 0-.382-.29-.779-.168-.397.122-.749.595-1.024 1.372-.03.122-.168.213-.305.213Z"/><path fill="#0098C7" d="M350.441 33.444a2.826 2.826 0 0 1-2.826-2.818 2.826 2.826 0 0 1 5.652 0 2.826 2.826 0 0 1-2.826 2.818Zm0-4.967a2.15 2.15 0 1 0 0 4.297c1.191 0 2.153-.96 2.153-2.148a2.158 2.158 0 0 0-2.153-2.149Z"/><path fill="#fff" d="M222.875 203.35H49.014v34.861h173.861V203.35Z"/><path fill="#1D1D1D" d="M222.875 238.546H49.014a.338.338 0 0 1-.336-.335v-34.862c0-.182.153-.335.336-.335h173.861a.34.34 0 0 1 .336.335v34.862a.338.338 0 0 1-.336.335Zm-173.525-.67h173.189v-34.191H49.349v34.191Z"/><path fill="#E2EAFF" d="M71.435 211.333c-5.224 0-9.47 4.221-9.47 9.432 0 2.072.672 3.977 1.802 5.531l-1.802 3.901 4.017-1.722a9.463 9.463 0 0 0 5.453 1.722c5.223 0 9.47-4.221 9.47-9.432 0-5.196-4.247-9.432-9.47-9.432Z"/><path fill="#1D1D1D" d="M210.945 213.497h-16.084a.338.338 0 0 1-.336-.335c0-.183.153-.335.336-.335h16.084c.183 0 .336.152.336.335a.329.329 0 0 1-.336.335ZM182.109 213.497H94.957a.338.338 0 0 1-.336-.335c0-.183.153-.335.336-.335h87.152c.183 0 .336.152.336.335a.329.329 0 0 1-.336.335ZM210.947 221.115h-75.009a.338.338 0 0 1-.336-.335c0-.183.152-.335.336-.335h75.009c.183 0 .336.152.336.335a.338.338 0 0 1-.336.335ZM123.412 221.115H94.957a.338.338 0 0 1-.336-.335c0-.183.153-.335.336-.335h28.455c.183 0 .336.152.336.335a.338.338 0 0 1-.336.335ZM210.946 228.719h-31.983a.34.34 0 0 1-.336-.335.34.34 0 0 1 .336-.336h31.983a.34.34 0 0 1 .336.336.34.34 0 0 1-.336.335ZM161.948 228.719h-66.99a.339.339 0 0 1-.337-.335.34.34 0 0 1 .336-.336h66.991a.34.34 0 0 1 .336.336.34.34 0 0 1-.336.335Z"/><path fill="#E2EAFF" d="M226.097 194.756a5.309 5.309 0 0 0 5.315-5.302 5.31 5.31 0 0 0-5.315-5.303 5.31 5.31 0 0 0-5.316 5.303c0 2.928 2.38 5.302 5.316 5.302ZM241.614 194.756a5.308 5.308 0 0 0 5.315-5.302 5.308 5.308 0 0 0-5.315-5.303 5.31 5.31 0 0 0-5.315 5.303 5.309 5.309 0 0 0 5.315 5.302ZM257.147 194.756c2.936 0 5.316-2.374 5.316-5.302a5.31 5.31 0 0 0-5.316-5.303 5.31 5.31 0 0 0-5.315 5.303 5.309 5.309 0 0 0 5.315 5.302Z"/><path fill="#1D1D1D" d="M273.858 203.73h-45.745a.338.338 0 0 1-.336-.335c0-.183.153-.335.336-.335h45.424v-27.624c0-.183.153-.335.336-.335.184 0 .336.152.336.335v27.959a.363.363 0 0 1-.351.335Z"/><path fill="#fff" d="M235.721 171.687h56.925c3.284 0 5.941-2.255 5.941-5.043v-28.935l.168-15.328-10.325 9.355-52.694-.091c-3.284 0-5.957 2.255-5.957 5.043v29.971c0 2.773 2.658 5.028 5.942 5.028Z"/><path fill="#1D1D1D" d="M292.646 172.022h-56.925c-3.452 0-6.278-2.407-6.278-5.378v-29.971c0-1.295.535-2.529 1.512-3.504 1.192-1.189 2.933-1.874 4.751-1.874h.015l52.572.091 10.233-9.264c.092-.091.245-.107.367-.061a.351.351 0 0 1 .199.305l-.168 15.343v28.92c0 2.986-2.811 5.393-6.278 5.393Zm-56.925-40.042c-1.65 0-3.208.61-4.277 1.676-.855.853-1.313 1.92-1.313 3.032v29.971c0 2.59 2.505 4.708 5.605 4.708h56.925c3.086 0 5.606-2.118 5.606-4.708v-28.935l.168-14.566-9.76 8.837a.312.312 0 0 1-.229.092l-52.725-.107Z"/><path fill="#E2EAFF" d="M288.765 142.463h-40.872a.507.507 0 0 1-.504-.503c0-.274.229-.502.504-.502h40.872c.275 0 .504.228.504.502a.507.507 0 0 1-.504.503ZM288.767 152.047h-9.898a.507.507 0 0 1-.504-.503c0-.274.229-.502.504-.502h9.898c.275 0 .504.228.504.502a.507.507 0 0 1-.504.503ZM275.707 152.047h-37.283a.507.507 0 0 1-.504-.503c0-.274.229-.502.504-.502h37.283c.275 0 .504.228.504.502a.498.498 0 0 1-.504.503ZM288.767 161.646h-27.906a.508.508 0 0 1-.504-.503c0-.274.23-.502.504-.502h27.906c.275 0 .504.228.504.502a.507.507 0 0 1-.504.503ZM254.553 161.646H238.44a.507.507 0 0 1-.504-.503c0-.274.229-.502.504-.502h16.113c.275 0 .504.228.504.502a.507.507 0 0 1-.504.503Z"/><path fill="#0098C7" d="M222.707 36.34c0-.549.046-1.098.122-1.616.779-5.104 5.178-9.02 10.493-9.02 3.437 0 6.492 1.63 8.431 4.175 1.94-2.53 4.995-4.175 8.431-4.175 5.316 0 9.715 3.916 10.494 9.02.076.534.122 1.067.122 1.616 0 5.866-3.544 12.92-19.047 21.102-15.502-8.182-19.046-15.221-19.046-21.102Z"/><path fill="#E2EAFF" d="M194.895 50.906c0-.61.045-1.204.137-1.783.855-5.622 5.712-9.934 11.562-9.934 3.788 0 7.148 1.798 9.287 4.601 2.138-2.788 5.498-4.601 9.286-4.601 5.85 0 10.707 4.312 11.562 9.934.092.58.138 1.173.138 1.783 0 6.475-3.895 14.246-20.986 23.251-17.092-9.02-20.986-16.79-20.986-23.251Z"/></svg>