<svg xmlns="http://www.w3.org/2000/svg" width="404" height="296" fill="none"><path fill="#fff" d="m359.755 227.901-128.807-11.757c-2.342-.212-4.235-2.276-4.235-4.611V46.038c0-2.335 1.893-4.045 4.235-3.832l128.807 11.757c2.342.212 4.235 2.276 4.235 4.61V224.07c0 2.323-1.905 4.044-4.235 3.832Z"/><path fill="#1D1D1D" d="M360.146 228.172c-.142 0-.272-.012-.414-.023l-128.807-11.757c-2.461-.224-4.472-2.406-4.472-4.871V46.038c0-1.203.473-2.288 1.313-3.054.852-.779 1.988-1.144 3.194-1.038l128.807 11.757c2.461.224 4.472 2.406 4.472 4.87v165.495c0 1.203-.473 2.288-1.325 3.055-.745.684-1.715 1.049-2.768 1.049Zm-129.6-185.73a3.58 3.58 0 0 0-2.437.92c-.745.671-1.147 1.626-1.147 2.676v165.495c0 2.193 1.798 4.151 3.998 4.351l128.807 11.758c1.065.094 2.059-.224 2.804-.897.745-.672 1.147-1.627 1.147-2.677V58.573c0-2.193-1.798-4.15-3.998-4.351L230.925 42.465c-.13-.012-.248-.024-.379-.024Z"/><path fill="#1D1D1D" d="M356.844 220.79h-.023l-94.263-8.608a.264.264 0 0 1-.237-.283.263.263 0 0 1 .284-.236l93.979 8.585V61.038l-122.489-11.18v32.5c0 .142-.119.26-.261.26a.263.263 0 0 1-.26-.26V49.577a.28.28 0 0 1 .083-.189.321.321 0 0 1 .201-.07l123.01 11.226c.13.012.237.13.237.26V220.53a.281.281 0 0 1-.083.189.242.242 0 0 1-.178.07Z"/><path fill="#E2EAFF" d="M323.059 62.665 266.522 57.5c-5.312-.483-9.618-5.177-9.618-10.471v-7.524l75.784 6.922v7.535c-.012 5.295-4.318 9.187-9.629 8.703Z"/><path fill="#0098C7" d="m315.783 79.989-40.873-3.727c-2.248-.2-4.082-2.205-4.082-4.446 0-2.24 1.834-3.903 4.082-3.702l40.873 3.726c2.247.2 4.081 2.205 4.081 4.446.012 2.24-1.834 3.903-4.081 3.703ZM327.364 96.356l-64.037-5.849c-2.247-.2-4.081-2.205-4.081-4.446 0-2.24 1.834-3.903 4.081-3.702l64.037 5.849c2.248.2 4.082 2.205 4.082 4.445.011 2.253-1.834 3.916-4.082 3.703Z"/><path fill="#1D1D1D" d="M324.087 110.719h-.024l-16.728-1.533a.262.262 0 0 1-.236-.283.264.264 0 0 1 .283-.236l16.728 1.533a.264.264 0 0 1 .237.283.267.267 0 0 1-.26.236ZM304.01 108.892h-.023l-15.06-1.38a.264.264 0 0 1-.237-.283.263.263 0 0 1 .284-.236l15.06 1.38a.264.264 0 0 1 .237.283c-.024.13-.13.236-.261.236ZM344.824 121.533h-.024l-9.961-.908a.264.264 0 0 1-.237-.283.265.265 0 0 1 .284-.236l9.961.908a.264.264 0 0 1 .237.283c-.024.142-.13.236-.26.236ZM331.504 120.319h-.024l-28.664-2.618a.264.264 0 0 1-.237-.283.263.263 0 0 1 .284-.236l28.664 2.618a.263.263 0 0 1 .237.283.25.25 0 0 1-.26.236ZM299.491 117.394h-.023l-10.553-.967a.263.263 0 0 1-.236-.283.263.263 0 0 1 .284-.236l10.552.967a.264.264 0 0 1 .237.283.25.25 0 0 1-.261.236ZM344.931 162.854h-.024l-9.961-.908a.264.264 0 0 1-.236-.283.263.263 0 0 1 .284-.236l9.961.908a.262.262 0 0 1 .236.283.257.257 0 0 1-.26.236ZM331.623 161.639h-.024l-28.664-2.618a.263.263 0 0 1-.237-.283.265.265 0 0 1 .284-.236l28.665 2.618a.263.263 0 0 1 .236.283.267.267 0 0 1-.26.236ZM299.611 158.715h-.024l-10.553-.967a.263.263 0 0 1-.236-.283.263.263 0 0 1 .284-.236l10.552.967a.263.263 0 0 1 .237.283.267.267 0 0 1-.26.236ZM345.014 133.16h-.024l-27.86-2.547a.264.264 0 0 1-.237-.283.265.265 0 0 1 .284-.236l27.86 2.548a.263.263 0 0 1 .237.283.267.267 0 0 1-.26.235ZM313.794 130.307h-.023l-24.666-2.253a.263.263 0 0 1-.237-.283.263.263 0 0 1 .284-.235l24.666 2.252a.262.262 0 0 1 .236.283.25.25 0 0 1-.26.236ZM345.014 142.087h-.023l-22.336-2.04a.263.263 0 0 1-.236-.283.264.264 0 0 1 .284-.236l22.335 2.04a.264.264 0 0 1 .237.283.267.267 0 0 1-.261.236ZM319.33 139.741h-.024l-14.988-1.368a.264.264 0 0 1-.237-.283.263.263 0 0 1 .284-.236l14.989 1.368a.262.262 0 0 1 .236.283.267.267 0 0 1-.26.236ZM300.994 138.066h-.024l-11.854-1.085a.262.262 0 0 1-.236-.283.265.265 0 0 1 .284-.236l11.854 1.085a.263.263 0 0 1 .236.283.267.267 0 0 1-.26.236ZM334.971 152.771h-.024l-23.057-2.111a.263.263 0 0 1-.237-.283.263.263 0 0 1 .284-.235l23.057 2.11a.264.264 0 0 1 .237.283.257.257 0 0 1-.26.236ZM308.565 150.366h-.023l-19.426-1.769a.263.263 0 0 1-.236-.283.263.263 0 0 1 .284-.236l19.425 1.769a.262.262 0 0 1 .236.283c-.023.13-.13.236-.26.236Z"/><path fill="#E2EAFF" d="m262.179 114.965-8.601-.79c-1.159-.106-2.094-1.132-2.094-2.288v-8.573c0-1.156.935-2.005 2.094-1.899l8.601.79c1.159.106 2.094 1.132 2.094 2.288v8.573c0 1.156-.935 2.005-2.094 1.899ZM279.462 116.545l-8.6-.79c-1.16-.106-2.094-1.132-2.094-2.288v-8.573c0-1.156.934-2.005 2.094-1.899l8.6.79c1.159.107 2.094 1.132 2.094 2.288v8.573c0 1.144-.935 1.993-2.094 1.899ZM262.179 136.05l-8.601-.79c-1.159-.107-2.094-1.133-2.094-2.288v-8.562c0-1.155.935-2.004 2.094-1.898l8.601.79c1.159.106 2.094 1.132 2.094 2.288v8.573c0 1.144-.935 1.993-2.094 1.887ZM279.462 137.63l-8.6-.79c-1.16-.106-2.094-1.132-2.094-2.288v-8.573c0-1.156.934-2.005 2.094-1.899l8.6.79c1.159.106 2.094 1.132 2.094 2.288v8.573c0 1.156-.935 2.005-2.094 1.899ZM262.179 156.851l-8.601-.79c-1.159-.106-2.094-1.132-2.094-2.287v-8.573c0-1.156.935-2.005 2.094-1.899l8.601.79c1.159.106 2.094 1.132 2.094 2.288v8.573c0 1.156-.935 2.005-2.094 1.898ZM279.462 158.432l-8.6-.791c-1.16-.106-2.094-1.132-2.094-2.287v-8.573c0-1.156.934-2.005 2.094-1.899l8.6.79c1.159.106 2.094 1.132 2.094 2.288v8.573c0 1.156-.935 2.005-2.094 1.899Z"/><path fill="#fff" d="m345.014 206.285-93.541-8.549v-24.469l93.541 8.537v24.481Z"/><path fill="#1D1D1D" d="M345.014 206.545h-.024l-93.529-8.538a.265.265 0 0 1-.236-.259v-24.481c0-.071.035-.142.082-.189a.327.327 0 0 1 .202-.071l93.529 8.538c.13.012.236.13.236.259v24.482c0 .07-.035.141-.082.188a.29.29 0 0 1-.178.071Zm-93.281-9.045 93.009 8.491v-23.962l-93.009-8.491V197.5ZM232.168 140.767a.262.262 0 0 1-.26-.26v-29.469c0-8.514-6.956-16.085-15.498-16.863-4.14-.378-8.033.872-10.955 3.537-2.898 2.642-4.495 6.357-4.495 10.46v29.47a.262.262 0 0 1-.26.259.263.263 0 0 1-.261-.259v-29.481c0-4.258 1.657-8.102 4.673-10.838 3.029-2.76 7.063-4.056 11.345-3.667 8.802.802 15.971 8.597 15.971 17.382v29.469c0 .154-.118.26-.26.26Z"/><path fill="#fff" d="m256.561 226.852-78.848-7.194 7.074-93.585 64.699 5.908 7.075 94.871Z"/><path fill="#1D1D1D" d="M256.56 227.111h-.023l-78.848-7.205a.264.264 0 0 1-.237-.283l7.075-93.585c0-.071.035-.13.094-.177a.218.218 0 0 1 .189-.059l64.7 5.908c.13.012.224.118.236.236l7.075 94.87c0 .071-.024.153-.083.201a.2.2 0 0 1-.178.094Zm-78.576-7.689 78.292 7.146-7.039-94.351-64.214-5.861-7.039 93.066Z"/><path fill="#fff" d="m235.327 224.918-78.848-7.206 7.074-93.573 64.699 5.908 7.075 94.871Z"/><path fill="#1D1D1D" d="M235.326 225.177h-.024l-78.848-7.205a.263.263 0 0 1-.236-.283l7.074-93.585c0-.071.036-.13.095-.177a.218.218 0 0 1 .189-.059l64.699 5.908c.13.012.225.118.237.236l7.074 94.87c0 .071-.023.153-.083.201-.035.07-.106.094-.177.094Zm-78.564-7.701 78.292 7.147-7.039-94.352-64.214-5.861-7.039 93.066Z"/><path fill="#1D1D1D" d="M210.932 138.833a.263.263 0 0 1-.261-.26v-29.469c0-8.514-6.956-16.085-15.497-16.863-4.141-.378-8.033.872-10.955 3.537-2.898 2.642-4.495 6.356-4.495 10.46v29.47a.263.263 0 0 1-.261.259.262.262 0 0 1-.26-.259v-29.482c0-4.257 1.656-8.1 4.673-10.837 3.029-2.76 7.063-4.056 11.345-3.667 8.802.802 15.971 8.596 15.971 17.382v29.469c0 .142-.107.26-.26.26Z"/><path fill="#0098C7" d="m76.54 195.177 27.482-3.432 22.383 2.583-.284 1.639-40.767 12.37s-10.54-7.24-8.813-13.16Z"/><path fill="#fff" d="M79.168 220.26s-23.377 9.551-31.989 15.967c-.65.483-.97 1.308-.84 2.134.142.825.745 1.391 1.479 1.71 5.205 2.24 10.564 4.21 42.707 12.264 5.678 1.427 23.648-5.083 29.256-6.757 10.292-3.078 33.396-8.762 40.435-12.04 17.048-7.96 26.039-26.58 9.027-38.502-17.012-11.923-93.541 12.5-93.541 12.5l3.466 12.724Z"/><path fill="#1D1D1D" d="M91.85 245.401a.288.288 0 0 1-.248-.165c-3.312-8.927-7.654-17.418-12.918-25.224a.265.265 0 0 1 .07-.366.267.267 0 0 1 .367.071A119.78 119.78 0 0 1 92.1 245.059a.262.262 0 0 1-.154.33c-.035 0-.059.012-.094.012ZM102.248 246.722a.267.267 0 0 1-.248-.165 186.174 186.174 0 0 0-14.385-29.375.263.263 0 0 1 .082-.354.264.264 0 0 1 .355.082 186.722 186.722 0 0 1 14.421 29.458.252.252 0 0 1-.154.33c-.011.012-.035.024-.071.024Z"/><path fill="#1D1D1D" d="M87.26 218.585a.241.241 0 0 1-.237-.165c-.06-.13.012-.283.142-.342 12.126-5.024 62.676-14.21 63.185-14.304a.272.272 0 0 1 .307.212.274.274 0 0 1-.212.307c-.509.094-51 9.268-63.079 14.268-.047.024-.083.024-.106.024Z"/><path fill="#1D1D1D" d="M92.525 252.795c-.793 0-1.48-.071-2.059-.212-31.728-7.949-37.312-9.941-42.742-12.276-.911-.389-1.49-1.073-1.633-1.899-.154-.908.213-1.851.935-2.382 8.103-6.038 29.457-14.929 31.823-15.908l-3.372-12.524a.263.263 0 0 1 .178-.318c.059-.024 6.353-2.028 15.58-4.564a.264.264 0 0 1 .32.177.263.263 0 0 1-.178.319c-8.21 2.264-14.09 4.103-15.32 4.481l3.383 12.488a.258.258 0 0 1-.153.307c-.237.094-23.436 9.61-31.93 15.931-.568.425-.852 1.168-.733 1.887.153.884.899 1.321 1.325 1.509 5.406 2.323 10.978 4.305 42.66 12.253 4.625 1.167 18.052-3.196 25.268-5.531 1.55-.507 2.887-.943 3.857-1.226 3.206-.956 7.69-2.182 12.445-3.479 10.837-2.948 23.128-6.297 27.955-8.55 10.162-4.752 17.201-13.172 17.935-21.474.556-6.356-2.532-12.087-8.944-16.58-6.045-4.245-20.265-4.351-42.246-.318a.274.274 0 0 1-.307-.213.272.272 0 0 1 .213-.306c22.122-4.057 36.472-3.915 42.636.401 6.565 4.599 9.736 10.495 9.156 17.052-.745 8.478-7.902 17.075-18.23 21.898-4.874 2.276-17.177 5.625-28.038 8.585-4.755 1.297-9.239 2.512-12.433 3.479-.958.283-2.295.719-3.845 1.226-6.838 2.241-17.733 5.767-23.506 5.767Z"/><path fill="#fff" d="M160.299 239.599c.663.507.97 1.356.793 2.17a2.183 2.183 0 0 1-1.621 1.651c-6.436 1.497-9.949 2.311-45.345 10.519-5.974 1.391-24.063-5.814-29.635-8.361-9.606-4.387-20.028-10.342-29.22-17.076-11.428-8.36-16.74-10.518-14.894-23.278.023-.189.059-.377.083-.566 1.585-10.719 12.823-17.134 22.88-13.019 20.276 8.29 52.549 22.158 66.283 31.734.012 0 21.874 9.469 30.676 16.226Z"/><path fill="#1D1D1D" d="M112.304 254.363c-7.547 0-23.636-6.604-27.919-8.561-10.115-4.623-20.513-10.696-29.268-17.099a330.176 330.176 0 0 0-3.383-2.441c-9.121-6.521-13.285-9.505-11.605-21.073l.082-.566c.77-5.201 3.833-9.67 8.412-12.276a16.86 16.86 0 0 1 14.823-.944c18.75 7.677 52.301 21.993 66.32 31.746.84.365 22.11 9.646 30.699 16.25a2.427 2.427 0 0 1 .887 2.429 2.433 2.433 0 0 1-1.822 1.839l-45.345 10.519a8.936 8.936 0 0 1-1.881.177Zm-55.318-63.726c-2.803 0-5.595.719-8.115 2.158-4.436 2.523-7.406 6.851-8.151 11.898l-.083.566c-1.632 11.262 2.449 14.187 11.404 20.578 1.077.767 2.19 1.569 3.396 2.441 8.73 6.392 19.082 12.441 29.173 17.052 6.909 3.149 23.909 9.635 29.469 8.349l45.345-10.519a1.91 1.91 0 0 0 1.431-1.45 1.916 1.916 0 0 0-.698-1.91c-8.671-6.663-30.391-16.097-30.616-16.191-.012-.012-.036-.012-.047-.024-13.96-9.717-47.499-24.033-66.237-31.71a16.648 16.648 0 0 0-6.27-1.238Z"/><path fill="#1D1D1D" d="M111.205 251.391c-.036 0-.06 0-.095-.011a.264.264 0 0 1-.154-.331 117.513 117.513 0 0 1 16.456-29.257c.083-.118.248-.129.367-.047.118.083.13.248.047.366a116.842 116.842 0 0 0-16.385 29.127.246.246 0 0 1-.236.153ZM102.047 247.842c-.036 0-.071-.012-.107-.024-.13-.059-.189-.212-.13-.342a181.834 181.834 0 0 1 16.302-28.844.267.267 0 0 1 .367-.071.265.265 0 0 1 .071.366 181.728 181.728 0 0 0-16.255 28.761.304.304 0 0 1-.248.154Z"/><path fill="#fff" d="M193.057 137.571c2.839-2.135 1.242-4.788 1.242-4.788 1.585-1.969-.509-3.998-.509-3.998 1.361-3.762-4.128-2.806-4.128-2.806.307-2.123 7.606-3.833 6.766-5-.828-1.168-7.228-4.729-25.304 11.686-2.579 2.347-14.729 15.047-20.869 20.189 0 0-27.943-12.842-34.355-14.493-6.411-1.651-14.527 3.148-14.527 3.148l23.542 24.871 20.809 6.922a21.927 21.927 0 0 0 18.432-5.731c4.921-4.623 26.547-28.22 28.901-30Z"/><path fill="#1D1D1D" d="M149.143 173.832c-1.148 0-2.307-.082-3.466-.271-.012 0-.024 0-.048-.012l-20.809-6.922c-.035-.012-.083-.035-.106-.071l-23.542-24.87a.244.244 0 0 1-.071-.212c.011-.083.059-.142.13-.189.331-.2 8.293-4.835 14.728-3.172 6.105 1.568 32.025 13.42 34.249 14.434 4.128-3.467 10.765-10.141 15.627-15.024 2.378-2.382 4.259-4.268 5.111-5.047 13.143-11.934 20.04-13.184 22.986-12.865 1.479.165 2.366.731 2.709 1.214a.579.579 0 0 1 .095.496c-.154.577-1.136 1.073-2.851 1.886-1.503.72-3.325 1.581-3.833 2.453.899-.094 2.933-.188 3.809.849.449.543.532 1.286.237 2.206.425.483 1.821 2.287.52 4.08.308.636 1.195 3.019-1.396 4.964-1.23.92-7.997 8.114-14.551 15.059-5.903 6.262-11.996 12.736-14.326 14.93-4.176 3.962-9.571 6.084-15.202 6.084Zm-3.36-.778c6.672 1.026 13.297-1.038 18.195-5.66 2.307-2.182 8.411-8.656 14.303-14.906 6.861-7.288 13.356-14.174 14.61-15.118 2.626-1.969 1.242-4.339 1.171-4.446a.247.247 0 0 1 .024-.294c1.419-1.769-.414-3.573-.485-3.644a.257.257 0 0 1-.06-.271c.296-.814.261-1.439-.082-1.852-.769-.908-2.97-.755-3.75-.613a.262.262 0 0 1-.225-.071.26.26 0 0 1-.071-.224c.189-1.262 2.354-2.288 4.259-3.196 1.1-.519 2.472-1.179 2.567-1.556 0-.024.012-.036-.012-.059-.213-.295-.946-.849-2.342-1.003-2.863-.306-9.583.932-22.584 12.736-.84.767-2.721 2.654-5.087 5.036-4.922 4.941-11.653 11.71-15.793 15.165-.083.059-.19.082-.273.035-.283-.13-28.002-12.854-34.307-14.469-5.56-1.427-12.564 2.146-14.042 2.96l23.27 24.587 20.714 6.863Z"/><path fill="#1D1D1D" d="M155.069 155.884a.413.413 0 0 1-.118-.024l-3.608-1.875a.255.255 0 0 1-.107-.353.258.258 0 0 1 .355-.106l3.608 1.875c.13.07.178.224.107.353a.287.287 0 0 1-.237.13Z"/><path fill="#fff" d="m229.331 88.812-61.308 55.302 36.611 40.328 61.308-55.303-36.611-40.327Z"/><path fill="#1D1D1D" d="M204.626 184.693h-.012a.255.255 0 0 1-.178-.082l-36.602-40.319a.26.26 0 0 1 .023-.365l61.304-55.307a.262.262 0 0 1 .367.024l36.603 40.318c.047.047.07.118.07.189 0 .07-.035.129-.082.177l-61.304 55.306a.386.386 0 0 1-.189.059Zm-36.236-40.566 36.259 39.941 60.925-54.953-36.259-39.94-60.925 54.952Z"/><path fill="#1D1D1D" d="M246.351 141.981a.234.234 0 0 1-.189-.082.26.26 0 0 1 .023-.366l14.138-12.759-8.554-9.423a.26.26 0 0 1 .024-.365.263.263 0 0 1 .367.023l8.73 9.611a.264.264 0 0 1 .071.189.25.25 0 0 1-.082.177L246.54 141.91a.338.338 0 0 1-.189.071ZM215.451 107.665a.238.238 0 0 1-.19-.083.26.26 0 0 1 .024-.365l13.83-12.477a.261.261 0 0 1 .366.024l5.785 6.368a.26.26 0 1 1-.39.342l-5.608-6.18-13.64 12.3a.285.285 0 0 1-.177.071ZM182.42 154.021a.238.238 0 0 1-.19-.083l-8.73-9.611a.26.26 0 0 1 .023-.365l8.211-7.406a.26.26 0 0 1 .343.389l-8.021 7.229 8.553 9.422a.26.26 0 0 1-.024.366.234.234 0 0 1-.165.059ZM205.252 179.269a.235.235 0 0 1-.189-.083l-8.128-8.95a.26.26 0 0 1 .024-.366.262.262 0 0 1 .367.024l7.95 8.761 13.876-12.523a.263.263 0 0 1 .367.023.26.26 0 0 1-.024.366l-14.066 12.689a.291.291 0 0 1-.177.059Z"/><path fill="#0098C7" d="m219.307 125.448-26.239 23.656c-2.106 1.898-5.371 1.745-7.276-.366-1.904-2.099-1.751-5.354.367-7.252l26.227-23.668c2.106-1.898 5.371-1.745 7.276.366a5.143 5.143 0 0 1-.355 7.264Z"/><path fill="#E2EAFF" d="m239.253 119.693-23.318 20.92a2.585 2.585 0 0 1-3.643-.177 2.566 2.566 0 0 1 .177-3.632l23.317-20.92a2.588 2.588 0 0 1 3.644.177 2.556 2.556 0 0 1-.177 3.632ZM234.863 134.835l-13.285 11.981a2.587 2.587 0 0 1-3.644-.177 2.567 2.567 0 0 1 .178-3.632l13.285-11.981a2.587 2.587 0 0 1 3.644.177 2.566 2.566 0 0 1-.178 3.632ZM226.108 152.424a2.154 2.154 0 0 0 .153-3.048 2.17 2.17 0 0 0-3.058-.152 2.153 2.153 0 0 0-.153 3.048 2.17 2.17 0 0 0 3.058.152ZM230.803 148.198c.886-.8.953-2.165.15-3.048a2.17 2.17 0 0 0-3.058-.15 2.153 2.153 0 0 0-.15 3.048 2.17 2.17 0 0 0 3.058.15Z"/><path fill="#0098C7" d="M235.632 140.932c.804.884.733 2.24-.154 3.042a2.16 2.16 0 0 1-3.052-.153 2.144 2.144 0 0 1 .153-3.043 2.16 2.16 0 0 1 3.053.154Z"/><path fill="#fff" d="m220.159 156.745-12.812 11.451c-.804.719-2.011.696-2.685-.036l-10.813-11.804c-.674-.743-.58-1.922.225-2.641l12.812-11.451c.804-.719 2.011-.696 2.685.036l10.813 11.804c.686.731.58 1.922-.225 2.641Z"/><path fill="#1D1D1D" d="M205.986 168.974c-.568 0-1.124-.212-1.514-.649l-10.813-11.804a2.013 2.013 0 0 1-.52-1.45c.023-.59.307-1.156.757-1.557l12.812-11.45c.911-.814 2.283-.79 3.052.059l10.813 11.804c.355.389.544.908.52 1.45a2.228 2.228 0 0 1-.757 1.557l-12.812 11.45a2.27 2.27 0 0 1-1.538.59Zm2.26-26.993c-.414 0-.84.153-1.183.46l-12.812 11.45a1.759 1.759 0 0 0-.592 1.203c-.023.401.119.79.379 1.073l10.813 11.805c.579.636 1.62.648 2.318.023l12.812-11.45c.355-.319.568-.755.592-1.203a1.459 1.459 0 0 0-.379-1.073l-10.812-11.804a1.54 1.54 0 0 0-1.136-.484Z"/><path fill="#fff" d="M180.268 129.422a21.3 21.3 0 0 1 4.851.979c.84.271 1.786.754 1.893 1.627.082.696-.426 1.333-1.03 1.71-1.277.802-2.886.755-4.4.766-1.503.024-3.029-.07-4.058 1.015l-1.29-2.052 4.034-4.045Z"/><path fill="#1D1D1D" d="M177.536 135.778a.256.256 0 0 1-.177-.071c-.107-.094-.107-.259-.012-.365 1.029-1.073 2.461-1.085 3.857-1.097l.733-.012c1.372-.011 2.804-.023 3.916-.731.461-.295.982-.849.899-1.462-.071-.59-.651-1.061-1.715-1.415a21.303 21.303 0 0 0-4.792-.967.263.263 0 0 1-.236-.283.256.256 0 0 1 .284-.236c1.668.142 3.324.472 4.909.991 1.278.412 1.976 1.037 2.07 1.839.107.849-.52 1.569-1.147 1.958-1.242.778-2.745.79-4.188.802l-.733.011c-1.349.012-2.615.012-3.49.932-.036.083-.107.106-.178.106Z"/><path fill="#fff" d="M99.16 252.099c.545.742 1.136 1.509 1.964 1.934.829.424 1.964.377 2.544-.354.875 1.049 1.857 1.733 2.922 1.179 1.053-.554 1.408-2.111.698-3.054.473.695.97 1.415 1.68 1.875.71.46 1.703.589 2.39.082.591-.448.792-1.273.686-2.004a3.726 3.726 0 0 0-.32-1.05c.45.354 1.112.484 1.645.259.911-.389 1.372-1.462 1.336-2.452-.035-.991-.473-1.923-.887-2.819-2.815-6.002-26.689-56.816-26.689-56.816l6.885-30.271 1.692-14.493c-9.334-3.42-19.65 1.627-22.63 11.097-2.58 8.207-7.383 21.957-8.59 31.344a27.539 27.539 0 0 0 4.13 18.396c9.357 14.623 28.108 43.833 30.545 47.147Z"/><path fill="#1D1D1D" d="M105.809 255.306c-.698 0-1.408-.413-2.153-1.25-.722.637-1.857.602-2.65.201-.911-.46-1.538-1.321-2.047-2.005-2.401-3.255-20.182-30.967-30.58-47.193a27.849 27.849 0 0 1-4.165-18.573c1.018-7.89 4.59-18.939 7.205-27.005l1.408-4.375c1.466-4.646 4.684-8.385 9.061-10.531 4.378-2.146 9.323-2.405 13.9-.719a.255.255 0 0 1 .166.271l-1.691 14.481v.024L87.4 188.82c1.053 2.253 23.897 50.873 26.654 56.746.414.872.875 1.851.911 2.912.035 1.015-.414 2.241-1.503 2.701-.39.165-.852.165-1.277.035.047.165.082.319.106.472.106.719-.047 1.698-.793 2.252-.816.613-1.963.389-2.685-.07a4.203 4.203 0 0 1-.899-.802c-.012.141-.024.294-.059.448-.154.684-.58 1.25-1.148 1.556a1.995 1.995 0 0 1-.899.236Zm-2.153-1.898c.083 0 .154.035.201.094.97 1.179 1.798 1.521 2.591 1.108.438-.224.757-.672.875-1.202.107-.484.048-.956-.177-1.333-.036-.047-.059-.094-.095-.141-.083-.118-.047-.272.071-.354a.25.25 0 0 1 .355.059c.036.047.083.106.107.165.402.601.875 1.25 1.502 1.651.568.365 1.467.554 2.082.094.462-.342.698-1.038.592-1.757a3.973 3.973 0 0 0-.296-.979.256.256 0 0 1 .083-.306.265.265 0 0 1 .319 0c.402.318.958.401 1.384.224.852-.366 1.207-1.404 1.183-2.205-.035-.956-.473-1.887-.863-2.713-2.816-6.002-26.69-56.827-26.69-56.827-.023-.048-.035-.107-.023-.166l6.885-30.259 1.668-14.281c-4.389-1.556-9.109-1.285-13.309.767-4.258 2.087-7.382 5.719-8.801 10.224-.414 1.332-.9 2.807-1.408 4.387-2.603 8.054-6.163 19.068-7.18 26.922a27.328 27.328 0 0 0 4.092 18.219c10.387 16.227 28.168 43.927 30.558 47.158.473.649 1.064 1.451 1.869 1.852.698.353 1.727.342 2.212-.283.059-.083.13-.118.213-.118Z"/><path fill="#1D1D1D" d="M111.404 250.448a.252.252 0 0 1-.224-.13 176.461 176.461 0 0 1-3.573-6.58c-.071-.13-.012-.283.106-.354.13-.071.284-.012.355.106a196.983 196.983 0 0 0 3.561 6.569.261.261 0 0 1-.095.353.302.302 0 0 1-.13.036ZM107.157 251.969a.267.267 0 0 1-.224-.13l-3.49-5.731c-.071-.118-.036-.283.082-.353a.264.264 0 0 1 .355.082l3.49 5.731a.262.262 0 0 1-.083.354.178.178 0 0 1-.13.047ZM103.466 253.632a.254.254 0 0 1-.212-.106 65.47 65.47 0 0 1-3.266-5.107.262.262 0 0 1 .095-.353.264.264 0 0 1 .355.094 64.527 64.527 0 0 0 3.23 5.071.262.262 0 0 1-.06.365.275.275 0 0 1-.142.036Z"/><path fill="#0098C7" d="m129.907 168.231 18.621-16.946s-11.215-5.637-20.384-9.564c-.118-.047-.154-.047-.272-.094-2.437-1.002-27.86-10.908-47.12.731 0 0-7.95 4.953-12.326 16.486l-3.703 8.951 27.268-.012-4.637 21.073 3.17 6.71 35.869-1.238 3.514-26.097Z"/><path fill="#1D1D1D" d="M91.778 168.609h-.06a.251.251 0 0 1-.2-.307l1.632-7.771a.251.251 0 0 1 .307-.201.25.25 0 0 1 .202.307l-1.633 7.771a.267.267 0 0 1-.248.201ZM103.171 174.174a9.582 9.582 0 0 1-2.78-.401 9.816 9.816 0 0 1-5.654-4.481.262.262 0 0 1 .094-.353.264.264 0 0 1 .355.094 9.287 9.287 0 0 0 5.359 4.245 9.345 9.345 0 0 0 6.814-.601c.13-.071.284-.012.355.118a.27.27 0 0 1-.118.353 10.092 10.092 0 0 1-4.425 1.026ZM122.383 172.099a.266.266 0 0 1-.26-.224.254.254 0 0 1 .213-.295c3.312-.519 6.151-3.396 6.625-6.698.295-2.087-.332-4.281-1.716-6.038-.094-.118-.071-.271.048-.365a.262.262 0 0 1 .366.047c1.479 1.863 2.142 4.21 1.822 6.427-.497 3.526-3.525 6.592-7.051 7.134-.023.012-.035.012-.047.012ZM98.628 123.809c-4.519-3.939-3.916-10.554-.485-13.066 3.064-2.241 5.359-4.859 9.062-5.731 3.703-.873 9.038.342 11.878 2.854 3.359 2.971.343 8.077.047 12.535-.816 12.795-12.67 10.236-20.502 3.408Z"/><path fill="#fff" d="m103.031 122.17-3.893 14.693s-1.29.024-3.395.283c-1.869.236-3.419.672-3.419.672s1.526 1.522 3.68 4.659c.52.754 1.727 2.7 2.27 3.561a.903.903 0 0 0 .782.424l21.578-.342c.142 0 .225-.153.165-.271-.189-.342-.508-.979-.792-1.545-.757-1.568-2.047-3.938-3.786-6.179-.047-.071-4.779-.731-4.779-.814.343-3.679.887-8.785 1.49-10.742l-9.901-4.399Z"/><path fill="#1D1D1D" d="M92.786 138.007a.253.253 0 0 1-.249-.2.26.26 0 0 1 .19-.319c1.573-.377 5.323-.79 6.21-.872l2.58-10.602a.26.26 0 0 1 .319-.188.259.259 0 0 1 .189.318l-2.614 10.79a.265.265 0 0 1-.225.201c-.047 0-4.602.471-6.33.884-.035-.012-.046-.012-.07-.012ZM115.936 138.385c-.024 0-.036 0-.059-.012-1.609-.378-4.448-.814-4.472-.814a.261.261 0 0 1-.225-.283c.343-3.715.864-8.491 1.432-10.578l-9.689-4.292a.258.258 0 1 1 .213-.472l9.89 4.387a.272.272 0 0 1 .142.318c-.568 1.863-1.101 6.663-1.456 10.448.722.118 2.923.46 4.271.79a.253.253 0 0 1 .189.307.25.25 0 0 1-.236.201Z"/><path fill="#fff" d="M120.065 118.349c.366 2.005.378 4.116-.308 6.05-.686 1.922-2.129 3.643-4.046 4.375-1.668.636-3.573.483-5.217-.201-1.644-.684-3.052-1.863-4.188-3.219-1.763.625-3.904-.106-4.909-1.663-.58-.896-.793-2.087-.308-3.042.473-.956 1.727-1.533 2.709-1.073.556.259.947.79 1.514 1.025.627.26 1.385.107 1.952-.271.568-.377.97-.955 1.302-1.545 1.029-1.875 1.325-4.127.84-6.214.047.2 1.1.495 1.289.554.473.153.958.271 1.455.354.97.153 1.964.141 2.934-.024a8.6 8.6 0 0 0 1.443-.377c.379-.13.852-.484 1.254-.484.829-.011 1.077 1.498 1.278 2.076.402 1.191.769 2.417 1.006 3.679Z"/><path fill="#1D1D1D" d="M113.452 129.422a7.98 7.98 0 0 1-3.052-.625c-1.502-.625-2.91-1.686-4.176-3.16-1.822.554-4.01-.224-5.051-1.816-.687-1.062-.817-2.323-.332-3.302.568-1.132 1.988-1.686 3.053-1.191.295.141.544.342.78.531.237.2.462.377.722.483.509.212 1.159.118 1.703-.248.45-.306.84-.766 1.219-1.45a8.61 8.61 0 0 0 .816-6.026.252.252 0 0 1 .19-.307.29.29 0 0 1 .295.13c.071.059.308.165 1.006.389a.42.42 0 0 0 .13.036c.45.153.923.271 1.408.342a8.913 8.913 0 0 0 2.851-.024c.485-.083.958-.2 1.408-.366.118-.035.248-.106.39-.176.296-.154.627-.319.946-.319h.012c.876 0 1.195 1.132 1.408 1.887.036.141.071.259.107.365.496 1.439.828 2.63 1.029 3.727.426 2.311.319 4.387-.308 6.179-.757 2.123-2.319 3.809-4.2 4.528a6.748 6.748 0 0 1-2.354.413Zm-7.145-4.339a.27.27 0 0 1 .201.094c1.242 1.474 2.626 2.535 4.093 3.148 1.692.696 3.514.767 5.028.201 1.739-.66 3.194-2.229 3.892-4.21.603-1.698.698-3.691.296-5.908-.201-1.073-.521-2.241-1.006-3.656-.035-.106-.071-.235-.118-.389-.154-.566-.426-1.509-.911-1.509-.201 0-.473.141-.71.259a3.875 3.875 0 0 1-.461.213c-.473.165-.982.294-1.491.389a9.226 9.226 0 0 1-4.507-.342.744.744 0 0 0-.118-.036c-.296-.094-.533-.165-.722-.247a9.186 9.186 0 0 1-.982 5.813c-.414.767-.863 1.286-1.384 1.639-.686.46-1.526.578-2.2.295-.332-.141-.592-.353-.852-.566-.225-.177-.438-.354-.674-.471-.805-.378-1.929.082-2.366.955-.403.802-.284 1.898.295 2.795.947 1.45 2.97 2.134 4.614 1.556.024-.023.047-.023.083-.023Z"/><path fill="#fff" d="M103.338 122.087c.982-.047 1.964.543 2.378 1.415l-2.378-1.415Z"/><path fill="#1D1D1D" d="M105.715 123.773a.27.27 0 0 1-.236-.153c-.379-.79-1.254-1.309-2.13-1.273-.142.011-.26-.107-.272-.248-.012-.142.106-.26.248-.271 1.089-.048 2.165.589 2.627 1.568.059.13 0 .283-.13.342a.189.189 0 0 1-.107.035ZM105.467 69.328c11.747 3.09 18.005 14.174 12.149 22.559-2.354 3.373-5.299 5.141-6.293 5.743-7.619 4.634-21.673 7.099-20.762 13.455.485 3.396 4.838 4.021 5.43 4.057-.26.719-.225 1.485-.485 2.205-6.341 2.205-13.652.648-16.468-2.842-2.33-2.889-2.105-5.496-1.904-7.064 1.135-8.797 9.322-9.776 11.156-17.075 1.597-6.392-5.927-3.68-8.092-8.95-2.899-7.053 6.033-12.666 13.687-12.82 5.336-.105 8.754-.011 11.582.732Z"/><path fill="#fff" d="M265.541 252.08c1.553-1.482 1.496-4.052-.126-5.741-1.622-1.689-4.196-1.856-5.748-.374-1.553 1.481-1.496 4.052.126 5.741 1.622 1.688 4.196 1.856 5.748.374Z"/><path fill="#1D1D1D" d="M262.95 253.349c-.13 0-.248 0-.378-.012-2.366-.2-4.306-2.299-4.306-4.658 0-1.155.449-2.205 1.265-2.948.829-.754 1.917-1.108 3.076-1.014 2.366.201 4.295 2.3 4.295 4.658 0 1.156-.45 2.194-1.266 2.948-.722.672-1.668 1.026-2.686 1.026Zm-.709-8.125c-.888 0-1.716.307-2.343.885-.71.648-1.1 1.556-1.1 2.57 0 2.099 1.715 3.963 3.821 4.14 1.017.082 1.964-.225 2.674-.873.71-.649 1.1-1.557 1.1-2.559 0-2.099-1.715-3.962-3.821-4.139-.107-.024-.225-.024-.331-.024Z"/><path fill="#fff" d="M253.686 251.066c1.552-1.482 1.496-4.053-.126-5.741-1.622-1.689-4.196-1.857-5.749-.375-1.552 1.482-1.496 4.052.126 5.741 1.622 1.689 4.196 1.856 5.749.375Z"/><path fill="#1D1D1D" d="M251.097 252.323c-.13 0-.249 0-.379-.012-2.366-.2-4.306-2.3-4.306-4.658 0-1.156.45-2.193 1.266-2.948.816-.755 1.916-1.109 3.076-1.014 2.366.2 4.306 2.299 4.306 4.658 0 1.155-.45 2.205-1.266 2.948-.733.672-1.68 1.026-2.697 1.026Zm-.71-8.125c-.887 0-1.715.306-2.342.884-.71.649-1.101 1.557-1.101 2.559 0 2.099 1.716 3.962 3.822 4.139 1.017.083 1.963-.224 2.685-.872.71-.649 1.1-1.557 1.1-2.571 0-2.099-1.715-3.962-3.821-4.139h-.343Z"/><path fill="#E2EAFF" d="M241.83 250.026c1.553-1.482 1.497-4.052-.126-5.741-1.622-1.689-4.196-1.857-5.748-.375-1.553 1.482-1.496 4.053.126 5.741 1.622 1.689 4.196 1.857 5.748.375Z"/><path fill="#1D1D1D" d="M286.041 251.321h-.024l-14.35-1.239a.262.262 0 0 1-.236-.283.263.263 0 0 1 .284-.235l14.066 1.214v-26.285c0-.142.118-.26.26-.26.142 0 .26.118.26.26v26.568a.275.275 0 0 1-.083.189.3.3 0 0 1-.177.071ZM209.24 244.587h-.024l-22.217-1.922a.262.262 0 0 1-.236-.283.263.263 0 0 1 .284-.236l22.217 1.922a.263.263 0 0 1 .236.283.267.267 0 0 1-.26.236ZM225.399 245.979h-.023l-11.558-1.002a.264.264 0 0 1-.237-.283.263.263 0 0 1 .284-.236l11.558 1.002a.264.264 0 0 1 .237.283.258.258 0 0 1-.261.236ZM199.362 251.663h-.024l-12.339-1.062a.262.262 0 0 1-.236-.283.257.257 0 0 1 .284-.236l12.338 1.062a.263.263 0 0 1 .237.283.267.267 0 0 1-.26.236ZM225.4 253.903h-.024l-21.365-1.851a.264.264 0 0 1-.237-.283.263.263 0 0 1 .284-.236l21.366 1.851a.264.264 0 0 1 .236.283.257.257 0 0 1-.26.236Z"/><path fill="#0098C7" d="M172.49 48.742c-.564.563-13.696 13.79-14.534 14.606-.729-.707-4.08-3.992-4.554-4.445-2.896-3.048-.601-8.274 3.643-8.274 1.148 0 2.769.454 3.698 1.706l-1.913 2.032c-.838-.762-1.366-.944-1.785-.944-1.712 0-2.677 1.996-1.621 3.32l3.115 3.049c.236-.236 6.21-6.405 6.72-6.913-1.311-3.774-4.735-5.987-8.724-5.788-8.032.4-11.438 10.415-5.409 15.423 6.32 6.205.218.217 6.921 6.785 14.097-13.825 9.416-9.562 16.283-16.039 2.841-3.556 8.615-1.56 8.615 2.994a4.754 4.754 0 0 1-1.057 2.994c-1.366 1.342-12.075 12.156-13.878 13.934l-1.894-1.868 13.842-14.026c1.329-2.286-1.949-4.39-3.515-2.34-.31.308-16.192 15.948-16.465 16.202.4.4 7.777 7.62 8.159 8.002l16.902-17.147a9.167 9.167 0 0 0 2.04-5.77c-.018-7.547-8.56-11.775-14.589-7.493Z" opacity=".5"/></svg>