<svg xmlns="http://www.w3.org/2000/svg" width="34" height="38" fill="none"><path fill="#fff" d="M.688 17.789c.063-.35.139-.704.225-1.049a.52.52 0 0 1 1.008.251c-.08.323-.152.654-.211.983a.52.52 0 0 1-1.022-.185Zm1.345 7.155a.52.52 0 0 0-1.001.28c.096.342.204.686.322 1.022a.52.52 0 1 0 .98-.344 15.54 15.54 0 0 1-.301-.958Zm5.71-16.79c.103 0 .208-.03.299-.095.272-.192.555-.378.838-.553a.52.52 0 0 0-.543-.885c-.303.186-.604.384-.895.59a.52.52 0 0 0 .3.944ZM1.508 21.98c-.026-.332-.041-.67-.046-1.004a.52.52 0 0 0-.519-.512H.937a.52.52 0 0 0-.513.527c.005.356.022.716.05 1.07a.52.52 0 1 0 1.035-.08ZM24.362 7.071c.294.159.587.329.87.506a.517.517 0 0 0 .715-.165.52.52 0 0 0-.164-.716c-.302-.189-.614-.37-.928-.54a.52.52 0 1 0-.493.915ZM2.93 14.154c.142-.302.295-.603.457-.895a.52.52 0 0 0-.91-.502c-.172.312-.336.633-.488.955a.52.52 0 1 0 .94.442Zm25.4-4.03a.517.517 0 0 0 .734.024.52.52 0 0 0 .023-.735c-.244-.26-.5-.514-.759-.758a.52.52 0 1 0-.71.759c.243.228.483.467.711.71ZM11.404 6.221a.52.52 0 0 0 .18-.033c.313-.116.633-.223.953-.319a.52.52 0 1 0-.299-.995c-.34.102-.682.216-1.015.34a.52.52 0 0 0 .18 1.007Zm9.211-.579c.325.078.651.167.97.265a.52.52 0 1 0 .306-.993c-.34-.105-.688-.2-1.035-.283a.52.52 0 0 0-.241 1.011ZM3.603 28.632a.52.52 0 0 0-.895.527c.18.307.374.611.573.905a.519.519 0 1 0 .86-.584 15.6 15.6 0 0 1-.538-.848Zm27.914-.988a.52.52 0 0 0-.7.224c-.153.296-.318.592-.49.878a.52.52 0 0 0 .89.535c.184-.305.36-.62.523-.937a.52.52 0 0 0-.223-.7Zm-.384-13.996a.52.52 0 0 0 .456-.767c-.17-.313-.351-.624-.54-.925a.52.52 0 1 0-.88.552c.177.282.348.574.506.868a.52.52 0 0 0 .458.272Zm-1.865 17.48a.52.52 0 0 0-.734.037c-.224.248-.458.492-.697.724a.52.52 0 0 0 .724.745c.255-.248.505-.508.744-.772a.52.52 0 0 0-.037-.734Zm-3.782 2.644c-.28.183-.568.358-.858.522a.52.52 0 1 0 .511.905c.31-.175.618-.362.916-.557a.52.52 0 0 0-.569-.87Zm8.075-13.713a.52.52 0 0 0-1.038.043 15.817 15.817 0 0 1 .01 1.005.52.52 0 0 0 .507.531h.012a.52.52 0 0 0 .52-.508 17.301 17.301 0 0 0-.01-1.071Zm-.947-2.541a.52.52 0 0 0 .505-.641 16.501 16.501 0 0 0-.284-1.034.52.52 0 1 0-.992.307c.098.319.188.645.266.97a.52.52 0 0 0 .505.398ZM5.744 9.292a.52.52 0 0 0-.734.017c-.245.257-.486.526-.715.799a.52.52 0 1 0 .796.668c.215-.256.44-.508.67-.75a.52.52 0 0 0-.016-.734ZM32.796 23.7a.52.52 0 0 0-.619.397c-.07.325-.154.653-.246.974a.52.52 0 1 0 .998.287c.099-.342.187-.692.264-1.039a.52.52 0 0 0-.397-.619ZM13.937 35.992a15.455 15.455 0 0 1-.978-.23.52.52 0 0 0-.27 1.004c.344.092.695.175 1.045.244a.52.52 0 0 0 .204-1.019Zm4.001.273c-.31.019-.626.028-.939.028h-.068a.52.52 0 0 0-.002 1.039H17c.333 0 .67-.01 1.001-.03a.52.52 0 1 0-.062-1.037Zm-7.796-1.563c-.3-.148-.598-.307-.887-.474a.52.52 0 0 0-.519.9c.309.179.627.349.947.506a.519.519 0 1 0 .46-.932ZM6.803 32.48c-.251-.219-.5-.45-.737-.684a.52.52 0 0 0-.73.738c.252.25.517.496.785.73a.517.517 0 0 0 .733-.051.52.52 0 0 0-.05-.733Zm15.073 3.032c-.317.105-.641.2-.964.284a.52.52 0 1 0 .26 1.006c.345-.09.691-.191 1.03-.303a.52.52 0 1 0-.326-.987ZM15.948 6.816c-1.01-1.602-2.393-3.797-.815-5.376a2.624 2.624 0 0 1 1.87-.772c.707 0 1.371.274 1.869.772 1.602 1.602.116 3.932-.868 5.475-.208.327-.405.636-.545.892a.52.52 0 0 1-.912 0c-.164-.3-.375-.635-.6-.99Zm.879-.554.18.286.121-.192c1.106-1.734 1.945-3.246 1.01-4.182a1.592 1.592 0 0 0-1.135-.467c-.43 0-.833.166-1.135.467-.919.92-.147 2.334.959 4.088Zm.956-3.081A.786.786 0 0 0 17 2.396a.786.786 0 0 0-.784.785c0 .432.352.784.784.784a.786.786 0 0 0 .784-.784Zm10.85 17.575c0 6.414-5.219 11.633-11.634 11.633S5.365 27.17 5.365 20.756c0-6.415 5.22-11.634 11.634-11.634 6.415 0 11.634 5.219 11.634 11.634ZM8.803 14.05c.509.7 1.13 1.989 1.156 2.515.133 2.726 1.166 2.997 1.72 3.142.098.026.19.05.276.084.976.38 1.685 1.754 2.31 2.967.306.592.595 1.15.832 1.426.565.654 1.203 1.247 2.241.697.318-.169.373-.346.387-.465.08-.678-.902-1.816-1.582-2.415-.725-.64-1.017-1.212-.893-1.75.173-.752 1.067-1 1.361-1.081.84-.232 1.948-.286 2.68-.322.256-.013.545-.027.62-.042.253-.054.352-.141.372-.17-.006-.03-.046-.112-.176-.225-.25-.216-.586-.453-.912-.683-.661-.466-1.285-.906-1.534-1.38-.167-.317-.366-.79-.179-1.241.172-.415.575-.586.907-.688.127-.04.258-.073.396-.109.556-.143 1.131-.29 1.418-.792.322-.565.284-1.538-.11-2.896a10.577 10.577 0 0 0-11.29 3.428Zm3.26 15.32c.037-.864-.31-.932-.496-.969-.452-.09-1.134.087-1.651.226.873.786 1.876 1.43 2.973 1.893-.04-.167-.126-.212-.243-.271-.182-.092-.607-.308-.583-.88ZM17 31.35c2.235 0 4.31-.696 6.021-1.882-.259-.468-.169-.888-.018-1.277.286-.739.04-1.451-.199-2.14l-.117-.346c-.155-.482-.477-1.485.527-2.105.901-.555 1.109-1.203 1.15-2.07.008-.144.01-.292.013-.436.012-.714.025-1.453.59-2.004.467-.457 1.21-.677 2.363-.693a10.637 10.637 0 0 0-6.051-7.332c.284 1.29.226 2.267-.173 2.968-.504.883-1.404 1.115-2.061 1.284-.126.032-.245.063-.348.094-.151.047-.22.082-.249.102.005.043.028.15.134.352.132.252.731.674 1.212 1.014.347.244.706.497.994.747.59.512.57 1.013.504 1.267-.118.458-.543.797-1.165.93-.146.03-.37.042-.784.063-.687.033-1.726.084-2.453.285-.558.155-.627.313-.627.313 0 .002-.019.22.568.738.493.434 2.088 1.956 1.927 3.316-.044.373-.242.895-.932 1.26-.463.246-.886.344-1.266.344-1.145 0-1.909-.885-2.25-1.28-.317-.367-.618-.951-.967-1.628-.487-.944-1.155-2.238-1.765-2.475-.03-.012-.096-.03-.161-.046-.696-.183-2.324-.61-2.495-4.097-.016-.257-.43-1.128-.768-1.684a10.533 10.533 0 0 0-1.749 5.824 10.55 10.55 0 0 0 2.662 7.013c.14-.027.355-.084.524-.13.655-.176 1.472-.396 2.177-.258.515.102 1.362.488 1.337 1.936l.012.006c.452.229.86.582.831 1.579A10.56 10.56 0 0 0 17 31.35Zm10.595-10.594c0-.448-.028-.889-.082-1.321-.934-.004-1.545.129-1.82.398-.247.24-.266.643-.277 1.28-.003.15-.006.307-.014.468-.046.964-.278 2.063-1.642 2.904-.205.126-.302.224-.083.902.034.105.071.213.11.325.27.784.608 1.76.185 2.855a1.288 1.288 0 0 0-.074.223 10.574 10.574 0 0 0 3.697-8.034Z"/></svg>