<svg xmlns="http://www.w3.org/2000/svg" width="227" height="36" fill="none"><path fill="#fff" d="M26.528 1.887c-.613.621-14.87 15.22-15.78 16.12-.791-.78-4.43-4.405-4.944-4.906C2.66 9.738 5.15 3.97 9.759 3.97c1.246 0 3.006.5 4.014 1.882l-2.076 2.243c-.91-.84-1.483-1.041-1.938-1.041-1.859 0-2.907 2.203-1.76 3.665l3.381 3.364c.257-.26 6.743-7.07 7.297-7.63C17.253 2.288 13.536-.155 9.205.065.485.505-3.213 11.56 3.332 17.087c6.862 6.848.237.24 7.514 7.49C26.152 9.316 21.07 14.022 28.525 6.873c3.085-3.925 9.353-1.723 9.353 3.304a5.302 5.302 0 0 1-1.147 3.304c-1.483 1.482-13.11 13.417-15.068 15.38l-2.056-2.063 15.028-15.48c1.444-2.523-2.116-4.846-3.816-2.583-.336.34-17.58 17.602-17.876 17.883.435.44 8.443 8.41 8.859 8.831.079-.08 18.35-18.924 18.35-18.924a10.222 10.222 0 0 0 2.215-6.368c-.02-8.33-9.294-12.997-15.84-8.27ZM63.726 27.644a15.82 15.82 0 0 1-4.315-.59c-1.376-.41-2.484-.937-3.324-1.58l1.475-3.27c.804.589 1.76 1.063 2.868 1.42 1.108.357 2.215.536 3.323.536 1.233 0 2.144-.179 2.734-.536.59-.375.885-.867.885-1.474 0-.447-.179-.813-.536-1.1-.34-.303-.787-.544-1.34-.723-.537-.179-1.27-.375-2.198-.59-1.43-.34-2.6-.679-3.512-1.018a5.807 5.807 0 0 1-2.358-1.635c-.644-.75-.965-1.751-.965-3.002 0-1.09.294-2.073.884-2.949.59-.893 1.474-1.599 2.654-2.117 1.197-.518 2.653-.777 4.369-.777 1.197 0 2.367.143 3.511.428 1.144.286 2.144.697 3.002 1.233l-1.34 3.297c-1.734-.983-3.467-1.474-5.2-1.474-1.215 0-2.118.197-2.707.59-.572.393-.858.911-.858 1.554 0 .644.33 1.126.992 1.448.679.303 1.706.607 3.082.911 1.43.34 2.6.68 3.511 1.019.912.34 1.69.875 2.332 1.608.662.732.992 1.724.992 2.975a5.132 5.132 0 0 1-.911 2.948c-.59.876-1.483 1.573-2.68 2.091-1.198.518-2.654.777-4.37.777Zm25.16-14.742v14.42H84.92v-1.715a5.691 5.691 0 0 1-1.984 1.448 6.39 6.39 0 0 1-2.492.482c-1.894 0-3.395-.545-4.503-1.635-1.108-1.09-1.662-2.707-1.662-4.851v-8.149h4.181v7.532c0 2.323.974 3.485 2.922 3.485 1 0 1.805-.322 2.412-.965.608-.661.912-1.635.912-2.922v-7.13h4.18Zm18.751 0V24.91c0 2.645-.688 4.61-2.064 5.897-1.376 1.287-3.386 1.93-6.031 1.93-1.394 0-2.716-.17-3.967-.51-1.25-.339-2.287-.83-3.11-1.473l1.663-3.002c.607.5 1.376.893 2.305 1.179.929.304 1.858.456 2.787.456 1.448 0 2.511-.33 3.19-.992.697-.643 1.045-1.626 1.045-2.948v-.617c-1.09 1.197-2.609 1.796-4.556 1.796-1.323 0-2.538-.286-3.646-.858a6.761 6.761 0 0 1-2.6-2.466c-.643-1.054-.965-2.27-.965-3.645 0-1.376.322-2.591.965-3.645a6.567 6.567 0 0 1 2.6-2.44c1.108-.59 2.323-.884 3.646-.884 2.09 0 3.681.688 4.771 2.064v-1.85h3.967ZM99.73 23.195c1.107 0 2.01-.322 2.707-.965.715-.661 1.072-1.519 1.072-2.573s-.357-1.903-1.072-2.546c-.697-.662-1.6-.992-2.707-.992-1.108 0-2.02.33-2.734.992-.715.643-1.072 1.492-1.072 2.546 0 1.054.357 1.912 1.072 2.573.714.643 1.626.965 2.734.965Zm26.433-10.293v14.42h-3.994v-1.661c-1.036 1.25-2.537 1.876-4.503 1.876-1.358 0-2.591-.304-3.698-.911-1.09-.608-1.948-1.474-2.574-2.6-.625-1.126-.938-2.43-.938-3.913 0-1.484.313-2.788.938-3.914.626-1.126 1.484-1.992 2.574-2.6 1.107-.607 2.34-.911 3.698-.911 1.841 0 3.279.58 4.316 1.742v-1.528h4.181Zm-7.773 11.204c1.054 0 1.93-.357 2.627-1.072.697-.732 1.045-1.706 1.045-2.921 0-1.215-.348-2.18-1.045-2.895-.697-.733-1.573-1.1-2.627-1.1-1.072 0-1.957.367-2.653 1.1-.697.715-1.046 1.68-1.046 2.895s.349 2.189 1.046 2.921c.696.715 1.581 1.072 2.653 1.072Zm15.638-9.3c.5-.697 1.171-1.225 2.01-1.582.858-.357 1.841-.536 2.949-.536v3.86a15.127 15.127 0 0 0-.938-.054c-1.198 0-2.136.34-2.815 1.019-.679.66-1.018 1.661-1.018 3.002v6.808h-4.182v-14.42h3.994v1.902Zm23.557-6.246c1.662 0 3.1.277 4.315.831 1.233.554 2.18 1.34 2.842 2.359.661 1.018.991 2.225.991 3.618 0 1.376-.33 2.582-.991 3.619-.662 1.018-1.609 1.805-2.842 2.359-1.215.536-2.653.804-4.315.804h-3.779v5.173h-4.343V8.56h8.122Zm-.241 10.052c1.304 0 2.296-.277 2.975-.831.679-.572 1.018-1.376 1.018-2.413 0-1.054-.339-1.858-1.018-2.412-.679-.572-1.671-.858-2.975-.858h-3.538v6.514h3.538Zm25.984-5.71v14.42h-3.967v-1.715a5.688 5.688 0 0 1-1.984 1.448 6.386 6.386 0 0 1-2.492.482c-1.895 0-3.396-.545-4.503-1.635-1.108-1.09-1.662-2.707-1.662-4.851v-8.149h4.181v7.532c0 2.323.974 3.485 2.922 3.485 1 0 1.805-.322 2.412-.965.608-.661.911-1.635.911-2.922v-7.13h4.182Zm9.047 14.635c-1.626 0-2.895-.429-3.807-1.286-.911-.876-1.366-2.109-1.366-3.7V7.435h4.181v14.877c0 .607.152 1.08.456 1.42.321.322.768.482 1.34.482.214 0 .429-.026.643-.08.232-.053.411-.116.536-.188l.188 3.244a6.822 6.822 0 0 1-2.171.348Zm9.075 0c-1.197 0-2.368-.143-3.511-.429-1.144-.303-2.055-.679-2.734-1.125l1.393-3.002c.644.41 1.421.75 2.332 1.018.912.25 1.805.375 2.681.375 1.769 0 2.653-.437 2.653-1.313 0-.411-.241-.706-.723-.884-.483-.18-1.224-.331-2.225-.456-1.179-.179-2.153-.384-2.922-.617a4.629 4.629 0 0 1-2.01-1.233c-.554-.59-.831-1.43-.831-2.52 0-.91.259-1.715.777-2.411.537-.715 1.305-1.27 2.306-1.662 1.018-.394 2.215-.59 3.591-.59 1.019 0 2.028.116 3.029.348 1.019.215 1.858.519 2.52.912l-1.394 2.975c-1.269-.715-2.654-1.072-4.155-1.072-.893 0-1.563.125-2.01.375-.447.25-.67.572-.67.965 0 .447.241.76.724.938.482.179 1.25.349 2.305.51 1.179.196 2.144.41 2.894.643a4.245 4.245 0 0 1 1.957 1.206c.554.59.831 1.412.831 2.466 0 .893-.268 1.688-.804 2.385-.536.697-1.322 1.242-2.359 1.635-1.018.376-2.233.563-3.645.563Zm16.652-3.35c.75 0 1.411-.108 1.983-.322a4.974 4.974 0 0 0 1.635-1.072l2.225 2.412c-1.358 1.555-3.342 2.332-5.951 2.332-1.626 0-3.064-.313-4.315-.938-1.251-.643-2.216-1.528-2.895-2.654-.679-1.125-1.018-2.403-1.018-3.832 0-1.412.33-2.68.992-3.806a7.037 7.037 0 0 1 2.76-2.654c1.18-.643 2.502-.965 3.967-.965 1.376 0 2.627.295 3.753.884a6.5 6.5 0 0 1 2.68 2.52c.679 1.09 1.019 2.386 1.019 3.887l-10.668 2.063c.304.715.777 1.251 1.42 1.609.662.357 1.466.536 2.413.536Zm-.617-8.336c-1.054 0-1.912.34-2.573 1.018-.661.68-1.01 1.617-1.045 2.815l7.022-1.367a3.146 3.146 0 0 0-1.206-1.796c-.607-.447-1.34-.67-2.198-.67Z"/></svg>