<svg xmlns="http://www.w3.org/2000/svg" width="70" height="25" fill="none"><path fill="#0098C7" d="M14.904 3.35c-.345.348-8.355 8.55-8.866 9.056-.444-.439-2.488-2.475-2.777-2.756-1.767-1.89-.367-5.13 2.222-5.13.7 0 1.688.28 2.255 1.057l-1.166 1.26c-.512-.473-.834-.585-1.09-.585-1.044 0-1.632 1.237-.988 2.059l1.9 1.89c.144-.146 3.788-3.972 4.1-4.287-.8-2.34-2.89-3.712-5.322-3.589-4.9.248-6.977 6.458-3.3 9.564 3.855 3.847.133.135 4.222 4.207 8.599-8.573 5.744-5.929 9.932-9.945 1.733-2.206 5.255-.968 5.255 1.856 0 .709-.244 1.35-.644 1.856-.834.833-7.366 7.538-8.466 8.641l-1.155-1.159 8.443-8.697c.811-1.417-1.189-2.722-2.144-1.451-.19.191-9.877 9.89-10.044 10.047.245.247 4.744 4.725 4.978 4.962l10.31-10.633a5.743 5.743 0 0 0 1.244-3.577c-.011-4.68-5.222-7.302-8.9-4.647Z"/><path fill="#1D1D1D" d="M35.054 10.137a6.755 6.755 0 0 1-1.843-.251c-.587-.176-1.06-.401-1.419-.676l.63-1.396c.343.252.751.454 1.224.607.473.152.946.229 1.42.229.526 0 .915-.077 1.166-.23.252-.16.378-.37.378-.629a.575.575 0 0 0-.229-.469 1.568 1.568 0 0 0-.572-.309 10.77 10.77 0 0 0-.938-.252c-.61-.145-1.11-.29-1.5-.435a2.48 2.48 0 0 1-1.007-.698c-.274-.32-.412-.747-.412-1.281 0-.466.126-.885.378-1.26.252-.38.63-.682 1.133-.903.511-.222 1.133-.332 1.865-.332.511 0 1.011.06 1.5.183.488.122.915.297 1.281.526l-.572 1.408c-.74-.42-1.48-.63-2.22-.63-.519 0-.904.084-1.156.252-.244.168-.366.39-.366.664 0 .275.141.48.423.618.29.13.729.26 1.316.39.61.144 1.11.289 1.5.434.389.145.72.374.995.687.282.312.424.736.424 1.27 0 .458-.13.877-.39 1.259-.251.374-.633.671-1.144.892-.511.222-1.133.332-1.865.332Zm10.742-6.294V10h-1.694v-.732a2.43 2.43 0 0 1-.846.618 2.729 2.729 0 0 1-1.065.206c-.808 0-1.45-.233-1.922-.699-.473-.465-.71-1.155-.71-2.07v-3.48h1.785V7.06c0 .992.416 1.488 1.248 1.488.427 0 .77-.138 1.03-.412.26-.283.389-.698.389-1.248V3.843h1.785Zm8.006 0V8.97c0 1.13-.294 1.968-.882 2.518-.587.55-1.445.824-2.574.824-.595 0-1.16-.073-1.694-.218-.534-.145-.977-.354-1.328-.63l.71-1.28c.26.213.587.38.984.503.397.13.794.194 1.19.194.618 0 1.072-.14 1.362-.423.298-.275.446-.695.446-1.26v-.262c-.465.51-1.113.766-1.945.766a3.343 3.343 0 0 1-1.556-.366 2.887 2.887 0 0 1-1.11-1.053c-.275-.45-.413-.969-.413-1.556 0-.587.138-1.106.412-1.556.275-.45.645-.798 1.11-1.042a3.26 3.26 0 0 1 1.557-.377c.893 0 1.572.293 2.037.88v-.789h1.694Zm-3.376 4.395c.473 0 .858-.138 1.155-.412.306-.283.458-.649.458-1.099 0-.45-.152-.813-.458-1.087-.297-.283-.682-.424-1.155-.424s-.862.141-1.168.424c-.305.274-.457.637-.457 1.087 0 .45.152.816.457 1.099.306.274.695.412 1.168.412Zm11.286-4.395V10h-1.705v-.71c-.443.535-1.084.802-1.923.802a3.23 3.23 0 0 1-1.58-.39 2.797 2.797 0 0 1-1.098-1.11c-.267-.48-.4-1.037-.4-1.67 0-.634.133-1.19.4-1.671.267-.481.633-.851 1.099-1.11.473-.26 1-.39 1.579-.39.786 0 1.4.248 1.843.744v-.652h1.785Zm-3.319 4.784c.45 0 .824-.153 1.122-.458.297-.313.446-.729.446-1.247 0-.52-.149-.931-.446-1.236a1.483 1.483 0 0 0-1.122-.47c-.458 0-.835.157-1.133.47-.297.305-.446.717-.446 1.236 0 .518.148.934.446 1.247.298.305.675.458 1.133.458Zm6.677-3.971c.214-.298.5-.523.858-.676a3.25 3.25 0 0 1 1.26-.228v1.647a6.45 6.45 0 0 0-.401-.022c-.512 0-.912.145-1.202.434-.29.283-.435.71-.435 1.282V10h-1.785V3.843h1.705v.813Zm-29.18 9.333c.709 0 1.323.118 1.842.355.526.236.93.572 1.213 1.007.282.435.423.95.423 1.545 0 .587-.141 1.102-.423 1.545-.283.435-.687.77-1.213 1.007-.52.229-1.133.343-1.843.343h-1.614V22h-1.853v-8.01h3.467Zm-.104 4.292c.557 0 .98-.119 1.27-.355.29-.244.435-.588.435-1.03 0-.45-.145-.794-.435-1.03-.29-.244-.713-.366-1.27-.366h-1.51v2.78h1.51Zm11.094-2.438V22h-1.693v-.732a2.43 2.43 0 0 1-.847.618 2.728 2.728 0 0 1-1.065.206c-.808 0-1.45-.233-1.922-.698-.473-.466-.71-1.156-.71-2.072v-3.479h1.786v3.216c0 .992.415 1.488 1.247 1.488.427 0 .77-.138 1.03-.412.26-.283.389-.699.389-1.248v-3.044h1.785Zm3.863 6.249c-.694 0-1.236-.184-1.625-.55-.39-.374-.584-.9-.584-1.58v-6.454h1.786v6.352c0 .26.064.462.194.607.137.137.328.206.572.206.092 0 .183-.012.275-.035.1-.023.175-.05.229-.08l.08 1.385c-.298.099-.607.149-.927.149Zm3.875 0c-.511 0-1.011-.061-1.5-.184-.488-.13-.877-.29-1.167-.48l.595-1.282c.275.175.607.32.996.435.39.107.77.16 1.145.16.755 0 1.132-.187 1.132-.56 0-.176-.102-.302-.309-.378-.206-.077-.522-.141-.95-.195a9.176 9.176 0 0 1-1.247-.263 1.975 1.975 0 0 1-.858-.526c-.237-.252-.355-.61-.355-1.076 0-.39.11-.733.332-1.03.229-.305.557-.542.984-.71.435-.168.946-.252 1.534-.252a5.7 5.7 0 0 1 1.293.15c.435.09.793.22 1.076.388l-.596 1.27a3.552 3.552 0 0 0-1.773-.457c-.382 0-.668.053-.859.16-.19.107-.286.244-.286.412 0 .19.103.324.31.4.205.077.533.15.983.218a9.68 9.68 0 0 1 1.236.275c.32.091.6.263.836.515s.355.602.355 1.053c0 .381-.115.72-.344 1.018-.229.298-.564.53-1.007.698-.435.16-.953.24-1.556.24Zm7.11-1.431c.32 0 .602-.046.846-.137.252-.1.485-.252.698-.458l.95 1.03c-.58.664-1.426.996-2.54.996-.695 0-1.309-.134-1.843-.401a3.017 3.017 0 0 1-1.236-1.133 3.106 3.106 0 0 1-.435-1.636c0-.603.142-1.145.424-1.625.29-.489.683-.867 1.178-1.134a3.479 3.479 0 0 1 1.694-.412 3.4 3.4 0 0 1 1.602.378c.481.244.863.603 1.145 1.076.29.465.435 1.018.435 1.66l-4.555.88c.13.306.332.535.606.687.283.153.626.229 1.03.229Zm-.264-3.56c-.45 0-.816.146-1.098.436-.283.29-.431.69-.447 1.201l2.999-.583a1.345 1.345 0 0 0-.515-.767 1.54 1.54 0 0 0-.939-.286Z"/></svg>