<svg xmlns="http://www.w3.org/2000/svg" width="141" height="23" fill="none"><path fill="#0098C7" d="M16.353 1.762c-.378.377-9.167 9.247-9.727 9.794-.488-.474-2.731-2.676-3.048-2.98-1.938-2.044-.402-5.549 2.438-5.549.768 0 1.853.305 2.475 1.144L7.21 5.534C6.65 5.023 6.296 4.9 6.016 4.9c-1.146 0-1.792 1.339-1.085 2.227l2.085 2.044c.158-.158 4.156-4.295 4.498-4.636-.878-2.53-3.17-4.015-5.84-3.881C.3.923-1.98 7.639 2.055 10.997c4.23 4.161.146.146 4.632 4.55 9.436-9.27 6.303-6.412 10.899-10.755 1.901-2.385 5.766-1.047 5.766 2.007 0 .767-.268 1.46-.707 2.008-.915.9-8.082 8.152-9.29 9.344l-1.267-1.253 9.265-9.405c.89-1.533-1.305-2.945-2.353-1.57-.207.207-10.837 10.695-11.02 10.865.268.268 5.205 5.11 5.46 5.366.05-.049 11.314-11.498 11.314-11.498a6.155 6.155 0 0 0 1.365-3.869c-.012-5.061-5.73-7.896-9.765-5.025Z"/><path fill="#fff" d="M39.32 17.442a9.82 9.82 0 0 1-2.678-.366c-.854-.256-1.542-.583-2.063-.982l.915-2.03c.5.366 1.093.66 1.78.882a6.687 6.687 0 0 0 2.063.333c.765 0 1.331-.111 1.697-.333.366-.233.55-.538.55-.915a.835.835 0 0 0-.334-.682 2.28 2.28 0 0 0-.831-.45c-.333-.11-.788-.232-1.365-.365-.887-.211-1.613-.422-2.18-.633a3.605 3.605 0 0 1-1.463-1.014c-.4-.466-.6-1.087-.6-1.864 0-.676.184-1.286.55-1.83.366-.555.915-.993 1.647-1.314.743-.322 1.647-.483 2.712-.483.743 0 1.47.089 2.18.266.71.178 1.33.433 1.863.766l-.832 2.046c-1.076-.61-2.152-.915-3.228-.915-.754 0-1.314.122-1.68.366-.355.244-.533.566-.533.965 0 .4.206.699.616.898.422.189 1.06.377 1.913.566.888.21 1.614.422 2.18.632.566.211 1.048.544 1.447.999.41.454.616 1.07.616 1.846 0 .666-.189 1.276-.566 1.83-.366.544-.92.976-1.664 1.298-.743.322-1.647.483-2.711.483Zm15.618-9.15v8.95h-2.462v-1.065a3.532 3.532 0 0 1-1.232.899c-.477.2-.992.299-1.547.299-1.175 0-2.107-.338-2.795-1.015-.688-.676-1.031-1.68-1.031-3.011V8.29h2.595v4.675c0 1.442.605 2.163 1.813 2.163.622 0 1.12-.2 1.498-.599.377-.41.566-1.015.566-1.813V8.29h2.595Zm11.638 0v7.453c0 1.641-.427 2.861-1.281 3.66-.854.798-2.102 1.198-3.743 1.198a9.364 9.364 0 0 1-2.463-.316c-.776-.211-1.42-.516-1.93-.915l1.032-1.864c.377.31.854.555 1.43.732a5.542 5.542 0 0 0 1.731.283c.898 0 1.558-.205 1.98-.616.432-.399.649-1.009.649-1.83v-.382c-.677.743-1.62 1.114-2.829 1.114a4.86 4.86 0 0 1-2.262-.532 4.197 4.197 0 0 1-1.614-1.53c-.4-.655-.6-1.41-.6-2.263 0-.854.2-1.609.6-2.263.4-.654.937-1.16 1.614-1.514a4.74 4.74 0 0 1 2.262-.549c1.298 0 2.285.427 2.962 1.281V8.291h2.462Zm-4.908 6.388c.688 0 1.248-.2 1.68-.6.444-.41.666-.942.666-1.596 0-.655-.222-1.182-.665-1.58-.433-.411-.993-.616-1.68-.616-.689 0-1.254.205-1.698.615-.444.4-.665.926-.665 1.58 0 .655.221 1.188.665 1.598.444.4 1.01.599 1.697.599ZM78.076 8.29v8.95h-2.48v-1.03c-.643.776-1.574 1.164-2.794 1.164-.843 0-1.609-.189-2.296-.566a4.066 4.066 0 0 1-1.597-1.613c-.389-.7-.583-1.509-.583-2.43 0-.92.194-1.73.583-2.428a4.066 4.066 0 0 1 1.597-1.614c.687-.377 1.453-.566 2.296-.566 1.142 0 2.035.36 2.678 1.081v-.948h2.596Zm-4.825 6.954c.654 0 1.198-.221 1.63-.665.433-.455.65-1.06.65-1.813 0-.755-.217-1.354-.65-1.797-.432-.455-.976-.682-1.63-.682-.666 0-1.215.227-1.647.682-.433.443-.649 1.042-.649 1.796 0 .755.216 1.36.649 1.814.432.444.981.665 1.647.665Zm9.707-5.773c.31-.432.726-.76 1.247-.981.533-.222 1.143-.333 1.83-.333v2.396a9.362 9.362 0 0 0-.582-.034c-.743 0-1.325.211-1.747.633-.421.41-.632 1.031-.632 1.863v4.226h-2.595v-8.95h2.479v1.18ZM97.58 5.596c1.031 0 1.924.172 2.678.516.765.343 1.353.831 1.764 1.464.41.632.615 1.38.615 2.246 0 .854-.205 1.602-.615 2.246-.411.632-.999 1.12-1.764 1.464-.754.333-1.647.499-2.678.499h-2.346v3.21h-2.695V5.597h5.04Zm-.15 6.239c.81 0 1.425-.172 1.847-.516.421-.355.632-.854.632-1.497 0-.655-.211-1.154-.632-1.498-.422-.355-1.037-.532-1.847-.532h-2.196v4.043h2.196Zm16.128-3.544v8.95h-2.462v-1.064a3.533 3.533 0 0 1-1.231.899c-.477.2-.993.299-1.547.299-1.176 0-2.108-.338-2.795-1.015-.688-.676-1.032-1.68-1.032-3.011V8.29h2.595v4.675c0 1.442.605 2.163 1.814 2.163.621 0 1.12-.2 1.497-.599.377-.41.566-1.015.566-1.813V8.29h2.595Zm5.616 9.084c-1.009 0-1.797-.266-2.363-.799-.565-.543-.848-1.308-.848-2.296V4.898h2.595v9.234c0 .377.095.67.283.881.2.2.477.3.832.3.133 0 .266-.017.399-.05.144-.033.255-.072.333-.116l.116 2.013a4.229 4.229 0 0 1-1.347.216Zm5.633 0c-.743 0-1.47-.089-2.179-.266-.71-.189-1.276-.422-1.697-.699l.865-1.863c.399.255.881.465 1.447.632.566.155 1.12.233 1.664.233 1.098 0 1.647-.272 1.647-.815 0-.255-.15-.438-.449-.55-.3-.11-.76-.205-1.381-.282a13.332 13.332 0 0 1-1.814-.383 2.864 2.864 0 0 1-1.247-.765c-.344-.366-.516-.888-.516-1.564 0-.566.161-1.065.482-1.497.333-.444.81-.788 1.431-1.032.632-.244 1.375-.366 2.229-.366.633 0 1.259.072 1.88.216.633.133 1.154.322 1.564.566l-.865 1.847a5.163 5.163 0 0 0-2.579-.666c-.554 0-.97.078-1.247.233-.278.155-.416.355-.416.599 0 .277.149.471.449.582.299.111.776.217 1.431.316.732.122 1.331.256 1.797.4.465.133.87.382 1.214.748.344.367.516.877.516 1.531 0 .555-.167 1.048-.499 1.48-.333.433-.821.772-1.464 1.016-.633.233-1.387.349-2.263.349Zm10.336-2.08c.466 0 .876-.066 1.231-.2a3.097 3.097 0 0 0 1.015-.665l1.381 1.498c-.843.965-2.074 1.447-3.694 1.447-1.009 0-1.902-.194-2.678-.582-.777-.4-1.376-.949-1.797-1.647-.422-.7-.632-1.492-.632-2.38 0-.876.205-1.663.615-2.362a4.372 4.372 0 0 1 1.714-1.647c.732-.4 1.553-.599 2.462-.599.854 0 1.631.183 2.329.549a4.03 4.03 0 0 1 1.664 1.564c.422.676.632 1.48.632 2.412l-6.621 1.281c.188.444.482.777.882.999.41.222.909.332 1.497.332Zm-.383-5.174c-.654 0-1.187.21-1.597.632-.41.422-.627 1.004-.649 1.747l4.359-.848a1.956 1.956 0 0 0-.748-1.115c-.378-.277-.832-.416-1.365-.416Z"/></svg>