<svg xmlns="http://www.w3.org/2000/svg" width="14" height="9" fill="none"><path fill="#0098C7" d="M12.413 3.845c.2-.257.357-.463.474-.62.84-1.117 1.205-1.83 1.093-2.142l-.043-.073c-.03-.044-.105-.084-.226-.12a1.153 1.153 0 0 0-.467-.019l-2.1.015a.597.597 0 0 0-.24.025l-.036.019-.03.021a.324.324 0 0 0-.08.077.496.496 0 0 0-.072.128 11.892 11.892 0 0 1-.78 1.64c-.18.301-.345.563-.496.783a3.74 3.74 0 0 1-.379.489 2.63 2.63 0 0 1-.277.251c-.083.064-.146.09-.19.08a3.637 3.637 0 0 1-.123-.029.481.481 0 0 1-.164-.178.801.801 0 0 1-.084-.285 3.066 3.066 0 0 1-.026-.295c-.002-.083 0-.199.004-.35.005-.15.007-.252.007-.306 0-.184.004-.385.011-.601l.019-.514c.004-.126.007-.26.007-.401 0-.14-.009-.252-.026-.332a1.162 1.162 0 0 0-.076-.233.391.391 0 0 0-.15-.175.843.843 0 0 0-.244-.098 4.857 4.857 0 0 0-.984-.095C5.831.497 5.25.556 4.993.682A.984.984 0 0 0 4.716.9c-.088.107-.1.165-.036.174.291.044.498.149.619.314l.044.087c.034.064.068.175.102.336a3.4 3.4 0 0 1 .066.532c.024.355.024.658 0 .911-.025.253-.048.45-.07.59a1.182 1.182 0 0 1-.186.503.128.128 0 0 1-.036.037.547.547 0 0 1-.197.036c-.068 0-.15-.034-.248-.102a1.724 1.724 0 0 1-.302-.28 3.73 3.73 0 0 1-.354-.5 8.658 8.658 0 0 1-.408-.758l-.116-.211a17.88 17.88 0 0 1-.3-.594c-.126-.26-.238-.512-.335-.755a.483.483 0 0 0-.175-.233L2.748.966a.785.785 0 0 0-.284-.11L.466.872c-.204 0-.342.047-.415.139l-.029.044A.235.235 0 0 0 0 1.17c0 .054.015.12.044.197.291.685.609 1.346.951 1.983.343.636.64 1.149.893 1.538s.51.755.773 1.1c.262.346.436.566.52.664.086.097.153.17.201.218l.182.175c.117.117.288.257.514.42.226.162.476.323.751.48.275.159.594.287.959.387.364.1.719.14 1.064.12h.838c.17-.014.299-.068.386-.16l.03-.037a.494.494 0 0 0 .054-.134.746.746 0 0 0 .026-.2c-.005-.21.01-.398.047-.566.037-.167.078-.294.124-.379a.931.931 0 0 1 .28-.32.593.593 0 0 1 .06-.026c.116-.039.253-.001.41.113.159.114.307.255.446.423.138.167.304.356.499.565.194.209.364.364.51.466l.146.088c.097.058.223.111.379.16.155.049.292.06.408.037l1.866-.03c.185 0 .328-.03.43-.09.102-.061.163-.128.182-.201a.566.566 0 0 0 .004-.248.908.908 0 0 0-.05-.193 1.018 1.018 0 0 0-.048-.091c-.243-.437-.707-.974-1.393-1.611l-.014-.014-.007-.008-.008-.007h-.007a8.382 8.382 0 0 1-.59-.598c-.151-.194-.185-.39-.102-.59.058-.151.276-.47.655-.956Z"/></svg>