<svg xmlns="http://www.w3.org/2000/svg" width="50" height="50" fill="none"><path fill="#0098C7" fill-opacity=".1" d="M46.875 15.625v31.25H12.5v-4.844l20.063.125a5.201 5.201 0 0 0 5.234-5.172l.062-10.172a5.202 5.202 0 0 0-5.172-5.234L12.5 21.453V3.125h21.875l12.5 12.5Z"/><path fill="#0098C7" d="M46.875 15.625h-12.5v-12.5l12.5 12.5ZM37.86 26.813l-.063 10.171a5.201 5.201 0 0 1-5.234 5.172L12.5 42.031l-1.25-.015a5.198 5.198 0 0 1-5.172-5.219l.063-10.187a5.208 5.208 0 0 1 5.234-5.157H12.5l20.188.125a5.201 5.201 0 0 1 5.171 5.235Z"/><path fill="#fff" d="M10.606 28.128h2.891c.652 0 1.147.05 1.49.15.458.134.852.375 1.18.72.327.346.577.769.749 1.269.17.5.256 1.117.256 1.85 0 .645-.081 1.2-.24 1.666-.196.57-.476 1.03-.838 1.382-.275.268-.645.475-1.111.625-.35.111-.816.166-1.4.166h-2.977v-7.828Zm1.582 1.325v5.186h1.18c.442 0 .76-.025.956-.075.256-.064.47-.172.637-.325.169-.153.308-.405.416-.755.106-.351.16-.83.16-1.434 0-.605-.052-1.07-.16-1.394-.108-.323-.257-.576-.449-.758a1.505 1.505 0 0 0-.733-.369c-.22-.05-.653-.075-1.296-.075l-.711-.001ZM18.19 32.09c0-.796.12-1.467.359-2.007.176-.399.422-.757.73-1.074a3.017 3.017 0 0 1 1.01-.704c.488-.207 1.05-.31 1.688-.31 1.153 0 2.076.358 2.769 1.074.69.715 1.037 1.71 1.037 2.985 0 1.265-.344 2.254-1.03 2.968-.687.714-1.606 1.07-2.756 1.07-1.164 0-2.09-.355-2.776-1.066-.688-.71-1.03-1.69-1.03-2.936Zm1.63-.053c0 .886.205 1.56.615 2.016.41.458.93.686 1.559.686.63 0 1.147-.228 1.552-.681.404-.455.606-1.136.606-2.044 0-.897-.197-1.566-.59-2.008-.393-.442-.916-.662-1.568-.662-.651 0-1.177.223-1.575.67-.4.448-.598 1.122-.598 2.023ZM32.028 33.078l1.532.486c-.235.855-.625 1.489-1.172 1.905-.547.414-1.24.621-2.08.621-1.04 0-1.895-.354-2.564-1.065-.67-.71-1.005-1.681-1.005-2.913 0-1.303.336-2.314 1.01-3.036.673-.72 1.557-1.08 2.654-1.08.957 0 1.735.282 2.333.848.358.334.624.815.802 1.442l-1.564.373c-.094-.406-.288-.726-.58-.96-.294-.235-.65-.354-1.072-.354-.58 0-1.052.208-1.412.625-.36.417-.543 1.09-.543 2.024 0 .989.178 1.693.535 2.115.358.42.819.63 1.389.63a1.58 1.58 0 0 0 1.084-.4c.303-.267.52-.688.653-1.261Z"/></svg>