<svg xmlns="http://www.w3.org/2000/svg" width="50" height="50" fill="none"><path fill="#0098C7" fill-opacity=".1" d="M46.875 15.625v31.25H12.5v-4.844l20.063.125a5.201 5.201 0 0 0 5.234-5.172l.062-10.172a5.202 5.202 0 0 0-5.172-5.234L12.5 21.453V3.125h21.875l12.5 12.5Z"/><path fill="#0098C7" d="M46.875 15.625h-12.5v-12.5l12.5 12.5ZM37.86 26.813l-.063 10.171a5.201 5.201 0 0 1-5.234 5.172L12.5 42.031l-1.25-.015a5.198 5.198 0 0 1-5.172-5.219l.063-10.187a5.208 5.208 0 0 1 5.234-5.157H12.5l20.188.125a5.201 5.201 0 0 1 5.171 5.235Z"/><path fill="#fff" d="m16.53 33.08 1.531.486c-.234.854-.625 1.489-1.172 1.904-.547.416-1.24.622-2.08.622-1.04 0-1.895-.356-2.564-1.067-.67-.71-1.004-1.68-1.004-2.912 0-1.303.336-2.314 1.01-3.036.673-.72 1.557-1.08 2.654-1.08.956 0 1.734.283 2.333.849.357.335.623.815.801 1.442l-1.564.373c-.094-.406-.287-.726-.58-.96-.293-.235-.65-.354-1.072-.354-.58 0-1.051.21-1.412.625-.36.417-.542 1.09-.542 2.023 0 .991.178 1.696.534 2.116.358.422.819.63 1.39.63a1.58 1.58 0 0 0 1.084-.4c.303-.267.52-.69.653-1.261ZM19.019 33.411l1.538-.15c.092.516.28.896.562 1.138.284.242.666.362 1.145.362.508 0 .893-.106 1.15-.323.258-.216.388-.467.388-.755a.722.722 0 0 0-.163-.473c-.107-.13-.296-.242-.568-.34-.185-.063-.608-.176-1.266-.341-.849-.21-1.442-.47-1.784-.774-.482-.431-.722-.956-.722-1.576 0-.399.112-.772.34-1.12.227-.348.552-.612.977-.793.425-.181.939-.272 1.54-.272.983 0 1.724.216 2.22.646.496.43.755 1.006.782 1.724l-1.581.07c-.069-.402-.214-.691-.435-.87-.223-.174-.556-.264-1.003-.264-.459 0-.817.096-1.078.285a.572.572 0 0 0-.25.486c0 .186.078.343.235.476.198.166.684.343 1.453.524.768.181 1.337.368 1.706.562.369.194.658.46.866.796.209.337.312.751.312 1.248 0 .448-.125.869-.373 1.26-.25.392-.604.684-1.058.874-.456.191-1.024.286-1.705.286-.989 0-1.75-.228-2.28-.686-.53-.458-.846-1.125-.948-2ZM26.314 33.411l1.538-.15c.092.516.28.896.562 1.138.284.242.666.362 1.145.362.508 0 .892-.106 1.15-.323.258-.216.388-.467.388-.755a.722.722 0 0 0-.163-.473c-.108-.13-.297-.242-.569-.34-.184-.063-.607-.176-1.265-.341-.849-.21-1.442-.47-1.785-.774-.48-.431-.721-.956-.721-1.576 0-.399.112-.772.34-1.12.227-.348.552-.612.977-.793.425-.181.939-.272 1.54-.272.983 0 1.724.216 2.22.646.496.43.755 1.006.782 1.724l-1.581.07c-.069-.402-.214-.691-.435-.87-.223-.174-.556-.264-1.003-.264-.46 0-.817.096-1.078.285a.572.572 0 0 0-.25.486c0 .186.078.343.234.476.199.166.685.343 1.454.524.768.181 1.337.368 1.706.562.369.194.658.46.865.796.21.337.313.751.313 1.248 0 .448-.125.869-.373 1.26-.25.392-.604.684-1.058.874-.456.191-1.024.286-1.705.286-.989 0-1.75-.228-2.28-.686-.53-.458-.846-1.125-.948-2Z"/></svg>