<svg xmlns="http://www.w3.org/2000/svg" width="50" height="50" fill="none"><path fill="#0098C7" fill-opacity=".1" d="M46.875 15.625v31.25H12.5v-4.844l20.063.125a5.201 5.201 0 0 0 5.234-5.172l.062-10.172a5.202 5.202 0 0 0-5.172-5.234L12.5 21.453V3.125h21.875l12.5 12.5Z"/><path fill="#0098C7" d="M46.875 15.625h-12.5v-12.5l12.5 12.5ZM37.86 26.813l-.063 10.171a5.201 5.201 0 0 1-5.234 5.172L12.5 42.031l-1.25-.015a5.198 5.198 0 0 1-5.172-5.219l.063-10.187a5.208 5.208 0 0 1 5.234-5.157H12.5l20.188.125a5.201 5.201 0 0 1 5.171 5.235Z"/><path fill="#fff" d="m15.925 33.08 1.533.486c-.235.854-.625 1.489-1.172 1.904-.549.416-1.24.622-2.082.622-1.039 0-1.893-.356-2.564-1.067-.668-.71-1.004-1.68-1.004-2.912 0-1.303.337-2.314 1.01-3.036.673-.72 1.557-1.08 2.652-1.08.958 0 1.736.283 2.335.849.356.335.622.815.801 1.442l-1.565.373c-.093-.406-.286-.726-.579-.96-.293-.235-.651-.354-1.071-.354-.582 0-1.052.21-1.413.625-.36.416-.542 1.09-.542 2.023 0 .991.176 1.696.534 2.116.357.422.817.63 1.39.63.42 0 .78-.133 1.082-.4.308-.267.524-.69.655-1.261ZM18.81 28.128h2.89c.651 0 1.147.05 1.489.15.46.136.853.375 1.181.722.327.345.577.767.748 1.269.172.501.257 1.117.257 1.851 0 .644-.081 1.2-.24 1.666-.196.569-.476 1.03-.838 1.383-.275.267-.646.476-1.111.625-.35.109-.816.164-1.4.164H18.81l-.002-7.83Zm1.58 1.325v5.186h1.182c.44 0 .759-.027.954-.075.256-.064.47-.172.638-.327.168-.153.308-.404.415-.754.108-.35.161-.828.161-1.435 0-.604-.053-1.07-.16-1.394-.107-.325-.257-.576-.449-.757a1.505 1.505 0 0 0-.733-.37c-.22-.047-.653-.074-1.297-.074h-.71ZM26.72 35.958v-7.83h3.327c.837 0 1.445.07 1.825.21.378.143.683.393.91.75.227.36.341.771.341 1.235 0 .588-.171 1.074-.517 1.455-.347.383-.862.623-1.548.725.342.198.623.419.847.656.221.24.521.663.898 1.27l.956 1.529h-1.89l-1.142-1.703c-.407-.61-.685-.994-.833-1.152a1.205 1.205 0 0 0-.477-.325c-.166-.06-.431-.09-.795-.09h-.32v3.27H26.72Zm1.58-4.52h1.169c.758 0 1.232-.032 1.42-.096a.843.843 0 0 0 .444-.331c.106-.156.16-.353.16-.588 0-.262-.07-.476-.21-.637-.143-.163-.34-.264-.597-.306-.128-.02-.513-.029-1.153-.029H28.3v1.988Z"/></svg>