<svg xmlns="http://www.w3.org/2000/svg" width="50" height="50" fill="none"><path fill="#0098C7" fill-opacity=".1" d="M46.875 15.625v31.25H12.5v-4.844l20.063.125a5.201 5.201 0 0 0 5.234-5.172l.062-10.172a5.202 5.202 0 0 0-5.172-5.234L12.5 21.453V3.125h21.875l12.5 12.5Z"/><path fill="#0098C7" d="M46.875 15.625h-12.5v-12.5l12.5 12.5ZM37.86 26.813l-.063 10.171a5.201 5.201 0 0 1-5.234 5.172L12.5 42.031l-1.25-.015a5.198 5.198 0 0 1-5.172-5.219l.063-10.187a5.208 5.208 0 0 1 5.234-5.157H12.5l20.188.125a5.201 5.201 0 0 1 5.171 5.235Z"/><path fill="#fff" d="M11.52 35.959v-7.83h2.538c.96 0 1.588.039 1.88.117.448.117.823.373 1.126.766.303.393.455.901.455 1.526 0 .482-.088.885-.261 1.211a2.151 2.151 0 0 1-.664.772c-.269.186-.542.311-.82.37-.378.075-.924.113-1.64.113h-1.03v2.953H11.52v.002Zm1.58-6.505v2.222h.866c.623 0 1.04-.04 1.25-.122.21-.083.375-.211.494-.384.12-.176.18-.379.18-.61 0-.286-.085-.52-.252-.704-.168-.187-.38-.3-.636-.349-.19-.036-.567-.053-1.138-.053H13.1ZM18.414 33.411l1.538-.15c.092.516.28.896.562 1.138.284.242.666.362 1.145.362.51 0 .893-.106 1.15-.323.26-.216.388-.467.388-.755a.722.722 0 0 0-.163-.473c-.107-.13-.296-.242-.568-.34a21.02 21.02 0 0 0-1.266-.341c-.847-.21-1.442-.47-1.784-.774-.482-.431-.72-.956-.72-1.576 0-.399.112-.772.338-1.12.227-.348.552-.612.977-.793.425-.181.939-.272 1.54-.272.983 0 1.724.216 2.22.646.496.43.757 1.006.782 1.724l-1.581.07c-.067-.402-.213-.691-.434-.87-.224-.174-.557-.264-1.002-.264-.46 0-.819.096-1.078.285a.57.57 0 0 0-.252.486c0 .186.078.343.235.476.198.166.684.343 1.453.524s1.337.368 1.706.562c.369.194.658.46.866.796.209.337.312.751.312 1.248 0 .448-.125.869-.373 1.26a2.25 2.25 0 0 1-1.058.874c-.456.191-1.024.286-1.703.286-.99 0-1.75-.228-2.28-.686-.53-.458-.847-1.125-.95-2ZM26.105 28.129h2.89c.65 0 1.148.05 1.49.15.46.136.853.375 1.18.722.326.345.576.767.748 1.268.172.502.256 1.118.256 1.852 0 .644-.08 1.2-.24 1.666-.196.569-.476 1.03-.84 1.383-.273.267-.645.476-1.11.624-.349.11-.816.165-1.4.165h-2.976v-7.83h.002Zm1.581 1.325v5.186h1.18c.442 0 .76-.027.956-.075.256-.064.469-.172.638-.327.168-.153.308-.404.414-.754.106-.35.16-.828.16-1.435 0-.604-.052-1.07-.16-1.393-.106-.325-.256-.577-.449-.758a1.506 1.506 0 0 0-.73-.37c-.221-.047-.654-.074-1.3-.074h-.709Z"/></svg>